<svg width="699" height="717" viewBox="0 0 699 717" fill="none" xmlns="http://www.w3.org/2000/svg">
<g clip-path="url(#clip0)">
<path d="M582.567 456.946C578.054 456.946 573.114 457.058 567.821 457.373C570.291 444.944 572.092 434.373 571.535 432.366C570.217 426.997 559.872 361.339 553.91 348.594C547.949 335.849 533.073 304.005 527.055 302.593C521.038 301.181 534.187 343.467 534.187 343.467C534.187 343.467 506.979 301.813 501.611 303.113C496.244 304.414 500.85 323.197 500.85 323.197L510.34 339.918L489.744 328.771L489.484 329.254C486.345 327.953 483.689 327.21 482.278 327.563C476.929 328.864 481.572 336.258 482.278 338.933C482.984 341.609 503.283 355.227 503.283 355.227C503.283 355.227 477.969 357.196 478.619 359.89C479.269 362.584 480.588 367.935 491.954 367.991L509.3 380.81C509.3 380.81 517.156 412.97 529.841 418.395L517.045 464.656C495.576 469.58 480.755 475.804 480.347 480.783L479.715 481.173C476.502 483.365 428.159 727.064 428.159 727.064L539.387 747.816C539.387 747.816 562.806 658.043 582.567 579.306V456.946Z" fill="#FFE791"/>
<path d="M146.31 541.034L146.849 540.551C146.236 534.55 166.127 522.753 193.78 512.367L193.669 466.626C191.861 462.917 189.589 459.452 186.909 456.315C184.141 453.547 164.827 431.475 164.827 431.475C165.774 420.123 186.909 431.475 186.909 431.475C186.909 431.475 178.663 406.208 175.264 390.49C171.865 374.772 178.886 371.298 183.213 375.627C187.54 379.956 198.312 415.404 198.312 415.404L200.485 414.457C200.485 414.457 196.25 375.441 200.708 362.436C205.165 349.431 211.257 365.706 212.037 380.55C212.817 395.395 215.324 413.732 215.324 413.732C215.324 413.732 220.895 371.874 221.713 369.254C222.53 366.635 228.714 365.817 230.386 378.042C232.057 390.267 229.271 415.571 229.271 415.571C229.271 415.571 239.115 378.098 245.986 383.374C252.858 388.651 241.455 422.687 241.455 422.687C241.455 422.687 248.698 467.555 232.893 479.65H232.782L233.004 500.347C247.305 497.04 258.875 495.758 265.041 496.835C267.604 496.835 269.628 497.634 270.464 499.622C273.993 507.964 253.916 792.201 253.916 792.201H140.85C140.85 792.201 143.543 543.802 146.31 541.034Z" fill="#FFE791"/>
<path d="M260.547 544.23L261.048 543.691C259.897 537.783 278.673 524.257 305.287 511.456L301.145 465.901C299.008 462.363 296.431 459.111 293.475 456.222C290.485 453.732 269.331 433.444 269.331 433.444C269.331 422.055 291.321 431.586 291.321 431.586C291.321 431.586 280.865 407.155 276.092 391.79C271.319 376.426 277.949 372.357 282.703 376.351C287.458 380.346 301.275 414.642 301.275 414.642L303.374 413.509C303.374 413.509 295.685 375.032 298.954 361.618C302.222 348.204 309.763 363.922 311.954 378.655C314.146 393.388 318.176 411.409 318.176 411.409C318.176 411.409 327.053 415.125 333.033 416.983C333.888 417.41 334.742 417.819 335.578 418.265C336.859 418.971 338.122 419.696 339.292 420.495L339.924 420.903L340.444 421.312C342.644 422.963 344.723 424.77 346.665 426.718L346.832 426.886C349.247 440.485 352.014 465.901 341.502 475.451H341.391L343.452 496.073C357.418 491.503 368.822 489.199 375.025 489.719C377.569 489.571 379.668 490.109 380.596 492.004C384.849 500.012 390.049 784.918 390.049 784.918L277.354 794.951C277.354 794.951 258.058 547.165 260.547 544.23Z" fill="#FFE791"/>
<path d="M425.002 534.16C424.556 529.292 416.682 510.546 413.246 507.091C410.479 504.341 392.445 489.181 392.445 489.181C393.392 477.848 416.719 489.181 416.719 489.181C416.719 489.181 408.473 463.932 405.074 448.196C401.676 432.46 406.504 429.023 410.832 433.333C415.159 437.643 425.931 473.11 425.931 473.11L428.104 472.181C428.104 472.181 423.869 433.166 428.326 420.16C432.784 407.155 438.875 423.43 439.655 438.256C440.435 453.082 442.943 471.457 442.943 471.457C442.943 471.457 448.514 429.598 449.331 426.979C450.056 424.861 454.216 423.913 456.667 430.174C457.323 431.975 457.772 433.845 458.004 435.748C459.676 447.973 455.869 478.609 455.869 478.609C455.869 478.609 466.733 435.878 473.679 441.08C480.625 446.282 469.073 480.319 469.073 480.319C469.073 480.319 466.789 526.766 460.512 537.3L426.748 553.389L425.002 534.16Z" fill="#FF8169"/>
<path d="M460.233 525.317L460.865 583.115L421.381 582.391L421.213 504.954L460.233 525.317Z" fill="#FF8169"/>
<path d="M498.046 557.421C495.539 551.457 482.39 556.77 475.982 557.421C448.384 560.17 383.642 589.005 373.836 598.814C371.069 601.583 368.265 850 368.265 850H481.387C481.387 850 501.574 565.744 498.046 557.421Z" fill="#FF961C"/>
<path d="M374.542 598.87C376.733 605.373 406.021 601.341 439.952 589.878C473.884 578.415 499.606 563.868 497.414 557.365C495.223 550.862 465.935 554.876 432.004 566.339C398.073 577.802 372.35 592.368 374.542 598.87Z" fill="#FF961C"/>
<path d="M373.279 620.217C372.016 616.502 377.272 611.281 388.879 604.723C416.226 590.324 445.692 580.378 476.168 575.257C489.391 573.399 496.727 574.402 497.971 578.118L496.226 578.712C495.538 576.706 490.004 575.238 476.428 577.096C446.157 582.184 416.887 592.055 389.715 606.339C377.81 613.083 374.282 617.616 374.969 619.623L373.279 620.217Z" fill="#D28000"/>
<path d="M460.4 558.089L460.01 537.263V537.151C466.696 526.004 468.386 481.322 468.404 480.876L473.883 459.993L474.793 460.235L469.221 481.006C469.221 482.752 467.531 526.022 460.771 537.504L461.161 558.071L460.4 558.089Z" fill="#232323"/>
<path d="M456.277 478.758L455.367 478.646L456.351 469.58C456.351 469.394 457.54 447.954 457.54 439.333C457.54 430.713 454.439 427.647 454.401 427.61L455.051 426.96C455.2 427.109 458.469 430.49 458.469 439.333C458.469 448.177 457.299 469.45 457.28 469.654L456.277 478.758Z" fill="#232323"/>
<path d="M120.235 518.888C120.235 518.888 117.468 438.851 114.664 433.314C111.859 427.778 100.92 372.524 100.92 364.312C100.92 356.101 120.235 314.633 123.003 311.864C125.77 309.096 128.574 325.668 128.574 325.668C128.574 325.668 139.606 309.115 150.638 306.346C161.669 303.578 164.437 303.597 164.437 309.115C164.437 314.633 150.638 339.472 150.638 339.472L147.833 383.672C147.833 383.672 156.098 361.6 161.632 361.6C167.167 361.6 169.897 367.174 169.897 369.867C169.897 372.561 161.632 397.476 161.632 397.476L153.349 449.924L158.921 529.961L120.235 518.888Z" fill="#FF9C8A"/>
<path d="M130.357 382.297L129.428 382.223L133.625 333.713L146.05 313.017L146.849 313.5L134.48 334.104L130.357 382.297Z" fill="#232323"/>
<path d="M140.219 381.888L139.29 381.795L144.88 331.911L157.101 312.998L157.881 313.499L145.716 332.32L140.219 381.888Z" fill="#232323"/>
<path d="M119.325 382.259H118.396L118.415 354.521L126.698 326.913L127.571 327.192L119.325 354.726V382.259Z" fill="#232323"/>
<path d="M145.032 380.406L111.924 383.199L112.002 384.124L145.11 381.332L145.032 380.406Z" fill="#232323"/>
<path d="M139.996 405.892L139.123 405.557L146.96 384.637L117.709 400.615L117.264 399.798L148.706 382.631L139.996 405.892Z" fill="#232323"/>
<path d="M76.0893 455.405C78.5965 449.441 91.7641 454.773 98.1714 455.405C125.751 458.173 190.493 486.989 200.317 496.817C203.066 499.566 205.889 747.984 205.889 747.984H92.5627C92.5627 747.984 72.5606 463.765 76.0893 455.405Z" fill="#FFB423"/>
<path d="M199.6 496.853C201.795 490.35 176.073 475.787 142.148 464.326C108.223 452.865 78.9418 448.846 76.7463 455.35C74.5508 461.854 100.273 476.417 134.198 487.878C168.123 499.338 197.404 503.357 199.6 496.853Z" fill="#FFB423"/>
<path d="M200.875 518.22L199.111 517.625C200.838 512.46 177.92 498.322 142.225 486.264C106.529 474.206 79.7299 471.55 78.0027 476.714L76.1455 476.101C78.9127 467.89 112.528 474.243 142.726 484.518C172.924 494.792 203.642 510.008 200.875 518.22Z" fill="#FF9B00"/>
<path d="M360.167 476.176C360.167 476.176 362.823 408.344 360.557 403.31C358.291 398.275 336.042 335.627 327.833 324.22C319.624 312.812 299.158 284.164 292.992 283.922C286.826 283.68 307.516 322.789 307.516 322.789C307.516 322.789 273.12 286.857 268.087 289.124C263.054 291.391 271.021 309.003 271.021 309.003L284.022 324.35C284.022 324.35 258.615 314.447 253.582 316.714C248.549 318.98 254.492 325.409 255.625 327.861C256.758 330.313 279.267 340.012 279.267 340.012C279.267 340.012 254.734 346.607 255.867 349.134C257 351.66 259.284 356.677 270.483 354.707L289.872 364.127C289.872 364.127 303.504 394.317 316.969 397.309L307.813 504.434L360.167 476.176Z" fill="#754D46"/>
<path d="M403.366 426.775C400.858 420.811 387.709 426.143 381.302 426.775C353.704 429.543 288.962 458.359 279.156 468.187C276.389 470.937 273.584 719.373 273.584 719.373H386.707C386.707 719.373 406.894 435.135 403.366 426.775Z" fill="#FFDA56"/>
<path d="M279.862 468.223C282.053 474.726 311.434 470.713 345.272 459.25C379.111 447.787 404.926 433.24 402.734 426.718C400.543 420.197 371.255 424.247 337.323 435.711C303.392 447.174 277.67 461.702 279.862 468.223Z" fill="#FFDA56"/>
<path d="M278.599 489.571C277.336 485.855 282.592 480.634 294.199 474.057C321.555 459.681 351.017 449.735 381.488 444.591C394.711 442.734 402.047 443.737 403.291 447.471L401.545 448.066C400.858 446.059 395.287 444.573 381.748 446.431C351.533 451.557 322.319 461.426 295.184 475.674C283.279 482.418 279.75 486.97 280.437 488.976L278.599 489.571Z" fill="#FFAB29"/>
<path d="M279.432 339.611L279.017 340.442L295.579 348.725L295.994 347.894L279.432 339.611Z" fill="#232323"/>
<path d="M261.075 316.578L260.792 317.462L302.525 330.802L302.808 329.917L261.075 316.578Z" fill="#232323"/>
<path d="M591.221 454.271C591.667 449.403 598.26 437.55 601.696 434.132C604.463 431.382 623.778 409.292 623.778 409.292C622.831 397.959 601.696 409.292 601.696 409.292C601.696 409.292 609.942 384.043 613.341 368.307C616.739 352.571 609.626 349.134 605.392 353.444C601.157 357.754 590.293 393.277 590.293 393.277L588.12 392.348C588.12 392.348 592.354 353.332 587.897 340.327C583.44 327.322 577.348 343.578 576.568 358.423C575.788 373.267 573.281 391.623 573.281 391.623C573.281 391.623 567.709 349.765 566.892 347.146C566.075 344.526 559.89 343.69 558.219 355.933C556.547 368.177 559.333 393.444 559.333 393.444C559.333 393.444 549.49 355.971 542.618 361.266C535.747 366.56 547.15 400.393 547.15 400.393C547.15 400.393 539.907 445.279 555.712 457.355L589.494 473.463L591.221 454.271Z" fill="#FFB8AB"/>
<path d="M555.953 445.353L555.322 503.133L594.806 502.427L594.973 424.991L555.953 445.353Z" fill="#FFB8AB"/>
<path d="M518.141 477.439C520.648 471.494 533.797 476.807 540.204 477.439C567.802 480.207 632.544 509.023 642.35 518.851C645.118 521.619 647.922 770.037 647.922 770.037H534.688C534.688 770.037 514.612 485.855 518.141 477.439Z" fill="#FFDA56"/>
<path d="M641.647 518.923C643.842 512.42 618.12 497.856 584.195 486.396C550.27 474.935 520.989 470.916 518.793 477.42C516.598 483.924 542.32 498.487 576.245 509.947C610.17 521.408 639.451 525.427 641.647 518.923Z" fill="#FFDA56"/>
<path d="M642.907 540.254L641.161 539.659C641.83 537.653 638.301 533.101 626.397 526.357C612.926 519.091 598.828 513.054 584.275 508.317C548.58 496.259 521.781 493.602 520.035 498.749L518.289 498.154C521.056 489.942 554.653 496.296 584.87 506.552C599.529 511.338 613.731 517.425 627.307 524.74C638.914 531.317 644.151 536.538 642.907 540.254Z" fill="#FFAB29"/>
<path d="M563.995 442.864L563.141 442.511C574.655 415.293 601.325 408.883 601.603 408.827L601.808 409.738C601.548 409.793 575.305 416.091 563.995 442.864Z" fill="#232323"/>
<path d="M556.287 397.309L556.046 396.398C586.318 388.149 594.787 396.175 595.14 396.528L594.471 397.179C594.471 397.179 585.928 389.245 556.287 397.309Z" fill="#232323"/>
<path d="M30.5699 297.41L29.4185 295.961C29.6227 295.794 50.3863 278.924 48.6405 253.676C45.6875 211.539 60.8423 200.893 61.4737 200.447L62.5138 201.989L61.9938 201.228L62.5138 201.989C62.3652 202.101 47.6562 212.654 50.4977 253.546C52.3177 279.797 30.7928 297.243 30.5699 297.41Z" fill="#FBB03B"/>
<path d="M61.4734 214.604L1.35586 217.187C1.09206 217.195 0.832121 217.122 0.610587 216.978C0.389053 216.835 0.21642 216.627 0.115631 216.383C0.0148425 216.139 -0.00932789 215.871 0.046336 215.612C0.102 215.354 0.234861 215.119 0.427257 214.939L104.691 121.097C105.24 120.599 105.887 120.219 106.59 119.983C107.293 119.746 108.037 119.657 108.776 119.722L237.35 130.869C237.611 130.892 237.859 130.992 238.061 131.157C238.264 131.323 238.412 131.545 238.486 131.796C238.56 132.047 238.557 132.314 238.477 132.563C238.397 132.812 238.244 133.031 238.038 133.192L179.851 177.651C179.732 177.737 179.6 177.806 179.461 177.855L61.8077 214.604C61.697 214.622 61.5842 214.622 61.4734 214.604Z" fill="#EC7100"/>
<path d="M188.896 155.152C184.922 146.048 153.219 147.721 117.171 159.035C81.1228 170.35 54.1748 187.126 56.1249 196.88L66.4695 229.858L199.352 188.129L188.933 155.152H188.896Z" fill="#FF961C"/>
<path d="M199.445 188.594C202.472 198.236 175.19 215.422 138.51 226.94C101.831 238.459 69.6082 239.946 66.581 230.322C63.5538 220.698 90.836 203.494 127.516 191.975C164.195 180.456 196.418 178.914 199.445 188.594Z" fill="#ED7200"/>
<path d="M28.1035 294.737L16.353 298.697L16.9473 300.462L28.6978 296.502L28.1035 294.737Z" fill="#FBB03B"/>
<path d="M28.9276 299.52L23.5171 310.646L25.1872 311.459L30.5977 300.332L28.9276 299.52Z" fill="#FBB03B"/>
<path d="M27.8732 297.502L17.3975 304.081L18.3849 305.654L28.8606 299.075L27.8732 297.502Z" fill="#FBB03B"/>
<path d="M452.619 385.529L453.269 384.712C453.139 384.619 441.624 375.274 442.59 361.265C444.224 337.893 435.83 331.985 435.477 331.744L434.901 332.598L435.18 332.171L434.901 332.598C434.901 332.598 443.147 338.506 441.568 361.191C440.565 375.683 452.489 385.362 452.619 385.529Z" fill="#FFE790"/>
<path d="M435.477 339.528L468.906 340.959C469.055 340.969 469.202 340.932 469.328 340.853C469.454 340.774 469.552 340.657 469.608 340.519C469.664 340.38 469.674 340.228 469.638 340.084C469.602 339.939 469.521 339.81 469.408 339.714L411.593 287.694C411.284 287.418 410.922 287.208 410.529 287.077C410.136 286.946 409.721 286.897 409.309 286.932L337.992 293.1C337.846 293.113 337.708 293.17 337.595 293.263C337.482 293.356 337.4 293.482 337.36 293.623C337.32 293.763 337.323 293.913 337.37 294.052C337.416 294.191 337.504 294.312 337.621 294.401L369.936 319.055C369.997 319.113 370.075 319.152 370.159 319.166L435.365 339.603L435.477 339.528Z" fill="#FFE791"/>
<path d="M364.81 306.514C367.002 301.46 384.589 302.389 404.591 308.669C424.593 314.948 439.525 324.256 438.448 329.663L432.709 347.963L359.016 324.795L364.754 306.514H364.81Z" fill="#FFE791"/>
<path d="M432.618 348.177C434.299 342.822 419.16 333.299 398.805 326.906C378.45 320.513 360.587 319.671 358.906 325.026C357.226 330.381 372.364 339.905 392.719 346.298C413.074 352.691 430.938 353.532 432.618 348.177Z" fill="#FFE791"/>
<path d="M457.358 384.776L457.031 385.747L463.559 387.947L463.886 386.976L457.358 384.776Z" fill="#FFE790"/>
<path d="M453.511 386.639L452.593 387.086L455.599 393.268L456.517 392.821L453.511 386.639Z" fill="#FFE790"/>
<path d="M454.103 385.475L453.55 386.356L459.37 390.011L459.923 389.13L454.103 385.475Z" fill="#FFE790"/>
<path d="M438.615 170.981L438.467 170.238C438.578 170.238 449.276 167.841 453.324 158.255C459.973 142.277 467.495 141.144 467.811 141.106L467.903 141.85V141.478V141.85C467.903 141.85 460.475 143.039 454.03 158.571C449.833 168.51 438.727 170.963 438.615 170.981Z" fill="#FFE791"/>
<path d="M465.155 146.29L442.627 136.201C442.526 136.162 442.439 136.093 442.378 136.003C442.317 135.914 442.285 135.808 442.285 135.7C442.285 135.591 442.317 135.486 442.378 135.396C442.439 135.307 442.526 135.238 442.627 135.198L498.157 119.852C498.45 119.77 498.757 119.75 499.058 119.795C499.359 119.84 499.647 119.948 499.903 120.112L545.014 147.795C545.108 147.849 545.183 147.93 545.228 148.029C545.273 148.127 545.286 148.238 545.266 148.344C545.245 148.45 545.192 148.548 545.114 148.622C545.035 148.697 544.936 148.745 544.828 148.761L515.318 154.334H515.132L465.285 146.197L465.155 146.29Z" fill="#FFE791"/>
<path d="M522.784 147.869C523.007 143.8 511.083 138.579 495.78 136.108C480.477 133.638 467.513 134.845 466.455 138.784L464.208 152.774L520.592 161.859L522.839 147.869H522.784Z" fill="#FFE791"/>
<path d="M520.518 162.082C519.868 166.169 506.7 167.451 491.137 164.943C475.573 162.435 463.483 157.01 464.133 152.978C464.783 148.947 477.95 147.59 493.532 150.098C509.114 152.607 521.186 157.976 520.518 162.082Z" fill="#FFE791"/>
<path d="M432.659 168.597L432.551 169.351L437.57 170.07L437.678 169.316L432.659 168.597Z" fill="#FFE791"/>
<path d="M437.639 171.458L433.615 174.544L434.078 175.149L438.102 172.063L437.639 171.458Z" fill="#FFE791"/>
<path d="M437.618 170.485L432.572 170.975L432.645 171.733L437.692 171.244L437.618 170.485Z" fill="#FFE791"/>
<path d="M622.237 248.455L620.732 247.359C621.197 246.727 632.433 232.013 674.405 236.527C699.533 239.221 717.121 219.119 717.362 218.915L718.755 220.122C718.588 220.327 700.332 241.191 674.183 238.367C633.269 233.963 622.348 248.306 622.237 248.455Z" fill="#FBB03B"/>
<path d="M619.191 288.92L679.309 291.502C679.577 291.521 679.844 291.455 680.073 291.313C680.302 291.172 680.48 290.962 680.583 290.713C680.686 290.464 680.707 290.189 680.645 289.928C680.583 289.666 680.441 289.43 680.237 289.254L575.992 195.357C575.438 194.86 574.788 194.481 574.082 194.245C573.376 194.009 572.63 193.919 571.888 193.982L443.314 205.129C443.055 205.155 442.81 205.257 442.61 205.424C442.41 205.591 442.264 205.813 442.192 206.063C442.12 206.314 442.125 206.58 442.206 206.827C442.287 207.075 442.44 207.292 442.645 207.452L500.887 251.929L501.296 252.134L618.857 288.827C618.962 288.876 619.075 288.907 619.191 288.92Z" fill="#EC7100"/>
<path d="M491.861 229.356C495.817 220.252 527.52 221.924 563.568 233.22C599.616 244.516 626.583 261.33 624.633 271.065L614.288 304.043L481.424 262.296L491.768 229.319L491.861 229.356Z" fill="#FF961C"/>
<path d="M614.054 304.529C617.086 294.866 589.803 277.692 553.115 266.17C516.427 254.647 484.227 253.139 481.195 262.802C478.162 272.464 505.446 289.638 542.134 301.16C578.822 312.683 611.021 314.191 614.054 304.529Z" fill="#ED7200"/>
<path d="M306.141 221.051L304.767 220.717C304.915 220.141 308.481 206.559 339.329 197.623C357.771 192.254 364.364 173.043 364.42 172.839L365.757 173.285C365.757 173.489 358.885 193.406 339.756 198.979C309.855 207.693 306.234 220.921 306.141 221.051Z" fill="#FFE791"/>
<path d="M364.115 161.796L362.705 161.838L362.99 171.235L364.401 171.192L364.115 161.796Z" fill="#FFE791"/>
<path d="M373.427 164.804L366.905 171.572L367.921 172.552L374.444 165.784L373.427 164.804Z" fill="#FFE791"/>
<path d="M367.133 162.178L365.177 171.373L366.558 171.667L368.513 162.472L367.133 162.178Z" fill="#FFE791"/>
<path d="M315.705 250.331L358.681 234.781C358.873 234.713 359.04 234.587 359.158 234.421C359.276 234.255 359.339 234.056 359.339 233.852C359.339 233.648 359.276 233.449 359.158 233.283C359.04 233.116 358.873 232.99 358.681 232.923L258.392 197.103C257.857 196.917 257.291 196.841 256.726 196.88C256.161 196.918 255.61 197.07 255.105 197.326L168.002 242.249C167.814 242.336 167.658 242.479 167.556 242.659C167.454 242.839 167.412 243.046 167.434 243.252C167.457 243.458 167.544 243.651 167.682 243.805C167.821 243.958 168.004 244.064 168.206 244.107L221.935 258.543C222.052 258.561 222.171 258.561 222.288 258.543L315.427 250.387L315.705 250.331Z" fill="#FFE791"/>
<path d="M209.046 245.296C209.195 237.753 231.946 229.764 260.528 227.312C289.11 224.86 312.901 228.873 314.387 236.267L316.634 262.426L211.238 271.455L209.009 245.296H209.046Z" fill="#FFE791"/>
<path d="M265.163 281.176C294.258 278.681 317.312 270.451 316.656 262.793C316 255.136 291.882 250.952 262.787 253.447C233.692 255.942 210.637 264.172 211.294 271.83C211.95 279.487 236.068 283.671 265.163 281.176Z" fill="#FFE791"/>
<path d="M324.323 220.977C324.323 220.716 317.804 193.759 335.225 174.065C362.395 143.354 357.121 126.002 357.065 125.76L358.922 125.166C359.164 125.909 364.698 143.577 336.636 175.217C319.921 194.167 326.069 220.196 326.143 220.456L324.323 220.977Z" fill="#FBB03B"/>
<path d="M328.92 221.236L327.381 222.276L334.306 232.528L335.845 231.488L328.92 221.236Z" fill="#FBB03B"/>
<path d="M322.119 222.792L319.645 234.918L321.465 235.29L323.939 223.164L322.119 222.792Z" fill="#FBB03B"/>
<path d="M326.399 222.69L324.657 223.336L328.959 234.937L330.7 234.291L326.399 222.69Z" fill="#FBB03B"/>
<path d="M325.883 99.9541L288.999 147.535C288.834 147.743 288.738 147.998 288.724 148.265C288.71 148.531 288.78 148.794 288.923 149.019C289.065 149.244 289.275 149.419 289.522 149.519C289.768 149.619 290.04 149.64 290.299 149.578L427.138 118.83C427.85 118.653 428.52 118.337 429.11 117.9C429.699 117.464 430.197 116.915 430.574 116.285L495.947 4.92343C496.076 4.69907 496.134 4.44103 496.113 4.18324C496.092 3.92544 495.994 3.67993 495.831 3.47896C495.669 3.278 495.449 3.13096 495.201 3.05718C494.953 2.9834 494.689 2.98632 494.443 3.06555L424.482 24.8399C424.334 24.8814 424.196 24.9508 424.074 25.0443L326.125 99.7312C326.036 99.7956 325.955 99.8704 325.883 99.9541Z" fill="#EC7100"/>
<path d="M448.124 30.451C453.269 38.9601 433.564 63.8929 403.552 86.7262C373.539 109.56 344.121 121.859 337.379 114.594L316.356 87.135L427.268 2.80566L448.161 30.3395L448.124 30.451Z" fill="#FF961C"/>
<path d="M382.58 59.2152C413.205 35.9523 433.069 10.5555 426.947 2.48973C420.824 -5.57599 391.035 6.74377 360.409 30.0067C329.784 53.2696 309.92 78.6665 316.042 86.7322C322.164 94.7979 351.954 82.4782 382.58 59.2152Z" fill="#ED7200"/>
</g>
<defs>
<clipPath id="clip0">
<rect width="733" height="850" fill="white"/>
</clipPath>
</defs>
</svg>
