<svg width="1073" height="1206" viewBox="0 0 1073 1206" fill="none" xmlns="http://www.w3.org/2000/svg">
<path d="M-1.00006 1075L1005 1075L1005 -16L-1.00006 -16L-1.00006 1075Z" fill="url(#paint0_linear)"/>
<path d="M-99.9954 652.579C-100.662 651.389 -28.561 659.006 -18.465 663.577C67.2563 701.665 138.929 814.737 222.174 693.476C256.319 643.771 272.13 581.069 312.657 535.316C407.903 427.338 497.196 512.416 608.824 502.371C701.451 494.039 717.738 398.867 735.549 325.882C749.169 270.131 768.885 220.141 817.746 186.433C874.322 147.441 943.899 146.393 958.71 65.9809C967.568 17.8475 995.189 -41.9502 1043.72 -35.5229C1063.86 285.509 1083.72 742.99 1066.34 1064.26C1065.24 1084.68 1062.81 1107.58 1047 1120.58C1037.91 1128.06 1025.95 1130.82 1014.52 1133.34C813.507 1177.81 608.157 1222.47 403.569 1199.99C307.514 1189.43 213.697 1164.19 121.213 1136.34C68.3992 1120.39 12.3947 1101.2 -20.7032 1057.12C-75.422 984.275 -57.1348 733.372 -99.9954 652.579Z" fill="#EFEFEF"/>
<path style="mix-blend-mode:multiply" opacity="0.2" d="M407.951 468.395C423.656 457.779 449.6 447.163 458.834 471.527C461.673 480.674 461.43 490.496 458.143 499.492C446.302 537.792 417.719 572.646 375.191 576.592C360.052 577.97 335.144 582.26 322.549 571.268C300.217 551.821 330.904 520.286 346.86 509.513C367.213 495.891 387.786 482.237 407.951 468.395ZM138.207 -16C137.045 -14.5281 135.945 -13.0563 134.877 -11.5218C118.167 12.4036 114.336 42.7174 103.468 69.8997C91.4498 99.6106 71.006 125.185 44.6379 143.492C30.2051 152.962 14.9279 161.087 -1 167.762V636.28C33.5504 642.23 74.8852 640.571 96.9975 609.035C120.492 575.59 109.561 518.626 146.624 500.933C155.168 496.862 164.905 495.954 173.699 492.54C205.737 480.014 215.914 440.274 218.364 406.108C220.814 371.942 221.505 333.455 246.632 309.968C284.606 274.268 357.539 293.746 388.132 251.564C413.259 217.116 391.964 161.937 420.421 130.089C445.548 101.905 495.803 108.669 520.271 79.9835C540.813 55.9015 533.589 18.2284 548.854 -9.48628C550.126 -11.6442 551.51 -13.7347 553 -15.7495L138.207 -16Z" fill="url(#paint1_linear)"/>
<g style="mix-blend-mode:screen" opacity="0.05">
<path d="M237 685C318.186 685 384 619.41 384 538.5C384 457.59 318.186 392 237 392C155.814 392 90 457.59 90 538.5C90 619.41 155.814 685 237 685Z" fill="white"/>
</g>
<path d="M332.216 632.982C384.778 580.419 384.778 495.198 332.216 442.635C279.653 390.073 194.432 390.073 141.869 442.635C89.3068 495.198 89.3068 580.419 141.869 632.982C194.432 685.544 279.653 685.544 332.216 632.982Z" fill="url(#paint2_linear)"/>
<g style="mix-blend-mode:multiply" opacity="0.5">
<path d="M133.709 538.516C133.711 505.583 145.755 473.795 167.557 449.178C189.36 424.561 219.406 408.826 252 404.956C233.185 402.693 214.106 404.458 196.021 410.135C177.935 415.812 161.255 425.273 147.081 437.892C132.906 450.512 121.559 466.004 113.789 483.346C106.018 500.688 102 519.486 102 538.5C102 557.514 106.018 576.312 113.789 593.654C121.559 610.996 132.906 626.488 147.081 639.108C161.255 651.727 177.935 661.188 196.021 666.865C214.106 672.542 233.185 674.307 252 672.044C219.409 668.181 189.363 652.452 167.56 627.841C145.757 603.229 133.712 571.445 133.709 538.516Z" fill="#B41DA7"/>
</g>
<g style="mix-blend-mode:multiply" opacity="0.2">
<path d="M252.652 617.633C227.95 618.892 202.402 620.184 178.733 628.12C169.063 631.458 159.716 635.675 150.806 640.718C149.929 639.993 149.084 639.269 148.27 638.513C157.662 633.169 167.524 628.709 177.731 625.191C201.807 617.16 227.574 615.743 252.496 614.578C264.737 613.948 277.543 613.318 289.721 611.869C319.371 608.405 341.443 598.61 363.766 585.351C363.171 586.926 362.545 588.501 361.887 590.107C340.018 603.51 315.53 612.007 290.097 615.019C277.699 616.373 264.957 617.034 252.652 617.633ZM129.673 468.886C175.446 473.075 212.797 468.13 244.105 453.643C253.247 449.454 262.076 444.195 270.623 439.344C279.578 433.923 288.805 428.972 298.269 424.511C300.773 423.408 303.309 422.401 305.877 421.361C304.75 420.7 303.591 420.007 302.433 419.377C300.617 420.102 298.77 420.794 297.016 421.613C287.466 426.135 278.164 431.171 269.152 436.699C260.699 441.612 251.932 446.714 242.915 450.871C212.202 465.012 175.258 469.768 130.049 465.705C128.389 465.705 126.699 465.39 125.008 465.201C124.382 466.209 123.724 467.185 123.129 468.351L129.673 468.886ZM310.98 635.332H305.501C261.669 636.151 216.429 637.064 179.391 659.394C180.518 659.961 181.676 660.465 182.835 661C218.839 640.151 262.89 639.301 305.564 638.513H311.043C316.772 638.513 322.533 638.23 328.262 637.978C329.452 636.876 330.61 635.742 331.737 634.608C324.85 634.954 317.899 635.206 310.98 635.332ZM137.907 448.005C136.968 449.045 136.029 450.147 135.121 451.155C155.032 450.904 174.905 449.315 194.607 446.399C210.261 444.1 226.823 440.856 241.569 432.605C248.669 428.337 255.43 423.525 261.794 418.212C266.115 414.779 270.561 411.252 275.194 408.134C273.879 407.735 272.564 407.357 271.25 407C267.305 409.803 263.548 412.795 259.853 415.724C253.619 420.934 246.993 425.651 240.035 429.833C225.696 437.896 209.666 441.045 194.012 443.344C175.424 446.066 156.687 447.622 137.907 448.005ZM184.87 572.974C219.935 570.234 249.459 559.778 280.705 548.724C291.6 544.881 302.84 540.913 314.424 537.228C333.134 531.653 352.279 527.681 371.656 525.355C371.656 524.284 371.468 523.245 371.343 522.205C351.749 524.538 332.392 528.563 313.485 534.236C301.838 537.921 290.567 541.889 279.672 545.763C248.582 556.723 219.246 567.022 184.619 569.825C175.477 570.549 166.085 571.053 157.005 571.588C141.1 572.47 124.977 573.383 109.009 575.336C109.291 576.375 109.573 577.415 109.886 578.485C125.54 576.564 141.507 575.682 157.193 574.801C166.241 574.234 175.665 573.698 184.838 572.974H184.87ZM275.852 523.276C255.783 524.347 235.151 523.749 215.051 523.276C178.201 522.237 140.13 521.198 104 530.173C104 531.276 104 532.378 104 533.48C139.973 524.379 178.17 525.386 215.114 526.426C235.182 526.993 255.814 527.559 276.165 526.426C307.957 524.82 339.126 516.944 367.899 503.246C367.648 502.238 367.366 501.293 367.085 500.317C338.421 513.823 307.43 521.619 275.821 523.276H275.852ZM189.315 590.642C189.558 590.898 189.736 591.209 189.834 591.549C189.932 591.889 189.948 592.248 189.879 592.595C189.705 593.272 189.389 593.903 188.951 594.447C188.514 594.99 187.965 595.433 187.343 595.744C182.365 598.894 175.947 599.46 169.748 599.87L166.617 600.09C152.348 601.247 138.481 605.411 125.916 612.31L127.7 614.956C139.776 608.34 153.098 604.348 166.805 603.24L169.936 603.019C176.542 602.578 183.367 602.138 189.034 598.39C190.018 597.857 190.877 597.117 191.553 596.22C192.228 595.323 192.704 594.291 192.947 593.193C193.087 592.389 193.044 591.563 192.822 590.778C192.599 589.992 192.203 589.268 191.664 588.658C190.29 587.407 188.684 586.442 186.937 585.821C185.19 585.199 183.338 584.932 181.488 585.036C159.532 585.833 137.803 589.789 116.962 596.784C117.431 597.728 117.932 598.673 118.433 599.618C138.817 592.82 160.059 588.971 181.52 588.186C184.334 587.979 187.121 588.857 189.315 590.642ZM135.371 494.27C127.419 493.829 119.529 493.042 111.702 492.066L110.669 495.215C118.778 496.254 126.949 497.073 135.183 497.514C206.065 501.199 277.636 480.35 347.016 459.312C346.39 458.398 345.732 457.517 345.075 456.603C276.259 477.389 205.314 497.955 135.371 494.27ZM355.219 557.573C344.104 564.25 323.91 565.415 309.383 566.266L302.245 566.738H299.678C279.171 567.872 251.337 570.643 246.453 581.603C244.888 585.162 245.858 589.162 249.334 593.477C250.906 595.211 252.852 596.562 255.022 597.424C257.193 598.286 259.531 598.638 261.857 598.453C273.065 598.453 288.031 591.996 299.959 586.831C304.109 584.922 308.364 583.25 312.702 581.824C320.341 579.745 328.356 578.045 336.246 576.375C347.231 574.257 358.099 571.566 368.807 568.313C369.057 567.116 369.339 565.888 369.589 564.691C358.435 568.239 347.081 571.121 335.588 573.32C327.73 574.99 319.621 576.69 311.888 578.8C307.406 580.257 303.015 581.982 298.738 583.965C283.084 590.705 259.446 600.909 251.776 591.524C249.052 588.154 248.269 585.225 249.334 582.926C252.464 575.966 269.371 571.62 299.834 569.951L302.433 569.793L309.54 569.352C325.194 568.407 345.012 567.274 356.784 560.187C360.293 557.993 363.68 555.606 366.928 553.038C368.462 551.841 370.059 550.645 371.687 549.479C371.687 548.125 371.937 546.771 372 545.385C369.589 547.023 367.272 548.786 365.018 550.519C361.886 553.054 358.615 555.409 355.219 557.573Z" fill="#B41DA7"/>
</g>
<g style="mix-blend-mode:screen" opacity="0.05">
<path d="M532.425 303.749C574.085 298.523 603.621 260.514 598.395 218.854C593.169 177.194 555.16 147.658 513.5 152.884C471.84 158.11 442.304 196.119 447.53 237.779C452.756 279.439 490.765 308.975 532.425 303.749Z" fill="white"/>
</g>
<path d="M588.068 257.31C603.037 221.999 586.546 181.24 551.236 166.272C515.925 151.303 475.166 167.793 460.198 203.104C445.229 238.414 461.719 279.173 497.03 294.142C532.34 309.111 573.099 292.62 588.068 257.31Z" fill="url(#paint3_linear)"/>
<path style="mix-blend-mode:multiply" opacity="0.5" d="M474.064 248.693C467.559 232.882 467.045 215.214 472.621 199.047C478.197 182.88 489.474 169.34 504.308 161C495.237 163.606 486.789 168.051 479.481 174.061C472.174 180.072 466.161 187.521 461.811 195.955C457.461 204.388 454.865 213.627 454.182 223.106C453.499 232.586 454.744 242.106 457.84 251.083C460.936 260.061 465.818 268.308 472.188 275.318C478.557 282.328 486.28 287.955 494.883 291.854C503.486 295.753 512.788 297.841 522.22 297.991C531.652 298.142 541.015 296.351 549.736 292.728C552.241 291.656 554.652 290.457 557 289.164C540.656 293.829 523.18 292.285 507.891 284.824C492.602 277.363 480.565 264.506 474.064 248.693Z" fill="url(#paint4_linear)"/>
<path style="mix-blend-mode:multiply" opacity="0.5" d="M510.607 282.76C516.565 280.141 519.136 272.658 525.062 270.039C527.644 269.17 530.315 268.595 533.027 268.324C555.478 263.928 565.544 231.783 588.403 230.91C589.563 230.91 590.755 230.91 591.946 230.91C592.107 226.93 591.907 222.944 591.35 219C590.316 219.935 589.312 220.933 588.215 221.775C581.254 227.262 570.874 226.327 563.568 231.315C558.739 234.62 555.917 240.014 552.217 244.535C542.81 256.133 528.104 261.247 513.899 264.458C506.123 266.204 481.947 267.139 470 273.812C474.466 278.934 479.664 283.377 485.427 287C486.534 285.814 487.879 284.873 489.376 284.24C490.872 283.606 492.487 283.293 494.113 283.321C499.758 282.666 505.214 285.129 510.607 282.76Z" fill="url(#paint5_linear)"/>
<path style="mix-blend-mode:multiply" opacity="0.5" d="M592 238C583.162 240.55 573.327 245.406 570.949 247.804C568.571 250.202 567.317 252.023 565.228 253.875C562.239 256.607 558.383 258.64 556.293 262.04C555.551 263.682 554.669 265.266 553.658 266.775C548.901 272.542 537.749 268.445 532.286 273.605C531.553 274.197 531.092 275.035 531 275.942C531 278.249 534.214 279.16 536.657 278.977C541.818 278.528 546.896 277.446 551.762 275.76L565.485 271.662C571.142 269.962 577.248 267.959 580.526 263.285C582.513 259.97 584.827 256.84 587.436 253.936C589.649 248.822 591.182 243.47 592 238Z" fill="url(#paint6_linear)"/>
<path style="mix-blend-mode:multiply" opacity="0.5" d="M568.223 195.917C567.132 199.017 566.602 202.891 563.672 204.564C559.775 206.764 555.068 203.324 550.579 203.293C540.384 203.293 538.109 218.789 529.006 223.283C521.649 226.909 510.8 222.787 505.75 229.233C504.004 231.496 503.38 234.688 501.011 236.269C497.894 238.283 493.997 236.609 490.599 235.277C478.802 230.816 465.758 230.872 454 235.432C454.641 242.223 456.312 248.879 458.957 255.174C459.77 257.161 460.686 259.106 461.7 261C464.008 259.556 465.907 257.551 467.218 255.174C468.066 252.867 469.175 250.662 470.522 248.603C474.918 243.645 482.992 246.992 488.51 250.897C494.028 254.802 501.323 258.986 506.623 254.926C511.049 251.517 510.613 244.295 514.759 240.545C522.054 234.006 535.49 243.645 543.034 237.446C548.521 232.891 546.526 222.942 552.387 218.603C556.751 215.256 563.422 217.054 568.161 214.264C575.113 210.205 574.863 198.397 582.345 195.483C582.559 195.407 582.778 195.345 583 195.298C581.195 192.025 579.109 188.915 576.765 186C572.822 188.19 569.793 191.707 568.223 195.917Z" fill="url(#paint7_linear)"/>
<path style="mix-blend-mode:multiply" opacity="0.5" d="M454 222C459.022 217.52 463.792 212.821 468.092 210.972C473.302 208.748 480.238 209.249 483.502 213.886C484.488 215.805 485.599 217.658 486.829 219.431C488.488 220.843 490.596 221.619 492.777 221.619C494.957 221.619 497.065 220.843 498.724 219.431C501.972 216.518 504.534 212.923 506.225 208.905C506.924 207.197 508.128 205.743 509.678 204.738C512.596 203.234 516.3 205.145 519.407 204.049C520.866 203.309 522.08 202.165 522.904 200.753C523.728 199.342 524.127 197.723 524.052 196.091C523.868 192.821 523.952 189.541 524.303 186.285C525.217 183.411 526.918 180.849 529.214 178.889C531.51 176.929 534.31 175.649 537.297 175.195C543.281 174.36 549.36 174.465 555.312 175.508C560.176 176.009 565.073 176.322 570 176.385C560.997 168.241 550.014 162.592 538.144 160C536.073 164.699 534.001 169.211 529.293 170.621C526.155 171.623 522.169 170.621 519.501 172.814C516.833 175.007 516.676 179.737 514.071 182.369C508.171 188.353 497.531 178.327 489.968 181.993C486.829 183.528 485.103 187.1 482.027 188.697C477.57 190.984 471.701 188.885 466.491 187.695C459.349 197.819 455.037 209.66 454 222Z" fill="url(#paint8_linear)"/>
<g style="mix-blend-mode:screen" opacity="0.05">
<path d="M258.576 253.69C305.853 230.015 324.987 172.498 301.312 125.221C277.638 77.9436 220.12 58.81 172.843 82.4846C125.566 106.159 106.433 163.677 130.107 210.954C153.782 258.231 211.299 277.364 258.576 253.69Z" fill="white"/>
</g>
<path d="M229.541 254.503C277.265 246.868 309.764 201.989 302.128 154.265C294.492 106.54 249.614 74.0417 201.889 81.6774C154.165 89.3131 121.666 134.191 129.302 181.916C136.938 229.641 181.816 262.139 229.541 254.503Z" fill="url(#paint9_linear)"/>
<path d="M254.3 141.361C265.094 133.09 277.803 128.354 290.888 124.345C298.718 137.749 302.896 152.994 303 168.542C280.784 186.663 252.794 196.039 225.243 203.269C199.606 210.088 173.217 215.612 149.118 226.346C143.838 220.162 139.444 213.266 136.064 205.857C148.299 196.035 162.391 188.817 177.484 184.643C190.036 181.486 203.09 181.202 214.606 175.677C230.389 168.069 240.368 152.031 254.3 141.361ZM299.768 192.63C282.353 201.027 264.122 207.973 247.961 218.611C231.801 229.25 216.582 244.562 197.41 249.329C193.103 250.305 188.729 250.949 184.325 251.254C193.624 254.826 203.462 256.769 213.413 257C239.05 236.511 264.153 215.013 294.653 206.489C296.739 202.021 298.45 197.385 299.768 192.63ZM138.951 126.334C137.011 129.843 135.312 133.482 133.868 137.225C144.469 131.955 154.702 125.964 164.493 119.294C175.476 111.749 185.862 103.351 196.218 94.9853L213.57 81C207.468 81.1349 201.398 81.9287 195.464 83.3677C187.418 92.1109 178.913 100.415 169.985 108.244C160.617 115.847 150.153 121.968 138.951 126.397V126.334ZM235.724 215.391C239.175 211.824 233.558 211.066 230.923 211.508C224.647 212.582 218.371 213.876 212.095 215.328C200.784 218.002 189.636 221.333 178.708 225.304C170.999 227.654 163.434 230.458 156.053 233.702C159.793 237.213 163.835 240.382 168.133 243.173C171.664 240.224 175.386 237.513 179.273 235.059C187.35 231.19 195.879 228.358 204.658 226.63C214.919 224.357 228.067 223.347 235.724 215.391ZM181.564 171.415C193.519 167.721 206.824 168.258 217.618 161.755C228.412 155.251 234.845 143.444 245.671 137.415C247.804 136.247 257.563 131.101 257.061 128.26C256.653 125.797 251.382 126.839 249.468 127.66C246.577 129.057 243.895 130.853 241.497 132.995C236.194 137.509 231.582 142.971 225.149 145.938C216.112 150.169 205.474 148.401 195.841 150.99C180.528 155.125 170.424 169.205 158.626 179.876C150.863 186.879 142.039 192.591 132.487 196.797C133.146 198.817 133.93 200.838 134.746 202.827C135.97 201.911 137.225 200.964 138.418 200.017C151.942 189.189 164.996 176.529 181.564 171.415ZM203.905 105.908C193.73 112.557 182.975 118.263 171.773 122.956C165.498 125.513 158.406 128.859 157.559 135.584C161.732 136.973 166.031 134.258 169.608 131.669C181.26 123.251 193.069 115.116 205.035 107.266C213.432 101.214 222.674 96.4483 232.46 93.1227C237.01 91.7968 241.874 91.0707 246.173 89.5238C247.271 89.1134 248.432 88.6398 249.624 88.0716C244.437 85.8204 239.046 84.0761 233.527 82.8626C224.181 91.2083 214.285 98.9078 203.905 105.908ZM242.752 103.351C235.316 105.372 227.565 106.035 220.191 108.213C201.364 113.738 186.616 128.291 170.706 140.003C157.605 149.604 143.311 157.436 128.188 163.302C127.675 171.157 128.213 179.047 129.788 186.758C151.754 176.119 166.031 153.389 187.682 142.024C199.01 136.026 211.562 133.5 223.266 128.796C237.92 122.924 251.005 113.801 265.251 107.045C268.044 105.719 270.868 104.488 273.755 103.32C270.16 100.102 266.309 97.188 262.239 94.6065C256.181 98.3991 249.621 101.311 242.752 103.257V103.351Z" fill="url(#paint10_linear)"/>
<path style="mix-blend-mode:multiply" opacity="0.5" d="M154.303 195.146C145.652 175.643 144.487 153.657 151.027 133.356C157.567 113.055 171.358 95.8487 189.786 85C186.589 86.0046 183.45 87.1823 180.382 88.5279C159.977 98.3501 144.199 115.681 136.375 136.866C128.551 158.051 129.293 181.435 138.444 202.086C147.595 222.737 164.441 239.041 185.428 247.56C206.415 256.08 229.904 256.148 250.941 247.752C254.041 246.385 257.065 244.853 260 243.163C239.535 249.455 217.463 248.041 197.977 239.189C178.49 230.336 162.948 214.663 154.303 195.146Z" fill="url(#paint11_linear)"/>
<path d="M286.694 116.789C288.755 119.542 290.664 122.403 292.412 125.359C307.651 121.492 317.549 120.78 318.9 123.997C320.251 127.215 313.15 133.866 300.047 142.343C275.269 157.461 249.368 170.719 222.564 182.003C196.05 193.891 168.656 203.778 140.619 211.578C125.412 215.445 115.483 216.188 114.132 212.97C112.781 209.753 119.85 203.102 132.984 194.625C131.934 191.366 131.074 188.05 130.408 184.694C85.8533 208.268 57.8576 228.346 61.2824 235.925C64.7073 243.504 98.6415 236.637 146.369 220.117C170.061 211.826 197.208 201.369 225.706 188.995C254.205 176.62 280.441 163.998 302.593 152.242C347.116 128.638 375.143 108.591 371.718 101.043C368.293 93.4942 334.422 100.455 286.694 116.789Z" fill="url(#paint12_linear)"/>
<path style="mix-blend-mode:multiply" opacity="0.4" d="M461.487 355.223C459.809 353.684 457.67 352.636 455.343 352.212C453.015 351.787 450.602 352.005 448.409 352.837C446.216 353.669 444.341 355.079 443.023 356.888C441.704 358.697 441 360.824 441 363C441 365.176 441.704 367.303 443.023 369.112C444.341 370.921 446.216 372.331 448.409 373.163C450.602 373.995 453.015 374.213 455.343 373.788C457.67 373.364 459.809 372.316 461.487 370.777C463.736 368.714 465 365.917 465 363C465 360.083 463.736 357.286 461.487 355.223Z" fill="url(#paint13_linear)"/>
<path style="mix-blend-mode:multiply" opacity="0.4" d="M70.9268 309.086C66.6632 313.422 63.7601 318.946 62.5847 324.959C61.4094 330.972 62.0144 337.204 64.3234 342.867C66.6324 348.531 70.5417 353.371 75.557 356.777C80.5723 360.182 86.4684 362 92.5 362C98.5316 362 104.428 360.182 109.443 356.777C114.458 353.371 118.368 348.531 120.677 342.867C122.986 337.204 123.591 330.972 122.415 324.959C121.24 318.946 118.337 313.422 114.073 309.086C111.241 306.206 107.878 303.921 104.176 302.361C100.474 300.802 96.5068 300 92.5 300C88.4932 300 84.5256 300.802 80.824 302.361C77.1224 303.921 73.7593 306.206 70.9268 309.086Z" fill="url(#paint14_linear)"/>
<path style="mix-blend-mode:multiply" opacity="0.4" d="M52.3415 618.353C48.3574 622.34 45.6447 627.418 44.5464 632.946C43.4481 638.474 44.0135 644.204 46.1711 649.41C48.3287 654.617 51.9816 659.067 56.668 662.198C61.3545 665.329 66.864 667 72.5 667C78.136 667 83.6456 665.329 88.332 662.198C93.0184 659.067 96.6713 654.617 98.8289 649.41C100.987 644.204 101.552 638.474 100.454 632.946C99.3553 627.418 96.6426 622.34 92.6585 618.353C90.0118 615.705 86.8693 613.604 83.4104 612.171C79.9515 610.738 76.2441 610 72.5 610C68.7559 610 65.0485 610.738 61.5896 612.171C58.1307 613.604 54.9882 615.705 52.3415 618.353Z" fill="url(#paint15_linear)"/>
<path style="mix-blend-mode:multiply" opacity="0.4" d="M625.942 70.577C625.281 69.006 618.575 70.1149 608.973 73.0412C606.254 69.1188 602.237 66.2331 597.597 64.8703C592.958 63.5075 587.981 63.751 583.503 65.5597C579.026 67.3684 575.323 70.6317 573.018 74.7999C570.712 78.9681 569.946 83.7863 570.847 88.4428C561.938 93.0017 556.365 96.8829 557.058 98.4539C557.751 100.025 564.425 98.8851 574.027 95.9588C576.746 99.8812 580.763 102.767 585.403 104.13C590.042 105.492 595.019 105.249 599.497 103.44C603.974 101.632 607.677 98.3683 609.982 94.2001C612.288 90.0319 613.054 85.2137 612.153 80.5572C621.062 75.9983 626.635 72.1479 625.942 70.577ZM614.23 75.3207C614.451 75.9059 613.443 76.9224 611.523 78.2162C611.362 77.6832 611.173 77.1588 610.956 76.6452C610.736 76.1215 610.484 75.6287 610.232 75.1358C612.625 74.7354 613.979 74.7662 614.23 75.3207ZM568.77 93.8026C568.549 93.2481 569.557 92.2008 571.477 90.9071C571.638 91.44 571.827 91.9644 572.044 92.478C572.264 93.0017 572.516 93.4945 572.768 93.9874C570.501 94.3262 569.021 94.3262 568.77 93.741V93.8026Z" fill="url(#paint16_linear)"/>
<path d="M65.2935 413.168L68.3831 418.703C69.4615 420.634 71.1053 422.217 73.1101 423.256L78.8257 426.232C78.8779 426.257 78.922 426.295 78.9528 426.342C78.9837 426.389 79 426.444 79 426.5C79 426.556 78.9837 426.611 78.9528 426.658C78.922 426.705 78.8779 426.743 78.8257 426.768L73.1101 429.744C71.1053 430.783 69.4615 432.366 68.3831 434.297L65.2935 439.832C65.2682 439.882 65.2287 439.925 65.1795 439.955C65.1304 439.984 65.0735 440 65.0154 440C64.9574 440 64.9005 439.984 64.8514 439.955C64.8022 439.925 64.7627 439.882 64.7374 439.832L61.6478 434.297C60.5523 432.378 58.9129 430.799 56.9208 429.744L51.1743 426.768C51.122 426.743 51.078 426.705 51.0472 426.658C51.0163 426.611 51 426.556 51 426.5C51 426.444 51.0163 426.389 51.0472 426.342C51.078 426.295 51.122 426.257 51.1743 426.232L56.9208 423.256C58.9129 422.201 60.5523 420.622 61.6478 418.703L64.7374 413.168C64.7627 413.118 64.8022 413.075 64.8514 413.045C64.9005 413.016 64.9574 413 65.0154 413C65.0735 413 65.1304 413.016 65.1795 413.045C65.2287 413.075 65.2682 413.118 65.2935 413.168Z" fill="#EFEFEF"/>
<path d="M400.803 285.197L403.996 291.139C405.111 293.212 406.809 294.911 408.881 296.027L414.82 299.221C414.874 299.247 414.919 299.288 414.951 299.339C414.983 299.39 415 299.448 415 299.509C415 299.569 414.983 299.627 414.951 299.678C414.919 299.729 414.874 299.77 414.82 299.796L408.881 302.991C406.823 304.123 405.128 305.818 403.996 307.878L400.803 313.82C400.777 313.874 400.736 313.919 400.686 313.951C400.635 313.983 400.576 314 400.516 314C400.456 314 400.397 313.983 400.346 313.951C400.296 313.919 400.255 313.874 400.229 313.82L397.036 307.878C395.851 305.897 394.152 304.274 392.119 303.182L386.18 299.988C386.126 299.962 386.081 299.921 386.049 299.87C386.017 299.819 386 299.76 386 299.7C386 299.64 386.017 299.581 386.049 299.531C386.081 299.48 386.126 299.439 386.18 299.413L392.119 296.218C394.177 295.085 395.872 293.39 397.004 291.331L400.197 285.389C400.179 285.311 400.192 285.229 400.232 285.16C400.272 285.091 400.336 285.039 400.412 285.015C400.488 284.991 400.571 284.996 400.643 285.03C400.716 285.064 400.773 285.123 400.803 285.197Z" fill="#EFEFEF"/>
<path d="M607.597 405L608.859 406.647C609.294 407.222 609.944 407.696 610.735 408.012L613 408.906C613 408.906 613 409.047 613 409.071L610.735 409.988C609.94 410.289 609.286 410.756 608.859 411.329L607.597 413H607.403L606.141 411.329C605.714 410.756 605.06 410.289 604.265 409.988L602 409.071C602 409.071 602 408.953 602 408.906L604.265 408.012C605.056 407.696 605.706 407.222 606.141 406.647L607.403 405H607.597Z" fill="#EFEFEF"/>
<path d="M622.593 29L623.602 31.0649C623.973 31.7733 624.504 32.3628 625.142 32.7758L627 33.8968V34.1032L625.142 35.2242C624.504 35.6372 623.973 36.2267 623.602 36.9351L622.593 39H622.407L621.398 36.9351C621.027 36.2267 620.496 35.6372 619.858 35.2242L618 34.1032V33.8968L619.858 32.7758C620.496 32.3628 621.027 31.7733 621.398 31.0649L622.407 29H622.593Z" fill="#EFEFEF"/>
<path d="M188.677 348.064L190.147 350.958C190.652 351.938 191.407 352.746 192.324 353.286L195 354.858V355.142L192.324 356.714C191.399 357.257 190.642 358.077 190.147 359.074L188.677 361.936C188.66 361.956 188.64 361.972 188.617 361.983C188.594 361.994 188.57 362 188.545 362C188.52 362 188.495 361.994 188.472 361.983C188.449 361.972 188.429 361.956 188.412 361.936L186.942 359.074C186.443 358.069 185.675 357.248 184.736 356.714L182.06 355.142C182.041 355.124 182.026 355.102 182.016 355.078C182.005 355.053 182 355.027 182 355C182 354.973 182.005 354.947 182.016 354.922C182.026 354.898 182.041 354.876 182.06 354.858L184.736 353.286C185.668 352.756 186.434 351.947 186.942 350.958L188.412 348.064C188.429 348.044 188.449 348.028 188.472 348.017C188.495 348.006 188.52 348 188.545 348C188.57 348 188.594 348.006 188.617 348.017C188.64 348.028 188.66 348.044 188.677 348.064Z" fill="#EFEFEF"/>
<path d="M315.631 366L317.092 368.676C317.603 369.603 318.362 370.367 319.283 370.882L321.941 372.323C321.959 372.34 321.974 372.36 321.984 372.383C321.995 372.406 322 372.43 322 372.455C322 372.48 321.995 372.505 321.984 372.528C321.974 372.551 321.959 372.571 321.941 372.588L319.283 374.058C318.35 374.557 317.587 375.325 317.092 376.264L315.631 378.94C315.615 378.959 315.595 378.974 315.572 378.984C315.549 378.995 315.525 379 315.5 379C315.475 379 315.451 378.995 315.428 378.984C315.405 378.974 315.385 378.959 315.369 378.94L313.908 376.264C313.413 375.325 312.65 374.557 311.717 374.058L309.059 372.588C309.041 372.571 309.026 372.551 309.016 372.528C309.005 372.505 309 372.48 309 372.455C309 372.43 309.005 372.406 309.016 372.383C309.026 372.36 309.041 372.34 309.059 372.323L311.717 370.882C312.638 370.367 313.397 369.603 313.908 368.676L315.369 366H315.631Z" fill="#EFEFEF"/>
<path d="M715.631 98L717.092 100.676C717.603 101.603 718.362 102.367 719.283 102.882L721.941 104.323C721.959 104.34 721.974 104.36 721.984 104.383C721.995 104.406 722 104.43 722 104.455C722 104.48 721.995 104.505 721.984 104.528C721.974 104.551 721.959 104.571 721.941 104.588L719.283 106.058C718.35 106.557 717.587 107.325 717.092 108.264L715.631 110.94C715.615 110.959 715.595 110.974 715.572 110.984C715.549 110.995 715.525 111 715.5 111C715.475 111 715.451 110.995 715.428 110.984C715.405 110.974 715.385 110.959 715.369 110.94L713.908 108.264C713.413 107.325 712.65 106.557 711.717 106.058L709.059 104.588C709.041 104.571 709.026 104.551 709.016 104.528C709.005 104.505 709 104.48 709 104.455C709 104.43 709.005 104.406 709.016 104.383C709.026 104.36 709.041 104.34 709.059 104.323L711.717 102.882C712.638 102.367 713.397 101.603 713.908 100.676L715.369 98H715.631Z" fill="#EFEFEF"/>
<path d="M303.616 29.0578L305.742 33.1706C306.504 34.5957 307.637 35.7598 309.007 36.5242L312.9 38.7705C312.931 38.7939 312.956 38.8248 312.974 38.8605C312.991 38.8963 313 38.9359 313 38.9761C313 39.0163 312.991 39.0559 312.974 39.0917C312.956 39.1274 312.931 39.1583 312.9 39.1817L309.007 41.428C307.67 42.2069 306.569 43.3696 305.832 44.7816L303.706 48.8944C303.684 48.9271 303.654 48.9537 303.62 48.9721C303.587 48.9904 303.549 49 303.511 49C303.473 49 303.435 48.9904 303.402 48.9721C303.368 48.9537 303.339 48.9271 303.316 48.8944L301.22 44.7816C300.48 43.3609 299.367 42.1964 298.015 41.428L294.032 39.1817C294.011 39.1433 294 39.0996 294 39.0552C294 39.0108 294.011 38.9671 294.032 38.9286L297.926 36.6824C299.277 35.914 300.39 34.7495 301.13 33.3288L303.226 29.2159C303.233 29.1716 303.25 29.1298 303.277 29.0948C303.303 29.0599 303.338 29.033 303.377 29.0169C303.417 29.0008 303.46 28.9961 303.502 29.0033C303.544 29.0105 303.583 29.0293 303.616 29.0578Z" fill="#EFEFEF"/>
<path d="M415 522C415 522.593 414.824 523.173 414.494 523.667C414.165 524.16 413.696 524.545 413.148 524.772C412.6 524.999 411.997 525.058 411.415 524.942C410.833 524.827 410.298 524.541 409.879 524.121C409.459 523.702 409.173 523.167 409.058 522.585C408.942 522.003 409.001 521.4 409.228 520.852C409.455 520.304 409.84 519.835 410.333 519.506C410.827 519.176 411.407 519 412 519C412.796 519 413.559 519.316 414.121 519.879C414.684 520.441 415 521.204 415 522Z" fill="#EFEFEF"/>
<path d="M198 34C198 34.5933 197.795 35.1734 197.41 35.6667C197.026 36.1601 196.479 36.5446 195.839 36.7716C195.2 36.9987 194.496 37.0581 193.817 36.9424C193.138 36.8266 192.515 36.5409 192.025 36.1213C191.536 35.7018 191.202 35.1672 191.067 34.5853C190.932 34.0033 191.002 33.4001 191.266 32.8519C191.531 32.3038 191.98 31.8352 192.556 31.5056C193.131 31.1759 193.808 31 194.5 31C195.428 31 196.318 31.3161 196.975 31.8787C197.631 32.4413 198 33.2043 198 34Z" fill="#EFEFEF"/>
<path d="M66 174.5C66 175.192 65.7654 175.869 65.3259 176.444C64.8863 177.02 64.2616 177.469 63.5307 177.734C62.7998 177.998 61.9956 178.068 61.2196 177.933C60.4437 177.798 59.731 177.464 59.1716 176.975C58.6122 176.485 58.2312 175.862 58.0769 175.183C57.9225 174.504 58.0017 173.8 58.3045 173.161C58.6072 172.521 59.1199 171.974 59.7777 171.59C60.4355 171.205 61.2089 171 62 171C63.0609 171 64.0783 171.369 64.8284 172.025C65.5786 172.682 66 173.572 66 174.5Z" fill="#EFEFEF"/>
<path d="M637 222.5C637 223.192 636.765 223.869 636.326 224.444C635.886 225.02 635.262 225.469 634.531 225.734C633.8 225.998 632.996 226.068 632.22 225.933C631.444 225.798 630.731 225.464 630.172 224.975C629.612 224.485 629.231 223.862 629.077 223.183C628.923 222.504 629.002 221.8 629.304 221.161C629.607 220.521 630.12 219.974 630.778 219.59C631.436 219.205 632.209 219 633 219C634.061 219 635.078 219.369 635.828 220.025C636.579 220.682 637 221.572 637 222.5Z" fill="#EFEFEF"/>
<path d="M801 24.5C801 25.1922 800.765 25.8689 800.326 26.4445C799.886 27.0201 799.262 27.4687 798.531 27.7336C797.8 27.9985 796.996 28.0678 796.22 27.9327C795.444 27.7977 794.731 27.4644 794.172 26.9749C793.612 26.4854 793.231 25.8618 793.077 25.1828C792.923 24.5039 793.002 23.8002 793.304 23.1606C793.607 22.5211 794.12 21.9744 794.778 21.5899C795.436 21.2053 796.209 21 797 21C798.061 21 799.078 21.3687 799.828 22.0251C800.579 22.6815 801 23.5717 801 24.5Z" fill="#EFEFEF"/>
<path d="M499 333.5C499 334.192 498.765 334.869 498.326 335.444C497.886 336.02 497.262 336.469 496.531 336.734C495.8 336.998 494.996 337.068 494.22 336.933C493.444 336.798 492.731 336.464 492.172 335.975C491.612 335.485 491.231 334.862 491.077 334.183C490.923 333.504 491.002 332.8 491.304 332.161C491.607 331.521 492.12 330.974 492.778 330.59C493.436 330.205 494.209 330 495 330C496.061 330 497.078 330.369 497.828 331.025C498.579 331.682 499 332.572 499 333.5Z" fill="#EFEFEF"/>
<path d="M349 202C349 202.791 348.824 203.564 348.494 204.222C348.165 204.88 347.696 205.393 347.148 205.696C346.6 205.998 345.997 206.077 345.415 205.923C344.833 205.769 344.298 205.388 343.879 204.828C343.459 204.269 343.173 203.556 343.058 202.78C342.942 202.004 343.001 201.2 343.228 200.469C343.455 199.738 343.84 199.114 344.333 198.674C344.827 198.235 345.407 198 346 198C346.796 198 347.559 198.421 348.121 199.172C348.684 199.922 349 200.939 349 202Z" fill="#EFEFEF"/>
<path d="M60.9836 607.229C60.9133 607.717 60.6214 608.166 60.1635 608.493C59.7055 608.82 59.1135 609 58.5 609C57.8865 609 57.2945 608.82 56.8365 608.493C56.3786 608.166 56.0867 607.717 56.0164 607.229C55.9761 606.949 56.0102 606.665 56.1166 606.396C56.223 606.127 56.3992 605.88 56.6338 605.669C56.8683 605.459 57.1558 605.29 57.4774 605.175C57.7991 605.06 58.1475 605 58.5 605C58.8525 605 59.2009 605.06 59.5226 605.175C59.8442 605.29 60.1317 605.459 60.3662 605.669C60.6008 605.88 60.777 606.127 60.8834 606.396C60.9898 606.665 61.0239 606.949 60.9836 607.229Z" fill="#EFEFEF"/>
<path d="M622 161.5C622 161.994 621.883 162.478 621.663 162.889C621.443 163.3 621.131 163.62 620.765 163.81C620.4 163.999 619.998 164.048 619.61 163.952C619.222 163.855 618.865 163.617 618.586 163.268C618.306 162.918 618.116 162.473 618.038 161.988C617.961 161.503 618.001 161 618.152 160.543C618.304 160.086 618.56 159.696 618.889 159.421C619.218 159.147 619.604 159 620 159C620.263 159 620.523 159.065 620.765 159.19C621.008 159.316 621.229 159.5 621.414 159.732C621.6 159.964 621.747 160.24 621.848 160.543C621.948 160.847 622 161.172 622 161.5Z" fill="#EFEFEF"/>
<path d="M50.2211 609.443C50.4337 609.654 50.6107 609.915 50.7422 610.211C50.8736 610.507 50.9569 610.833 50.9871 611.169C51.0174 611.505 50.9941 611.846 50.9186 612.171C50.843 612.496 50.7167 612.799 50.5469 613.063C50.1975 613.586 49.698 613.917 49.1553 613.986C48.6125 614.056 48.0695 613.858 47.6421 613.435C47.2666 612.991 47.039 612.387 47.0046 611.742C46.9701 611.098 47.1313 610.462 47.4561 609.959C47.7809 609.456 48.2456 609.124 48.7578 609.028C49.2701 608.933 49.7924 609.081 50.2211 609.443Z" fill="#EFEFEF"/>
<path d="M495 589C495 589.593 494.795 590.173 494.41 590.667C494.026 591.16 493.479 591.545 492.839 591.772C492.2 591.999 491.496 592.058 490.817 591.942C490.138 591.827 489.515 591.541 489.025 591.121C488.536 590.702 488.202 590.167 488.067 589.585C487.932 589.003 488.002 588.4 488.266 587.852C488.531 587.304 488.98 586.835 489.556 586.506C490.131 586.176 490.808 586 491.5 586C492.428 586 493.319 586.316 493.975 586.879C494.631 587.441 495 588.204 495 589Z" fill="#EFEFEF"/>
<path d="M415 500.507C415 500.636 414.904 500.76 414.733 500.851C414.562 500.942 414.33 500.993 414.088 500.993C413.954 501.005 413.817 501.001 413.686 500.982C413.555 500.962 413.434 500.928 413.33 500.881C413.227 500.834 413.144 500.776 413.087 500.71C413.03 500.644 413 500.572 413 500.5C413 500.427 413.03 500.356 413.087 500.29C413.144 500.224 413.227 500.166 413.33 500.119C413.434 500.072 413.555 500.038 413.686 500.018C413.817 499.999 413.954 499.995 414.088 500.007C414.21 500.007 414.33 500.02 414.443 500.045C414.555 500.07 414.656 500.107 414.741 500.154C414.826 500.2 414.893 500.256 414.937 500.316C414.982 500.377 415.003 500.442 415 500.507Z" fill="#EFEFEF"/>
<path d="M481 579.5C481 579.898 480.947 580.279 480.854 580.561C480.76 580.842 480.633 581 480.5 581C480.367 581 480.24 580.842 480.146 580.561C480.053 580.279 480 579.898 480 579.5C480 579.102 480.053 578.721 480.146 578.439C480.24 578.158 480.367 578 480.5 578C480.633 578 480.76 578.158 480.854 578.439C480.947 578.721 481 579.102 481 579.5Z" fill="#EFEFEF"/>
<path d="M503 570.5C503 570.898 502.789 571.279 502.414 571.561C502.039 571.842 501.53 572 501 572C500.47 572 499.961 571.842 499.586 571.561C499.211 571.279 499 570.898 499 570.5C499 570.102 499.211 569.721 499.586 569.439C499.961 569.158 500.47 569 501 569C501.53 569 502.039 569.158 502.414 569.439C502.789 569.721 503 570.102 503 570.5Z" fill="#EFEFEF"/>
<path d="M614 500.5C614 500.599 613.912 500.696 613.747 500.778C613.582 500.86 613.348 500.924 613.074 500.962C612.8 501 612.498 501.01 612.207 500.99C611.916 500.971 611.649 500.923 611.439 500.854C611.23 500.784 611.087 500.695 611.029 500.598C610.971 500.501 611.001 500.4 611.114 500.309C611.228 500.217 611.42 500.139 611.667 500.084C611.913 500.029 612.203 500 612.5 500C612.898 500 613.279 500.053 613.561 500.146C613.842 500.24 614 500.367 614 500.5Z" fill="#EFEFEF"/>
<path d="M649.988 49.7281C649.952 50.0822 649.832 50.4051 649.651 50.6384C649.47 50.8717 649.239 51 649 51C648.761 51 648.53 50.8717 648.349 50.6384C648.168 50.4051 648.048 50.0822 648.012 49.7281C647.99 49.5143 647.999 49.296 648.038 49.088C648.078 48.8801 648.147 48.6874 648.241 48.5233C648.335 48.3592 648.451 48.2274 648.582 48.1371C648.713 48.0468 648.856 48 649 48C649.144 48 649.287 48.0468 649.418 48.1371C649.549 48.2274 649.665 48.3592 649.759 48.5233C649.853 48.6874 649.922 48.8801 649.962 49.088C650.001 49.296 650.01 49.5143 649.988 49.7281Z" fill="#EFEFEF"/>
<path d="M40 604.5C40 604.797 39.9707 605.087 39.9157 605.333C39.8608 605.58 39.7827 605.772 39.6913 605.886C39.6 605.999 39.4994 606.029 39.4025 605.971C39.3055 605.913 39.2164 605.77 39.1464 605.561C39.0765 605.351 39.0289 605.084 39.0096 604.793C38.9903 604.502 39.0002 604.2 39.0381 603.926C39.0759 603.652 39.14 603.418 39.2222 603.253C39.3044 603.088 39.4011 603 39.5 603C39.6326 603 39.7598 603.158 39.8536 603.439C39.9473 603.721 40 604.102 40 604.5Z" fill="#EFEFEF"/>
<path d="M489 52.4804C489.005 52.7787 488.891 53.0714 488.674 53.3211C488.456 53.5708 488.144 53.7661 487.777 53.882C487.411 53.998 487.007 54.0294 486.616 53.9721C486.226 53.9149 485.867 53.7716 485.586 53.5607C485.304 53.3497 485.113 53.0806 485.037 52.7878C484.961 52.495 485.003 52.1918 485.157 51.9169C485.312 51.642 485.572 51.408 485.905 51.2447C486.238 51.0814 486.628 50.9962 487.026 51.0001C487.547 51.0052 488.046 51.1628 488.414 51.4393C488.783 51.7158 488.993 52.0894 489 52.4804Z" fill="#EFEFEF"/>
<path d="M479.246 54.6535C479.452 54.899 479.623 55.2028 479.75 55.5475C479.877 55.8922 479.958 56.2711 479.987 56.6625C480.017 57.054 479.995 57.4504 479.922 57.829C479.85 58.2076 479.728 58.5611 479.564 58.8692C479.401 59.1774 479.198 59.4342 478.968 59.6249C478.739 59.8157 478.486 59.9366 478.225 59.981C477.964 60.0253 477.7 59.9921 477.447 59.8832C477.195 59.7743 476.959 59.5919 476.754 59.3465C476.548 59.101 476.377 58.7972 476.25 58.4525C476.123 58.1078 476.042 57.7289 476.013 57.3375C475.983 56.946 476.005 56.5496 476.078 56.171C476.15 55.7924 476.272 55.4389 476.436 55.1308C476.599 54.8226 476.802 54.5658 477.032 54.3751C477.261 54.1843 477.514 54.0634 477.775 54.019C478.036 53.9747 478.3 54.0079 478.553 54.1168C478.805 54.2257 479.041 54.4081 479.246 54.6535Z" fill="#EFEFEF"/>
<path d="M138.124 297.617C138.625 298.043 138.938 298.652 138.992 299.309C139.046 299.966 138.837 300.618 138.412 301.121C137.987 301.624 137.381 301.937 136.726 301.992C136.071 302.046 135.421 301.837 134.919 301.411C134.669 301.21 134.459 300.962 134.304 300.681C134.149 300.4 134.051 300.09 134.015 299.771C133.979 299.451 134.007 299.128 134.096 298.819C134.185 298.51 134.334 298.222 134.535 297.971C134.74 297.701 134.999 297.477 135.295 297.312C135.59 297.147 135.916 297.045 136.253 297.012C136.589 296.979 136.929 297.015 137.251 297.119C137.573 297.223 137.87 297.393 138.124 297.617Z" fill="#EFEFEF"/>
<path d="M709.124 345.617C709.625 346.043 709.938 346.652 709.992 347.309C710.046 347.966 709.837 348.618 709.412 349.121C708.987 349.624 708.381 349.937 707.726 349.992C707.071 350.046 706.421 349.837 705.919 349.411C705.669 349.21 705.459 348.962 705.304 348.681C705.149 348.4 705.051 348.09 705.015 347.771C704.979 347.451 705.007 347.128 705.096 346.819C705.185 346.51 705.334 346.222 705.535 345.971C705.74 345.701 705.999 345.477 706.295 345.312C706.59 345.147 706.916 345.045 707.253 345.012C707.589 344.979 707.929 345.015 708.251 345.119C708.573 345.223 708.87 345.393 709.124 345.617Z" fill="#EFEFEF"/>
<path d="M91.2345 25.7463C91.5467 26.1749 91.779 26.7564 91.9018 27.4168C92.0246 28.0771 92.0324 28.7865 91.9242 29.4546C91.8159 30.1227 91.5966 30.7194 91.294 31.1687C90.9914 31.618 90.6193 31.8997 90.225 31.9778C89.8307 32.0559 89.432 31.927 89.0797 31.6074C88.7273 31.2878 88.4373 30.7921 88.2465 30.1832C88.0556 29.5744 87.9726 28.8799 88.008 28.1882C88.0433 27.4965 88.1954 26.8389 88.445 26.2989C88.7753 25.5842 89.2531 25.1256 89.775 25.0222C90.297 24.9188 90.8212 25.1789 91.2345 25.7463Z" fill="#EFEFEF"/>
<path d="M398.493 401.981C399.112 402.536 399.57 403.284 399.811 404.132C400.051 404.979 400.063 405.888 399.844 406.744C399.626 407.599 399.187 408.362 398.583 408.936C397.979 409.511 397.237 409.871 396.451 409.971C395.665 410.072 394.87 409.907 394.167 409.5C393.464 409.092 392.884 408.459 392.501 407.68C392.118 406.902 391.948 406.013 392.014 405.126C392.079 404.24 392.377 403.395 392.87 402.698C393.197 402.236 393.602 401.85 394.062 401.564C394.522 401.277 395.027 401.095 395.549 401.029C396.071 400.962 396.6 401.012 397.105 401.175C397.61 401.339 398.082 401.612 398.493 401.981Z" fill="#EFEFEF"/>
<path d="M798.493 133.981C799.112 134.536 799.57 135.284 799.811 136.132C800.051 136.979 800.063 137.888 799.844 138.744C799.626 139.599 799.187 140.362 798.583 140.936C797.979 141.511 797.237 141.871 796.451 141.971C795.665 142.072 794.87 141.907 794.167 141.5C793.464 141.092 792.884 140.459 792.501 139.68C792.118 138.902 791.948 138.013 792.014 137.126C792.079 136.24 792.377 135.395 792.87 134.698C793.197 134.236 793.602 133.85 794.062 133.564C794.522 133.277 795.027 133.095 795.549 133.029C796.071 132.962 796.6 133.012 797.105 133.175C797.61 133.339 798.082 133.612 798.493 133.981Z" fill="#EFEFEF"/>
<path d="M470 49.5357C469.993 49.8308 469.899 50.1172 469.73 50.3591C469.561 50.601 469.324 50.7877 469.049 50.8958C468.775 51.0039 468.474 51.0285 468.186 50.9667C467.897 50.9048 467.633 50.7592 467.427 50.5481C467.221 50.337 467.081 50.0697 467.026 49.7797C466.971 49.4898 467.003 49.19 467.117 48.918C467.232 48.646 467.424 48.4138 467.67 48.2505C467.916 48.0872 468.204 48.0001 468.5 48C468.7 47.9999 468.898 48.0399 469.082 48.1175C469.266 48.1951 469.433 48.3088 469.573 48.4519C469.713 48.595 469.823 48.7646 469.896 48.9507C469.969 49.1368 470.004 49.3357 470 49.5357Z" fill="#EFEFEF"/>
<path d="M500 140.5C500 140.898 499.947 141.279 499.854 141.561C499.76 141.842 499.633 142 499.5 142C499.367 142 499.24 141.842 499.146 141.561C499.053 141.279 499 140.898 499 140.5C499 140.102 499.053 139.721 499.146 139.439C499.24 139.158 499.367 139 499.5 139C499.633 139 499.76 139.158 499.854 139.439C499.947 139.721 500 140.102 500 140.5Z" fill="#EFEFEF"/>
<path d="M410 127.5C410 127.898 409.842 128.279 409.561 128.561C409.279 128.842 408.898 129 408.5 129C408.102 129 407.721 128.842 407.439 128.561C407.158 128.279 407 127.898 407 127.5C407 127.102 407.158 126.721 407.439 126.439C407.721 126.158 408.102 126 408.5 126C408.898 126 409.279 126.158 409.561 126.439C409.842 126.721 410 127.102 410 127.5Z" fill="#EFEFEF"/>
<path d="M144 286C144 286.198 143.912 286.391 143.747 286.556C143.582 286.72 143.348 286.848 143.074 286.924C142.8 287 142.498 287.019 142.207 286.981C141.916 286.942 141.649 286.847 141.439 286.707C141.23 286.567 141.087 286.389 141.029 286.195C140.971 286.001 141.001 285.8 141.114 285.617C141.228 285.435 141.42 285.278 141.667 285.169C141.913 285.059 142.203 285 142.5 285C142.898 285 143.279 285.105 143.561 285.293C143.842 285.48 144 285.735 144 286Z" fill="#EFEFEF"/>
<path d="M92 48C92 48.1978 91.9413 48.3911 91.8315 48.5556C91.7216 48.72 91.5654 48.8482 91.3827 48.9239C91.2 48.9996 90.9989 49.0194 90.8049 48.9808C90.6109 48.9422 90.4327 48.847 90.2929 48.7071C90.153 48.5673 90.0578 48.3891 90.0192 48.1951C89.9806 48.0011 90.0004 47.8 90.0761 47.6173C90.1518 47.4346 90.28 47.2784 90.4444 47.1685C90.6089 47.0586 90.8022 47 91 47C91.2652 47 91.5196 47.1054 91.7071 47.2929C91.8946 47.4804 92 47.7348 92 48Z" fill="#EFEFEF"/>
<path d="M40.9999 37.0238C40.9975 37.2205 40.9662 37.4115 40.9099 37.5727C40.8535 37.734 40.7746 37.8585 40.6831 37.9305C40.5916 38.0026 40.4914 38.019 40.3952 37.9778C40.299 37.9366 40.2111 37.8395 40.1423 37.6987C40.0736 37.558 40.0271 37.3798 40.0088 37.1865C39.9904 36.9932 40.001 36.7934 40.0392 36.612C40.0773 36.4307 40.1414 36.2759 40.2234 36.167C40.3053 36.0582 40.4015 36.0001 40.4999 36C40.5665 36 40.6325 36.0266 40.694 36.0783C40.7554 36.1301 40.8111 36.2059 40.8577 36.3013C40.9043 36.3967 40.9409 36.5097 40.9653 36.6338C40.9897 36.7579 41.0014 36.8905 40.9999 37.0238Z" fill="#EFEFEF"/>
<path d="M399 429.455C399.006 430.151 398.864 430.834 398.592 431.416C398.32 431.999 397.93 432.454 397.472 432.725C397.013 432.995 396.508 433.069 396.02 432.935C395.532 432.801 395.084 432.467 394.732 431.975C394.381 431.483 394.142 430.855 394.046 430.172C393.951 429.489 394.003 428.781 394.197 428.14C394.39 427.498 394.715 426.952 395.131 426.571C395.547 426.19 396.035 425.991 396.532 426C396.856 426 397.177 426.09 397.477 426.263C397.776 426.437 398.048 426.691 398.277 427.012C398.506 427.333 398.688 427.714 398.812 428.133C398.936 428.552 399 429.001 399 429.455Z" fill="#EFEFEF"/>
<path d="M799 161.455C799.006 162.151 798.864 162.834 798.592 163.416C798.32 163.999 797.93 164.454 797.472 164.725C797.013 164.995 796.508 165.069 796.02 164.935C795.532 164.801 795.084 164.467 794.732 163.975C794.381 163.483 794.142 162.855 794.046 162.172C793.951 161.489 794.003 160.781 794.197 160.14C794.39 159.498 794.715 158.952 795.131 158.571C795.547 158.19 796.035 157.991 796.532 158C796.856 158 797.177 158.09 797.477 158.263C797.776 158.437 798.048 158.691 798.277 159.012C798.506 159.333 798.688 159.714 798.812 160.133C798.936 160.552 799 161.001 799 161.455Z" fill="#EFEFEF"/>
<path d="M80 164C80.5523 164 81 163.105 81 162C81 160.895 80.5523 160 80 160C79.4477 160 79 160.895 79 162C79 163.105 79.4477 164 80 164Z" fill="#EFEFEF"/>
<path d="M625 169.5C625 169.797 624.912 170.087 624.747 170.333C624.582 170.58 624.348 170.772 624.074 170.886C623.8 170.999 623.498 171.029 623.207 170.971C622.916 170.913 622.649 170.77 622.439 170.561C622.23 170.351 622.087 170.084 622.029 169.793C621.971 169.502 622.001 169.2 622.114 168.926C622.228 168.652 622.42 168.418 622.667 168.253C622.913 168.088 623.203 168 623.5 168C623.898 168 624.279 168.158 624.561 168.439C624.842 168.721 625 169.102 625 169.5Z" fill="#EFEFEF"/>
<path d="M753 271C746.038 288.69 740.368 306.861 736.035 325.368C718.213 398.287 701.915 493.373 609.229 501.697C497.53 511.733 408.084 426.732 312.872 534.613C272.557 580.324 256.736 642.969 222.331 692.628C139.271 813.779 67.4091 700.857 -18.2242 662.804C-28.5174 658.047 -100.474 650.579 -99.9976 651.768C-62.8279 721.834 -71.7868 919.757 -39.0012 1018.5C125.499 1059.94 155.139 982.212 209.512 899.589C266.22 813.351 282.422 659.712 463.314 694.768C644.207 729.825 660.648 654.242 753 271Z" fill="url(#paint17_linear)"/>
<defs>
<linearGradient id="paint0_linear" x1="98.8216" y1="964.252" x2="684.455" y2="-243.838" gradientUnits="userSpaceOnUse">
<stop stop-color="#271A6B"/>
<stop offset="0.21" stop-color="#2E1B71"/>
<stop offset="0.53" stop-color="#431E81"/>
<stop offset="0.91" stop-color="#64249B"/>
<stop offset="1" stop-color="#6D25A2"/>
</linearGradient>
<linearGradient id="paint1_linear" x1="-1131.87" y1="-580.533" x2="903.209" y2="714.641" gradientUnits="userSpaceOnUse">
<stop stop-color="#BD1ACD"/>
<stop offset="0.19" stop-color="#B61BC9"/>
<stop offset="0.48" stop-color="#A11EBE"/>
<stop offset="0.83" stop-color="#8022AC"/>
<stop offset="1" stop-color="#6D25A2"/>
</linearGradient>
<linearGradient id="paint2_linear" x1="123.622" y1="587.496" x2="366.194" y2="481.213" gradientUnits="userSpaceOnUse">
<stop stop-color="#FF17D0"/>
<stop offset="1" stop-color="#FFD394"/>
</linearGradient>
<linearGradient id="paint3_linear" x1="456.359" y1="258.726" x2="584.355" y2="205.883" gradientUnits="userSpaceOnUse">
<stop stop-color="#9796FE"/>
<stop offset="0.99" stop-color="#FF7DFF"/>
</linearGradient>
<linearGradient id="paint4_linear" x1="6701.39" y1="-39560.9" x2="9048.96" y2="-40523.3" gradientUnits="userSpaceOnUse">
<stop stop-color="#9796FE"/>
<stop offset="0.99" stop-color="#FF7DFF"/>
</linearGradient>
<linearGradient id="paint5_linear" x1="17381.6" y1="-23844.3" x2="22137.1" y2="-25819.7" gradientUnits="userSpaceOnUse">
<stop stop-color="#9796FE"/>
<stop offset="0.99" stop-color="#FF7DFF"/>
</linearGradient>
<linearGradient id="paint6_linear" x1="9296.66" y1="-12899.1" x2="10531.4" y2="-13439.1" gradientUnits="userSpaceOnUse">
<stop stop-color="#9796FE"/>
<stop offset="0.99" stop-color="#FF7DFF"/>
</linearGradient>
<linearGradient id="paint7_linear" x1="17581" y1="-26690.6" x2="22808.1" y2="-28862.4" gradientUnits="userSpaceOnUse">
<stop stop-color="#9796FE"/>
<stop offset="0.99" stop-color="#FF7DFF"/>
</linearGradient>
<linearGradient id="paint8_linear" x1="16419.5" y1="-23401.3" x2="20654" y2="-25153.5" gradientUnits="userSpaceOnUse">
<stop stop-color="#9796FE"/>
<stop offset="0.99" stop-color="#FF7DFF"/>
</linearGradient>
<linearGradient id="paint9_linear" x1="140.584" y1="201.819" x2="301.341" y2="131.778" gradientUnits="userSpaceOnUse">
<stop stop-color="#ED1771"/>
<stop offset="0.14" stop-color="#EE1E73"/>
<stop offset="0.35" stop-color="#F13378"/>
<stop offset="0.6" stop-color="#F65481"/>
<stop offset="0.88" stop-color="#FC838D"/>
<stop offset="0.98" stop-color="#FF9692"/>
</linearGradient>
<linearGradient id="paint10_linear" x1="129.726" y1="214.665" x2="299.294" y2="114.827" gradientUnits="userSpaceOnUse">
<stop stop-color="#FF327E"/>
<stop offset="0.13" stop-color="#FF397F"/>
<stop offset="0.32" stop-color="#FF4E83"/>
<stop offset="0.55" stop-color="#FF6F89"/>
<stop offset="0.82" stop-color="#FF9E91"/>
<stop offset="0.98" stop-color="#FFBF97"/>
</linearGradient>
<linearGradient id="paint11_linear" x1="-3450.07" y1="-52048.6" x2="219.116" y2="-53674.2" gradientUnits="userSpaceOnUse">
<stop stop-color="#9796FE"/>
<stop offset="0.99" stop-color="#FF7DFF"/>
</linearGradient>
<linearGradient id="paint12_linear" x1="83.1403" y1="207.853" x2="399.699" y2="111.382" gradientUnits="userSpaceOnUse">
<stop stop-color="#FF75A4"/>
<stop offset="1" stop-color="#FFE76F"/>
</linearGradient>
<linearGradient id="paint13_linear" x1="3735.48" y1="2883.54" x2="3914.04" y2="2883.54" gradientUnits="userSpaceOnUse">
<stop stop-color="#BD1ACD"/>
<stop offset="0.19" stop-color="#B61BC9"/>
<stop offset="0.48" stop-color="#A11EBE"/>
<stop offset="0.83" stop-color="#8022AC"/>
<stop offset="1" stop-color="#6D25A2"/>
</linearGradient>
<linearGradient id="paint14_linear" x1="1047.76" y1="6799.46" x2="2247.63" y2="6799.46" gradientUnits="userSpaceOnUse">
<stop stop-color="#BD1ACD"/>
<stop offset="0.19" stop-color="#B61BC9"/>
<stop offset="0.48" stop-color="#A11EBE"/>
<stop offset="0.83" stop-color="#8022AC"/>
<stop offset="1" stop-color="#6D25A2"/>
</linearGradient>
<linearGradient id="paint15_linear" x1="711.47" y1="13133.5" x2="1832.66" y2="13133.5" gradientUnits="userSpaceOnUse">
<stop stop-color="#BD1ACD"/>
<stop offset="0.19" stop-color="#B61BC9"/>
<stop offset="0.48" stop-color="#A11EBE"/>
<stop offset="0.83" stop-color="#8022AC"/>
<stop offset="1" stop-color="#6D25A2"/>
</linearGradient>
<linearGradient id="paint16_linear" x1="12585.8" y1="1143.94" x2="14098.3" y2="1143.94" gradientUnits="userSpaceOnUse">
<stop stop-color="#BD1ACD"/>
<stop offset="0.19" stop-color="#B61BC9"/>
<stop offset="0.48" stop-color="#A11EBE"/>
<stop offset="0.83" stop-color="#8022AC"/>
<stop offset="1" stop-color="#6D25A2"/>
</linearGradient>
<linearGradient id="paint17_linear" x1="430.386" y1="869.147" x2="349.12" y2="619.431" gradientUnits="userSpaceOnUse">
<stop stop-color="#E2BAE7"/>
<stop offset="1" stop-color="#EFEFEF"/>
</linearGradient>
</defs>
</svg>
