<svg width="109" height="109" viewBox="0 0 109 109" fill="none" xmlns="http://www.w3.org/2000/svg">
<g clip-path="url(#clip0)">
<path d="M28.1887 35.7662L58.4053 28.6682C58.7695 28.5826 59.0849 28.3559 59.282 28.0378C59.479 27.7197 59.5417 27.3364 59.4561 26.9721C59.3705 26.6078 59.1438 26.2925 58.8257 26.0954C58.5076 25.8983 58.1243 25.8357 57.76 25.9213L27.5434 33.0193C27.1791 33.1049 26.8638 33.3316 26.6667 33.6497C26.4696 33.9678 26.407 34.3511 26.4926 34.7154C26.5781 35.0797 26.8049 35.395 27.123 35.5921C27.4411 35.7892 27.8244 35.8518 28.1887 35.7662Z" fill="#8373E6"/>
<path d="M30.1245 44.0071L60.3411 36.9091C60.7053 36.8235 61.0207 36.5967 61.2178 36.2786C61.4148 35.9606 61.4775 35.5772 61.3919 35.2129C61.3063 34.8487 61.0796 34.5333 60.7615 34.3362C60.4434 34.1392 60.06 34.0765 59.6958 34.1621L29.4792 41.2601C29.1149 41.3457 28.7996 41.5725 28.6025 41.8905C28.4054 42.2086 28.3428 42.592 28.4284 42.9562C28.5139 43.3205 28.7407 43.6359 29.0588 43.8329C29.3769 44.03 29.7602 44.0927 30.1245 44.0071Z" fill="#8373E6"/>
<path d="M32.0603 52.2479L62.2768 45.1499C62.6411 45.0643 62.9565 44.8376 63.1535 44.5195C63.3506 44.2014 63.4133 43.8181 63.3277 43.4538C63.2421 43.0895 63.0153 42.7742 62.6973 42.5771C62.3792 42.38 61.9958 42.3174 61.6316 42.4029L31.415 49.501C31.0507 49.5865 30.7354 49.8133 30.5383 50.1314C30.3412 50.4495 30.2786 50.8328 30.3641 51.1971C30.4497 51.5614 30.6765 51.8767 30.9946 52.0738C31.3126 52.2709 31.696 52.3335 32.0603 52.2479Z" fill="#8373E6"/>
<path d="M33.9961 60.4889L64.2126 53.3909C64.5769 53.3053 64.8923 53.0785 65.0893 52.7605C65.2864 52.4424 65.349 52.059 65.2635 51.6948C65.1779 51.3305 64.9511 51.0151 64.6331 50.8181C64.315 50.621 63.9316 50.5583 63.5674 50.6439L33.3508 57.7419C32.9865 57.8275 32.6711 58.0543 32.4741 58.3724C32.277 58.6904 32.2144 59.0738 32.2999 59.4381C32.3855 59.8023 32.6123 60.1177 32.9304 60.3148C33.2484 60.5118 33.6318 60.5745 33.9961 60.4889Z" fill="#8373E6"/>
<path d="M35.9318 68.7297L46.9197 66.1486C47.284 66.0631 47.5993 65.8363 47.7964 65.5182C47.9935 65.2001 48.0561 64.8168 47.9705 64.4525C47.885 64.0883 47.6582 63.7729 47.3401 63.5758C47.022 63.3788 46.6387 63.3161 46.2744 63.4017L35.2866 65.9828C34.9223 66.0684 34.6069 66.2951 34.4099 66.6132C34.2128 66.9313 34.1502 67.3146 34.2357 67.6789C34.3213 68.0432 34.5481 68.3585 34.8661 68.5556C35.1842 68.7527 35.5676 68.8153 35.9318 68.7297Z" fill="#8373E6"/>
<path d="M85.8924 37.6125C84.8198 37.2826 83.6601 37.3917 82.6679 37.9159C81.6756 38.4401 80.9318 39.3365 80.5998 40.4085L78.6152 46.8373L70.6098 12.7578C70.5242 12.3936 70.2975 12.0782 69.9794 11.8811C69.6613 11.6841 69.2779 11.6214 68.9137 11.707L58.4948 14.1544C58.4948 14.1544 53.3805 10.921 53.2486 11.1013C53.1106 11.0924 52.9721 11.104 52.8375 11.1356L13.0065 20.492C12.6422 20.5776 12.3269 20.8044 12.1298 21.1225C11.9327 21.4405 11.8701 21.8239 11.9557 22.1882L12.9644 26.4825C11.8561 27.0638 10.9724 27.997 10.4524 29.1353C9.93231 30.2737 9.8054 31.5526 10.0916 32.7709C10.3778 33.9893 11.0609 35.0779 12.0334 35.8657C13.0058 36.6534 14.2126 37.0955 15.4638 37.1225L16.1908 40.2173C15.0825 40.7986 14.1988 41.7318 13.6787 42.8701C13.1587 44.0085 13.0318 45.2874 13.318 46.5057C13.6042 47.7241 14.2872 48.8127 15.2597 49.6005C16.2322 50.3882 17.439 50.8304 18.6902 50.8573L19.4172 53.9521C18.3088 54.5334 17.4252 55.4666 16.9051 56.6049C16.3851 57.7433 16.2582 59.0222 16.5443 60.2405C16.8305 61.4589 17.5136 62.5475 18.4861 63.3353C19.4586 64.123 20.6654 64.5652 21.9166 64.5922L22.3209 66.3135C21.2126 66.8947 20.3289 67.8279 19.8088 68.9663C19.2888 70.1046 19.1619 71.3835 19.4481 72.6019C19.7343 73.8202 20.4173 74.9089 21.3898 75.6966C22.3623 76.4844 23.5691 76.9265 24.8203 76.9535L26.797 85.3683C26.8826 85.7326 27.1093 86.0479 27.4274 86.245C27.7455 86.4421 28.1288 86.5047 28.4931 86.4191L29.8666 86.0965L30.8345 90.2169C30.9201 90.5812 31.1468 90.8966 31.4649 91.0936C31.783 91.2907 32.1664 91.3533 32.5306 91.2678L67.4328 83.0691L66.8689 84.8961C66.8185 85.06 66.7986 85.2317 66.8102 85.4028C66.8107 85.411 66.81 85.4183 66.8107 85.4266L66.8126 85.4499L66.8138 85.4551L67.4266 92.9995C67.4495 93.2805 67.556 93.5483 67.7325 93.7682C67.909 93.9881 68.1473 94.1501 68.4168 94.2332C68.6862 94.3164 68.9744 94.3169 69.2441 94.2347C69.5138 94.1525 69.7527 93.9914 69.93 93.7721L74.7066 87.864C75.0126 87.4854 75.1537 87.2646 75.0686 87.0328L76.9844 80.8254L84.7229 79.0075C85.0872 78.922 85.4025 78.6952 85.5996 78.3771C85.7967 78.059 85.8593 77.6757 85.7738 77.3114L82.4441 63.1368L88.6879 42.9051C89.0176 41.8325 88.9085 40.673 88.3845 39.6808C87.8604 38.6886 86.9642 37.9448 85.8924 37.6125ZM83.9851 40.4093C84.2318 40.2789 84.5117 40.2247 84.7893 40.2534C85.0668 40.2821 85.3296 40.3925 85.5445 40.5705C85.7593 40.7486 85.9165 40.9864 85.9962 41.2538C86.0759 41.5212 86.0745 41.8063 85.9922 42.0729L85.576 43.4207L82.8805 42.5883L83.2969 41.2405C83.3509 41.0633 83.4396 40.8986 83.5577 40.7559C83.6759 40.6133 83.8211 40.4954 83.9851 40.4093ZM72.6773 85.2125L69.9817 84.3801L80.7996 49.3295L83.4951 50.1618L72.6773 85.2125ZM55.3125 15.5023L61.3944 19.2704L56.4694 20.4273L55.3125 15.5023ZM81.6317 46.6331L82.0478 45.2854L84.7441 46.1175L84.3279 47.4653L81.6317 46.6331ZM68.1855 14.7766L76.8967 51.8606C76.9177 51.9496 76.9473 52.0365 76.9851 52.1199L75.3236 57.5033L66.4064 19.5423C66.3643 19.3622 66.2871 19.1921 66.1792 19.0419C66.0713 18.8916 65.9348 18.7641 65.7775 18.6667L65.776 18.6656L61.887 16.2561L68.1855 14.7766ZM15.0253 22.9164L52.1093 14.2051L54.0451 22.446C54.1307 22.8103 54.3574 23.1257 54.6755 23.3227C54.9936 23.5198 55.3769 23.5824 55.7412 23.4969L63.9821 21.5611L73.6778 62.8359L70.3265 73.6937L29.2213 83.3495L27.5673 76.3084C28.4607 75.8401 29.2121 75.1409 29.7432 74.2834C30.2744 73.426 30.5658 72.4418 30.5872 71.4334C30.5951 71.0592 30.454 70.6972 30.195 70.427C29.936 70.1568 29.5802 70.0006 29.206 69.9927C29.0207 69.9888 28.8365 70.0214 28.6638 70.0887C28.4911 70.156 28.3333 70.2566 28.1996 70.3849C27.9294 70.6439 27.7731 70.9996 27.7652 71.3739C27.7572 71.7484 27.6744 72.1176 27.5217 72.4597C27.369 72.8018 27.1495 73.1099 26.8761 73.366L24.6636 63.947C25.5569 63.4788 26.3083 62.7795 26.8395 61.9221C27.3706 61.0647 27.6621 60.0805 27.6834 59.0721C27.6913 58.6979 27.5503 58.3359 27.2912 58.0657C27.0322 57.7955 26.6765 57.6392 26.3023 57.6313C25.928 57.6234 25.566 57.7645 25.2958 58.0235C25.0256 58.2826 24.8694 58.6383 24.8615 59.0125C24.8534 59.3871 24.7707 59.7562 24.618 60.0983C24.4653 60.4404 24.2458 60.7486 23.9724 61.0047L21.4372 50.2122C22.3305 49.744 23.082 49.0447 23.6131 48.1873C24.1443 47.3299 24.4357 46.3457 24.4571 45.3373C24.465 44.9631 24.3239 44.6011 24.0649 44.3309C23.8058 44.0607 23.4501 43.9044 23.0759 43.8965C22.7017 43.8886 22.3396 44.0297 22.0694 44.2887C21.7993 44.5478 21.643 44.9035 21.6351 45.2777C21.6271 45.6523 21.5443 46.0214 21.3916 46.3635C21.2389 46.7056 21.0194 47.0138 20.746 47.2699L18.2108 36.4774C19.1042 36.0092 19.8556 35.3099 20.3867 34.4525C20.9179 33.5951 21.2093 32.6109 21.2307 31.6025C21.2386 31.2283 21.0975 30.8662 20.8385 30.596C20.5795 30.3259 20.2237 30.1696 19.8495 30.1617C19.4753 30.1538 19.1133 30.2949 18.8431 30.5539C18.5729 30.8129 18.4166 31.1687 18.4087 31.5429C18.4007 31.9175 18.3179 32.2866 18.1652 32.6287C18.0125 32.9708 17.7931 33.279 17.5197 33.5351L15.0253 22.9164ZM12.8406 32.1252C12.7282 31.6434 12.7443 31.1406 12.8874 30.6671C13.0306 30.1936 13.2957 29.766 13.6562 29.4273L14.7721 34.1778C14.2985 34.035 13.8707 33.7702 13.5317 33.4099C13.1927 33.0496 12.9544 32.6066 12.8406 32.1252ZM16.067 45.86C15.9545 45.3783 15.9707 44.8754 16.1138 44.4019C16.2569 43.9284 16.5221 43.5008 16.8825 43.1621L17.9985 47.9126C17.5249 47.7698 17.0971 47.505 16.7581 47.1447C16.4191 46.7844 16.1808 46.3414 16.067 45.86ZM19.2934 59.5948C19.1809 59.1131 19.1971 58.6102 19.3402 58.1367C19.4833 57.6632 19.7484 57.2356 20.1089 56.8969L21.2248 61.6474C20.7512 61.5046 20.3235 61.2398 19.9845 60.8795C19.6455 60.5193 19.4072 60.0762 19.2934 59.5948ZM22.1971 71.9561C22.0847 71.4744 22.1008 70.9716 22.2439 70.4981C22.3871 70.0245 22.6522 69.597 23.0127 69.2582L24.1286 74.0087C23.655 73.8659 23.2272 73.6011 22.8882 73.2408C22.5492 72.8806 22.3109 72.4375 22.1971 71.9561ZM33.2588 88.1982L32.6136 85.4512L69.3619 76.8188L68.3973 79.944L33.2588 88.1982ZM69.792 87.275L71.2021 87.7103L69.9527 89.2552L69.792 87.275ZM82.7042 76.5832L77.9485 77.7004L80.7981 68.4692L82.7042 76.5832Z" fill="#8373E6"/>
</g>
<defs>
<clipPath id="clip0">
<rect width="90.2955" height="90.2955" fill="white" transform="translate(0 20.6488) rotate(-13.2194)"/>
</clipPath>
</defs>
</svg>
