<svg width="106" height="106" viewBox="0 0 106 106" fill="none" xmlns="http://www.w3.org/2000/svg">
<g clip-path="url(#clip0)">
<path d="M85.4888 55.7136L59.319 50.1309C58.6144 49.9806 57.9221 50.43 57.772 51.1339C57.6216 51.8385 58.0704 52.5306 58.775 52.6809L84.9448 58.2636C85.6494 58.4139 86.3415 57.9652 86.4918 57.2606C86.642 56.5567 86.1927 55.8637 85.4888 55.7136Z" fill="#8373E6"/>
<path d="M84.0313 62.5461L57.8614 56.9634C57.1569 56.8131 56.4647 57.2618 56.3144 57.9664C56.1643 58.6703 56.6129 59.3631 57.3175 59.5134L83.4873 65.0961C84.1919 65.2464 84.8841 64.797 85.0343 64.0931C85.1846 63.3885 84.7352 62.6963 84.0313 62.5461Z" fill="#8373E6"/>
<path d="M82.5738 69.3781L56.4039 63.7954C55.6993 63.6451 55.0071 64.0945 54.8569 64.7985C54.7066 65.503 55.1554 66.1952 55.8599 66.3455L82.0298 71.9282C82.7343 72.0785 83.4265 71.6297 83.5768 70.9251C83.7269 70.2212 83.2777 69.5283 82.5738 69.3781Z" fill="#8373E6"/>
<path d="M81.1162 76.2108L54.9464 70.6281C54.2418 70.4778 53.5496 70.9272 53.3994 71.6311C53.2492 72.335 53.6978 73.0278 54.4024 73.1781L80.5722 78.7608C81.2768 78.9111 81.9691 78.4617 82.1193 77.7578C82.2694 77.0539 81.8201 76.3609 81.1162 76.2108Z" fill="#8373E6"/>
<path d="M29.5066 27.9147C31.1916 28.0583 32.8462 28.3022 34.4253 28.6391C43.1566 30.5017 48.2876 34.7775 50.5691 37.1596C50.7564 37.3558 50.9907 37.4808 51.2371 37.5334C51.6455 37.6205 52.0884 37.5101 52.4121 37.2001C52.9322 36.7022 52.9499 35.877 52.4521 35.3563C49.964 32.7579 44.3832 28.0973 34.9693 26.0891C33.2846 25.7297 31.5216 25.4702 29.729 25.3169C29.0117 25.2555 28.3803 25.7874 28.3189 26.5047C28.2575 27.222 28.7873 27.853 29.5066 27.9147Z" fill="#8373E6"/>
<path d="M27.723 36.2768C29.4079 36.4203 31.0625 36.6643 32.6416 37.0012C41.3729 38.8638 46.504 43.1389 48.7854 45.5217C48.9727 45.7179 49.2072 45.8422 49.4536 45.8948C49.862 45.9819 50.3047 45.8722 50.6284 45.5622C51.1486 45.0636 51.1663 44.2384 50.6684 43.7183C48.1804 41.1193 42.5995 36.4593 33.1856 34.4511C31.5009 34.0917 29.738 33.8316 27.9454 33.6783C27.228 33.6176 26.5966 34.1494 26.5352 34.8667C26.4738 35.584 27.0037 36.215 27.723 36.2768Z" fill="#8373E6"/>
<path d="M47.6696 54.2568C48.078 54.3439 48.5201 54.2341 48.8447 53.9236C49.3647 53.4256 49.3824 52.6004 48.8845 52.0804C46.3958 49.4812 40.8156 44.8214 31.4017 42.8132C29.7169 42.4538 27.9534 42.1935 26.1615 42.0404C25.4435 41.9789 24.8128 42.5108 24.7513 43.2288C24.6899 43.9461 25.2199 44.5764 25.9392 44.6382C27.624 44.7824 29.2785 45.0263 30.8577 45.3632C39.589 47.2258 44.7201 51.501 47.0015 53.8838C47.1887 54.0799 47.4226 54.2041 47.6696 54.2568Z" fill="#8373E6"/>
<path d="M47.1006 60.4423C45.1021 58.3545 40.6639 54.5056 33.3974 52.1785C32.7106 51.9577 31.9778 52.3367 31.7586 53.0224C31.5388 53.708 31.9168 54.442 32.6024 54.6618C39.3198 56.8127 43.3892 60.3365 45.2176 62.2457C45.4049 62.4418 45.6387 62.566 45.8858 62.6187C46.2942 62.7058 46.7363 62.596 47.0608 62.2855C47.5808 61.7875 47.5986 60.9623 47.1006 60.4423Z" fill="#8373E6"/>
<path d="M27.288 50.7489C26.3381 50.6025 25.3591 50.486 24.3778 50.4023C23.6598 50.3408 23.0291 50.8728 22.9677 51.5901C22.9112 52.2522 23.3598 52.8408 23.9927 52.9758C24.0458 52.9872 24.1003 52.9953 24.1555 53.0001C25.0787 53.0791 25.9996 53.1887 26.8924 53.3257C27.6043 53.4352 28.2695 52.9467 28.379 52.2348C28.4884 51.5236 27.9998 50.8556 27.288 50.7489Z" fill="#8373E6"/>
<path d="M88.2463 40.0608L63.1894 34.7155C62.1794 34.5001 61.1827 35.1463 60.9672 36.1563L59.5228 42.9272C59.3075 43.9366 59.9537 44.9333 60.9637 45.1488L64.4196 45.886C65.1242 46.0363 65.8164 45.5869 65.9666 44.883C66.1168 44.1791 65.6682 43.4863 64.9636 43.336L62.2263 42.752L63.364 37.4189L86.9837 42.4576L85.846 47.7907L70.8964 44.6016C70.1918 44.4513 69.4996 44.9007 69.3494 45.6046C69.1992 46.3086 69.6478 47.0013 70.3524 47.1516L86.0206 50.4941C87.0306 50.7095 88.0273 50.0633 88.2427 49.0539L89.6871 42.283C89.9025 41.273 89.2563 40.2763 88.2463 40.0608Z" fill="#8373E6"/>
<path d="M98.5821 41.375L95.9444 40.8123L96.9369 36.1598C97.2319 34.7772 96.3469 33.4123 94.9643 33.1173L59.1309 25.4732C58.3314 24.4597 56.0324 21.8017 52.0211 19.1082C47.453 16.0411 39.6804 12.337 28.5972 12.1103C27.4193 12.0861 26.3858 12.905 26.14 14.0571L25.2466 18.2448L21.8466 17.5195C20.7409 17.2836 19.6498 17.9916 19.4141 19.0966L18.3143 24.2518L15.6766 23.6891C14.5364 23.4459 13.4108 24.1757 13.1676 25.3159L2.60825 74.8146C2.36502 75.9548 3.09468 77.0811 4.23489 77.3243L38.1524 84.5598C38.3755 84.6074 38.5654 84.759 38.6599 84.9666C39.0968 85.9193 39.9689 86.6191 40.9942 86.8378L49.6988 88.6948C50.7235 88.9134 51.8059 88.6305 52.5935 87.939C52.7644 87.7887 53.0004 87.7272 53.2229 87.7747L87.1404 95.0101C88.2806 95.2534 89.4064 94.5229 89.6496 93.3827L100.209 43.884C100.452 42.7438 99.7223 41.6182 98.5821 41.375ZM59.3878 28.1941L94.3778 35.6583L83.4448 86.9088L48.4548 79.4445L59.3878 28.1941ZM28.6646 14.72C38.9883 14.9568 46.2129 18.3718 50.461 21.2013C54.0732 23.6076 56.2092 26.0108 56.9838 26.9654L46.1823 77.5996C43.3071 74.5993 36.8924 69.2137 26.2798 66.9498C23.6873 66.3967 20.8425 66.0301 17.7403 65.93L28.6646 14.72ZM21.8478 20.1858L24.7026 20.7948L15.153 65.5606C15.0003 66.2765 15.1719 67.0178 15.6245 67.5941C16.0762 68.1682 16.7525 68.5096 17.482 68.5305C27.699 68.8244 34.8505 72.2371 39.0504 75.0486C40.7757 76.204 42.1523 77.344 43.2035 78.3236L10.9149 71.4356L21.8478 20.1858ZM87.2023 92.3573L53.7669 85.2246C52.7422 85.006 51.66 85.2883 50.8723 85.9798C50.7013 86.1307 50.4653 86.1922 50.2428 86.1447L41.5382 84.2878C41.315 84.2402 41.1253 84.088 41.0306 83.881C40.5939 82.9276 39.7211 82.2283 38.6964 82.0097L5.261 74.8771L15.6148 26.342L17.7703 26.8019L8.24843 71.4375C8.0127 72.5425 8.72056 73.6343 9.82558 73.87L82.9433 89.4679C84.3259 89.7628 85.6908 88.8779 85.9859 87.4946L95.4004 43.3623L97.556 43.8222L87.2023 92.3573Z" fill="#8373E6"/>
</g>
<defs>
<clipPath id="clip0">
<rect width="89" height="89" fill="white" transform="translate(18.5681) rotate(12.0421)"/>
</clipPath>
</defs>
</svg>
