<svg width="87" height="87" viewBox="0 0 87 87" fill="none" xmlns="http://www.w3.org/2000/svg">
<g clip-path="url(#clip0)">
<path d="M85.7614 22.8455C85.7612 22.8455 85.7612 22.8455 85.761 22.8455L85.7582 22.8426L80.1426 22.0414C79.3533 21.929 78.8045 21.198 78.917 20.4087C78.9709 20.0294 79.1736 19.6873 79.48 19.4574L84.0186 16.0534C84.6565 15.575 84.7857 14.6702 84.3073 14.0324L79.1104 7.1031C78.632 6.46521 77.7273 6.33601 77.0894 6.81438L72.5522 10.2184C71.917 10.7004 71.0115 10.5762 70.5295 9.94103C70.2955 9.63264 70.1951 9.24305 70.2511 8.85996L71.0537 3.24437C71.1668 2.45509 70.6188 1.72373 69.8297 1.61041C69.8292 1.61041 69.8286 1.61023 69.8281 1.61023L61.2589 0.386059C60.4698 0.272737 59.7381 0.82058 59.6248 1.60987C59.6248 1.61005 59.6248 1.61005 59.6248 1.61023L58.8221 7.22581C58.7097 8.01509 57.9787 8.56384 57.1894 8.45142C56.8101 8.39746 56.468 8.19482 56.2381 7.88842L52.8355 3.34976C52.3572 2.71187 51.4524 2.58267 50.8145 3.06104L46.4765 6.31634C44.514 6.10774 42.5348 6.10774 40.5722 6.31634C27.7195 7.78538 17.6405 18.0353 16.3877 30.9109C16.3487 31.3194 16.3343 31.725 16.3141 32.1307H15.881C15.196 32.132 14.6061 32.6145 14.4691 33.2856L13.4716 38.0292L9.47576 35.2734C8.90229 34.8777 8.1278 34.9482 7.63517 35.4409L3.30439 39.7716C2.81249 40.2641 2.74211 41.0375 3.13693 41.6108L5.87976 45.5994L1.13467 46.597C0.470976 46.7424 -0.00144029 47.3308 3.29939e-06 48.0102V53.7846C-0.000357599 54.4674 0.478013 55.0571 1.14622 55.1979L5.89131 56.1954L3.14848 60.1841C2.75366 60.7573 2.82403 61.5308 3.31594 62.0232L7.64672 66.354C8.13935 66.8466 8.91384 66.9172 9.4873 66.5214L13.476 63.7714L14.4735 68.5165C14.6104 69.1876 15.2003 69.6701 15.8853 69.6714H21.6597C22.3425 69.6717 22.9322 69.1934 23.073 68.5251L24.0705 63.78L28.0591 66.5229C28.6324 66.9177 29.4058 66.8473 29.8983 66.3554L32.1402 64.1063V68.2205C32.1467 70.2742 33.2469 72.1688 35.0274 73.1923V81.2129C35.0274 84.402 37.6127 86.9873 40.8017 86.9873H46.5761C49.7652 86.9873 52.3505 84.402 52.3505 81.2129V73.1923C54.131 72.1688 55.2312 70.2742 55.2377 68.2205V62.5068C55.2768 60.1027 56.5346 57.8832 58.5767 56.6141C59.7747 55.8369 60.9108 54.968 61.9749 54.0156L60.0492 51.8646C59.0973 52.7178 58.0803 53.4953 57.0075 54.1903C54.1411 55.9893 52.3864 59.1227 52.3505 62.5068V68.2205C52.3505 69.8152 51.0579 71.1077 49.4633 71.1077H37.9146C36.3199 71.1077 35.0274 69.8152 35.0274 68.2205V62.387C34.994 59.0669 33.2669 55.994 30.4483 54.2393C19.0065 47.0499 15.5592 31.9465 22.7487 20.5047C27.2094 13.4057 34.9943 9.0848 43.3786 9.05484C43.3571 9.10627 43.3381 9.15878 43.3223 9.21219C43.2687 9.59114 43.3679 9.97604 43.598 10.2819L47.0005 14.8191C47.3593 15.2834 47.3937 15.9211 47.0872 16.4215C46.7919 16.925 46.2212 17.1996 45.6436 17.1159L40.028 16.3132C39.2387 16.2001 38.5073 16.7481 38.394 17.5372C38.394 17.5378 38.3938 17.5383 38.3938 17.5388L37.1682 26.1123C37.0551 26.9015 37.6031 27.633 38.3922 27.7463C38.3927 27.7463 38.3933 27.7465 38.3938 27.7465L44.0094 28.5491C44.7987 28.6616 45.3474 29.3926 45.235 30.1818C45.1811 30.5611 44.9784 30.9033 44.672 31.1332L40.1348 34.5357C39.4969 35.0141 39.3677 35.9189 39.8461 36.5568L45.043 43.486C45.5214 44.1239 46.4262 44.2531 47.0641 43.7747L51.6027 40.3722C52.2411 39.8947 53.1459 40.0252 53.6234 40.6638C53.8518 40.9693 53.9502 41.3529 53.8966 41.7306L53.0954 47.3462C52.9821 48.1353 53.5299 48.867 54.3192 48.9803C54.3194 48.9803 54.3194 48.9803 54.3196 48.9803L62.8945 50.2059C62.962 50.2146 63.03 50.2189 63.0981 50.2189C63.8168 50.2198 64.4265 49.6918 64.5287 48.9803L65.3299 43.3647C65.4423 42.5755 66.1733 42.0267 66.9626 42.1391C67.3419 42.1931 67.684 42.3957 67.9139 42.7021L71.3179 47.2393C71.7963 47.8772 72.701 48.0064 73.3389 47.5281L80.2682 42.3311C80.9061 41.8528 81.0353 40.948 80.5569 40.3101L77.1543 35.7729C76.7972 35.3079 76.7628 34.6712 77.0677 34.1705C77.3566 33.6604 77.9326 33.3839 78.5113 33.4776L84.1269 34.2788C84.916 34.3921 85.6477 33.8441 85.761 33.055C85.761 33.0548 85.761 33.0548 85.761 33.0546L86.9852 24.4796C87.0985 23.6904 86.5507 22.9588 85.7614 22.8455ZM37.9146 73.9949H49.4633V76.8821H37.9146V73.9949ZM37.9146 79.7693H49.4633V81.2129C49.4633 82.8075 48.1708 84.1001 46.5761 84.1001H40.8017C39.2071 84.1001 37.9146 82.8075 37.9146 81.2129V79.7693ZM26.4221 54.8745C27.2103 55.5191 28.0339 56.1193 28.8892 56.6718C30.2532 57.5338 31.28 58.8379 31.798 60.366L28.7015 63.4567L25.7032 61.3895C24.3902 60.4847 22.5924 60.8156 21.6875 62.1286C21.4706 62.4435 21.3183 62.7982 21.2396 63.1723L20.4832 66.777H17.0517L16.2953 63.1781C15.9669 61.6177 14.4358 60.6189 12.8754 60.9474C12.5013 61.026 12.1466 61.1783 11.8317 61.3952L8.83191 63.4567L6.20168 60.8322L8.26747 57.8353C9.17314 56.5229 8.84328 54.7249 7.53087 53.8193C7.21581 53.6018 6.86068 53.4492 6.48607 53.3703L2.88719 52.6124V49.1824L6.48607 48.4245C8.04588 48.0938 9.04232 46.5612 8.71155 45.0012C8.63306 44.6311 8.48274 44.2802 8.26891 43.9682L6.20168 40.9626L8.83191 38.3381L11.8331 40.4054C13.1466 41.3092 14.9445 40.9772 15.8483 39.6637C16.0649 39.3492 16.2168 38.9948 16.2953 38.6211L16.5479 37.42C16.7793 39.0834 17.1624 40.7219 17.6927 42.3152C12.9427 42.8815 9.55118 47.1913 10.1174 51.9413C10.6837 56.6913 14.9935 60.0828 19.7435 59.5166C22.6029 59.1755 25.1059 57.4358 26.4221 54.8745ZM24.1802 52.8405C23.1022 55.8369 19.7994 57.392 16.8031 56.3141C13.8067 55.2361 12.2516 51.9334 13.3294 48.937C14.1541 46.6448 16.3305 45.118 18.7665 45.123C18.7853 45.123 18.8026 45.123 18.8214 45.123C20.149 47.9855 21.9619 50.5964 24.1802 52.8405ZM83.0991 31.2126L78.9126 30.6149C76.5448 30.2768 74.3512 31.9223 74.0131 34.2899C73.8507 35.427 74.1466 36.582 74.8359 37.5009L77.3723 40.8832L72.7528 44.3478L70.215 40.9669C68.78 39.0533 66.0656 38.6651 64.1521 40.1001C63.2332 40.789 62.6256 41.8149 62.4629 42.9519L61.8782 47.1441L56.163 46.327L56.7607 42.1406C57.0997 39.7729 55.4551 37.5786 53.0875 37.2397C51.9497 37.0768 50.7941 37.3727 49.8747 38.0624L46.4924 40.5988L43.0278 35.9793L46.4087 33.4415C48.3223 32.0065 48.7105 29.292 47.2755 27.3786C46.5866 26.4597 45.5607 25.8521 44.4237 25.6894L40.2373 25.0917L41.0544 19.3765L45.2408 19.9742C47.6085 20.3133 49.8027 18.6686 50.1416 16.301C50.3046 15.1632 50.0086 14.0076 49.319 13.0882L46.7739 9.70302L51.3934 6.23839L53.9312 9.62073C55.3662 11.5344 58.0807 11.9225 59.9942 10.4876C60.913 9.79865 61.5206 8.7728 61.6833 7.63579L62.281 3.44937L67.9962 4.265L67.3985 8.45142C67.0604 10.8193 68.7057 13.0128 71.0736 13.351C72.2106 13.5134 73.3656 13.2174 74.2845 12.5281L77.6668 9.99173L81.1314 14.6112L77.7491 17.1491C75.8354 18.584 75.4473 21.2985 76.8822 23.212C77.5712 24.1308 78.597 24.7384 79.734 24.9012L83.9205 25.4988L83.0991 31.2126Z" fill="#8373E6"/>
<path d="M62.0746 13.745C55.6965 13.745 50.5259 18.9156 50.5259 25.2937C50.5259 31.6719 55.6965 36.8425 62.0746 36.8425C68.4528 36.8425 73.6234 31.6719 73.6234 25.2937C73.6162 18.9185 68.4499 13.752 62.0746 13.745ZM62.0746 33.9553C57.2909 33.9553 53.4131 30.0775 53.4131 25.2937C53.4131 20.51 57.2909 16.6322 62.0746 16.6322C66.8583 16.6322 70.7362 20.51 70.7362 25.2937C70.7306 30.0751 66.856 33.9497 62.0746 33.9553Z" fill="#8373E6"/>
<path d="M45.1326 63.8896H42.2454V68.2204H45.1326V63.8896Z" fill="#8373E6"/>
<path d="M37.3745 49.7121C28.4631 46.2309 24.061 36.1846 27.5424 27.2731C28.8914 23.82 31.3125 20.8908 34.4498 18.9159L32.9066 16.4734C23.4626 22.423 20.6298 34.9019 26.5794 44.3459C28.8835 48.0035 32.2998 50.8259 36.3265 52.3987C39.8907 53.7643 42.2443 57.1856 42.2452 61.0025H45.1324C45.1369 55.9947 42.0509 51.5035 37.3745 49.7121Z" fill="#8373E6"/>
<path d="M81.2224 53.7845H71.1172V56.6717H81.2224V53.7845Z" fill="#8373E6"/>
<path d="M70.5978 61.336L68.7498 63.5542L77.4119 70.771L79.26 68.5528L70.5978 61.336Z" fill="#8373E6"/>
<path d="M65.3428 65.3333H62.4556V75.4384H65.3428V65.3333Z" fill="#8373E6"/>
<path d="M13.0221 22.0679L1.47412 24.9546L2.17391 27.7541L13.7219 24.8674L13.0221 22.0679Z" fill="#8373E6"/>
<path d="M5.54926 7.86037L3.87207 10.2085L13.9764 17.4257L15.6536 15.0776L5.54926 7.86037Z" fill="#8373E6"/>
<path d="M19.0381 0.0120163L16.241 0.727173L19.1935 12.275L21.9906 11.5599L19.0381 0.0120163Z" fill="#8373E6"/>
</g>
<defs>
<clipPath id="clip0">
<rect width="87" height="87" fill="white"/>
</clipPath>
</defs>
</svg>
