<svg width="360" height="360" viewBox="0 0 360 360" fill="none" xmlns="http://www.w3.org/2000/svg">
<path fill-rule="evenodd" clip-rule="evenodd" d="M306.008 51.8855C247.76 18.5581 202.344 116.386 169.357 128.701C102.876 153.521 -20.6058 175.108 2.94346 223.361C35.2783 289.617 147.785 296.227 228.241 289.617C332.889 281.018 420.529 117.41 306.008 51.8855Z" fill="#64FCD9"/>
<path fill-rule="evenodd" clip-rule="evenodd" d="M297.572 158.314C298.172 158.843 298.376 159.672 298.526 160.466L299.439 165.443C299.566 166.136 300.147 166.463 300.37 166.07C300.607 165.652 301.239 165.825 301.663 166.051L306.952 168.865C305.152 170.156 303.029 170.993 300.833 171.277C299.75 171.417 299.575 172.9 299.69 173.986L300.003 176.94C300.101 177.86 298.653 178.173 297.929 177.595C297.206 177.018 296.932 176.051 296.362 175.322C295.441 174.144 293.814 173.705 292.325 173.841C290.836 173.977 289.442 174.602 288.079 175.217C287.201 175.614 286.234 174.563 286.303 173.601C286.364 172.753 286.906 172.042 287.46 171.38L287.68 171.117C288.301 170.38 288.922 169.506 288.817 168.548C288.73 167.75 288.16 167.107 287.589 166.534L287.254 166.198C286.725 165.657 286.222 165.055 286.129 164.314C286.023 163.468 286.795 162.494 287.607 162.756C290.732 163.766 294.496 161.796 295.447 158.652C295.694 157.835 296.932 157.75 297.572 158.314Z" fill="white"/>
<path fill-rule="evenodd" clip-rule="evenodd" d="M297.572 158.314C298.172 158.843 298.376 159.672 298.526 160.466L299.439 165.443C299.566 166.136 299.287 167.207 298.626 166.965C297.685 164.97 297.185 162.768 297.17 160.562C296.811 160.217 296.277 160.73 296.054 161.175L293.822 165.622C293.429 166.405 292.256 166.232 291.481 165.822L291.067 165.603C290.395 165.254 289.663 164.946 289.026 165.289C288.701 166.263 290.146 166.748 290.896 167.449C291.752 168.25 291.702 169.686 291.103 170.694C290.505 171.702 289.493 172.381 288.514 173.026C289.92 173.258 291.419 172.847 292.511 171.931C293.004 171.517 293.455 170.986 294.085 170.854C295.06 170.65 295.936 171.495 296.442 172.353C296.948 173.211 297.348 174.215 298.213 174.71C298.646 174.028 298.414 173.172 298.142 172.384L298.012 172.016C297.699 171.135 297.559 169.968 298.326 169.433C298.614 169.232 298.972 169.173 299.325 169.135L303.097 168.757L300.924 167.174C300.558 166.907 300.147 166.463 300.37 166.07C300.607 165.652 301.239 165.825 301.663 166.051L306.952 168.865C305.152 170.156 303.029 170.993 300.833 171.277C299.75 171.417 299.575 172.9 299.69 173.986L300.003 176.94C300.101 177.86 298.653 178.173 297.929 177.595C297.206 177.018 296.932 176.051 296.362 175.322C295.441 174.144 293.814 173.705 292.325 173.841C290.836 173.977 289.442 174.602 288.079 175.217C287.201 175.614 286.234 174.563 286.303 173.601C286.364 172.753 286.906 172.042 287.46 171.38L287.68 171.117C288.301 170.38 288.922 169.506 288.817 168.548C288.73 167.75 288.16 167.107 287.589 166.534L287.254 166.198C286.725 165.657 286.222 165.055 286.129 164.314C286.023 163.468 286.795 162.494 287.607 162.756C290.732 163.766 294.496 161.796 295.447 158.652C295.694 157.835 296.932 157.75 297.572 158.314Z" fill="#FFB61D"/>
<path fill-rule="evenodd" clip-rule="evenodd" d="M89.4875 69.0397C87.2243 58.9819 93.3902 42.2866 104.407 35.5738C115.423 28.8611 129.515 28.4012 141.784 32.3876C141.393 20.5351 153.413 10.3644 165.231 11.3436C177.05 12.3229 186.856 22.9335 188.444 34.6857C189.681 43.8427 184.98 54.7499 175.89 56.4085C179.103 67.8891 180.89 79.9684 179.126 91.759C177.362 103.55 171.751 115.067 162.282 122.31C159.668 125.827 161.643 131.131 165.084 133.844C168.526 136.556 172.98 137.509 177.099 139.006C194.355 145.278 206.505 162.302 209.337 180.443C212.169 198.584 206.512 217.398 196.289 232.65C189.288 243.097 179.762 252.374 167.845 256.391C151.118 262.031 132.779 256.54 116.536 249.628C110.344 246.993 104.039 243.999 99.6685 238.883C94.9831 233.398 86.1277 236.36 79.7417 239.715C83.9879 241.477 88.2341 243.238 92.4803 245C93.3927 245.379 94.3826 245.828 94.8057 246.721C95.6964 248.6 93.5023 250.408 91.6451 251.344C89.6494 252.348 87.6536 253.353 85.6579 254.358C73.4078 260.527 60.6497 266.83 46.9394 267.211C31.9499 267.627 17.7907 260.927 4.30038 254.38C2.8009 253.652 1.21145 252.842 0.396132 251.388C-0.419187 249.934 0.0365558 247.667 1.64792 247.241C16.7817 243.239 31.1098 236.215 43.5424 226.702C42.5914 220.781 42.8155 214.673 44.1981 208.837C44.398 207.993 44.6856 207.068 45.4378 206.636C47.2871 205.573 48.8934 208.372 49.2201 210.479C50.0449 215.799 50.8697 221.119 51.6944 226.439C61.5981 225.344 71.2099 221.706 79.3569 215.969C73.0026 210.852 66.6483 205.734 60.294 200.617C56.6276 197.664 53.0886 195.898 51.1085 190.116C49.7884 186.262 50.8538 182.302 54.3047 178.238C50.4524 159.04 48.7668 144.568 49.2479 134.822C49.3764 132.22 49.6675 129.412 51.4185 127.484C54.5093 124.08 60.5782 125.548 63.3993 129.178C66.2205 132.808 66.6927 137.68 67.0575 142.263C77.7994 140.951 88.5412 139.638 99.2831 138.326C103.213 137.846 107.283 137.377 111.066 138.546C115.811 140.014 119.623 144.17 120.674 149.025C125.207 147.8 130.144 146.291 132.704 142.354C135.264 138.418 133.096 131.572 128.405 131.775C113.731 132.41 99.3801 121.521 96.0403 107.218C95.1909 103.581 94.8608 99.5384 92.3071 96.812C88.2605 92.4919 85.1772 86.9224 85.1969 81.003C85.2167 75.0837 87.6967 74.3774 89.4875 69.0397ZM1.89595 251.207C2.22633 251.7 2.80297 251.959 3.34912 252.193C8.95262 254.591 14.5561 256.989 20.1596 259.387C22.7093 260.478 25.2673 261.572 27.9336 262.335C35.3698 264.463 43.3827 263.944 50.7762 266.215C51.673 266.491 52.6356 266.206 53.5286 265.919C59.977 263.841 66.3496 261.529 72.6294 258.987C79.1994 256.328 85.71 253.395 91.5432 249.368C92.0739 249.002 92.6246 248.595 92.8668 247.998C93.1089 247.4 92.8858 246.569 92.2656 246.393C88.3289 245.275 84.4492 243.956 80.6467 242.443C79.4243 241.957 78.0481 241.263 77.7888 239.973C74.4389 240.108 71.5095 242.221 69.0386 244.487C66.5677 246.753 64.2466 249.312 61.202 250.715C58.1573 252.119 54.071 251.998 51.9618 249.392C51.7365 249.113 51.5103 248.793 51.1639 248.703C50.8175 248.612 50.3726 248.957 50.534 249.277C50.9522 250.105 50.0541 251.151 49.1284 251.094C48.2027 251.036 47.4789 250.193 47.2511 249.294C47.0232 248.395 45.7864 250.001 43.9939 250.268C42.2014 250.536 40.2997 249.385 39.7043 247.674C39.2136 246.263 37.2897 246.238 35.8196 245.974C32.477 245.374 29.9386 241.871 30.4087 238.508C20.8022 241.712 11.3699 245.437 2.16718 249.664C1.62733 249.912 1.56557 250.713 1.89595 251.207Z" fill="white"/>
<path d="M136.763 112.828C139.583 112.828 141.87 110.541 141.87 107.72C141.87 104.899 139.583 102.613 136.763 102.613C133.942 102.613 131.655 104.899 131.655 107.72C131.655 110.541 133.942 112.828 136.763 112.828Z" fill="#FFB61D"/>
<path d="M101.31 108.621C102.803 108.621 104.014 107.411 104.014 105.917C104.014 104.424 102.803 103.214 101.31 103.214C99.8166 103.214 98.606 104.424 98.606 105.917C98.606 107.411 99.8166 108.621 101.31 108.621Z" fill="#FFB61D"/>
<path fill-rule="evenodd" clip-rule="evenodd" d="M161.153 128.219C161.621 130.646 163.011 132.998 164.862 134.457C168.304 137.169 176.04 139.962 180.159 141.458C180.533 141.595 178.42 142.788 175.693 145.427C168.308 152.571 152.16 165.364 136.385 158.935C134.541 158.184 133 157.319 131.744 156.402C130.587 155.557 141.207 156.774 151.136 154.892C161.119 152.999 170.408 147.999 167.921 144.034C165.585 140.308 159.012 133.996 158.5 130.284C157.817 125.338 160.751 126.132 161.153 128.219Z" fill="#E7EAEE"/>
<path fill-rule="evenodd" clip-rule="evenodd" d="M1.69312 249.802C1.69312 247.821 7.94047 246.218 18.6203 242.2C25.9659 239.437 40.2834 231.442 47.3278 231.07C52.0152 230.822 70.7476 237.68 82.9728 242.605C89.1198 245.082 93.8615 246.633 93.8615 247.428C93.8615 249.023 80.8097 256.728 67.47 261.792C60.9589 264.263 54.8501 266.477 49.2478 266.327C32.1677 265.872 1.69312 254.818 1.69312 249.802Z" fill="white"/>
<path fill-rule="evenodd" clip-rule="evenodd" d="M242.988 85.243C218.495 95.7039 198.034 113.579 178.539 131.756L177.347 132.869C176.209 133.932 174.483 135.043 173.256 134.086L177.044 130.637C196.865 112.629 217.358 94.7726 241.882 84.1636C260.737 76.0069 260.536 77.7478 242.988 85.243ZM137.488 259.489L148.977 272.004C149.54 272.617 150.127 273.276 150.284 274.093C150.442 274.911 149.968 275.909 149.14 275.995L125.484 278.469C121.555 278.88 117.548 276.156 116.416 272.371C115.285 268.585 117.096 264.151 120.518 262.177C123.94 260.203 128.634 260.826 131.475 263.572C132.178 264.252 133.414 263.674 133.914 262.832C134.413 261.991 134.521 260.959 135.037 260.128C135.554 259.296 136.826 258.768 137.488 259.489ZM118.411 266.713C116.944 269.497 117.872 273.268 120.383 275.165C121.613 276.094 123.124 276.593 124.646 276.838C126.796 277.185 129.291 276.922 130.673 275.239C131.178 274.625 131.487 273.872 131.698 273.105C132.401 270.554 132.044 267.727 130.728 265.431C130.37 264.806 129.819 264.153 129.1 264.184C128.758 264.199 128.44 264.372 128.099 264.407C127.533 264.465 127.008 264.142 126.492 263.902C123.639 262.573 119.878 263.929 118.411 266.713ZM136.467 262C136.015 263.883 135.081 265.649 133.777 267.081C133.41 267.484 133.5 268.108 133.574 268.648C133.937 271.28 133.337 274.033 131.914 276.276C134.246 275.724 136.631 275.394 139.026 275.292C142.308 275.152 145.733 275.415 148.742 274.095C147.134 273.396 145.77 272.151 144.926 270.615C144.43 269.712 143.743 268.93 143.062 268.156L137.831 262.211C137.452 261.782 136.6 261.443 136.467 262ZM77.0571 261.887C77.8073 264.229 80.6288 265.032 83.0732 265.454L99.3858 268.178C103.158 268.808 107.029 269.437 110.78 268.693C111.488 268.553 111.862 269.676 111.395 270.226C110.928 270.776 110.116 270.842 109.394 270.844C106.126 270.855 102.877 270.421 99.643 269.935L96.198 269.409C90.1005 268.472 84.006 267.475 78.0378 265.921C77.0162 265.656 75.958 265.352 75.176 264.643C74.394 263.934 73.9873 262.695 74.5376 261.794C75.0878 260.893 76.7351 260.881 77.0571 261.887ZM165.231 11.3436C177.05 12.3229 186.856 22.9336 188.444 34.6857C189.681 43.8427 184.98 54.7499 175.89 56.4085C179.103 67.8891 180.89 79.9684 179.126 91.759C177.362 103.55 171.751 115.067 162.282 122.31C159.668 125.827 161.643 131.131 165.084 133.844C168.526 136.556 172.98 137.509 177.099 139.006C194.355 145.278 206.505 162.302 209.337 180.443C212.169 198.584 206.512 217.398 196.289 232.65C189.288 243.097 179.762 252.374 167.845 256.392C151.286 261.974 133.145 256.649 117.024 249.835L116.536 249.628C110.473 247.048 104.302 244.123 99.9442 239.2L99.6685 238.883C94.9831 233.398 86.1277 236.36 79.7417 239.715L92.4803 245C93.3927 245.379 94.3826 245.828 94.8057 246.721C95.6964 248.6 93.5023 250.408 91.6451 251.344L84.1655 255.109C72.3718 261.028 60.0939 266.845 46.9394 267.211C32.1242 267.622 18.1201 261.082 4.77124 254.608L3.92413 254.196C2.54137 253.513 1.14351 252.721 0.396132 251.388C-0.419187 249.934 0.0365558 247.667 1.64792 247.241C16.7817 243.239 31.1098 236.215 43.5424 226.702C42.5914 220.781 42.8155 214.673 44.1981 208.837L44.2685 208.554C44.4677 207.794 44.7692 207.02 45.4378 206.636C47.2871 205.573 48.8934 208.372 49.2201 210.479L51.6944 226.439C61.5981 225.344 71.2099 221.706 79.3569 215.969L59.7816 200.204C56.2768 197.368 52.7283 194.303 51.1085 190.116C49.4096 185.726 50.7763 179.775 55.1666 178.076C55.513 161.446 54.6364 144.79 52.5462 128.288C49.6559 144.769 51.9788 161.667 54.3047 178.238C50.3164 164.432 48.5894 149.976 49.211 135.619L49.2479 134.822C49.3764 132.22 49.6675 129.412 51.4185 127.484C54.5093 124.08 60.5782 125.548 63.3993 129.178C66.2205 132.808 66.6927 137.68 67.0575 142.263L100.021 138.236C103.721 137.793 107.519 137.45 111.066 138.546C115.811 140.014 119.623 144.17 120.674 149.025L121.448 148.814C125.759 147.621 130.289 146.068 132.704 142.354C135.237 138.46 133.141 131.717 128.554 131.771L128.405 131.775C113.731 132.41 99.3801 121.521 96.0403 107.218C95.1909 103.581 94.8608 99.5384 92.3071 96.812C88.2605 92.4919 85.1772 86.9224 85.1969 81.003C85.2167 75.0837 88.991 68.9792 94.7388 67.5642C100.487 66.1492 107.289 70.9447 106.793 76.8432C109.582 76.5593 112.434 76.9222 115.063 77.8954C113.564 73.8539 117.449 69.3928 121.72 68.8062C125.99 68.2196 130.151 70.3526 133.703 72.7958C137.254 75.2391 140.648 78.1154 144.776 79.3537L144.967 78.9133C145.82 76.921 146.606 74.7932 146.176 72.687C145.714 70.4249 143.165 68.4685 141.102 69.5043C139.653 65.354 137.348 61.5047 134.374 58.2683L126.107 62.1659C125.042 60.5707 124.389 58.7024 124.23 56.7909C118.771 59.9104 112.847 62.2125 106.714 63.5971L107.341 58.9149L89.0151 68.4337C86.3092 55.8201 93.3902 42.2866 104.407 35.5738C115.423 28.8611 129.515 28.4012 141.784 32.3876C141.393 20.5351 153.413 10.3644 165.231 11.3436ZM255.39 216.931C244.832 219.478 234.583 223.304 224.937 228.297L224.24 228.661C218.895 231.477 213.65 234.85 210.3 239.857C212.562 239.465 214.977 240.054 216.804 241.445C217.958 242.323 218.922 243.64 218.853 245.089C218.818 245.84 218.506 246.556 218.085 247.179C216.442 249.614 212.962 250.603 210.284 249.396C207.606 248.189 206.042 244.927 206.777 242.083C195.416 245.962 185.648 254.308 180.033 264.919L179.845 265.277C179.568 265.811 179.23 266.409 178.644 266.542C177.837 266.724 177.119 265.824 177.156 264.997C177.193 264.171 177.722 263.459 178.234 262.809C184.855 254.402 192.592 246.399 202.495 242.342L203.24 242.042C205.576 241.115 208.022 240.206 209.53 238.229C213.189 233.436 218.456 230.146 223.805 227.361C228.592 224.869 233.543 222.693 238.617 220.853C243.708 219.006 248.914 217.5 254.13 216.04L271.802 211.12C267.023 214.479 261.069 215.56 255.39 216.931ZM30.4087 238.508C20.8022 241.712 11.3699 245.438 2.16718 249.664C1.62733 249.912 1.56557 250.713 1.89595 251.207C2.22633 251.7 2.80297 251.959 3.34912 252.193L20.1596 259.387C22.7093 260.478 25.2673 261.572 27.9336 262.335C35.3698 264.463 43.3827 263.944 50.7762 266.215C51.673 266.491 52.6356 266.206 53.5286 265.919C59.977 263.841 66.3496 261.529 72.6294 258.987C79.1994 256.328 85.71 253.395 91.5432 249.369C92.0739 249.002 92.6246 248.595 92.8668 247.998C93.1089 247.4 92.8858 246.569 92.2656 246.393C88.3289 245.275 84.4492 243.956 80.6467 242.443L80.3829 242.335C79.2334 241.855 78.0296 241.171 77.7888 239.973C74.4389 240.108 71.5095 242.221 69.0386 244.487C66.5677 246.753 64.2466 249.312 61.202 250.715C58.1573 252.119 54.071 251.998 51.9618 249.392L51.8256 249.222C51.6412 248.994 51.4411 248.775 51.1639 248.703C50.8175 248.612 50.3726 248.957 50.534 249.277C50.9522 250.105 50.0541 251.151 49.1284 251.094C48.2027 251.036 47.4789 250.193 47.2511 249.294C47.1046 248.716 47.1175 248.119 47.1875 247.523L47.2051 247.376C46.7936 248.834 45.5034 250.043 43.9939 250.268C42.2014 250.536 40.2997 249.385 39.7043 247.674C39.2136 246.263 37.2897 246.238 35.8196 245.974C32.477 245.374 29.9386 241.871 30.4087 238.508ZM53.1112 182.368C51.131 185.89 52.9703 190.348 55.4093 193.57C63.0579 203.672 75.8687 208.521 84.6096 217.695C86.8059 220 88.7203 222.554 90.6102 225.117L96.5505 233.185C97.6423 234.668 98.738 236.155 100.012 237.485C103.334 240.951 107.708 243.188 112.034 245.27C120.813 249.494 129.843 253.375 139.374 255.391C148.905 257.408 159.031 257.476 168.201 254.188C176.784 251.111 184.179 245.209 189.925 238.129C195.535 231.218 199.652 223.207 202.952 214.937L203.192 214.332C203.666 213.125 204.133 211.864 204.034 210.571C203.93 209.204 203.202 207.962 202.352 206.886C199.111 202.786 193.695 200.467 188.508 201.108C183.402 201.739 178.727 205.282 176.857 210.069L176.77 210.298C172.705 221.316 162.584 229.603 151.214 232.544C139.844 235.484 127.478 233.377 117.1 227.88C106.721 222.383 98.253 213.681 91.939 203.779L91.5943 203.233C90.4537 201.402 89.4166 199.475 89.0151 197.363C88.5734 195.04 89.0225 192.427 90.7003 190.76C91.8087 189.659 93.3861 189.013 94.1922 187.675C94.9984 186.337 94.0517 183.973 92.5644 184.451L91.5723 184.765C84.7366 186.892 76.806 188.542 71.3066 184.116L70.7782 183.693C68.2124 181.654 65.4704 179.708 62.2826 179.007C58.875 178.257 54.821 179.327 53.1112 182.368ZM80.3596 218.075C72.0684 223.313 62.7114 226.857 53.03 228.426C51.7519 228.633 51.4084 230.29 51.3883 231.584C51.3243 235.699 51.5236 239.818 51.9844 243.907C53.0331 243.414 53.4621 242.18 54.177 241.268C54.892 240.356 56.5235 239.856 57.0762 240.875C57.4622 241.586 56.947 242.478 56.2891 242.95C55.6312 243.422 54.8222 243.677 54.2355 244.235C52.7759 245.623 53.5388 248.353 55.3171 249.3C57.0954 250.246 59.3448 249.752 61.0497 248.679C62.7547 247.606 64.0719 246.034 65.5175 244.631C68.6093 241.631 72.3911 239.346 76.4851 238.005C81.6825 236.303 87.4699 236.05 92.0424 233.049C92.3504 232.847 92.6691 232.61 92.7853 232.26C92.944 231.783 92.6756 231.287 92.3906 230.862L86.9198 222.919C86.0483 221.653 85.0455 220.294 83.5524 219.932C82.8697 219.766 82.1418 219.83 81.4718 219.619C80.8019 219.408 80.1707 218.751 80.3596 218.075ZM42.1643 229.614C40.0313 230.61 38.769 232.951 38.4881 235.289C38.2072 237.626 38.7588 239.979 39.414 242.24C39.8163 243.628 40.2623 245.012 40.9275 246.295C41.3517 247.112 41.9133 247.928 42.7633 248.284C43.6133 248.639 44.7929 248.32 45.0692 247.441C45.183 247.079 45.132 246.687 45.0661 246.313C44.8186 244.909 44.3744 243.539 43.7511 242.256L43.4894 241.736C43.1144 240.985 42.7613 240.1 43.2434 239.446C43.7038 238.82 44.8352 238.562 44.727 237.793L43.6707 230.284C43.6398 230.064 43.6036 229.833 43.461 229.663C43.161 229.306 42.5869 229.417 42.1643 229.614ZM211.274 241.196C210.57 241.193 209.829 241.29 209.263 241.71C208.932 241.956 208.682 242.299 208.506 242.672C207.763 244.248 208.449 246.274 209.857 247.3C211.265 248.326 213.217 248.422 214.847 247.807C216.094 247.337 217.294 246.272 217.252 244.94C217.219 243.889 216.421 243.012 215.542 242.436C214.285 241.614 212.776 241.203 211.274 241.196ZM46.1665 208.335C45.9862 208.469 45.897 208.69 45.8209 208.901C44.7117 211.979 44.5759 215.315 44.6065 218.586C44.6832 226.787 45.7369 234.979 47.7382 242.934L47.8377 243.321C48.2468 244.874 48.806 246.467 50.0729 247.427C50.3086 234.823 49.4907 222.198 47.6307 209.729C47.51 208.92 46.8232 207.846 46.1665 208.335ZM36.1779 235.428C35.9131 235.502 35.7431 235.755 35.611 235.996C34.5293 237.969 34.4563 240.463 35.4206 242.497C35.8529 243.408 36.5943 244.295 37.5971 244.406C38.0059 243.898 37.8191 243.164 37.59 242.54L37.3922 242.013C36.6561 240.017 36.0519 237.858 36.7008 235.852C36.7854 235.591 36.4427 235.354 36.1779 235.428ZM32.5696 238.162C31.8111 239.848 32.149 241.97 33.3939 243.338C33.9077 242.812 33.6817 241.952 33.5062 241.238C33.2316 240.121 33.1696 238.953 33.3245 237.813C33.1331 237.532 32.709 237.852 32.5696 238.162ZM48.5574 178.058C49.7072 179.049 50.4382 181.186 49.0728 181.848C48.1979 182.272 47.2066 181.652 46.3804 181.139C42.0878 178.476 36.5991 178.28 31.7324 179.634C26.8657 180.989 22.5148 183.749 18.4313 186.724C14.3648 189.685 10.4438 192.935 7.38608 196.93C4.32834 200.925 2.16553 205.739 1.98805 210.767C1.77538 216.791 4.37812 222.551 7.38777 227.774C9.30598 231.103 11.4691 234.385 14.4468 236.802L15.0589 237.286C15.9036 237.964 16.7709 238.805 16.5555 239.825C13.6368 239.693 11.5184 237.082 9.9111 234.642C7.62551 231.173 5.54209 227.571 3.67493 223.859C2.12237 220.773 0.703251 217.558 0.231574 214.136C-0.655517 207.7 1.95751 201.155 6.01896 196.084C10.0804 191.013 15.4856 187.208 20.9525 183.698C25.1051 181.031 29.3788 178.474 34.0403 176.854C38.8477 175.183 44.7013 174.737 48.5574 178.058ZM171.928 149.711C165.015 156.164 155.827 160.127 146.389 160.728C142.218 160.993 137.912 160.595 134.137 158.799C130.363 157.003 127.185 153.655 126.307 149.569L125.994 149.666C123.262 150.53 120.135 152.094 120.162 154.909C120.279 166.848 120.001 178.791 119.33 190.712C119.201 192.999 118.33 196.003 116.039 195.935C107.903 195.696 99.7133 197.575 92.4946 201.336C100.62 214.079 112.175 225.219 126.548 229.886C140.922 234.553 158.257 231.637 168.329 220.371C171.558 216.759 173.934 212.49 176.223 208.213L176.75 207.226C177.236 206.313 177.731 205.229 177.299 204.29C177.023 203.691 177.618 203.068 178.165 202.698C186.202 197.258 198.169 198.734 204.644 205.963C204.131 204.96 204.598 203.577 205.614 203.089C206.421 204.387 206.592 206.061 206.063 207.495C206.413 207.99 207.055 207.193 207.111 206.59C207.974 197.192 207.906 187.708 206.909 178.324C206.549 174.94 206.06 171.535 204.85 168.354C203.788 165.565 202.192 163.009 200.444 160.591C196.421 155.027 191.531 150.091 186.004 146.018L185.602 145.726C184.726 145.098 183.804 144.52 182.768 144.238C178.67 143.123 175.033 146.813 171.928 149.711ZM116.084 144.305C111.515 145.843 106.566 145.547 101.756 145.879C94.9777 146.348 88.2909 148.111 82.1624 151.045C79.5228 152.308 76.9694 153.794 74.178 154.673C68.2496 156.539 61.4538 155.387 56.4727 151.669C55.3989 159.867 55.7156 168.245 57.4053 176.338C57.5138 176.858 57.8561 177.523 58.3638 177.367C61.7326 176.333 65.356 177.796 68.3513 179.653C71.3466 181.51 74.1616 183.825 77.5639 184.744C81.555 185.822 85.7846 184.825 89.735 183.573L90.0308 183.479C92.0558 182.829 94.6749 182.286 95.9734 183.971C97.0686 185.392 96.3771 187.513 95.2175 188.882C94.058 190.251 92.4854 191.268 91.5395 192.792C90.378 194.664 90.372 197.192 91.5246 199.068C99.0692 196.043 107.144 194.345 115.269 194.077C116.898 194.024 117.47 191.915 117.57 190.288C118.447 176.03 118.716 161.736 118.377 147.455C118.341 145.933 117.528 143.819 116.084 144.305ZM238.235 182.859L238.558 183.021C240.559 184.038 242.688 185.392 242.986 187.583C243.084 188.305 242.961 189.038 242.789 189.746C242.552 190.725 242.19 191.731 241.429 192.391C240.621 193.091 239.487 193.29 238.419 193.248C236.316 193.167 234.211 192.187 232.993 190.471C231.775 188.755 231.579 186.3 232.715 184.528C233.852 182.757 236.349 181.924 238.235 182.859ZM235.116 185.31C233.869 185.83 233.42 187.516 233.941 188.762C234.461 190.009 235.697 190.829 236.98 191.249C238.293 191.679 239.984 191.644 240.767 190.505C241.027 190.126 241.15 189.67 241.222 189.216C241.379 188.227 241.284 187.132 240.647 186.359C239.858 185.403 238.511 185.21 237.253 185.139L236.941 185.124C236.325 185.096 235.685 185.072 235.116 185.31ZM77.7479 159.54C77.9056 160.138 77.7844 160.77 77.6767 161.379C76.9179 165.671 76.863 170.087 77.5133 174.396L77.6335 175.159C77.7127 175.699 77.7451 176.268 77.4352 176.702C77.0775 177.203 76.0753 177.153 76.0252 176.539C75.5983 171.318 75.3248 166.083 75.2051 160.846C75.1823 159.845 75.4434 158.515 76.4412 158.438C77.0581 158.39 77.5903 158.942 77.7479 159.54ZM42.6339 149.076C43.3719 149.298 44.0807 149.803 44.2945 150.544C44.5084 151.284 44.0217 152.219 43.2526 152.268C42.5358 152.313 41.9888 151.66 41.3302 151.374C40.1479 150.86 38.8214 151.578 37.7344 152.271L37.1811 152.629C36.1375 153.316 35.1267 154.087 34.5536 155.183C33.9674 156.304 33.9183 157.621 33.9364 158.886C33.949 159.766 33.9902 160.658 34.2621 161.494C34.8519 163.308 36.535 164.668 38.4019 165.061C40.2688 165.454 42.2654 164.945 43.8447 163.874L44.1538 163.664C44.4327 163.48 44.725 163.32 45.053 163.304C45.5041 163.283 45.9978 163.708 45.8445 164.133C45.7985 164.26 45.7041 164.363 45.6096 164.46C43.0283 167.112 38.5709 167.679 35.4074 165.759C34.843 165.417 34.3169 165.003 33.8904 164.499C32.6085 162.985 32.3693 160.862 32.334 158.878C32.315 157.805 32.3415 156.715 32.6467 155.685C33.306 153.461 35.1693 151.808 37.1059 150.531C38.7503 149.446 40.7474 148.508 42.6339 149.076ZM27.6993 144.512L34.1347 152.154C33.7807 152.537 33.1602 152.562 32.6819 152.354C32.2567 152.169 31.9176 151.839 31.5981 151.499L27.8223 147.438C27.3075 151.56 26.0604 155.589 24.1568 159.281C23.9715 159.64 24.4965 159.944 24.8986 159.985C25.8807 160.086 26.8738 159.974 27.8423 159.782L28.3414 159.681C29.1234 159.526 29.9254 159.404 30.6545 159.693C31.5398 160.043 32.0861 161.332 31.3762 161.967C30.9386 162.358 30.2756 162.309 29.6931 162.237L23.4257 161.462L23.2331 161.434C22.6143 161.333 21.9342 161.091 21.8436 160.494C21.7889 160.135 21.9886 159.791 22.1754 159.479C24.4062 155.756 25.8925 151.589 26.5234 147.295L26.6184 146.614C26.7411 145.778 26.9581 144.872 27.6993 144.512ZM246.953 156.519C247.73 157.068 248.463 158.147 247.861 158.884C247.485 159.345 246.759 159.357 246.218 159.109C245.676 158.861 245.256 158.416 244.789 158.047C242.874 156.533 239.998 156.373 237.927 157.666C237.632 157.85 237.339 158.079 237.22 158.405C237.1 158.731 237.232 159.17 237.565 159.268C240.208 158.148 243.359 158.305 245.878 159.681C246.243 159.88 246.625 160.145 246.714 160.55C246.804 160.955 246.369 161.441 246.007 161.238C244.363 160.318 242.401 159.979 240.544 160.295C239.679 160.443 238.832 160.727 237.954 160.755C237.076 160.783 236.116 160.49 235.65 159.746C235.22 159.059 235.322 158.132 235.742 157.438C236.161 156.745 236.848 156.254 237.567 155.88C240.493 154.357 244.261 154.613 246.953 156.519ZM159.276 119.365C153.001 124.64 145.627 128.601 137.766 130.923L137.241 131.076C136.22 131.367 134.936 132.013 135.15 133.053L135.283 133.698C135.675 135.637 136.007 137.612 135.728 139.564C135.426 141.668 134.266 143.775 132.346 144.659L132.169 144.736C128.75 146.143 128.27 151.25 130.512 154.19C132.754 157.13 136.642 158.268 140.314 158.693C151.093 159.939 162.341 156.326 170.377 149.034C173.291 146.39 175.899 143.224 179.507 141.653L170.484 138.35C168.049 137.459 165.583 136.551 163.464 135.058C161.346 133.565 159.579 131.391 159.145 128.835C158.615 125.704 160.116 122.427 159.276 119.365ZM55.1856 127.829C54.9591 127.93 54.7278 128.063 54.6189 128.286C54.5099 128.509 54.5467 128.772 54.5852 129.017L56.6526 142.049C57.2619 145.89 58.1178 150.146 61.2853 152.402C64.755 154.872 69.5198 153.904 73.5601 152.494L73.7759 152.418C81.2969 149.747 88.5351 146.028 96.4177 144.777C102.077 143.879 108.012 144.263 113.364 142.214C111.406 139.26 107.165 139.276 103.618 139.663L74.6361 142.957C72.3908 143.212 70.0325 143.51 68.2091 144.845C67.4113 145.429 66.6559 146.231 65.668 146.272C64.7068 146.311 63.8713 144.912 64.6247 144.397L64.6912 144.356C65.5172 143.901 65.4616 142.715 65.2926 141.788L64.416 136.982C63.9728 134.598 63.4316 132.171 62.0053 130.225C60.4648 128.123 57.567 126.771 55.1856 127.829ZM255.266 147.308C255.965 148.121 255.995 149.37 255.529 150.336C255.063 151.302 254.181 152.013 253.227 152.502C252.076 153.093 250.808 153.401 249.537 153.664L248.902 153.793C248.653 153.843 248.391 153.892 248.15 153.812C247.95 153.746 247.788 153.596 247.656 153.43C247.001 152.609 247.024 151.396 247.467 150.443C247.91 149.49 248.704 148.749 249.52 148.086C250.353 147.408 251.26 146.77 252.305 146.522C253.35 146.274 254.566 146.493 255.266 147.308ZM251.839 148.738L251.505 148.963C251.005 149.305 250.523 149.679 250.186 150.179C249.776 150.79 249.633 151.642 250.038 152.256L252.727 150.76C253.164 150.517 253.618 150.259 253.902 149.846C254.186 149.434 254.243 148.818 253.892 148.461C253.364 147.924 252.466 148.321 251.839 148.738ZM208.958 119.317C209.146 119.393 209.272 119.563 209.382 119.737L213.32 126.169C214.024 127.319 215.625 127.447 216.97 127.352C219.547 127.171 222.099 126.645 224.538 125.793C224.947 125.65 225.335 126.171 225.247 126.595C225.158 127.019 224.794 127.321 224.452 127.588L218.537 132.198C217.811 132.147 218.017 130.958 218.606 130.53L218.78 130.408C219.348 130.025 220.036 129.647 220.001 128.989L216.582 130.057C215.93 130.261 215.204 130.461 214.583 130.175C214.171 129.984 213.882 129.61 213.62 129.234L209.277 122.895L209.202 128.446C209.196 128.901 209.177 129.395 208.888 129.747C208.683 129.996 208.376 130.131 208.07 130.244L202.077 132.394C203.678 133.994 206.673 132.31 208.588 133.516C209.9 134.342 210.124 136.183 209.841 137.707C209.558 139.232 208.909 140.715 208.993 142.263C210.087 141.47 210.89 140.285 211.222 138.975C211.355 138.448 211.421 137.886 211.715 137.427C212.525 136.163 214.458 136.421 215.798 137.097C217.139 137.773 218.529 138.746 219.995 138.424L217.868 135.023C217.674 134.713 217.473 134.377 217.49 134.011C217.507 133.646 217.854 133.276 218.205 133.382C218.358 133.429 218.472 133.55 218.574 133.677L223.319 139.829C221.653 140.928 219.454 140.236 217.529 139.705L217.244 139.631C215.367 139.166 213.075 139.12 212.038 140.711C211.308 141.832 210.45 142.871 209.488 143.801C209.082 144.192 208.62 144.583 208.059 144.647C207.499 144.711 206.855 144.286 206.905 143.724L207.457 137.504C207.493 137.101 207.52 136.663 207.295 136.327C207.059 135.972 206.614 135.835 206.203 135.721L201.019 134.289C199.892 133.978 199.883 132.224 200.729 131.416C201.574 130.608 202.82 130.439 203.946 130.126C205.073 129.814 206.292 129.15 206.495 127.999L207.811 120.546C207.923 119.909 208.358 119.075 208.958 119.317ZM69.4737 14.2465L68.5163 15.0246C62.137 20.2233 55.8506 25.6734 51.1719 32.4313C46.2593 39.5271 43.2434 48.3261 44.7059 56.8317C46.8372 69.2265 57.924 79.0976 58.398 91.6654C58.461 93.3348 60.161 94.3738 61.5832 95.2502C67.1962 98.7094 71.3556 104.199 74.1002 110.194C76.7591 116.002 78.1786 122.295 79.2108 128.601L79.3095 129.212C79.4632 130.173 79.5756 131.268 78.9551 132.019C78.3347 132.769 76.7396 132.507 76.8015 131.535C77.5295 120.108 73.3766 108.45 65.5879 100.057C63.5645 97.8769 61.2142 95.8559 58.3649 95.0022C58.1834 99.4036 56.7015 103.889 53.5644 106.981C50.4274 110.074 45.4785 111.487 41.4173 109.78C37.3561 108.074 34.8716 102.921 36.6994 98.9127C38.2305 95.5551 42.033 93.8589 45.6534 93.1441C49.2056 92.4427 52.888 92.4061 56.4535 93.0368C56.9332 93.1217 57.1422 92.451 57.1326 91.964C56.8748 78.9006 44.7995 68.6731 43.2145 55.7037C42.3482 48.6158 44.7665 41.4809 48.2761 35.2623C52.885 27.0959 59.4416 20.0374 67.2464 14.8396L67.4507 14.707C68.0759 14.3135 68.8046 13.9779 69.4737 14.2465ZM109.233 80.7811C107.485 81.905 107.53 84.3994 107.386 86.4719C107.187 89.3149 106.21 92.1604 104.304 94.2788C102.397 96.3973 99.501 97.6986 96.6734 97.3429C95.9418 97.2509 95.7195 98.3094 95.8154 99.0404C97.4592 111.57 105.06 123.871 116.873 128.357C124.095 131.1 132.253 130.735 139.616 128.397C146.804 126.115 153.309 122.057 159.255 117.41L159.689 117.069C160.551 116.389 161.418 115.679 162.017 114.758C162.625 113.824 162.924 112.72 163.07 111.615C163.85 105.697 159.895 99.5043 154.198 97.7231C153.527 97.5135 153.682 96.4257 154.27 96.0417C154.859 95.6578 155.616 95.6838 156.288 95.4785C158.108 94.9224 158.946 92.8494 159.361 90.9921C159.932 88.4402 160.092 85.53 158.511 83.4475C156.373 80.6331 152.218 80.6366 148.694 80.9064L142.976 81.3441C141.003 81.4951 138.463 82.1906 138.37 84.1676C138.171 88.4255 136.295 92.6669 132.981 95.348C129.667 98.0291 124.895 98.9561 120.961 97.3149C117.09 95.6998 114.355 91.4852 114.802 87.3241L114.826 87.1228C115.059 85.3626 114.931 83.4513 113.899 82.0059C112.868 80.5605 110.726 79.8205 109.233 80.7811ZM156.457 14.2439C153.908 14.9687 151.459 16.1377 149.446 17.8623C146.633 20.2726 144.763 23.7555 144.308 27.4317C144.147 28.7343 144.406 30.4142 145.671 30.7642C148.761 31.619 151.526 33.6013 153.328 36.2536C150.406 34.5151 147.204 33.2501 143.883 32.5229L157.92 40.4657C158.734 40.9261 159.578 41.4151 160.09 42.1975C160.602 42.98 160.655 44.1477 159.952 44.764L158.971 44.0004C156.512 42.097 153.998 40.2519 151.245 38.8115C149.152 37.7162 146.943 36.8664 144.722 36.0569L143.51 35.6181C139.398 34.1347 135.249 32.6419 130.919 32.0493C126.899 31.4991 122.773 31.7434 118.846 32.7638L118.072 32.9622C112.767 34.3045 107.236 35.4021 102.851 38.6452C100.242 40.5744 98.1995 43.157 96.2598 45.7579L95.8022 46.3786C91.9484 51.6699 88.4268 58.1935 90.6817 64.2643C101.034 62.9891 109.099 54.9794 118.477 50.4135C119.193 50.0646 120.376 49.9578 120.485 50.7475L109.991 56.9487C110.282 58.55 110.007 60.2486 109.225 61.6759C116.891 59.5094 124.059 55.5975 130.032 50.3244L130.411 49.986C131.358 49.1332 133.184 48.4276 133.587 49.6366L133.074 49.9234C131.191 50.9827 129.317 52.1414 128.019 53.8567C126.603 55.728 126.039 58.4484 127.294 60.4312L140.542 52.6312C141.08 52.3143 141.667 51.9861 142.288 52.0513C142.909 52.1165 143.491 52.7854 143.223 53.3493L142.773 53.4432C141.343 53.747 139.893 54.1277 138.779 55.0591C137.549 56.0886 136.911 58.0186 137.826 59.3369C139.466 61.7016 140.797 64.2805 141.774 66.9874C141.796 65.8037 143.409 65.1984 144.473 65.7181C145.536 66.2378 146.099 67.4108 146.484 68.5301C147.587 71.7322 147.878 75.21 147.324 78.5509C150.655 79.7272 154.562 78.3377 157.767 79.8256C160.741 81.2067 162.196 84.7889 161.989 88.0616C161.782 91.3343 160.236 94.3603 158.585 97.1934C163.2 100.769 165.666 106.928 164.792 112.701C165.597 112.57 166.277 111.876 166.391 111.068L168.222 112.223C165.358 113.841 163.322 116.845 162.877 120.103C175.456 108.332 179.632 89.6763 177.817 72.5448L177.746 71.9059C177.027 65.7196 175.315 59.2711 170.663 55.1733C173.157 53.7352 176.356 54.3008 179.025 53.2209C181.547 52.2006 183.28 49.8356 184.451 47.38C188.364 39.1705 187.017 28.7253 181.148 21.7781C175.278 14.8308 165.205 11.757 156.457 14.2439ZM115.336 117.2C115.733 117.266 116.183 117.4 116.338 117.771C116.587 118.363 115.891 118.905 115.29 119.129C114.416 119.454 113.499 119.663 112.57 119.747C111.791 119.817 110.808 119.667 110.567 118.923C110.409 118.433 110.684 117.883 111.1 117.582C111.517 117.28 112.044 117.178 112.555 117.123C113.48 117.022 114.418 117.049 115.336 117.2ZM101.107 108.711C103.844 111.928 108.127 113.632 112.351 113.665C116.575 113.698 120.719 112.171 124.226 109.816L124.521 109.618C124.966 109.322 125.429 109.044 125.951 108.953C126.589 108.842 127.348 109.11 127.566 109.721C123.898 112.836 119.3 114.893 114.507 115.328C109.714 115.763 104.75 114.533 100.839 111.729C100.134 111.223 99.4046 110.557 99.3754 109.689C99.3463 108.822 100.544 108.05 101.107 108.711ZM43.7277 95.084C41.8242 95.6913 39.9085 96.5811 38.7076 98.178C36.9236 100.55 37.2356 104.149 39.1623 106.407C41.0891 108.665 44.3472 109.566 47.254 108.966C50.1607 108.366 52.6844 106.405 54.3178 103.927C55.9512 101.448 56.751 98.49 56.9933 95.5318C57.0339 95.0359 56.9438 94.3795 56.4546 94.2885C52.2332 93.503 47.8185 93.779 43.7277 95.084ZM111.18 83.5252C111.259 84.2075 110.995 84.8769 110.752 85.5195C109.382 89.1506 108.547 92.9837 108.285 96.856C108.242 97.4832 108.218 98.1337 108.448 98.7188C108.665 99.2714 109.169 99.7521 109.754 99.7851L109.858 99.7862C110.39 99.7674 110.642 100.561 110.308 100.975C109.973 101.389 109.345 101.435 108.834 101.283C107.786 100.971 107.035 99.996 106.731 98.9458C106.427 97.8955 106.505 96.7742 106.657 95.6915C107.173 92.0206 108.514 88.4614 108.579 84.7549C108.598 83.709 108.812 82.2991 109.854 82.2158C110.539 82.1612 111.1 82.843 111.18 83.5252ZM124.206 71.1361C122.029 71.5841 120.367 73.3699 119.238 75.2844C116.925 79.2065 116.266 84.0696 117.452 88.4658C117.984 90.4397 118.894 92.3475 120.322 93.8107C121.75 95.2739 123.734 96.2561 125.778 96.2222C127.205 96.1986 128.59 95.6922 129.829 94.985C133.968 92.6235 136.598 87.8377 136.371 83.0777C136.145 78.3177 133.074 73.8028 128.729 71.8444C127.315 71.2066 125.726 70.8234 124.206 71.1361ZM94.1602 69.1846C90.2705 70.6257 87.7595 74.6651 87.2243 78.7785C86.6892 82.8919 87.843 87.0528 89.4875 90.8609C89.9304 91.8865 90.4339 92.9292 91.2843 93.6536C92.1347 94.378 93.4222 94.7028 94.3884 94.1421C94.8382 93.8811 95.2584 94.4914 95.5998 94.8838C96.2798 95.6655 97.4762 95.7321 98.4922 95.5291C101.839 94.8602 104.412 91.9352 105.453 88.6845C106.459 85.5421 106.245 82.1408 105.65 78.8892L105.587 78.5533C104.96 75.274 103.543 71.5886 100.35 70.612C98.6759 70.1 96.6565 70.3992 95.3624 69.2202C95.05 68.9356 94.5565 69.0378 94.1602 69.1846ZM155.974 83.089C157.289 84.5468 156.751 86.8107 156.093 88.6812L156.039 88.832C155.776 89.5655 155.503 90.3164 155 90.9112C154.496 91.5061 153.705 91.9215 152.942 91.7627C152.179 91.6039 151.585 90.7191 151.905 90.0087C152.303 89.127 153.655 89.082 154.143 88.2468L152.825 88.1223C151.937 88.0385 150.981 87.9258 150.323 87.3234C149.665 86.7211 149.582 85.4465 150.382 85.0518C150.937 84.7782 151.604 85.0463 152.117 85.3911C152.631 85.7359 153.121 86.1724 153.733 86.2664C154.344 86.3603 155.087 85.8803 154.961 85.275C154.785 84.4326 155.218 83.4999 155.974 83.089ZM125.88 88.78C125.984 89.3596 126.022 89.9744 125.805 90.5218C125.588 91.0693 125.06 91.5274 124.471 91.5029C123.56 91.4649 123.072 90.4155 122.913 89.5175C122.716 88.4079 123.023 86.881 124.147 86.7984C125.109 86.7277 125.709 87.8309 125.88 88.78ZM97.8043 86.4248C98.2582 87.0862 98.1941 87.97 98.0137 88.7517C97.783 89.7519 97.2029 90.8678 96.1818 90.9723C95.2597 91.0666 94.4724 90.2416 94.1709 89.3651C93.8029 88.2955 93.9815 86.9887 94.8166 86.2258C95.6517 85.4628 97.1643 85.4921 97.8043 86.4248ZM98.6543 75.1365C99.0619 75.3238 99.3491 75.8373 99.1429 76.2356L98.7487 76.3391C96.5047 76.9379 94.1124 77.7712 93.0406 79.8001C92.7838 80.2864 92.6172 80.8229 92.2973 81.2702C91.9774 81.7176 91.4382 82.0731 90.9001 81.9598C90.2868 81.8307 89.932 81.1249 89.9975 80.5016C90.063 79.8784 90.4422 79.335 90.8484 78.8578C92.5003 76.9169 94.8281 75.5629 97.3319 75.0867C97.7725 75.0029 98.2467 74.9492 98.6543 75.1365ZM127.334 76.257C128.005 76.7977 128.515 77.5183 129.193 78.0501C129.766 78.4995 130.49 78.8548 130.75 79.5347C131.01 80.2146 130.227 81.1749 129.659 80.7196C128.176 79.5309 126.529 78.5462 124.78 77.8018C123.987 77.4644 124.167 76.1301 124.94 75.7502C125.714 75.3704 126.663 75.7163 127.334 76.257ZM119.023 71.993C117.561 72.475 116.522 74.0136 116.621 75.5499C117.18 75.2637 117.606 74.7289 117.76 74.1199L117.738 74.0584C118.387 73.5456 118.85 72.8018 119.023 71.993Z" fill="#00160A"/>
<path fill-rule="evenodd" clip-rule="evenodd" d="M36.6359 256.118C37.2241 256.123 37.7651 256.396 38.279 256.696L38.5567 256.86C41.7068 258.746 45.0308 260.342 48.4728 261.619C48.9458 261.795 48.7989 262.589 48.3378 262.794C47.8768 262.999 47.3447 262.816 46.8745 262.633L36.7095 258.678C36.0591 258.425 35.304 258.039 35.2469 257.344C35.1901 256.651 35.9407 256.112 36.6359 256.118Z" fill="#E7EAEE"/>
<path fill-rule="evenodd" clip-rule="evenodd" d="M20.431 245.043L51.8765 256.198L52.0741 256.272C52.9052 256.597 53.8041 257.152 53.7152 258.011C53.6429 258.71 52.869 259.161 52.1664 259.137C51.5719 259.117 51.0227 258.853 50.4973 258.562L50.213 258.402C45.8285 255.915 41.2284 253.864 36.5105 252.091C31.1662 250.084 25.6708 248.434 20.1667 246.915C19.3249 246.683 18.2583 245.931 18.7409 245.203C19.0795 244.693 19.8539 244.839 20.431 245.043Z" fill="#E7EAEE"/>
</svg>
