<svg width="1903" height="499" viewBox="0 0 1903 499" fill="none" xmlns="http://www.w3.org/2000/svg">
<g id="clouds-page4">
<path id="cloud-1" d="M293.47 225.185C294.34 221.442 294.78 217.611 294.783 213.768C294.783 184.626 270.01 161 239.452 161C218.435 161 200.16 172.177 190.789 188.637C184.952 185.576 178.455 183.983 171.861 183.995C150.179 183.995 132.601 200.766 132.601 221.449C132.601 221.994 132.62 222.536 132.644 223.076H132.517C114.006 223.072 99 237.383 99 255.035C99 272.687 114.006 287 132.517 287H281.476C299.987 287 314.993 272.689 314.993 255.035C315 241.413 306.057 229.786 293.47 225.185Z" fill="#A3A3FF"/>
<path id="cloud-2" d="M728.045 167.771C728.609 165.335 728.895 162.842 728.896 160.341C728.896 141.375 712.84 126 693.033 126C679.411 126 667.566 133.274 661.493 143.986C657.71 141.994 653.499 140.957 649.225 140.965C635.171 140.965 623.778 151.879 623.778 165.34C623.778 165.695 623.791 166.047 623.806 166.399H623.724C611.726 166.396 602 175.71 602 187.198C602 198.685 611.726 208 623.724 208H720.272C732.269 208 741.995 198.687 741.995 187.198C742 178.332 736.204 170.766 728.045 167.771Z" fill="#A3A3FF"/>
<path id="cloud-3" d="M1842.05 183.771C1842.61 181.335 1842.89 178.842 1842.9 176.341C1842.9 157.375 1826.84 142 1807.03 142C1793.41 142 1781.57 149.274 1775.49 159.986C1771.71 157.994 1767.5 156.957 1763.22 156.965C1749.17 156.965 1737.78 167.879 1737.78 181.34C1737.78 181.695 1737.79 182.047 1737.81 182.399H1737.72C1725.73 182.396 1716 191.71 1716 203.198C1716 214.685 1725.73 224 1737.72 224H1834.27C1846.27 224 1856 214.687 1856 203.198C1856 194.332 1850.2 186.766 1842.05 183.771Z" fill="#A3A3FF"/>
<path id="cloud-4" d="M1544.92 367.395C1545.21 366.147 1545.35 364.87 1545.35 363.589C1545.35 353.875 1537.21 346 1527.17 346C1520.26 346 1514.25 349.726 1511.17 355.212C1509.25 354.192 1507.12 353.661 1504.95 353.665C1497.82 353.665 1492.04 359.255 1492.04 366.15C1492.04 366.331 1492.05 366.512 1492.06 366.692H1492.02C1485.93 366.691 1481 371.461 1481 377.345C1481 383.229 1485.93 388 1492.02 388H1540.98C1547.07 388 1552 383.23 1552 377.345C1552 372.804 1549.06 368.929 1544.92 367.395Z" fill="#A3A3FF"/>
<path id="cloud-5" d="M942.923 325.395C943.209 324.147 943.354 322.87 943.355 321.589C943.355 311.875 935.212 304 925.167 304C918.259 304 912.252 307.726 909.171 313.212C907.253 312.192 905.117 311.661 902.95 311.665C895.823 311.665 890.045 317.255 890.045 324.15C890.045 324.331 890.051 324.512 890.059 324.692H890.017C883.933 324.691 879 329.461 879 335.345C879 341.229 883.933 346 890.017 346H938.981C945.065 346 949.998 341.23 949.998 335.345C950 330.804 947.06 326.929 942.923 325.395Z" fill="#A3A3FF"/>
<path id="cloud-6" d="M1254.92 112.395C1255.21 111.147 1255.35 109.87 1255.35 108.589C1255.35 98.8752 1247.21 91 1237.17 91C1230.26 91 1224.25 94.7256 1221.17 100.212C1219.25 99.1921 1217.12 98.6609 1214.95 98.665C1207.82 98.665 1202.04 104.255 1202.04 111.15C1202.04 111.331 1202.05 111.512 1202.06 111.692H1202.02C1195.93 111.691 1191 116.461 1191 122.345C1191 128.229 1195.93 133 1202.02 133H1250.98C1257.07 133 1262 128.23 1262 122.345C1262 117.804 1259.06 113.929 1254.92 112.395Z" fill="#A3A3FF"/>
</g>
</svg>
