<svg width="1507" height="262" viewBox="0 0 1507 262" fill="none" xmlns="http://www.w3.org/2000/svg">
<path d="M178.47 99.1855C179.34 95.4416 179.78 91.6113 179.783 87.7681C179.783 58.6255 155.01 35 124.452 35C103.435 35 85.1597 46.1769 75.7891 62.6375C69.9524 59.5764 63.455 57.9828 56.8609 57.9949C35.1788 57.9949 17.6006 74.7655 17.6006 95.4488C17.6006 95.994 17.6198 96.5358 17.6442 97.0759H17.5168C-0.994037 97.0724 -16 111.383 -16 129.035C-16 146.687 -0.994037 161 17.5168 161H166.476C184.987 161 199.993 146.689 199.993 129.035C200 115.413 191.057 103.786 178.47 99.1855Z" fill="#FF6DA2"/>
<path d="M613.045 41.7715C613.609 39.335 613.895 36.8422 613.896 34.3412C613.896 15.3754 597.84 0 578.033 0C564.411 0 552.566 7.27387 546.493 17.9863C542.71 15.9942 538.499 14.957 534.225 14.965C520.171 14.965 508.778 25.8792 508.778 39.3397C508.778 39.6945 508.791 40.0471 508.806 40.3986H508.724C496.726 40.3963 487 49.7097 487 61.1976C487 72.6855 496.726 82 508.724 82H605.272C617.269 82 626.995 72.6866 626.995 61.1976C627 52.332 621.204 44.7656 613.045 41.7715Z" fill="#FF6DA2"/>
<path d="M1499.92 241.395C1500.21 240.147 1500.35 238.87 1500.35 237.589C1500.35 227.875 1492.21 220 1482.17 220C1475.26 220 1469.25 223.726 1466.17 229.212C1464.25 228.192 1462.12 227.661 1459.95 227.665C1452.82 227.665 1447.04 233.255 1447.04 240.15C1447.04 240.331 1447.05 240.512 1447.06 240.692H1447.02C1440.93 240.691 1436 245.461 1436 251.345C1436 257.229 1440.93 262 1447.02 262H1495.98C1502.07 262 1507 257.23 1507 251.345C1507 246.804 1504.06 242.929 1499.92 241.395Z" fill="#FF6DA2"/>
<path d="M827.923 199.395C828.209 198.147 828.354 196.87 828.355 195.589C828.355 185.875 820.212 178 810.167 178C803.259 178 797.252 181.726 794.171 187.212C792.253 186.192 790.117 185.661 787.95 185.665C780.823 185.665 775.045 191.255 775.045 198.15C775.045 198.331 775.051 198.512 775.059 198.692H775.017C768.933 198.691 764 203.461 764 209.345C764 215.229 768.933 220 775.017 220H823.981C830.065 220 834.998 215.23 834.998 209.345C835 204.804 832.06 200.929 827.923 199.395Z" fill="#FF6DA2"/>
<path d="M1168.92 82.3952C1169.21 81.1472 1169.35 79.8704 1169.35 78.5894C1169.35 68.8752 1161.21 61 1151.17 61C1144.26 61 1138.25 64.7256 1135.17 70.2125C1133.25 69.1921 1131.12 68.6609 1128.95 68.665C1121.82 68.665 1116.04 74.2552 1116.04 81.1496C1116.04 81.3313 1116.05 81.5119 1116.06 81.6919H1116.02C1109.93 81.6908 1105 86.4611 1105 92.3451C1105 98.2291 1109.93 103 1116.02 103H1164.98C1171.07 103 1176 98.2297 1176 92.3451C1176 87.8042 1173.06 83.9287 1168.92 82.3952Z" fill="#FF6DA2"/>
</svg>
