<svg width="74" height="74" viewBox="0 0 74 74" fill="none" xmlns="http://www.w3.org/2000/svg">
<g clip-path="url(#clip0)">
<path d="M46.1596 2.69218L10.8536 7.93317C10.6076 7.96969 10.3766 8.10807 10.2284 8.30796L1.79602 19.68C1.64792 19.8798 1.58318 20.1405 1.61968 20.3864L9.41453 72.8965C9.49174 73.4166 9.9759 73.7757 10.4962 73.6985L17.8475 72.6072C18.3677 72.53 18.7267 72.0457 18.6495 71.5256C18.5723 71.0055 18.0881 70.6463 17.5678 70.7236L11.1584 71.675L3.64322 21.0491L12.6031 19.7191C13.1234 19.6419 13.4824 19.1576 13.4052 18.6374L12.075 9.67702L45.4974 4.71564L46.8694 13.9581C46.9466 14.4783 47.4307 14.8374 47.951 14.7601C48.4713 14.6829 48.8302 14.1986 48.753 13.6785L47.2412 3.4942C47.164 2.97406 46.6797 2.61497 46.1596 2.69218V2.69218ZM4.6951 18.9678L10.3891 11.2888L11.3817 17.9752L4.6951 18.9678Z" fill="#8373E6"/>
<path d="M48.2796 16.9818C47.7593 17.059 47.4004 17.5433 47.4776 18.0634L54.4813 65.244L21.6718 70.1144C21.1515 70.1916 20.7925 70.6759 20.8698 71.1961C20.947 71.7162 21.4311 72.0753 21.9514 71.9981L55.7028 66.9879C56.223 66.9106 56.582 66.4264 56.5048 65.9062L49.3612 17.7838C49.284 17.2637 48.7998 16.9046 48.2796 16.9818Z" fill="#8373E6"/>
<path d="M24.8768 25.4882C25.3971 25.411 25.7561 24.9267 25.6788 24.4065L25.116 20.615L29.8882 19.9066L30.451 23.6981C30.5282 24.2183 31.0124 24.5774 31.5327 24.5002C32.0529 24.4229 32.4119 23.9387 32.3347 23.4185L31.0279 14.6157C30.7463 12.7184 28.9736 11.4039 27.0762 11.6855L25.4187 11.9316C23.5214 12.2132 22.2069 13.986 22.4886 15.8833L23.7953 24.6861C23.8724 25.2063 24.3567 25.5654 24.8768 25.4882ZM25.6983 13.8152L27.3558 13.5692C28.2145 13.4417 29.0168 14.0366 29.1443 14.8953L29.6085 18.0228L24.8364 18.7312L24.3721 15.6037C24.2446 14.745 24.8396 13.9427 25.6983 13.8152Z" fill="#8373E6"/>
<path d="M40.769 16.3662L38.3831 16.7204L38.0289 14.3345C37.9517 13.8143 37.4675 13.4552 36.9472 13.5324C36.427 13.6097 36.068 14.0939 36.1452 14.6141L36.4994 17L34.1133 17.3542C33.593 17.4315 33.2341 17.9157 33.3113 18.4359C33.3885 18.956 33.8727 19.3151 34.3929 19.2379L36.779 18.8837L37.1332 21.2698C37.2104 21.7899 37.6946 22.149 38.2149 22.0718C38.7351 21.9946 39.0941 21.5103 39.0169 20.9902L38.6627 18.6041L41.0486 18.2499C41.5689 18.1727 41.9279 17.6884 41.8507 17.1683C41.7735 16.6481 41.2893 16.289 40.769 16.3662Z" fill="#8373E6"/>
<path d="M42.3331 33.8195L14.2863 37.9829C13.766 38.0601 13.4071 38.5444 13.4843 39.0645C13.5615 39.5847 14.0457 39.9438 14.5659 39.8665L42.6127 35.7031C43.133 35.6259 43.4919 35.1416 43.4147 34.6215C43.3375 34.1014 42.8533 33.7422 42.3331 33.8195Z" fill="#8373E6"/>
<path d="M43.3018 40.3444L15.2551 44.5078C14.7348 44.585 14.3758 45.0693 14.453 45.5894C14.5303 46.1096 15.0144 46.4687 15.5347 46.3914L43.5814 42.228C44.1017 42.1508 44.4607 41.6665 44.3835 41.1464C44.3062 40.6263 43.8221 40.2671 43.3018 40.3444Z" fill="#8373E6"/>
<path d="M44.2703 46.8693L16.2236 51.0327C15.7033 51.1099 15.3443 51.5942 15.4215 52.1143C15.4988 52.6345 15.9829 52.9936 16.5032 52.9163L44.5499 48.7529C45.0702 48.6757 45.4292 48.1914 45.352 47.6713C45.2748 47.1512 44.7906 46.792 44.2703 46.8693Z" fill="#8373E6"/>
<path d="M45.2388 53.3942L17.1921 57.5576C16.6718 57.6348 16.3128 58.1191 16.3901 58.6392C16.4673 59.1594 16.9514 59.5185 17.4717 59.4412L45.5185 55.2778C46.0387 55.2006 46.3977 54.7163 46.3205 54.1962C46.2433 53.6761 45.7591 53.3169 45.2388 53.3942Z" fill="#8373E6"/>
<path d="M72.0127 52.0481L69.7673 36.9222C69.6901 36.4021 69.206 36.043 68.6857 36.1202C68.1654 36.1974 67.8065 36.6817 67.8837 37.2018L69.9899 51.3908L67.4787 51.7636L61.9018 14.1951L64.4131 13.8223L67.2743 33.0967C67.3515 33.6169 67.8357 33.976 68.3559 33.8987C68.8762 33.8215 69.2352 33.3372 69.1579 32.8171L65.0789 5.33833C64.6466 2.42645 61.8616 0.361288 58.9496 0.793561C56.0067 1.23042 53.9679 3.97994 54.4048 6.92284L61.3394 53.6375C61.3565 53.7528 61.3963 53.868 61.4541 53.9693L67.527 64.6188C67.9817 65.4859 69.0089 65.0568 69.2826 64.3582L71.9937 52.4314C72.0053 52.388 72.0249 52.1307 72.0127 52.0481ZM65.595 52.0432L63.0832 52.4161L57.5063 14.8475L60.0181 14.4747L65.595 52.0432ZM57.227 12.9639L56.9106 10.8326L63.8171 9.80733L64.1335 11.9386L57.227 12.9639ZM59.2292 2.67722C61.3634 2.56203 62.6855 3.54231 63.1952 5.61795L63.5375 7.92367L56.6307 8.94894L56.2885 6.64322C56.0058 4.73897 57.3249 2.95989 59.2292 2.67722ZM67.9684 61.5487L63.7978 54.2351L69.8346 53.339L67.9684 61.5487Z" fill="#8373E6"/>
</g>
<defs>
<clipPath id="clip0">
<rect width="65" height="65" fill="white" transform="translate(0 9.54431) rotate(-8.44361)"/>
</clipPath>
</defs>
</svg>
