<svg width="306" height="573" viewBox="0 0 306 573" fill="none" xmlns="http://www.w3.org/2000/svg">
<path d="M146.901 441.331C147.891 455.746 156.877 502.237 156.877 502.237L190.512 510.985C190.512 510.985 193.098 507.317 191.613 487.712C190.127 468.107 186.111 436.526 172.943 424.349L146.901 441.331Z" fill="#D1711F"/>
<path d="M176.152 427.999C186.698 442.01 190.255 469.831 191.613 487.712C193.098 507.299 190.512 510.985 190.512 510.985L180.59 508.417C182.641 481.532 181.149 454.495 176.152 427.999Z" fill="#C9620A"/>
<path d="M192.272 499.541C192.272 499.541 196.234 507.757 193.74 521.805C193.74 521.805 173.383 527.307 163.644 524.373C163.644 524.373 162.049 523.914 160.27 519.128C158.619 514.708 155.685 504.804 156.877 502.237C156.877 502.237 175.694 507.519 192.272 499.541Z" fill="#FFCC9D"/>
<path d="M181.085 503.099C184.956 502.415 188.718 501.219 192.272 499.541C192.272 499.541 196.234 507.757 193.74 521.805C189.511 522.914 185.225 523.795 180.902 524.446C181.36 517.349 181.14 510.141 181.085 503.099Z" fill="#FFBA7A"/>
<path d="M194.089 518.266C194.089 518.266 193.172 522.814 176.3 523.217C171.568 523.327 160.784 523.474 160.271 519.549C160.271 519.549 158.088 517.165 160.583 532.754C162.417 544.803 165.809 564.628 165.809 564.628C165.809 564.628 148.68 564.445 147.818 575.448H196.051C196.051 575.448 197.5 519.293 194.089 518.266Z" fill="#1D262D"/>
<path d="M218.921 445.036C219.929 459.561 254.371 566.205 254.371 566.205H270.748C270.748 566.205 272.252 513.644 270.748 493.911C269.244 474.178 258.02 442.799 244.834 430.511L218.921 445.036Z" fill="#D1711F"/>
<path d="M262.165 523.272C262.165 519.935 262.165 516.615 262.055 513.277C261.8 505.005 260.948 496.761 259.506 488.611C257.528 471.434 254.465 454.399 250.336 437.608C261.065 452.28 269.556 477.735 270.821 494.699C272.325 514.433 270.821 567.782 270.821 567.782H261.56C262.504 552.965 262.706 538.11 262.165 523.272Z" fill="#C9620A"/>
<path d="M271.427 505.685C271.427 505.685 275.425 513.975 272.894 528.114C272.894 528.114 252.391 533.763 242.579 530.7C237.691 524.331 235.262 516.414 235.738 508.399C235.738 508.399 254.72 513.699 271.427 505.685Z" fill="#FFCC9D"/>
<path d="M262.606 508.784V508.693C265.65 507.99 268.608 506.957 271.427 505.612C271.427 505.612 275.425 513.901 272.894 528.041C272.894 528.041 268.254 529.306 262.331 530.333C262.679 523.163 262.624 515.973 262.606 508.784Z" fill="#FFBA7A"/>
<path d="M273.242 524.813C273.242 524.813 272.325 529.233 255.324 529.636C250.556 529.746 239.681 529.82 239.167 525.785C239.167 525.785 236.27 525.473 240.58 537.559C244.724 549.15 249.217 571.487 249.217 571.487C249.217 571.487 231.887 569.873 231.098 582.711H279.698C279.698 582.711 276.69 525.858 273.242 524.813Z" fill="#1D262D"/>
<path d="M169.532 75.3291C197.885 80.3725 236.142 89.3222 243.477 106.635C250.813 123.947 261.964 247.849 263.357 272.699C264.751 297.549 229.704 292.873 229.704 292.873L176.006 285.977L158.419 115.053L169.532 75.3291Z" fill="#1D262D"/>
<path d="M192.769 443.019C186.479 452.317 151.909 452.537 143.124 442.89C134.339 433.244 133.514 309.874 136.467 280.31L226.495 275.029C226.495 275.029 239.425 277.669 241.901 286.656C251.272 320.804 241.772 333.568 247.714 361.389C255.765 399.096 258.498 429.631 257.196 432.4C245.239 458.076 211.182 451.088 206.615 445.678C202.049 440.268 190.293 344.48 190.293 344.48L183.764 343.875C184.755 371.128 197.152 436.582 192.769 443.019Z" fill="#7A821C"/>
<path d="M254.921 436.526C253.803 429.191 252.537 421.855 251.033 414.519C247.366 396.473 240.47 379.344 236.637 361.334C232.676 342.61 232.492 324.288 231.263 305.307C230.622 295.66 230.016 285.134 227.595 275.267C230.658 276.092 239.938 279.173 241.992 286.656C251.364 320.804 241.864 333.568 247.806 361.389C255.857 399.095 258.589 429.631 257.287 432.4C256.6 433.831 255.809 435.21 254.921 436.526Z" fill="#717A00"/>
<path d="M202.91 338.795C199.095 341.785 190.292 344.535 190.292 344.535L183.763 343.93C183.873 346.993 184.13 350.569 184.497 354.457C184.459 354.669 184.459 354.887 184.497 355.099C187.413 385.891 196.564 437.389 192.713 443.129C191.136 445.458 187.78 447.219 183.543 448.392C186.991 438.324 185.487 426.531 184.332 415.564C181.544 388.862 180.664 373.255 176.702 346.663C176.391 344.609 168.285 338.905 167.184 331.991C174.117 339.162 182.938 341.986 202.91 338.795Z" fill="#717A00"/>
<path d="M144.756 284.18C143.789 295.697 141.266 307.03 137.255 317.87C136.593 319.515 135.834 321.12 134.981 322.675C135.109 304.335 135.641 288.6 136.466 280.311L146.553 279.724C145.503 280.985 144.874 282.543 144.756 284.18Z" fill="#656B17"/>
<path d="M257.25 423.249C257.617 428.347 257.58 431.593 257.25 432.418C245.292 458.094 211.236 451.106 206.669 445.696C205.697 444.577 204.413 439.406 203.001 431.997C217.728 439.662 243.568 434.711 257.25 423.249Z" fill="#656B17"/>
<path d="M224.9 318.071C215.18 310.736 209.073 296.412 206.285 285.06C206.078 284.051 205.667 283.094 205.077 282.249C204.488 281.404 203.732 280.688 202.856 280.145C202.544 278.898 202.196 277.688 201.81 276.477L226.495 275.029C226.495 275.029 239.425 277.669 241.901 286.656C245.277 298.544 246.732 310.896 246.21 323.243C238.545 323.793 230.989 322.638 224.9 318.071Z" fill="#656B17"/>
<path d="M245.018 304.39C242.579 304.39 232.382 290.801 230.181 288.361C226.463 284.236 222.962 279.92 219.691 275.432L226.495 275.029C226.495 275.029 239.424 277.669 241.9 286.656C243.529 292.482 244.718 298.423 245.458 304.427L245.018 304.39Z" fill="#535900"/>
<path d="M193.281 427.742C193.905 435.683 193.905 441.35 192.768 443.019C186.477 452.317 151.907 452.537 143.122 442.89C141.435 441.056 140.041 434.967 138.923 426.183C155.813 435.426 179.325 439.057 193.281 427.742Z" fill="#656B17"/>
<path d="M131.862 234.791C137.474 250.105 137.474 270.04 131.862 283.74C131.862 283.74 169.238 313.083 234.563 280.622L178.188 89.1021L141.344 94.879L113.834 167.742L131.789 234.718" fill="#FFCC9D"/>
<path d="M182.039 101.94L234.637 280.622C224.764 285.59 214.385 289.482 203.68 292.231C200.91 278.861 193.776 267.216 185.578 256.102C176.28 243.503 169.165 231.912 165.405 216.452C158.766 188.759 162.012 159.471 163.864 130.935C168.415 120.403 174.543 110.626 182.039 101.94Z" fill="#FFBA7A"/>
<path d="M234.179 77.053C232.602 94.2555 241.166 109.092 253.325 110.211C265.484 111.33 276.58 98.2718 278.157 81.0694C279.734 63.8669 271.151 49.0302 259.01 47.9298C246.87 46.8294 235.738 59.8688 234.179 77.053Z" fill="#FF9B22"/>
<path d="M230.365 77.0716C229.411 87.5251 225.065 93.4122 231.245 98.2721C233.666 100.106 249.163 106.965 252.226 107.24C263.064 108.23 272.931 97.2268 274.233 82.6835C275.535 68.1403 268.273 55.1742 257.599 53.0835C252.519 52.0565 232.731 47.6733 232.731 47.6733C232.731 47.6733 231.484 64.8391 230.365 77.0716Z" fill="#CF7100"/>
<path d="M230.365 77.0718C231.484 64.8393 232.749 47.7285 232.749 47.7285C232.749 47.7285 252.538 52.1117 257.618 53.1387L258.076 53.2487C237.371 56.5498 230.97 99.8678 250.374 106.855C250.374 107.02 249.86 106.525 249.878 106.69C244.523 104.948 233.281 99.9228 231.245 98.3273C225.065 93.4123 229.411 87.5436 230.365 77.0718Z" fill="#EB860C"/>
<path d="M239.938 94.0174C241.112 95.954 242.777 97.5457 244.764 98.6312C246.751 99.7166 248.99 100.257 251.254 100.198C256.903 99.6659 265.009 94.9343 265.926 80.9963C266.769 68.7822 261.341 62.0882 258.773 60.8228C256.206 59.5574 254.959 59.5757 249.182 57.8518C239.498 64.9125 235.427 82.8119 239.938 94.0174Z" fill="#B56300"/>
<path opacity="0.6" d="M258.48 66.6729C260.167 67.4982 261.946 71.6246 260.974 82.8301C260.442 89.1022 256.169 95.9429 252.593 94.9709C245.514 93.0452 250.356 62.7299 258.48 66.6729Z" fill="#674800"/>
<path d="M249.841 109.551C245.642 108.469 225.89 95.5213 199.408 85.3245C188.936 81.2714 128.03 64.124 115.981 61.8499C115.981 61.8499 110.919 54.6791 113.909 36.7247C115.927 25.5702 121.057 15.2135 128.709 6.84961C128.709 6.84961 233.079 42.5567 261.414 43.6937C261.414 43.6937 245.843 47.3616 239.406 61.2263C233.739 73.3855 233.391 85.6546 236.82 93.9257C242.102 106.708 249.841 109.551 249.841 109.551Z" fill="#FFAE36"/>
<path d="M230.822 38.0264C230.822 38.0264 230.639 36.7977 227.576 37.7147C227.576 37.7147 217.966 41.3826 214.097 63.5367C210.264 85.3791 217.765 93.0084 217.765 93.1551L220.46 94.4388C220.46 94.4388 212.556 86.5895 216.793 62.6014C220.259 42.648 230.822 38.0264 230.822 38.0264Z" fill="#EB860C"/>
<path d="M284.264 223.843C292.644 246.987 297.401 271.285 298.367 295.88C298.367 295.88 303.778 305.857 305.336 309.287C306.895 312.716 301.283 316.751 296.919 319.869C292.554 322.986 285.695 323.922 284.448 319.869C283.201 315.816 280.083 305.105 282.1 299.2C284.118 293.295 265.044 264.96 260.588 231.839L284.264 223.843Z" fill="#D1711F"/>
<path d="M286.612 315.155C303.007 313.945 293.947 290.122 292.223 281.466C288.354 263.126 284.888 243.484 277.552 226.135L284.338 223.843C292.717 246.987 297.475 271.285 298.441 295.88C298.441 295.88 303.851 305.857 305.41 309.287C306.968 312.716 301.357 316.751 296.992 319.869C292.627 322.986 285.768 323.922 284.521 319.869C284.154 318.658 283.622 316.843 283.09 314.752C284.23 315.098 285.423 315.235 286.612 315.155Z" fill="#C9620A"/>
<path d="M178.262 89.1021C178.262 89.1021 241.478 104.25 257.268 129.632C273.059 155.014 281.348 194.059 280.523 215.645L258.919 223.843C250.746 209.627 243.671 194.809 237.755 179.516C237.755 179.516 243.147 212.784 245.641 232.701C248.135 252.617 260.588 269.655 273.884 283.776C287.18 297.898 293.085 317.833 280.578 348.551C280.578 348.551 278.029 326.141 252.28 302.042C226.531 277.944 197.005 260.925 178.262 231.894C153.026 192.83 143.49 144.524 178.262 89.1021Z" fill="#7A821C"/>
<path d="M273.885 283.776C286.612 297.311 292.536 316.219 281.991 344.81C282.779 321.372 280.029 308.131 266.09 287.206C255.765 271.746 242.781 249.17 239.388 230.225C236.656 214.93 238.196 199.176 238.416 183.661C239.92 193.161 243.68 217.076 245.642 232.701C248.136 252.599 260.589 269.618 273.885 283.776Z" fill="#717A00"/>
<path d="M236.471 138.894C219.672 119.234 198.417 105.113 175.859 93.1736C176.648 91.8531 177.436 90.5143 178.262 89.1938C178.262 89.1938 241.478 104.342 257.268 129.724C273.059 155.106 281.348 194.151 280.523 215.737L268.437 220.322C269.648 191.547 254.224 159.563 236.471 138.894Z" fill="#717A00"/>
<path d="M178.263 89.1021C178.263 89.1021 182.407 90.0924 188.808 91.9813C179.73 121.636 183.599 154.336 193.173 183.679C192.843 183.807 178.263 180.8 179.106 196.92C180.683 226.905 211.182 251.81 264.275 303.546C274.013 313.046 276.489 326.232 277.901 338.831C274.655 330.047 267.595 316.366 252.226 302.042C226.551 277.963 196.951 260.925 178.208 231.894C153.027 192.83 143.491 144.524 178.263 89.1021Z" fill="#656B17"/>
<path d="M280.449 207.759C283.586 212.499 284.938 218.199 284.264 223.843C284.264 223.843 265.924 232.26 260.587 231.839C258.788 229.912 257.394 227.643 256.49 225.166C255.585 222.69 255.189 220.057 255.324 217.424C255.324 217.424 262.935 209.428 280.449 207.759Z" fill="#FFCC9D"/>
<path d="M267.3 210.583C271.55 209.105 275.967 208.156 280.449 207.759C283.586 212.499 284.938 218.199 284.264 223.843C284.264 223.843 280.596 225.548 276.029 227.364C276.255 224.035 275.559 220.708 274.02 217.748C272.48 214.788 270.155 212.309 267.3 210.583Z" fill="#FFBA7A"/>
<path d="M143.491 93.9807C143.491 93.9807 87.042 113.861 63.3473 147.551C63.3473 147.551 54.636 164.148 55.8831 176.197C55.8831 176.197 82.8606 179.645 113.598 162.974C113.598 162.974 116.092 215.737 131.937 234.792C131.937 234.792 117.816 188.649 127.371 146.762C136.926 104.874 143.564 96.3465 143.564 96.3465" fill="#7A821C"/>
<path d="M130.378 229.253C128.067 222.302 125.445 215.443 123.152 208.437C119.044 195.893 118.274 182.524 118.366 169.558C118.366 163.506 118.714 160.039 117.229 154.171C117.008 152.612 114.221 146.193 113.909 144.634C119.906 139.132 121.447 132.603 124.069 124.607C127.92 112.925 136.43 98.3452 143.491 94.9707V96.2912C143.491 96.2912 136.852 104.782 127.297 146.707C119.723 179.956 127.022 215.81 130.378 229.253Z" fill="#656B17"/>
<path d="M43.2279 173.262C38.4413 167.761 16.7823 124.296 38.2762 82.0966C38.2762 82.0966 38.5697 75.8979 39.8167 65.9211L59.4951 67.37C59.4951 67.37 58.248 77.8968 50.1969 82.4084C56.9942 103.246 60.4542 125.027 60.4487 146.945L43.2279 173.262Z" fill="#D1711F"/>
<path d="M53.6631 132.989C50.6738 116.63 50.5454 97.4101 41.2656 83.1053C40.5477 81.9598 39.5588 81.0088 38.3863 80.336C38.5513 77.8235 38.9548 72.7618 39.8167 65.9211L59.4951 67.37C59.4951 67.37 58.248 77.8968 50.1969 82.4084C56.9942 103.246 60.4542 125.027 60.4487 146.945L56.7808 152.447C55.9372 145.937 54.8369 139.463 53.6631 132.989Z" fill="#C9620A"/>
<path d="M58.3585 147.642C59.085 147.129 59.9491 146.845 60.8386 146.829C61.7281 146.813 62.602 147.064 63.3469 147.55C63.3469 147.55 65.1808 167.999 55.8827 176.197C55.8827 176.197 45.2825 177.847 42.7883 172.529C42.7883 172.565 47.8316 153.566 58.3585 147.642Z" fill="#FFCC9D"/>
<path d="M241.772 205.228C243.606 206.2 246.192 214.215 243.056 213.94C239.92 213.664 214.483 204.165 196.217 176.435C177.951 148.706 183.379 106.745 188.881 91.9816C188.881 91.9816 197.189 87.7268 203.333 96.6582C203.333 96.6582 193.154 138.674 204.048 167.1C214.942 195.527 241.772 205.228 241.772 205.228Z" fill="#1D262D"/>
<path d="M144.223 93.1551C143.383 92.3518 142.268 91.8993 141.105 91.8896C134.87 91.8896 121.776 105.498 116.42 119.619C106.352 146.156 103.839 176.472 118.108 197.397C118.108 197.397 109.745 175.921 123.463 132.072C133.458 100.087 144.223 93.1551 144.223 93.1551Z" fill="#1D262D"/>
<path d="M180.114 89.5606C180.093 88.4689 179.761 87.4058 179.157 86.4963C178.552 85.5867 177.701 84.8684 176.703 84.4255C176.703 84.4255 166.121 96.2545 150.551 98.7487C152.629 100.857 154.508 103.153 156.163 105.608C157.522 107.983 158.289 110.65 158.4 113.384C158.4 113.384 175.456 102.655 180.114 89.5606Z" fill="white"/>
<path d="M150.551 98.7486C150.551 98.7486 143.637 96.7313 143.49 91.8896L141.344 94.9523C141.344 94.9523 136.833 99.9957 143.49 110.284C143.49 110.284 142.958 100.766 150.551 98.7486Z" fill="white"/>
<path d="M143.601 93.2471L142.574 87.0117C142.574 87.0117 125.628 87.8553 123.354 80.9046C121.52 75.1277 111.066 35.4225 145.545 22.97C180.023 10.5175 192.054 42.3732 176.722 84.4258C176.722 84.4258 160.84 100.656 150.57 98.749C143.436 97.4285 143.601 93.2471 143.601 93.2471Z" fill="#D1711F"/>
<path d="M142.904 89.0473C149.156 88.9658 155.333 87.6767 161.096 85.251C170.853 81.0329 176.667 73.7705 177.18 63.0969C177.978 51.6424 177.978 40.1463 177.18 28.6919C185.378 39.6956 185.561 60.3826 176.777 84.4257C176.777 84.4257 160.895 100.656 150.625 98.7489C143.509 97.4285 143.674 93.2471 143.674 93.2471L142.904 89.0473Z" fill="#C9620A"/>
<path d="M187.303 49.8556C185.831 58.6358 183.255 67.1947 179.637 75.3292C179.637 75.3292 178.28 57.3748 174.282 54.7706C170.284 52.1664 162.857 57.6682 159.262 43.7668L187.303 49.8556Z" fill="#1D262D"/>
<path d="M186.607 36.7244C186.607 36.7244 205.295 52.4964 205.24 60.5658C205.24 70.2124 105.638 18.2198 106.463 14.882C107.288 11.5442 120.603 9.38016 143.931 15.0104C159.386 19.5221 173.861 26.887 186.607 36.7244Z" fill="#7A821C"/>
<path d="M145.343 6.39111C149.799 11.1411 155.613 14.6072 161.17 18.2201C170.34 24.2171 180.903 30.1408 191.65 32.8917C191.689 35.6597 191.499 38.4263 191.082 41.1629C159.905 34.9458 135.953 13.2318 135.953 13.2318C138.855 10.6539 142 8.36294 145.343 6.39111Z" fill="#FFCC9D"/>
<path d="M143.032 7.85827C151.156 2.35641 164.929 -4.00741 177.18 3.27338C189.431 10.5542 191.668 24.804 191.65 33.5886C173.81 28.5374 157.241 19.7686 143.032 7.85827Z" fill="#656B17"/>
<path d="M139.088 55.5041C139.007 52.6692 140.977 50.3128 143.488 50.2409C145.999 50.169 148.1 52.4089 148.181 55.2437C148.262 58.0786 146.293 60.435 143.782 60.5069C141.271 60.5788 139.17 58.3389 139.088 55.5041Z" fill="#1D262D"/>
<path d="M120.639 45.7292C120.773 46.5969 121.155 47.4076 121.738 48.064C122.321 48.7204 123.081 49.1948 123.927 49.4302C124.773 49.6657 125.669 49.6522 126.508 49.3915C127.346 49.1308 128.092 48.6339 128.655 47.9603C129.218 47.2867 129.575 46.465 129.683 45.5936C129.792 44.7222 129.646 43.8381 129.265 43.0472C128.883 42.2563 128.282 41.5921 127.533 41.1343C126.784 40.6764 125.918 40.4443 125.04 40.4657C123.76 40.5822 122.577 41.2015 121.752 42.1881C120.927 43.1746 120.527 44.448 120.639 45.7292Z" fill="#1D262D"/>
<path d="M11.8128 58.4752L124.693 49.0303C125.499 48.925 126.24 48.5338 126.782 47.928C127.324 47.3221 127.63 46.5419 127.645 45.7292C127.662 44.9192 127.388 44.1301 126.873 43.5045C126.359 42.8788 125.637 42.458 124.839 42.318L12.6747 19.9805L11.8128 58.4752Z" fill="#474D00"/>
<path d="M123.225 44.8307C124.142 45.0691 125.059 45.2708 125.976 45.5459C126.519 45.6967 127.081 45.7707 127.645 45.766C127.617 46.5691 127.304 47.3362 126.764 47.9306C126.223 48.5251 125.489 48.9083 124.692 49.0121L11.812 58.4753L12.5273 26.0693C24.0262 28.16 106.499 43.932 123.225 44.8307Z" fill="#33360C"/>
<path d="M10.1757 59.3739C4.55574 59.2483 0.200519 50.1661 0.448044 39.0881C0.695569 28.0101 5.45211 19.1314 11.0721 19.257C16.6921 19.3826 21.0474 28.4649 20.7999 39.5428C20.5523 50.6208 15.7957 59.4995 10.1757 59.3739Z" fill="#656B17"/>
<path d="M9.59338 57.0263C13.0045 57.0263 16.9292 49.9106 17.1859 39.4754C17.4427 29.0402 13.7931 21.6677 10.4003 21.5943C7.00751 21.5209 3.06449 28.71 2.80773 39.1452C2.55098 49.5804 6.20057 56.9529 9.59338 57.0263Z" fill="#1D262D"/>
<path d="M34.0035 78.9789L143.179 58.8054C144.027 58.6415 144.789 58.1838 145.333 57.5128C145.876 56.8419 146.165 56.0008 146.15 55.1375C146.118 54.2705 145.78 53.4429 145.196 52.8016C144.612 52.1603 143.819 51.7468 142.959 51.6346L32.8298 37.825L34.0035 78.9789Z" fill="#555C00"/>
<path d="M145.508 53.3587C145.892 53.8963 146.115 54.5326 146.15 55.1926C146.165 56.0559 145.876 56.897 145.333 57.568C144.789 58.2389 144.027 58.6966 143.179 58.8605L34.0035 79.034L33.0315 44.8491C70.4992 46.9948 108.077 51.4697 145.508 53.3587Z" fill="#33360C"/>
<path d="M20.8714 58.9522C21.2015 70.7629 26.3733 80.2078 32.3336 80.0427C38.294 79.8776 42.9155 70.1393 42.5854 58.3287C42.2553 46.518 37.0835 37.0732 31.1048 37.2382C25.1262 37.4033 20.523 47.1966 20.8714 58.9522Z" fill="#656B17"/>
<path d="M31.5832 77.5666C35.2511 77.4565 39.0291 69.5889 38.7173 58.4384C38.4055 47.288 34.1324 39.6404 30.5012 39.7504C26.8699 39.8605 23.037 47.7465 23.3487 58.8786C23.6605 70.0107 27.952 77.6766 31.5832 77.5666Z" fill="#1D262D"/>
</svg>
