<svg width="296" height="359" viewBox="0 0 296 359" fill="none" xmlns="http://www.w3.org/2000/svg">
<path d="M94.9877 101.049C98.6669 100.87 101.44 96.9589 96.2141 62.3105C91.2552 29.4302 80.4485 5.28346 78.4401 5.15844C76.4316 5.03342 77.267 29.4124 82.4925 62.882C87.9492 98.1913 91.1485 101.585 94.9877 101.049Z" fill="#686A3A"/>
<path d="M72.088 123.368C76.1022 121.917 78.7784 116.328 65.5938 76.7006C52.6947 38.4352 33.4798 11.1871 31.3567 11.3484C29.2336 11.5096 37.1372 41.3731 50.3218 81.1076C63.7562 122.257 67.7704 125.285 72.088 123.368Z" fill="#686A3A"/>
<path d="M163.709 70.4856C153.492 68.6896 147.936 68.3484 144.925 68.9411C146.717 66.0855 149.191 59.8534 152.901 47.1558C159.569 24.8677 162.418 6.74621 161.146 6.1715C159.873 5.59678 150.284 20.252 143.616 42.2348C136.447 65.8879 138.239 69.1745 140.82 70.6113C141.099 70.7791 141.401 70.9061 141.716 70.9885C137.626 72.4341 133.731 74.3826 130.119 76.7895C127.73 78.2383 125.411 79.7409 123.165 81.2974C122.169 81.313 121.183 81.4888 120.243 81.8182C122.036 77.3283 123.828 68.8333 125.925 53.2442C130.155 23.5926 128.865 0.568048 127.09 0.0112936C125.316 -0.545461 117.304 19.5336 113.199 49.0236C108.7 80.9382 111.281 84.9432 114.866 86.1466C115.161 86.2579 115.468 86.3362 115.78 86.38C110.379 90.2234 105.038 94.3183 99.7561 98.6646C99.5022 98.8217 99.2728 99.0153 99.075 99.2393C80.5512 114.717 63.7758 132.183 49.0491 151.323C51.3792 146.923 50.0887 135.572 34.907 99.9577C16.2481 56.8541 -8.79169 26.3224 -11.0143 26.6457C-13.2368 26.969 -0.439095 61.9547 18.4349 107.465C37.5419 154.017 42.22 156.531 46.8803 153.478C47.2521 153.264 47.6006 153.011 47.9199 152.724C37.9155 165.764 28.6405 179.351 20.1377 193.421C19.8524 193.709 19.5999 194.028 19.3849 194.372C21.7688 188.428 19.8867 173.916 2.94853 131.8C-18.4169 79.3219 -47.6151 42.0013 -50.1962 42.3246C-52.7772 42.6479 -37.6494 84.9792 -16.1405 141.104C5.61922 198.916 11.0323 201.79 16.5529 197.785C17.4005 197.26 18.1226 196.555 18.6679 195.719C18.6679 195.845 18.6679 195.989 18.5245 196.115C9.07854 211.758 -0.0447693 228.927 -9.00678 247.767C-6.74835 239.164 -10.0643 220.181 -31.4656 168.869C-59.2478 102.921 -96.8165 55.0222 -99.7381 55.3635C-102.66 55.7047 -80.7387 111.236 -53.7272 183.327C-25.8554 257.627 -19.098 259.746 -12.502 253.604C-11.9432 253.091 -11.4277 252.532 -10.9605 251.934C-15.4057 261.416 -19.797 271.324 -24.1347 281.657C-30.6769 297.408 -34.9966 312.189 -34.0287 313.105C-33.0608 314.021 -27.1459 300.928 -20.7291 285.159C-17.5924 277.419 -14.4019 269.929 -11.2114 262.674C-10.7275 272.156 -2.24943 285.483 39.3522 305.544C87.1914 326.97 128.972 319.014 129.618 314.829C130.263 310.177 93.7695 288.931 47.884 267.074C14.9039 250.659 1.46084 246.384 -4.79464 248.503C2.5781 232.627 10.1122 217.894 17.8075 204.304C19.4745 211.255 28.2214 220.719 59.9469 235.896C99.4693 253.981 133.292 252.347 133.722 248.88C134.099 245.109 104.148 224.796 65.9694 206.89C42.8832 195.701 31.3043 191.732 25.2102 191.732C32.2603 180.058 39.4299 169.205 46.719 159.171C47.2388 164.9 53.6556 173.324 81.7066 190.673C114.956 210.878 143.849 215.403 144.441 212.404C145.032 209.405 120.064 187.045 87.9442 167.558C67.941 155.31 58.1724 150.982 53.082 150.712C59.7617 142.02 66.5549 133.932 73.4616 126.448C72.6192 131.836 74.8418 138.176 106.89 150.497C137.217 161.973 161.755 161.757 161.917 159.099C162.078 156.441 139.476 141.139 109.937 129.968C91.7262 122.928 82.8179 120.809 78.319 121.348C84.7537 114.631 91.296 108.417 97.9279 102.616C97.426 106.998 100.294 112.188 125.979 123.557C151.664 134.925 172.581 136.47 172.743 134.189C172.904 131.908 154.12 117.433 128.936 106.513C115.081 100.443 107.589 98.1258 103.431 97.9462C108.139 94.0309 112.918 90.3312 117.77 86.847C117.77 90.9418 121.355 95.342 145.373 101.861C169.749 108.417 188.623 106.531 188.695 104.376C188.767 102.221 170.771 91.9296 146.771 85.5539C139.861 83.4493 132.767 82.0061 125.585 81.2436C127.287 80.0941 128.99 78.9806 130.711 77.8671C136.088 74.4907 140.802 71.9583 141.698 71.2399C141.54 71.7398 141.456 72.2601 141.447 72.7844C141.25 76.3764 142.81 79.7529 163.207 83.3628C182.296 86.6854 197.048 83.7938 197.101 82.1236C197.155 80.4533 182.744 73.7722 163.709 70.4856Z" fill="#686A3A"/>
<path d="M245.586 250.575C245.586 250.863 239.714 250.683 232.535 250.917C165.311 254.41 91.2672 282.656 -1.35972 355.638C-14.7328 366.152 -26.3335 374.649 -26.7453 373.299C-27.1571 371.948 -16.0039 361.327 -2.57708 350.903C90.7301 279.145 165.24 252.213 232.678 249.675C239.982 249.495 245.675 250.251 245.586 250.575Z" fill="#1D262D"/>
<path d="M245.586 250.575C245.586 250.863 239.714 250.683 232.535 250.917C165.311 254.41 91.2672 282.656 -1.35972 355.638C-14.7328 366.152 -26.3335 374.649 -26.7453 373.299C-27.1571 371.948 -16.0039 361.327 -2.57708 350.903C90.7301 279.145 165.24 252.213 232.678 249.675C239.982 249.495 245.675 250.251 245.586 250.575Z" fill="#27391F"/>
<path d="M261.761 227.066C243.731 244.102 243.623 247.892 245.155 250.418C246.688 252.945 249.32 253.414 267.405 235.981C284.353 219.884 295.875 205.5 295.063 204.363C294.252 203.226 278.548 211.257 261.761 227.066Z" fill="#1D262D"/>
<path d="M231.782 217.388C212.052 242.921 212.267 247.786 214.814 250.543C217.361 253.3 221.002 253.138 240.751 227.443C259.137 203.73 269.45 183.027 268.177 181.657C266.903 180.288 250.007 193.784 231.782 217.388Z" fill="#1D262D"/>
<path d="M198.659 214.681C185.448 248.321 186.567 252.942 190.292 254.385C193.668 256.082 198.145 254.061 211.154 221.052C223.521 189.703 226.163 163.083 224.512 162C222.86 160.917 211.081 182.701 198.659 214.681Z" fill="#1D262D"/>
<path d="M161.982 214.399C153.128 256.81 155.138 261.431 159.918 261.95C164.173 262.666 169.351 259.156 177.643 218.214C185.501 178.58 182.26 145.339 180.323 144.444C178.385 143.548 170.329 173.368 161.982 214.399Z" fill="#1D262D"/>
<path d="M121.293 221.175C115.035 271.193 117.717 275.747 123.012 275.423C127.809 275.423 133.207 270.653 138.485 222.849C143.471 176.052 137.179 136.995 135.15 136.185C133.121 135.375 127.241 172.146 121.293 221.175Z" fill="#1D262D"/>
<path d="M74.3121 233.033C64.5027 293.673 67.7846 298.774 74.6006 298.078C80.7135 297.686 87.6378 291.818 95.68 234.478C103.199 178.689 96.3292 132.121 93.8768 131.033C91.4245 129.945 83.6527 174.088 74.3121 233.033Z" fill="#1D262D"/>
<path d="M20.2271 251.444C7.46772 329.732 12.3044 334.936 21.1295 332.872C29.1605 331.078 37.7149 323.003 46.9009 249.99C55.5817 179.005 46.6844 118.786 43.9592 117.62C41.2341 116.453 32.6617 175.506 20.2271 251.444Z" fill="#1D262D"/>
<path d="M233.949 279.357C214.694 260.209 215.448 255.373 218.068 251.768C220.688 248.163 224.241 247.057 243.191 266.044C260.938 283.443 271.454 301.146 270.252 303.02C269.05 304.893 251.876 297.077 233.949 279.357Z" fill="#1D262D"/>
<path d="M206.131 288.249C188.377 264.15 189.682 259.055 192.757 255.569C195.832 252.083 199.658 251.44 217.108 275.002C233.486 296.901 242.658 318.693 241.335 320.624C240.012 322.555 222.794 310.738 206.131 288.249Z" fill="#1D262D"/>
<path d="M175.965 302.065C153.703 274.795 155.432 268.499 159.016 264.289C162.601 260.08 167.086 259.073 188.808 285.785C209.035 310.285 221.229 334.713 219.662 337.052C218.095 339.39 196.679 327.158 175.965 302.065Z" fill="#1D262D"/>
<path d="M134.423 324.272C114.461 287.668 117.488 280.552 122.118 276.321C126.748 272.091 131.775 271.965 151.286 307.368C169.681 340.243 180.221 371.756 178.311 374.248C176.401 376.74 153.25 358.312 134.423 324.272Z" fill="#1D262D"/>
<path d="M93.4865 352.944C66.8633 313.883 70.8568 304.593 76.1104 299.041C81.9675 293.076 87.2035 292.735 112.904 330.808C136.918 365.306 152.661 397.899 150.478 400.971C148.419 403.774 118.53 388.34 93.4865 352.944Z" fill="#1D262D"/>
<path d="M41.0142 403.202C8.44672 355.148 15.4879 342.358 22.422 335.132C30.5862 327.183 36.4508 327.057 67.3605 373.9C96.2025 415.974 117.165 452.791 114.313 456.531C111.711 459.855 71.7278 445.872 41.0142 403.202Z" fill="#1D262D"/>
<path d="M265.337 261.5C249.253 248.548 246.466 249.619 244.48 252.567C242.495 255.515 242.149 259.148 258.324 272.135C273.497 284.244 287.942 288.982 288.853 287.578C289.763 286.174 280.474 273.521 265.337 261.5Z" fill="#1D262D"/>
</svg>
