<svg width="771" height="816" viewBox="0 0 771 816" fill="none" xmlns="http://www.w3.org/2000/svg">
<path d="M744.468 374.76C744.468 374.76 743.747 374.571 742.46 374.314C740.634 373.95 738.76 373.898 736.916 374.159C734.199 374.539 731.639 375.661 729.519 377.403C726.946 379.546 725.138 382.468 724.37 385.728V385.813L724.061 387.049L723.58 385.882C722.315 382.778 720.136 380.133 717.333 378.296C715.042 376.796 712.408 375.904 709.678 375.704C707.129 375.576 704.578 375.901 702.143 376.665C702.73 376.29 703.373 376.011 704.048 375.841C705.867 375.269 707.774 375.031 709.678 375.138C712.533 375.261 715.304 376.138 717.71 377.678C720.676 379.571 722.984 382.334 724.318 385.59H723.529V385.504C724.35 382.06 726.302 378.99 729.073 376.785C731.318 374.99 734.025 373.865 736.882 373.541C738.785 373.331 740.71 373.471 742.563 373.953C743.237 374.12 743.88 374.392 744.468 374.76Z" fill="#E0E0E0"/>
<path d="M548.924 238.224C548.355 238.964 547.742 239.669 547.087 240.335C545.425 242.25 543.915 244.293 542.573 246.445C538.15 253.594 535.836 261.846 535.897 270.251V270.543H535.073C533.797 262.318 529.973 254.7 524.14 248.763C521.697 246.351 519.024 244.184 516.159 242.292C516.159 242.292 516.399 242.292 516.828 242.584C517.257 242.875 517.858 243.116 518.544 243.613C520.692 244.977 522.689 246.565 524.5 248.351C527.209 250.997 529.521 254.02 531.366 257.327C533.633 261.388 535.151 265.824 535.845 270.423H535.021V270.251C534.967 261.726 537.414 253.372 542.058 246.222C543.447 244.067 545.039 242.05 546.813 240.198C547.431 239.546 547.963 239.082 548.323 238.756C548.493 238.548 548.696 238.368 548.924 238.224Z" fill="#E0E0E0"/>
<path d="M608.739 649.565C581.706 655.984 561.076 682.931 561.934 710.702C544.616 691.616 512.932 687.72 491.563 702.12C470.195 716.52 461.647 747.209 472.683 770.499C447.093 750.521 405.471 756.065 385.991 782.033C383.763 773.82 379.63 766.248 373.926 759.931C368.223 753.615 361.11 748.733 353.166 745.682C345.222 742.63 336.67 741.495 328.205 742.369C319.74 743.242 311.6 746.1 304.447 750.71C299.83 721.755 276.453 696.696 247.807 690.071C219.161 683.446 187.237 695.564 170.365 719.541C163.197 712.545 154.514 707.294 144.989 704.195C135.464 701.097 125.353 700.233 115.441 701.672C105.528 703.111 96.0804 706.814 87.8299 712.493C79.5793 718.173 72.7477 725.676 67.8647 734.422L85.2342 740.034C101.079 743.115 115.88 750.176 128.245 760.552C140.609 770.929 150.131 784.281 155.914 799.351C163.921 790.601 173.92 783.91 185.063 779.844C196.206 775.779 208.165 774.459 219.926 775.996C231.687 777.534 242.905 781.883 252.628 788.677C262.352 795.47 270.294 804.507 275.784 815.022H409.402C442.682 814.73 468.066 816.532 498.823 815.022C510.975 772.233 566.911 734.199 608.945 748.719C617.372 716.297 644.988 689.694 677.599 682.33C665.618 657.581 635.479 643.163 608.739 649.565Z" fill="#A3A3FF"/>
<path d="M678.698 682.004L677.616 682.261C677.754 682.536 677.908 682.811 678.028 683.085L678.698 682.004Z" fill="#EBEBEB"/>
<path d="M771.5 714.563C771.5 714.563 770.659 713.637 769.063 711.8C768.097 710.638 767.072 709.526 765.991 708.47L763.931 706.428C763.157 705.626 762.337 704.87 761.477 704.162L758.645 701.725C757.666 700.85 756.499 700.009 755.349 699.185C753.084 697.383 750.372 695.752 747.488 693.881C740.735 689.87 733.519 686.695 726 684.424C716.654 681.576 706.915 680.238 697.148 680.46L693.114 680.597L689.012 680.992L686.935 681.215L684.859 681.575L680.654 682.313C674.835 683.623 669.156 685.491 663.696 687.891C657.892 690.494 652.361 693.668 647.185 697.366C641.73 701.337 636.682 705.838 632.115 710.805C622.289 721.627 615.171 734.627 611.347 748.736L611.176 749.114L610.798 748.976C600.426 745.608 589.363 744.958 578.668 747.088C567.416 749.264 556.644 753.437 546.864 759.412C536.54 765.618 527.271 773.428 519.402 782.548C511.139 791.959 504.978 803.024 501.329 815.004L501.243 815.313H500.934C484.011 816.172 466.607 815.983 448.706 815.639C439.798 815.485 430.787 815.33 421.69 815.296H394.229H277.929H277.671L277.551 815.056C271.619 803.907 262.941 794.455 252.338 787.594C242.227 780.945 230.617 776.922 218.56 775.889C207.373 775.062 196.144 776.76 185.702 780.857C175.259 784.954 165.871 791.345 158.23 799.557L157.819 799.986L157.613 799.437C152.644 786.417 144.854 774.659 134.802 765.007C130.134 760.593 125.067 756.623 119.664 753.147C114.543 749.907 109.13 747.155 103.496 744.926C98.1997 742.881 92.7314 741.313 87.1563 740.24L83.1401 739.639L81.1491 739.365L79.1753 739.193L75.2792 738.816H71.4345C62.1336 738.752 52.876 740.088 43.9729 742.78C36.8003 744.915 29.8913 747.851 23.3767 751.534C20.6134 753.25 18.0045 754.743 15.8076 756.391C13.6107 758.039 11.6025 759.532 9.86902 760.939C8.13551 762.347 6.74526 763.754 5.458 764.87C4.17073 765.985 3.22674 767.067 2.42006 767.908C0.841012 769.624 0 770.414 0 770.414C0 770.414 0.789522 769.521 2.3514 767.822C3.2951 766.749 4.29183 765.723 5.33785 764.75C6.60795 763.617 7.94671 762.158 9.73171 760.785C11.6224 759.147 13.599 757.612 15.6531 756.185C17.8501 754.469 20.4417 752.975 23.2051 751.242C29.7151 747.524 36.6243 744.553 43.8013 742.386C52.6977 739.651 61.9557 738.274 71.2629 738.301H75.1247L79.0552 738.61L81.0461 738.747L83.0371 739.039L87.0877 739.622C92.6964 740.694 98.1989 742.262 103.53 744.308C109.213 746.535 114.672 749.293 119.836 752.546C125.346 756.056 130.513 760.078 135.266 764.561C145.413 774.266 153.279 786.101 158.299 799.214L157.681 799.094C165.386 790.808 174.853 784.359 185.385 780.224C195.916 776.088 207.242 774.372 218.526 775.202C230.72 776.244 242.463 780.302 252.698 787.011C263.425 793.939 272.204 803.492 278.203 814.764L277.826 814.524H394.126H421.587C430.684 814.524 439.712 814.713 448.62 814.867C466.453 815.227 483.891 815.416 500.78 814.558L500.385 814.884C504.108 802.785 510.363 791.616 518.733 782.119C526.653 772.939 535.987 765.083 546.383 758.845C556.269 752.76 567.171 748.504 578.565 746.282C589.422 744.114 600.655 744.788 611.176 748.238L610.695 748.496C614.557 734.279 621.753 721.187 631.686 710.307C636.289 705.312 641.377 700.787 646.876 696.799C652.094 693.078 657.671 689.887 663.524 687.274C669.057 684.881 674.804 683.019 680.688 681.713L684.927 680.974L687.021 680.614L689.115 680.408L693.234 680.013L697.285 679.893C707.107 679.7 716.895 681.091 726.274 684.012C733.815 686.322 741.048 689.538 747.814 693.59C750.698 695.478 753.41 697.143 755.675 698.962C756.825 699.872 757.975 700.678 758.953 701.519L761.785 703.991C762.678 704.763 763.502 705.518 764.223 706.274L766.265 708.35C767.34 709.438 768.354 710.584 769.303 711.783C770.796 713.585 771.5 714.563 771.5 714.563Z" fill="#263238"/>
<path d="M385.305 68.4601L394.281 86.602C394.595 87.243 395.061 87.7973 395.638 88.2162C396.216 88.6352 396.887 88.906 397.594 89.0049L417.658 91.9226C418.466 92.0444 419.224 92.389 419.846 92.9176C420.469 93.4463 420.932 94.1381 421.184 94.9154C421.435 95.6927 421.465 96.5247 421.269 97.3179C421.074 98.1112 420.662 98.8342 420.078 99.4059L405.558 113.566C405.05 114.062 404.67 114.675 404.452 115.351C404.234 116.026 404.183 116.745 404.305 117.445L407.737 137.423C407.872 138.229 407.779 139.056 407.469 139.812C407.159 140.568 406.644 141.223 405.983 141.702C405.321 142.182 404.539 142.468 403.724 142.527C402.909 142.587 402.094 142.418 401.37 142.04L383.417 132.652C382.786 132.322 382.086 132.15 381.374 132.15C380.663 132.15 379.962 132.322 379.332 132.652L361.396 142.074C360.672 142.46 359.855 142.634 359.037 142.577C358.22 142.521 357.434 142.235 356.771 141.754C356.107 141.273 355.592 140.615 355.284 139.855C354.976 139.096 354.887 138.265 355.028 137.457L358.461 117.479C358.579 116.778 358.525 116.059 358.304 115.383C358.083 114.708 357.701 114.096 357.191 113.6L342.671 99.4403C342.086 98.8652 341.674 98.138 341.481 97.341C341.289 96.544 341.323 95.7089 341.58 94.9303C341.837 94.1517 342.307 93.4606 342.937 92.9351C343.566 92.4097 344.33 92.0708 345.142 91.957L365.206 89.0392C365.91 88.9377 366.578 88.6657 367.152 88.2469C367.727 87.828 368.19 87.2751 368.502 86.6363L377.478 68.4601C377.842 67.7338 378.401 67.1231 379.092 66.6963C379.783 66.2695 380.579 66.0435 381.391 66.0435C382.204 66.0435 383 66.2695 383.691 66.6963C384.382 67.1231 384.941 67.7338 385.305 68.4601Z" fill="#A3A3FF"/>
<path d="M351.097 80.4744C350.926 80.6461 339.546 70.0733 325.678 56.8574C311.81 43.6415 300.688 32.8285 300.86 32.5882C301.032 32.3479 312.411 42.9893 326.296 56.2052C340.181 69.4211 351.269 80.2856 351.097 80.4744Z" fill="#A3A3FF"/>
<path d="M327.292 91.7509C327.292 91.9912 317.509 91.5964 305.46 90.8755C293.411 90.1547 283.662 89.348 283.679 89.1592C283.696 88.9704 293.48 89.3137 305.528 90.0517C317.577 90.7897 327.309 91.4076 327.292 91.7509Z" fill="#A3A3FF"/>
<path d="M364.416 59.1404C362.047 54.9131 359.938 50.5455 358.1 46.0618C355.996 41.6985 354.162 37.2105 352.607 32.6228C354.961 36.8325 357.053 41.1831 358.872 45.6499C360.998 50.0272 362.85 54.5328 364.416 59.1404Z" fill="#A3A3FF"/>
<path d="M379.606 0.784424C379.846 0.784424 380.052 12.7989 380.052 27.4909C380.052 42.1828 379.846 54.2144 379.606 54.2144C379.366 54.2144 379.16 42.2 379.16 27.4909C379.16 12.7817 379.348 0.784424 379.606 0.784424Z" fill="#A3A3FF"/>
<path d="M409.951 33.0691C408.335 37.4971 406.444 41.8194 404.287 46.0104C402.388 50.335 400.221 54.5368 397.799 58.5912C399.416 54.1583 401.307 49.8304 403.463 45.6328C405.354 41.3104 407.521 37.1139 409.951 33.0691Z" fill="#A3A3FF"/>
<path d="M458.97 41.8052C459.125 42.0112 446.029 51.3825 429.792 62.7447C413.555 74.1069 400.065 83.1693 400.065 82.9633C400.065 82.7574 413.006 73.3861 429.243 62.0067C445.48 50.6273 458.833 41.5993 458.97 41.8052Z" fill="#A3A3FF"/>
<path d="M460.274 79.7366C455.572 82.0489 450.741 84.089 445.805 85.8468C440.961 87.8849 436.004 89.6441 430.959 91.116C435.665 88.8188 440.496 86.7846 445.428 85.0229C450.273 82.9813 455.229 81.2163 460.274 79.7366Z" fill="#A3A3FF"/>
<path d="M346.137 116.346C346.137 116.569 329.196 122.645 308.119 129.888C287.043 137.131 269.879 142.83 269.793 142.589C269.707 142.349 286.785 136.376 307.828 129.047C328.87 121.718 346.051 116.106 346.137 116.346Z" fill="#A3A3FF"/>
<path d="M480.305 135.055C480.305 135.295 465.252 131.296 446.853 126.13C428.454 120.963 413.556 116.57 413.624 116.346C413.693 116.123 428.677 120.088 447.093 125.271C465.51 130.455 480.373 134.814 480.305 135.055Z" fill="#A3A3FF"/>
<path d="M332.114 166.069C335.286 162.716 338.675 159.574 342.258 156.664C345.641 153.518 349.225 150.594 352.985 147.91C349.816 151.272 346.427 154.42 342.841 157.333C339.455 160.47 335.872 163.388 332.114 166.069Z" fill="#A3A3FF"/>
<path d="M381.03 208.103C380.79 208.103 380.653 193.428 380.756 175.355C380.859 157.282 381.133 142.59 381.374 142.59C381.614 142.59 381.751 157.264 381.648 175.355C381.545 193.445 381.271 208.103 381.03 208.103Z" fill="#A3A3FF"/>
<path d="M431.628 169.742C427.922 166.855 424.402 163.737 421.09 160.405C417.565 157.294 414.245 153.957 411.152 150.416C414.859 153.303 418.378 156.421 421.691 159.753C425.211 162.87 428.53 166.206 431.628 169.742Z" fill="#A3A3FF"/>
<path d="M468.41 107.885L468.564 110.837C468.568 110.942 468.598 111.044 468.652 111.134C468.706 111.224 468.782 111.299 468.873 111.352L471.379 112.896C471.485 112.957 471.571 113.046 471.627 113.154C471.683 113.262 471.707 113.383 471.697 113.505C471.686 113.626 471.64 113.741 471.566 113.837C471.491 113.933 471.391 114.006 471.276 114.046L468.513 115.093C468.418 115.133 468.333 115.194 468.265 115.271C468.196 115.349 468.146 115.44 468.118 115.54L467.432 118.423C467.403 118.539 467.343 118.644 467.257 118.727C467.172 118.809 467.065 118.867 466.949 118.892C466.833 118.917 466.712 118.909 466.6 118.868C466.488 118.828 466.389 118.757 466.316 118.663L464.445 116.364C464.381 116.286 464.299 116.225 464.207 116.186C464.114 116.147 464.013 116.131 463.913 116.14L460.961 116.364C460.842 116.369 460.724 116.342 460.62 116.285C460.516 116.228 460.429 116.144 460.369 116.042C460.309 115.939 460.278 115.822 460.279 115.704C460.281 115.585 460.315 115.469 460.377 115.368L461.991 112.896C462.037 112.806 462.062 112.706 462.062 112.605C462.062 112.503 462.037 112.403 461.991 112.313L460.858 109.567C460.812 109.457 460.797 109.336 460.817 109.218C460.836 109.101 460.888 108.991 460.967 108.901C461.045 108.811 461.148 108.746 461.262 108.712C461.377 108.678 461.498 108.677 461.613 108.709L464.479 109.481C464.578 109.505 464.681 109.505 464.779 109.481C464.878 109.457 464.969 109.41 465.046 109.344L467.311 107.421C467.4 107.326 467.516 107.261 467.643 107.234C467.77 107.207 467.903 107.219 468.022 107.27C468.142 107.32 468.244 107.406 468.313 107.516C468.382 107.626 468.416 107.755 468.41 107.885Z" fill="#A3A3FF"/>
<path d="M487.359 76.7673L488.714 78.1747C488.762 78.22 488.819 78.2543 488.881 78.275C488.944 78.2958 489.01 78.3026 489.075 78.2948L491.032 78.0202C491.109 78.0086 491.189 78.0186 491.261 78.0492C491.334 78.0797 491.397 78.1296 491.443 78.1934C491.489 78.2572 491.516 78.3324 491.523 78.4108C491.529 78.4892 491.513 78.5679 491.478 78.6381L490.551 80.3544C490.518 80.4118 490.5 80.477 490.5 80.5432C490.5 80.6095 490.518 80.6746 490.551 80.732L491.426 82.4484C491.462 82.5186 491.477 82.5972 491.471 82.6757C491.465 82.7541 491.437 82.8293 491.391 82.8931C491.345 82.9569 491.282 83.0068 491.21 83.0373C491.137 83.0679 491.058 83.0779 490.98 83.0663L489.075 82.7058C489.007 82.694 488.937 82.6988 488.871 82.7197C488.806 82.7406 488.746 82.7771 488.697 82.826L487.324 84.2162C487.268 84.2705 487.198 84.3082 487.121 84.3255C487.045 84.3427 486.965 84.3387 486.891 84.314C486.817 84.2892 486.751 84.2447 486.7 84.1851C486.649 84.1255 486.616 84.0532 486.603 83.976L486.346 82.0365C486.338 81.9703 486.313 81.9073 486.274 81.8533C486.235 81.7993 486.183 81.756 486.123 81.7275L484.406 80.835C484.338 80.7983 484.281 80.7438 484.242 80.6773C484.202 80.6108 484.181 80.5348 484.181 80.4574C484.181 80.38 484.202 80.3041 484.242 80.2376C484.281 80.1711 484.338 80.1166 484.406 80.0798L486.123 79.2388C486.185 79.2113 486.24 79.1686 486.282 79.1147C486.324 79.0608 486.352 78.9973 486.363 78.9299L486.655 77.0076C486.664 76.9303 486.695 76.8571 486.743 76.7966C486.792 76.736 486.857 76.6906 486.931 76.6654C487.005 76.6403 487.084 76.6365 487.159 76.6545C487.235 76.6725 487.304 76.7116 487.359 76.7673Z" fill="#A3A3FF"/>
<path d="M269.622 53.4078L270.978 54.8152C271.021 54.8668 271.077 54.9054 271.141 54.9266C271.205 54.9479 271.273 54.9509 271.338 54.9354L273.261 54.6264C273.338 54.6148 273.418 54.6248 273.49 54.6554C273.563 54.6859 273.626 54.7358 273.672 54.7996C273.718 54.8634 273.745 54.9386 273.752 55.017C273.758 55.0954 273.742 55.1741 273.707 55.2443L272.78 56.9606C272.747 57.0212 272.73 57.0891 272.73 57.158C272.73 57.227 272.747 57.2949 272.78 57.3554L273.673 59.0718C273.705 59.1428 273.717 59.2213 273.708 59.2988C273.699 59.3763 273.669 59.4499 273.622 59.5117C273.574 59.5735 273.51 59.6211 273.438 59.6495C273.365 59.6778 273.286 59.6858 273.209 59.6725L271.304 59.3292C271.236 59.3142 271.165 59.3174 271.099 59.3385C271.033 59.3596 270.973 59.3978 270.926 59.4494L269.553 60.8224C269.497 60.8767 269.427 60.9144 269.35 60.9317C269.274 60.9489 269.194 60.9449 269.12 60.9202C269.046 60.8954 268.98 60.8509 268.929 60.7913C268.878 60.7317 268.845 60.6594 268.832 60.5822L268.575 58.6598C268.565 58.592 268.54 58.5273 268.501 58.4707C268.463 58.4142 268.412 58.3673 268.352 58.3337L266.635 57.4584C266.562 57.4263 266.499 57.3736 266.455 57.3065C266.412 57.2394 266.388 57.161 266.388 57.0808C266.388 57.0006 266.412 56.9222 266.455 56.8551C266.499 56.788 266.562 56.7352 266.635 56.7032L268.352 55.8622C268.416 55.8318 268.471 55.7862 268.513 55.7293C268.555 55.6724 268.582 55.606 268.592 55.5361L268.884 53.6138C268.892 53.5316 268.926 53.4539 268.979 53.3908C269.032 53.3276 269.103 53.282 269.183 53.2598C269.262 53.2376 269.347 53.2398 269.425 53.2662C269.503 53.2926 269.572 53.3419 269.622 53.4078Z" fill="#A3A3FF"/>
<path d="M310.352 319.906H454.079C459.606 319.906 459.606 311.324 454.079 311.324H310.352C304.842 311.324 304.825 319.906 310.352 319.906Z" fill="#455A64"/>
<path d="M315.33 155.84H305.032V814.884H315.33V155.84Z" fill="#455A64"/>
<path d="M314.797 814.884C314.54 814.884 314.351 667.45 314.351 485.602C314.351 303.755 314.54 156.286 314.797 156.286C315.055 156.286 315.244 303.686 315.244 485.602C315.244 667.518 315.038 814.884 314.797 814.884Z" fill="#263238"/>
<path d="M310.352 253.208H454.079C459.606 253.208 459.606 244.626 454.079 244.626H310.352C304.842 244.626 304.825 253.208 310.352 253.208Z" fill="#455A64"/>
<path d="M459.056 157.196H448.758V814.884H459.056V157.196Z" fill="#455A64"/>
<path d="M449.016 732.036C448.759 732.036 448.57 603.601 448.57 445.199C448.57 286.797 448.759 158.328 449.016 158.328C449.273 158.328 449.462 286.746 449.462 445.199C449.462 603.653 449.256 732.036 449.016 732.036Z" fill="#263238"/>
<path d="M310.18 759.171H453.907C459.417 759.171 459.434 750.589 453.907 750.589H310.18C304.653 750.589 304.653 759.171 310.18 759.171Z" fill="#455A64"/>
<path d="M313.184 626.137H448.209C453.736 626.137 453.736 617.555 448.209 617.555H313.184C307.657 617.555 307.64 626.137 313.184 626.137Z" fill="#455A64"/>
<path d="M310.18 533.163H453.907C459.417 533.163 459.434 524.581 453.907 524.581H310.18C304.653 524.581 304.653 533.163 310.18 533.163Z" fill="#455A64"/>
<path d="M310.18 459.823H453.907C459.417 459.823 459.434 451.241 453.907 451.241H310.18C304.653 451.241 304.653 459.823 310.18 459.823Z" fill="#455A64"/>
<path d="M310.18 388.216H453.907C459.417 388.216 459.434 379.634 453.907 379.634H310.18C304.653 379.634 304.653 388.216 310.18 388.216Z" fill="#455A64"/>
<path d="M311.605 694.688H448.21C453.736 694.688 453.736 686.106 448.21 686.106H311.605C306.079 686.106 306.079 694.688 311.605 694.688Z" fill="#455A64"/>
<path d="M428.489 262.185L419.77 242.79C419.77 242.79 420.233 232.492 418.757 231.548C416.732 230.346 416.234 231.342 415.668 234.809L414.861 239.958C414.861 239.958 411.531 232.698 408.425 232.406C406.314 232.2 405.713 235.839 405.713 235.839C405.713 235.839 402.28 232.561 399.706 233.333C397.131 234.105 397.989 237.538 397.989 237.538C397.636 237.298 397.232 237.142 396.809 237.081C396.386 237.02 395.955 237.056 395.548 237.187C395.141 237.318 394.769 237.539 394.46 237.835C394.152 238.131 393.915 238.493 393.767 238.894C392.308 242.447 398.71 247.836 399.688 250.205C401.731 255.199 397.389 255.354 397.389 255.354C397.389 255.354 386.249 253.929 386.816 256.795C387.382 259.662 391.107 259.645 393.956 259.936C396.342 260.177 405.284 262.408 408.202 263.129C408.812 263.282 409.392 263.537 409.918 263.884L416.577 270.749L428.489 262.185Z" fill="#FFBE9D"/>
<path d="M423.974 708.024L423.596 757.867L396.701 758.193L396.976 708.264L423.974 708.024Z" fill="#A3A3FF"/>
<path d="M410.364 756.15C410.141 756.15 410.175 745.234 410.45 731.778C410.725 718.322 411.119 707.423 411.343 707.423C411.566 707.423 411.531 718.339 411.343 731.795C411.154 745.251 410.536 756.15 410.364 756.15Z" fill="#263238"/>
<path d="M396.788 742.248C396.963 741.853 397.2 741.487 397.491 741.167C399.339 738.87 401.687 737.027 404.357 735.778C407.13 734.469 410.249 734.082 413.257 734.675C416.266 735.268 419.005 736.809 421.074 739.073C421.855 739.962 422.508 740.955 423.013 742.025C423.214 742.407 423.353 742.818 423.425 743.244C422.602 741.912 421.672 740.649 420.645 739.468C417.994 736.785 414.392 735.256 410.621 735.211C406.845 735.284 403.209 736.654 400.323 739.09C398.006 740.875 396.891 742.334 396.788 742.248Z" fill="#263238"/>
<path opacity="0.3" d="M396.701 726.303L396.684 731.778H423.974V726.303H396.701Z" fill="black"/>
<path d="M396.701 758.193L396.718 752.993H423.631L423.596 757.867L396.701 758.193Z" fill="#E0E0E0"/>
<path d="M367.558 578.68L367.198 626.515L341.401 626.824L341.658 578.92L367.558 578.68Z" fill="#A3A3FF"/>
<path d="M354.462 624.867C354.256 624.867 354.291 614.397 354.462 601.473C354.634 588.549 355.097 578.096 355.32 578.113C355.544 578.13 355.492 588.583 355.32 601.49C355.149 614.397 354.685 624.867 354.462 624.867Z" fill="#263238"/>
<path d="M341.486 611.514C341.486 611.514 341.658 611.102 342.156 610.484C342.849 609.599 343.625 608.783 344.473 608.047C345.734 606.932 347.15 606.007 348.678 605.3C351.34 604.038 354.337 603.665 357.226 604.237C360.116 604.809 362.745 606.295 364.726 608.476C365.476 609.32 366.1 610.268 366.579 611.29C366.78 611.659 366.913 612.06 366.974 612.475C366.199 611.184 365.308 609.966 364.314 608.836C361.769 606.257 358.308 604.789 354.685 604.751C351.071 604.826 347.593 606.141 344.833 608.476C342.653 610.209 341.589 611.617 341.486 611.514Z" fill="#263238"/>
<path opacity="0.3" d="M341.4 596.221L341.383 601.49H367.558V596.221H341.4Z" fill="black"/>
<path d="M341.401 626.824L341.418 621.846H367.232L367.198 626.515L341.401 626.824Z" fill="#E0E0E0"/>
<path d="M372.484 258.1L373.17 257.928C374.258 256.093 375.787 254.559 377.619 253.465C379.45 252.371 381.526 251.751 383.657 251.664C387.957 251.549 392.134 253.106 395.311 256.006C397.525 257.963 399.276 260.417 401.49 262.356C402.533 263.407 403.801 264.207 405.199 264.695C406.596 265.182 408.087 265.345 409.557 265.171C409.917 266.235 407.841 266.888 408.029 268.003C408.095 268.267 408.241 268.505 408.447 268.683C408.653 268.861 408.908 268.971 409.179 268.999C409.967 269.067 410.76 269.067 411.548 268.999C411.945 268.974 412.339 269.073 412.677 269.282C413.015 269.491 413.28 269.8 413.436 270.166C413.496 270.552 413.46 270.947 413.333 271.316C412.589 274.745 410.976 277.925 408.647 280.55C407.478 281.845 406.01 282.835 404.37 283.433C402.731 284.031 400.97 284.22 399.242 283.982C396.555 283.249 394.09 281.863 392.067 279.949L379.71 270.046C377.752 268.6 375.987 266.91 374.458 265.017C373.688 264.052 373.117 262.943 372.778 261.756C372.439 260.569 372.339 259.326 372.484 258.1Z" fill="#263238"/>
<path d="M375.058 258.786C373.393 257.396 371.423 256.419 369.308 255.937C368.249 255.705 367.154 255.69 366.089 255.894C365.024 256.098 364.011 256.515 363.112 257.121C361.614 258.463 360.344 260.04 359.353 261.79C358.853 262.665 358.182 263.43 357.38 264.04C356.578 264.651 355.661 265.094 354.685 265.343C354.335 265.343 353.994 265.451 353.707 265.652C353.243 266.081 353.569 266.922 354.136 267.179C354.732 267.377 355.376 267.377 355.972 267.179C354.982 268.338 353.614 269.11 352.11 269.359C352.304 270.077 352.773 270.691 353.415 271.067C354.057 271.443 354.822 271.55 355.543 271.367C354.877 273.68 354.497 276.067 354.41 278.473C354.338 280.902 355.163 283.273 356.727 285.132C358.444 287.072 361.447 288.153 362.237 290.693" fill="#263238"/>
<path d="M392.377 343.609L360.247 343.197L363.834 315.735C363.834 315.735 361.637 315.272 361.5 303.36C361.362 291.449 360.796 271.178 360.796 271.178C367.563 268.267 374.985 267.217 382.293 268.138C389.602 269.058 396.532 271.915 402.366 276.413L404.082 277.769L392.377 343.609Z" fill="#FFBE9D"/>
<path d="M400.409 292.564C400.598 292.564 408.579 290.144 408.321 298.296C408.064 306.449 399.945 304.51 399.945 304.269C399.945 304.029 400.409 292.564 400.409 292.564Z" fill="#FFBE9D"/>
<path d="M362.186 290.848C361.98 290.762 354.719 288.805 354.977 296.958C355.234 305.111 363.353 303.154 363.37 302.931C363.387 302.708 362.186 290.848 362.186 290.848Z" fill="#FFBE9D"/>
<path d="M403.035 291.568C401.816 298.434 402.057 301.987 400.941 306.552C399.225 313.761 395.586 319.305 389.081 322.909C382.576 326.513 373.806 326.445 368.227 321.536C364.318 318.5 361.745 314.062 361.053 309.161C360.47 304.012 358.959 294.4 358.925 289.251C358.925 279.949 359.165 271.59 359.165 271.59L385.717 266.784L400.821 275.778L403.035 291.568Z" fill="#263238"/>
<path d="M375.659 327.028C377.166 327.474 378.748 327.614 380.31 327.44C381.872 327.266 383.384 326.782 384.756 326.015C384.756 325.809 382.713 326.427 380.225 326.685C377.736 326.942 375.694 326.891 375.659 327.028Z" fill="#263238"/>
<path d="M401.781 303.188C402.554 296.186 403.052 288.188 404.15 280.876C404.855 277.742 405.24 274.545 405.3 271.333C405.042 268.535 404.287 269.376 403.052 266.853C401.507 263.695 395.62 261.584 392.17 260.88C388.72 260.177 388.291 257.207 385.631 259.524C384.669 258.051 383.278 256.909 381.646 256.252C380.014 255.595 378.22 255.456 376.506 255.853C374.792 256.25 373.242 257.165 372.065 258.472C370.888 259.78 370.141 261.417 369.926 263.163C368.971 262.262 367.747 261.7 366.442 261.563C365.136 261.426 363.822 261.721 362.701 262.403C361.579 263.086 360.713 264.118 360.236 265.34C359.758 266.563 359.695 267.909 360.057 269.17C359.099 269.33 358.195 269.726 357.428 270.321C356.661 270.917 356.055 271.695 355.663 272.584C355.271 273.473 355.107 274.445 355.185 275.413C355.263 276.381 355.581 277.315 356.109 278.13C357.345 280.035 359.542 281.082 360.915 282.884C361.677 283.945 362.121 285.201 362.194 286.506C362.267 287.81 361.966 289.108 361.327 290.247" fill="#263238"/>
<path d="M367.558 301.729C367.297 304.164 367.618 306.625 368.495 308.911C369.373 311.197 370.781 313.242 372.604 314.876C371.325 312.891 370.206 310.808 369.257 308.646C368.515 306.387 367.947 304.075 367.558 301.729Z" fill="#455A64"/>
<path d="M364.023 295.791C363.293 297.86 363.117 300.084 363.511 302.242C363.906 304.401 364.857 306.419 366.271 308.097C365.42 306.164 364.743 304.159 364.246 302.107C363.986 300.012 363.912 297.898 364.023 295.791Z" fill="#455A64"/>
<path d="M397.422 267.608C395.497 264.334 392.599 261.742 389.132 260.194C387.396 259.453 385.494 259.187 383.621 259.422C381.749 259.657 379.972 260.385 378.473 261.532" fill="#263238"/>
<path d="M396.753 285.699C396.616 285.699 396.753 284.755 397.01 283.296C397.393 281.437 397.6 279.547 397.628 277.649C397.633 275.778 397.216 273.931 396.41 272.243C395.774 270.955 395.122 270.303 395.242 270.2C395.363 270.097 396.135 270.612 396.959 271.917C398.005 273.639 398.552 275.617 398.538 277.632C398.52 279.606 398.213 281.566 397.628 283.451C397.233 284.824 396.873 285.699 396.753 285.699Z" fill="#455A64"/>
<path d="M391.26 288.342C391.02 288.222 391.69 286.626 392.325 284.583C392.96 282.541 393.354 280.859 393.629 280.893C393.926 282.224 393.781 283.616 393.217 284.858C392.548 286.986 391.484 288.479 391.26 288.342Z" fill="#455A64"/>
<path d="M365.738 286.248C364.891 285.452 364.259 284.454 363.902 283.347C362.843 280.725 362.569 277.851 363.112 275.075C363.669 272.301 365.03 269.752 367.026 267.746C367.775 266.856 368.737 266.171 369.823 265.755C369.926 265.875 368.845 266.63 367.523 268.192C365.766 270.201 364.566 272.635 364.042 275.251C363.518 277.868 363.688 280.577 364.537 283.107C365.206 285.064 365.91 286.162 365.738 286.248Z" fill="#455A64"/>
<path d="M394.779 255.937C393.87 255.673 392.995 255.304 392.17 254.839C390.177 253.852 387.992 253.313 385.768 253.26C384.683 253.237 383.605 253.444 382.605 253.867C381.606 254.29 380.707 254.92 379.967 255.714C379.405 256.443 378.906 257.218 378.474 258.031C378.371 258.031 378.336 256.813 379.452 255.285C380.109 254.415 380.954 253.705 381.924 253.208C383.113 252.619 384.423 252.313 385.751 252.316C388.118 252.354 390.434 253.017 392.462 254.238C394.007 255.131 394.916 255.834 394.779 255.937Z" fill="#455A64"/>
<path d="M358.495 263.489C358.392 263.489 358.581 262.545 359.439 261.327C360.579 259.755 362.21 258.606 364.074 258.063C365.939 257.519 367.931 257.61 369.737 258.323C371.11 258.889 371.763 259.542 371.694 259.645C370.958 259.466 370.236 259.236 369.531 258.958C367.845 258.502 366.068 258.502 364.382 258.958C362.688 259.469 361.168 260.437 359.988 261.756C359.027 262.768 358.615 263.558 358.495 263.489Z" fill="#455A64"/>
<path d="M367.25 293.44C367.25 293.32 368.554 292.976 370.682 292.015C373.585 290.7 376.243 288.901 378.543 286.694L380.071 285.184L379.23 287.175C378.701 288.42 378.315 289.722 378.08 291.054C377.96 291.706 377.839 292.564 378.08 292.667C378.32 292.77 378.989 292.513 379.59 292.084C381.645 290.751 383.49 289.12 385.065 287.244L386.473 285.527L385.82 287.621C385.185 289.732 384.585 291.689 384.104 293.457L383.486 293.079C385.453 291.103 387.181 288.902 388.635 286.523C388.46 287.28 388.152 288.001 387.726 288.651C386.707 290.479 385.435 292.155 383.95 293.629L382.954 294.607L383.332 293.251C383.847 291.535 384.396 289.492 385.048 287.381L385.82 287.776C384.228 289.785 382.321 291.524 380.174 292.925C379.84 293.156 379.49 293.362 379.127 293.543C378.892 293.68 378.626 293.752 378.354 293.752C378.083 293.752 377.816 293.68 377.582 293.543C377.387 293.368 377.239 293.149 377.149 292.903C377.059 292.658 377.031 292.394 377.067 292.135C377.098 291.755 377.15 291.377 377.222 291.003C377.486 289.608 377.913 288.248 378.492 286.952L379.195 287.432C376.803 289.667 373.999 291.416 370.94 292.582C369.766 293.07 368.519 293.36 367.25 293.44Z" fill="#455A64"/>
<path d="M382.765 262.013C382.491 261.529 382.124 261.104 381.685 260.763C381.246 260.421 380.744 260.169 380.207 260.022C379.124 259.765 377.995 259.765 376.912 260.022C374.228 260.527 371.802 261.946 370.047 264.039C369.652 264.502 369.291 265.24 369.721 265.755C369.977 265.963 370.3 266.072 370.63 266.064C374.638 266.395 378.671 266.251 382.645 265.635" fill="#263238"/>
<path d="M330.313 501.358C330.846 502.319 337.351 524.082 351.699 527.772C366.048 531.463 410.759 529.008 411.977 527.772C413.196 526.537 426.343 519.294 432.694 504.258C439.044 489.223 393.424 463.066 393.424 463.066L330.313 501.358Z" fill="#263238"/>
<path d="M440.246 507.245L440.658 519.38C440.658 521.251 440.417 530.656 440.229 532.51L434.65 607.875C434.101 607.652 430.857 654.216 430.566 670.556C430.291 686.261 428.986 729.049 428.986 729.049H392.308L389.768 658.233L388.223 581.58L385.958 527.944L440.246 507.245Z" fill="#263238"/>
<path d="M330.313 489.361C330.313 489.361 331.12 490.562 330.931 507.245C330.794 519.998 338.535 598.607 338.535 598.607L369.858 597.645L376.123 518.934L330.313 489.361Z" fill="#263238"/>
<path d="M388.909 528.888C388.045 529.082 387.167 529.203 386.283 529.249C384.566 529.42 382.129 529.661 379.074 529.849C371.101 530.473 363.08 530.005 355.234 528.459C347.251 526.919 340.078 522.587 334.998 516.239C333.522 514.294 332.363 512.127 331.565 509.82C331.344 509.198 331.166 508.561 331.033 507.915C330.93 507.485 330.896 507.245 330.93 507.245C331.976 510.335 333.518 513.233 335.496 515.827C340.595 521.901 347.622 526.045 355.406 527.567C363.185 529.09 371.124 529.638 379.04 529.197L386.248 528.888C387.133 528.806 388.024 528.806 388.909 528.888Z" fill="#455A64"/>
<path d="M426.051 527.379C424.76 527.889 423.411 528.24 422.035 528.426C415.467 529.706 408.781 530.281 402.091 530.142C400.698 530.205 399.302 530.09 397.938 529.799C399.311 529.58 400.701 529.488 402.091 529.524C404.631 529.421 408.15 529.249 412.029 528.906C415.908 528.563 419.409 528.117 421.932 527.773C423.289 527.505 424.669 527.372 426.051 527.379Z" fill="#455A64"/>
<path d="M424.987 541.178C423.206 541.163 421.431 540.985 419.683 540.646C416.439 540.148 411.96 539.324 407.102 538.123C402.245 536.921 397.885 535.583 394.779 534.501C393.048 534 391.37 533.333 389.767 532.51C391.515 532.848 393.236 533.313 394.916 533.9C398.057 534.827 402.417 536.063 407.257 537.247C412.097 538.432 416.525 539.376 419.735 540.011C421.512 540.268 423.268 540.658 424.987 541.178Z" fill="#455A64"/>
<path d="M416.267 277.117C416.439 276.637 411.753 269.102 411.753 269.102C411.753 269.102 421.88 258.375 427.973 258.684L433.757 266.699L416.267 277.117Z" fill="white"/>
<path d="M464.188 310.878C461.991 304.012 434.238 263.936 434.238 263.936C423.94 263.936 414.02 276.345 414.02 276.345L433.74 317.863L413.007 336.966L436.418 364.651C436.418 364.651 451.196 346.166 455.624 339.455C465.493 324.523 466.403 317.777 464.188 310.878Z" fill="#A3A3FF"/>
<path opacity="0.3" d="M329.421 499.145C329.421 499.145 331.738 514.592 344.645 519.14C357.552 523.689 387.365 519.14 387.365 519.14L390.798 507.898L394.505 521.166L440.623 515.261L439.971 504.723L391.089 484.418L329.421 499.145Z" fill="black"/>
<path d="M430.016 447.74C429.038 442.282 427.785 439.518 427.527 436.223C426.806 426.388 426.858 402.805 427.527 399.785C428.402 395.82 436.418 364.617 436.418 364.617L433.689 340.45L399.619 334.701L397.234 329.225C397.234 329.225 374.509 323.338 360.143 331.062L357.654 336.932L348.764 339.163C347.442 339.695 340.474 341.617 335.222 343.059C332.317 343.832 329.616 345.231 327.309 347.158C325.002 349.085 323.145 351.494 321.869 354.215C320.962 356.19 320.166 358.212 319.483 360.274C317.131 367.243 303.607 405.758 303.006 417.48C302.302 431.211 314.454 431.692 321.886 429.941C329.317 428.19 337.453 411.576 337.453 411.576L342.121 444.066C341.438 448.504 340.353 452.87 338.878 457.111C334.346 469.486 327.824 493.394 327.824 493.394C330.364 501.358 339.598 513.991 344.439 515.707C349.279 517.423 381.632 516.05 381.632 516.05L391.175 490.717L399.928 517.406L445.841 510.249L430.016 447.74Z" fill="#A3A3FF"/>
<path d="M391.123 438.454C391.243 438.66 384.635 443.02 376.362 448.203C371.443 451.465 366.355 454.467 361.121 457.197C361.001 456.991 367.609 452.631 375.882 447.448C380.801 444.185 385.889 441.183 391.123 438.454Z" fill="#263238"/>
<path d="M379.024 451.721C379.161 451.927 372.158 456.596 363.336 462.156C354.514 467.717 347.305 472.043 347.168 471.837C347.031 471.631 354.033 466.945 362.855 461.401C371.678 455.857 378.903 451.498 379.024 451.721Z" fill="#263238"/>
<path d="M415.34 415.335C412.527 421.58 407.89 426.827 402.039 430.387C401.867 430.164 405.471 427.452 409.161 423.281C412.852 419.111 415.1 415.197 415.34 415.335Z" fill="#263238"/>
<path d="M416.268 419.66C415.917 420.871 415.397 422.027 414.723 423.092C411.812 428.429 408.185 433.343 403.944 437.699C403.124 438.66 402.171 439.498 401.112 440.187C400.924 439.999 404.94 435.914 409.111 430.233C413.281 424.551 416.027 419.574 416.268 419.66Z" fill="#263238"/>
<path d="M417.332 461.78C417.587 460.219 417.983 458.686 418.516 457.197C419.323 454.382 420.387 450.503 421.383 446.178C422.378 441.853 423.099 437.905 423.665 435.022C423.862 433.455 424.178 431.906 424.609 430.388C424.679 431.974 424.569 433.563 424.283 435.125C423.799 438.91 423.123 442.668 422.258 446.384C421.399 450.085 420.35 453.74 419.117 457.334C418.679 458.874 418.08 460.364 417.332 461.78Z" fill="#263238"/>
<path d="M434.238 360.823C433.997 360.96 430.942 355.674 426.325 349.787C421.708 343.9 417.349 339.626 417.538 339.489C418.658 340.232 419.684 341.108 420.593 342.098C422.895 344.355 425.046 346.764 427.029 349.306C429.016 351.847 430.828 354.519 432.453 357.305C433.187 358.402 433.786 359.583 434.238 360.823Z" fill="#263238"/>
<path d="M441.601 348.603C437.93 342.828 432.376 338.498 425.879 336.348C426.905 336.334 427.922 336.533 428.866 336.932C431.209 337.698 433.403 338.859 435.354 340.365C437.299 341.889 438.976 343.728 440.314 345.806C440.924 346.644 441.361 347.595 441.601 348.603Z" fill="#263238"/>
<path d="M342.071 444.066C341.813 444.066 339.067 426.354 335.926 404.402C332.785 382.449 330.416 364.651 330.674 364.651C330.931 364.651 333.66 382.364 336.801 404.316C339.942 426.268 342.311 444.032 342.071 444.066Z" fill="#263238"/>
<path d="M400.065 334.838C397.975 334.886 395.884 334.823 393.801 334.649C389.922 334.512 384.584 334.426 378.68 334.649C372.775 334.872 367.472 335.559 363.644 336.091C361.584 336.47 359.504 336.74 357.414 336.897C357.956 336.64 358.535 336.472 359.13 336.4C360.177 336.142 361.722 335.816 363.627 335.473C368.621 334.585 373.666 334.011 378.731 333.756C383.794 333.499 388.867 333.568 393.921 333.962C395.86 334.117 397.354 334.271 398.486 334.443C399.029 334.5 399.56 334.633 400.065 334.838Z" fill="#263238"/>
<g opacity="0.3">
<path opacity="0.3" d="M337.573 412.795C335.754 399.064 333.248 385.333 331.429 371.603C326.469 385.127 329.198 401.072 337.573 412.795Z" fill="black"/>
</g>
<g opacity="0.3">
<path opacity="0.3" d="M433.346 317.348C436.566 314.281 440.677 312.316 445.086 311.736C446.119 311.518 447.187 311.517 448.221 311.732C449.255 311.948 450.233 312.376 451.093 312.988C451.281 313.123 451.433 313.301 451.538 313.507C451.642 313.713 451.696 313.942 451.693 314.173C451.643 314.402 451.524 314.61 451.353 314.769C451.181 314.929 450.964 315.032 450.732 315.065C450.268 315.132 449.795 315.103 449.342 314.979C444.073 314.018 438.357 315.58 433.363 317.502" fill="black"/>
</g>
<g opacity="0.3">
<path opacity="0.3" d="M359.388 337.189C363.812 338.271 368.403 338.498 372.913 337.858C380.922 337.172 388.898 336.13 396.839 334.734C384.064 333.02 371.081 333.754 358.581 336.897" fill="black"/>
</g>
<g opacity="0.3">
<path opacity="0.3" d="M357.826 465.71C375.99 460.581 392.3 450.347 404.82 436.223C390.557 445.319 371.883 455.72 357.826 465.71Z" fill="black"/>
</g>
<path d="M444.536 315.306C442.485 315.062 440.407 315.224 438.419 315.784C436.431 316.343 434.573 317.289 432.951 318.567C432.951 318.567 433.242 317.863 434.135 317.091C435.3 316.065 436.677 315.309 438.168 314.877C439.659 314.458 441.221 314.365 442.751 314.602C443.901 314.877 444.57 315.203 444.536 315.306Z" fill="#263238"/>
<path d="M276.351 295.448L260.543 296.168C255.454 302.241 248.773 306.775 241.251 309.264C235.932 310.996 230.32 311.641 224.747 311.161C219.174 310.682 213.754 309.088 208.809 306.474C203.864 303.86 199.494 300.278 195.96 295.943C192.425 291.608 189.798 286.606 188.233 281.236C184.869 270.3 185.891 258.484 191.084 248.288C196.276 238.092 205.232 230.316 216.055 226.605C221.372 224.873 226.982 224.227 232.553 224.706C238.124 225.184 243.542 226.777 248.486 229.39C253.429 232.002 257.797 235.582 261.331 239.915C264.865 244.248 267.492 249.247 269.056 254.616C271.867 263.808 271.602 273.667 268.301 282.695L276.351 295.448Z" fill="white"/>
<path d="M276.35 295.448C276.35 295.448 276.144 295.156 275.784 294.59L274.205 292.152L268.163 282.781H268.472C268.46 282.804 268.443 282.823 268.423 282.84C268.403 282.856 268.38 282.868 268.355 282.875C268.331 282.882 268.305 282.884 268.279 282.881C268.254 282.878 268.229 282.871 268.206 282.858C268.184 282.846 268.164 282.829 268.148 282.809C268.132 282.789 268.12 282.766 268.113 282.741C268.105 282.717 268.103 282.691 268.106 282.665C268.109 282.64 268.117 282.615 268.129 282.592C270.531 275.818 271.261 268.564 270.257 261.447C269.609 256.887 268.236 252.46 266.19 248.334C263.917 243.678 260.804 239.483 257.007 235.959C252.667 231.922 247.507 228.869 241.879 227.009C236.251 225.148 230.288 224.525 224.396 225.18C217.925 225.972 211.723 228.245 206.272 231.823C203.461 233.681 200.87 235.852 198.548 238.293C193.91 243.353 190.477 249.396 188.508 255.972C187.582 259.184 187.006 262.487 186.791 265.823C186.431 272.267 187.486 278.711 189.881 284.703C192.065 290.16 195.375 295.094 199.595 299.184C203.815 303.274 208.851 306.428 214.373 308.44C223.608 311.776 233.73 311.703 242.916 308.235C249.684 305.705 255.697 301.493 260.388 295.997C260.439 295.981 260.493 295.981 260.543 295.997L272.231 295.585L275.286 295.499H276.35H275.372L272.386 295.688L260.56 296.357L260.697 296.272C256.04 301.893 250.018 306.225 243.208 308.852C233.895 312.446 223.601 312.573 214.201 309.213C208.561 307.18 203.414 303.978 199.098 299.816C194.783 295.654 191.396 290.627 189.16 285.064C186.704 278.949 185.62 272.369 185.984 265.789C186.191 262.384 186.767 259.012 187.701 255.731C188.7 252.407 190.07 249.206 191.786 246.188C195.147 240.071 199.978 234.886 205.843 231.102C211.415 227.456 217.752 225.142 224.362 224.339C230.375 223.68 236.46 224.329 242.199 226.243C247.938 228.157 253.194 231.29 257.608 235.427C264.877 242.314 269.581 251.474 270.944 261.395C271.908 268.605 271.094 275.94 268.575 282.764L268.232 282.592C268.25 282.574 268.271 282.559 268.295 282.548C268.318 282.538 268.344 282.533 268.369 282.533C268.395 282.533 268.421 282.538 268.444 282.548C268.468 282.559 268.489 282.574 268.507 282.592L274.411 292.221L275.904 294.658C276.213 295.19 276.35 295.448 276.35 295.448Z" fill="#A3A3FF"/>
<path d="M215.231 261.018L227.829 245.039L240.427 260.812L215.231 261.018Z" fill="#A3A3FF"/>
<path d="M234.025 290.23L222.56 290.316L222.2 258.426L233.665 258.34L234.025 290.23Z" fill="#A3A3FF"/>
</svg>
