<svg width="1440" height="1022" viewBox="0 0 1440 1022" fill="none" xmlns="http://www.w3.org/2000/svg">
<rect x="-1" width="1441" height="1021" fill="#F4F4FF"/>
<path d="M748 377.603C885.6 403.679 956.667 513.166 975 564.65C975 576.184 955 613.693 875 671.462C775 743.673 652 642.377 602.5 833.435C562.9 986.282 402.667 1022.82 330.5 1021.99H-1V0C35.1667 1.33724 110.5 9.74403e-06 158.5 0C209.657 -1.03848e-05 246.5 20.5601 294 108.818C341.5 197.076 449.5 108.818 557.5 145.926C665.5 183.035 576 345.008 748 377.603Z" fill="#282A57"/>
<circle cx="34.5" cy="434.5" r="5.5" fill="white"/>
<circle cx="223.5" cy="592.5" r="5.5" fill="white"/>
<circle cx="605.5" cy="374.5" r="5.5" fill="white"/>
<circle cx="187.5" cy="94.5" r="5.5" fill="white"/>
<circle cx="9.5" cy="254.5" r="5.5" fill="white"/>
<circle cx="29.5" cy="629.5" r="5.5" fill="white"/>
<circle cx="451.5" cy="193.5" r="5.5" fill="white"/>
<circle cx="788.5" cy="423.5" r="5.5" fill="white"/>
<circle cx="860.5" cy="544.5" r="5.5" fill="white"/>
<circle cx="783.5" cy="640.5" r="5.5" fill="white"/>
<circle cx="522.5" cy="541.5" r="5.5" fill="white"/>
<circle cx="378.5" cy="685.5" r="5.5" fill="white"/>
<circle cx="234.5" cy="953.5" r="5.5" fill="white"/>
<circle cx="373.5" cy="886.5" r="5.5" fill="white"/>
<circle cx="40.5" cy="931.5" r="5.5" fill="white"/>
<path d="M209.5 286L213.654 305.346L233 309.5L213.654 313.654L209.5 333L205.346 313.654L186 309.5L205.346 305.346L209.5 286Z" fill="white"/>
<path d="M421 339L423.652 351.348L436 354L423.652 356.652L421 369L418.348 356.652L406 354L418.348 351.348L421 339Z" fill="white"/>
<path d="M653 635L655.652 647.348L668 650L655.652 652.652L653 665L650.348 652.652L638 650L650.348 647.348L653 635Z" fill="white"/>
<path d="M502 800L504.652 812.348L517 815L504.652 817.652L502 830L499.348 817.652L487 815L499.348 812.348L502 800Z" fill="white"/>
<path d="M683 455L685.652 467.348L698 470L685.652 472.652L683 485L680.348 472.652L668 470L680.348 467.348L683 455Z" fill="white"/>
<path d="M55 100L57.6516 112.348L70 115L57.6516 117.652L55 130L52.3483 117.652L40 115L52.3483 112.348L55 100Z" fill="white"/>
<path d="M293 485L295.475 496.525L307 499L295.475 501.475L293 513L290.525 501.475L279 499L290.525 496.525L293 485Z" fill="white"/>
<path d="M138 772L140.475 783.525L152 786L140.475 788.475L138 800L135.525 788.475L124 786L135.525 783.525L138 772Z" fill="white"/>
</svg>
