<svg width="1073" height="1218" viewBox="0 0 1073 1218" fill="none" xmlns="http://www.w3.org/2000/svg">
<path d="M-1.00006 1087L1005 1087L1005 -4L-1.00006 -4L-1.00006 1087Z" fill="url(#paint0_linear)"/>
<path d="M-99.9954 664.579C-100.662 663.389 -28.561 671.006 -18.465 675.577C67.2563 713.665 138.929 826.737 222.174 705.476C256.319 655.771 272.13 593.069 312.657 547.316C407.903 439.338 497.196 524.416 608.824 514.371C701.451 506.039 717.738 410.867 735.549 337.882C749.169 282.131 768.885 232.141 817.746 198.433C874.322 159.441 943.899 158.393 958.71 77.9809C967.568 29.8475 995.189 -29.9502 1043.72 -23.5229C1063.86 297.509 1083.72 754.99 1066.34 1076.26C1065.24 1096.68 1062.81 1119.58 1047 1132.58C1037.91 1140.06 1025.95 1142.82 1014.52 1145.34C813.507 1189.81 608.157 1234.47 403.569 1211.99C307.514 1201.43 213.697 1176.19 121.213 1148.34C68.3992 1132.39 12.3947 1113.2 -20.7032 1069.12C-75.422 996.275 -57.1348 745.373 -99.9954 664.579Z" fill="white"/>
<path style="mix-blend-mode:multiply" opacity="0.2" d="M407.951 480.395C423.656 469.779 449.6 459.163 458.834 483.527C461.673 492.674 461.43 502.496 458.143 511.492C446.302 549.792 417.719 584.646 375.191 588.592C360.052 589.97 335.144 594.26 322.549 583.268C300.217 563.821 330.904 532.286 346.86 521.513C367.213 507.891 387.786 494.237 407.951 480.395ZM138.207 -4C137.045 -2.52815 135.945 -1.0563 134.877 0.478184C118.167 24.4036 114.336 54.7174 103.468 81.8997C91.4498 111.611 71.006 137.185 44.6379 155.492C30.2051 164.962 14.9279 173.087 -1 179.762V648.28C33.5504 654.23 74.8852 652.571 96.9975 621.035C120.492 587.59 109.561 530.626 146.624 512.933C155.168 508.862 164.905 507.954 173.699 504.54C205.737 492.014 215.914 452.274 218.364 418.108C220.814 383.942 221.505 345.455 246.632 321.968C284.606 286.268 357.539 305.746 388.132 263.564C413.259 229.116 391.964 173.937 420.421 142.089C445.548 113.905 495.803 120.669 520.271 91.9835C540.813 67.9015 533.589 30.2284 548.854 2.51372C550.126 0.355819 551.51 -1.73473 553 -3.74947L138.207 -4Z" fill="url(#paint1_linear)"/>
<g style="mix-blend-mode:screen" opacity="0.05">
<path d="M237 697C318.186 697 384 631.41 384 550.5C384 469.59 318.186 404 237 404C155.814 404 90 469.59 90 550.5C90 631.41 155.814 697 237 697Z" fill="white"/>
</g>
<path d="M332.216 644.982C384.778 592.419 384.778 507.198 332.216 454.635C279.653 402.073 194.432 402.073 141.869 454.635C89.3068 507.198 89.3068 592.419 141.869 644.982C194.432 697.544 279.653 697.544 332.216 644.982Z" fill="url(#paint2_linear)"/>
<g style="mix-blend-mode:multiply" opacity="0.5">
<path d="M133.709 550.516C133.711 517.583 145.755 485.795 167.557 461.178C189.36 436.561 219.406 420.826 252 416.956C233.185 414.693 214.106 416.458 196.021 422.135C177.935 427.812 161.255 437.273 147.081 449.892C132.906 462.512 121.559 478.004 113.789 495.346C106.018 512.688 102 531.486 102 550.5C102 569.514 106.018 588.312 113.789 605.654C121.559 622.996 132.906 638.488 147.081 651.108C161.255 663.727 177.935 673.188 196.021 678.865C214.106 684.542 233.185 686.307 252 684.044C219.409 680.181 189.363 664.452 167.56 639.841C145.757 615.229 133.712 583.445 133.709 550.516Z" fill="#B41DA7"/>
</g>
<g style="mix-blend-mode:multiply" opacity="0.2">
<path d="M252.652 629.633C227.95 630.892 202.402 632.184 178.733 640.12C169.063 643.458 159.716 647.675 150.806 652.718C149.929 651.993 149.084 651.269 148.27 650.513C157.662 645.169 167.524 640.709 177.731 637.191C201.807 629.16 227.574 627.743 252.496 626.578C264.737 625.948 277.543 625.318 289.721 623.869C319.371 620.405 341.443 610.61 363.766 597.351C363.171 598.926 362.545 600.501 361.887 602.107C340.018 615.51 315.53 624.007 290.097 627.019C277.699 628.373 264.957 629.034 252.652 629.633ZM129.673 480.886C175.446 485.075 212.797 480.13 244.105 465.643C253.247 461.454 262.076 456.195 270.623 451.344C279.578 445.923 288.805 440.972 298.269 436.511C300.773 435.408 303.309 434.401 305.877 433.361C304.75 432.7 303.591 432.007 302.433 431.377C300.617 432.102 298.77 432.794 297.016 433.613C287.466 438.135 278.164 443.171 269.152 448.699C260.699 453.612 251.932 458.714 242.915 462.871C212.202 477.012 175.258 481.768 130.049 477.705C128.389 477.705 126.699 477.39 125.008 477.201C124.382 478.209 123.724 479.185 123.129 480.351L129.673 480.886ZM310.98 647.332H305.501C261.669 648.151 216.429 649.064 179.391 671.394C180.518 671.961 181.676 672.465 182.835 673C218.839 652.151 262.89 651.301 305.564 650.513H311.043C316.772 650.513 322.533 650.23 328.262 649.978C329.452 648.876 330.61 647.742 331.737 646.608C324.85 646.954 317.899 647.206 310.98 647.332ZM137.907 460.005C136.968 461.045 136.029 462.147 135.121 463.155C155.032 462.904 174.905 461.315 194.607 458.399C210.261 456.1 226.823 452.856 241.569 444.605C248.669 440.337 255.43 435.525 261.794 430.212C266.115 426.779 270.561 423.252 275.194 420.134C273.879 419.735 272.564 419.357 271.25 419C267.305 421.803 263.548 424.795 259.853 427.724C253.619 432.934 246.993 437.651 240.035 441.833C225.696 449.896 209.666 453.045 194.012 455.344C175.424 458.066 156.687 459.622 137.907 460.005ZM184.87 584.974C219.935 582.234 249.459 571.778 280.705 560.724C291.6 556.881 302.84 552.913 314.424 549.228C333.134 543.653 352.279 539.681 371.656 537.355C371.656 536.284 371.468 535.245 371.343 534.205C351.749 536.538 332.392 540.563 313.485 546.236C301.838 549.921 290.567 553.889 279.672 557.763C248.582 568.723 219.246 579.022 184.619 581.825C175.477 582.549 166.085 583.053 157.005 583.588C141.1 584.47 124.977 585.383 109.009 587.336C109.291 588.375 109.573 589.415 109.886 590.485C125.54 588.564 141.507 587.682 157.193 586.801C166.241 586.234 175.665 585.698 184.838 584.974H184.87ZM275.852 535.276C255.783 536.347 235.151 535.749 215.051 535.276C178.201 534.237 140.13 533.198 104 542.173C104 543.276 104 544.378 104 545.48C139.973 536.379 178.17 537.386 215.114 538.426C235.182 538.993 255.814 539.559 276.165 538.426C307.957 536.82 339.126 528.944 367.899 515.246C367.648 514.238 367.366 513.293 367.085 512.317C338.421 525.823 307.43 533.619 275.821 535.276H275.852ZM189.315 602.642C189.558 602.898 189.736 603.209 189.834 603.549C189.932 603.889 189.948 604.248 189.879 604.595C189.705 605.272 189.389 605.903 188.951 606.447C188.514 606.99 187.965 607.433 187.343 607.744C182.365 610.894 175.947 611.46 169.748 611.87L166.617 612.09C152.348 613.247 138.481 617.411 125.916 624.31L127.7 626.956C139.776 620.34 153.098 616.348 166.805 615.24L169.936 615.019C176.542 614.578 183.367 614.138 189.034 610.39C190.018 609.857 190.877 609.117 191.553 608.22C192.228 607.323 192.704 606.291 192.947 605.193C193.087 604.389 193.044 603.563 192.822 602.778C192.599 601.992 192.203 601.268 191.664 600.658C190.29 599.407 188.684 598.442 186.937 597.821C185.19 597.199 183.338 596.932 181.488 597.036C159.532 597.833 137.803 601.789 116.962 608.784C117.431 609.728 117.932 610.673 118.433 611.618C138.817 604.82 160.059 600.971 181.52 600.186C184.334 599.979 187.121 600.857 189.315 602.642ZM135.371 506.27C127.419 505.829 119.529 505.042 111.702 504.066L110.669 507.215C118.778 508.254 126.949 509.073 135.183 509.514C206.065 513.199 277.636 492.35 347.016 471.312C346.39 470.398 345.732 469.517 345.075 468.603C276.259 489.389 205.314 509.955 135.371 506.27ZM355.219 569.573C344.104 576.25 323.91 577.415 309.383 578.266L302.245 578.738H299.678C279.171 579.872 251.337 582.643 246.453 593.603C244.888 597.162 245.858 601.162 249.334 605.477C250.906 607.211 252.852 608.562 255.022 609.424C257.193 610.286 259.531 610.638 261.857 610.453C273.065 610.453 288.031 603.996 299.959 598.831C304.109 596.922 308.364 595.25 312.702 593.824C320.341 591.745 328.356 590.045 336.246 588.375C347.231 586.257 358.099 583.566 368.807 580.313C369.057 579.116 369.339 577.888 369.589 576.691C358.435 580.239 347.081 583.121 335.588 585.32C327.73 586.99 319.621 588.69 311.888 590.8C307.406 592.257 303.015 593.982 298.738 595.965C283.084 602.705 259.446 612.909 251.776 603.524C249.052 600.154 248.269 597.225 249.334 594.926C252.464 587.966 269.371 583.62 299.834 581.951L302.433 581.793L309.54 581.352C325.194 580.407 345.012 579.274 356.784 572.187C360.293 569.993 363.68 567.606 366.928 565.038C368.462 563.841 370.059 562.645 371.687 561.479C371.687 560.125 371.937 558.771 372 557.385C369.589 559.023 367.272 560.786 365.018 562.519C361.886 565.054 358.615 567.409 355.219 569.573Z" fill="#B41DA7"/>
</g>
<g style="mix-blend-mode:screen" opacity="0.05">
<path d="M532.425 315.749C574.085 310.523 603.621 272.514 598.395 230.854C593.169 189.194 555.16 159.658 513.5 164.884C471.84 170.11 442.304 208.119 447.53 249.779C452.756 291.439 490.765 320.975 532.425 315.749Z" fill="white"/>
</g>
<path d="M588.068 269.31C603.037 233.999 586.546 193.24 551.236 178.272C515.925 163.303 475.166 179.793 460.198 215.104C445.229 250.414 461.719 291.173 497.03 306.142C532.34 321.111 573.099 304.62 588.068 269.31Z" fill="url(#paint3_linear)"/>
<path style="mix-blend-mode:multiply" opacity="0.5" d="M474.064 260.693C467.559 244.882 467.045 227.214 472.621 211.047C478.197 194.88 489.474 181.34 504.308 173C495.237 175.606 486.789 180.051 479.481 186.061C472.174 192.072 466.161 199.521 461.811 207.955C457.461 216.388 454.865 225.627 454.182 235.106C453.499 244.586 454.744 254.106 457.84 263.083C460.936 272.061 465.818 280.308 472.188 287.318C478.557 294.328 486.28 299.955 494.883 303.854C503.486 307.753 512.788 309.841 522.22 309.991C531.652 310.142 541.015 308.351 549.736 304.728C552.241 303.656 554.652 302.457 557 301.164C540.656 305.829 523.18 304.285 507.891 296.824C492.602 289.363 480.565 276.506 474.064 260.693Z" fill="url(#paint4_linear)"/>
<path style="mix-blend-mode:multiply" opacity="0.5" d="M510.607 294.76C516.565 292.141 519.136 284.658 525.062 282.039C527.644 281.17 530.315 280.595 533.027 280.324C555.478 275.928 565.544 243.783 588.403 242.91C589.563 242.91 590.755 242.91 591.946 242.91C592.107 238.93 591.907 234.944 591.35 231C590.316 231.935 589.312 232.933 588.215 233.775C581.254 239.262 570.874 238.327 563.568 243.315C558.739 246.62 555.917 252.014 552.217 256.535C542.81 268.133 528.104 273.247 513.899 276.458C506.123 278.204 481.947 279.139 470 285.812C474.466 290.934 479.664 295.377 485.427 299C486.534 297.814 487.879 296.873 489.376 296.24C490.872 295.606 492.487 295.293 494.113 295.321C499.758 294.666 505.214 297.129 510.607 294.76Z" fill="url(#paint5_linear)"/>
<path style="mix-blend-mode:multiply" opacity="0.5" d="M592 250C583.162 252.55 573.327 257.406 570.949 259.804C568.571 262.202 567.317 264.023 565.228 265.875C562.239 268.607 558.383 270.64 556.293 274.04C555.551 275.682 554.669 277.266 553.658 278.775C548.901 284.542 537.749 280.445 532.286 285.605C531.553 286.197 531.092 287.035 531 287.942C531 290.249 534.214 291.16 536.657 290.977C541.818 290.528 546.896 289.446 551.762 287.76L565.485 283.662C571.142 281.962 577.248 279.959 580.526 275.285C582.513 271.97 584.827 268.84 587.436 265.936C589.649 260.822 591.182 255.47 592 250Z" fill="url(#paint6_linear)"/>
<path style="mix-blend-mode:multiply" opacity="0.5" d="M568.223 207.917C567.132 211.017 566.602 214.891 563.672 216.564C559.775 218.764 555.068 215.324 550.579 215.293C540.384 215.293 538.109 230.789 529.006 235.283C521.649 238.909 510.8 234.787 505.75 241.233C504.004 243.496 503.38 246.688 501.011 248.269C497.894 250.283 493.997 248.609 490.599 247.277C478.802 242.816 465.758 242.872 454 247.432C454.641 254.223 456.312 260.879 458.957 267.174C459.77 269.161 460.686 271.106 461.7 273C464.008 271.556 465.907 269.551 467.218 267.174C468.066 264.867 469.175 262.662 470.522 260.603C474.918 255.645 482.992 258.992 488.51 262.897C494.028 266.802 501.323 270.986 506.623 266.926C511.049 263.517 510.613 256.295 514.759 252.545C522.054 246.006 535.49 255.645 543.034 249.446C548.521 244.891 546.526 234.942 552.387 230.603C556.751 227.256 563.422 229.054 568.161 226.264C575.113 222.205 574.863 210.397 582.345 207.483C582.559 207.407 582.778 207.345 583 207.298C581.195 204.025 579.109 200.915 576.765 198C572.822 200.19 569.793 203.707 568.223 207.917Z" fill="url(#paint7_linear)"/>
<path style="mix-blend-mode:multiply" opacity="0.5" d="M454 234C459.022 229.52 463.792 224.821 468.092 222.972C473.302 220.748 480.238 221.249 483.502 225.886C484.488 227.805 485.599 229.658 486.829 231.431C488.488 232.843 490.596 233.619 492.777 233.619C494.957 233.619 497.065 232.843 498.724 231.431C501.972 228.518 504.534 224.923 506.225 220.905C506.924 219.197 508.128 217.743 509.678 216.738C512.596 215.234 516.3 217.145 519.407 216.049C520.866 215.309 522.08 214.165 522.904 212.753C523.728 211.342 524.127 209.723 524.052 208.091C523.868 204.821 523.952 201.541 524.303 198.285C525.217 195.411 526.918 192.849 529.214 190.889C531.51 188.929 534.31 187.649 537.297 187.195C543.281 186.36 549.36 186.465 555.312 187.508C560.176 188.009 565.073 188.322 570 188.385C560.997 180.241 550.014 174.592 538.144 172C536.073 176.699 534.001 181.211 529.293 182.621C526.155 183.623 522.169 182.621 519.501 184.814C516.833 187.007 516.676 191.737 514.071 194.369C508.171 200.353 497.531 190.327 489.968 193.993C486.829 195.528 485.103 199.1 482.027 200.697C477.57 202.984 471.701 200.885 466.491 199.695C459.349 209.819 455.037 221.66 454 234Z" fill="url(#paint8_linear)"/>
<g style="mix-blend-mode:screen" opacity="0.05">
<path d="M258.576 265.69C305.853 242.015 324.987 184.498 301.312 137.221C277.638 89.9436 220.12 70.81 172.843 94.4846C125.566 118.159 106.433 175.677 130.107 222.954C153.782 270.231 211.299 289.364 258.576 265.69Z" fill="white"/>
</g>
<path d="M229.541 266.503C277.265 258.868 309.764 213.989 302.128 166.265C294.492 118.54 249.614 86.0417 201.889 93.6774C154.165 101.313 121.666 146.191 129.302 193.916C136.938 241.641 181.816 274.139 229.541 266.503Z" fill="url(#paint9_linear)"/>
<path d="M254.3 153.361C265.094 145.09 277.803 140.354 290.888 136.345C298.718 149.749 302.896 164.994 303 180.542C280.784 198.663 252.794 208.039 225.243 215.269C199.606 222.088 173.217 227.612 149.118 238.346C143.838 232.162 139.444 225.266 136.064 217.857C148.299 208.035 162.391 200.817 177.484 196.643C190.036 193.486 203.09 193.202 214.606 187.677C230.389 180.069 240.368 164.031 254.3 153.361ZM299.768 204.63C282.353 213.027 264.122 219.973 247.961 230.611C231.801 241.25 216.582 256.562 197.41 261.329C193.103 262.305 188.729 262.949 184.325 263.254C193.624 266.826 203.462 268.769 213.413 269C239.05 248.511 264.153 227.013 294.653 218.489C296.739 214.021 298.45 209.385 299.768 204.63ZM138.951 138.334C137.011 141.843 135.312 145.482 133.868 149.225C144.469 143.955 154.702 137.964 164.493 131.294C175.476 123.749 185.862 115.351 196.218 106.985L213.57 93C207.468 93.1349 201.398 93.9287 195.464 95.3677C187.418 104.111 178.913 112.415 169.985 120.244C160.617 127.847 150.153 133.968 138.951 138.397V138.334ZM235.724 227.391C239.175 223.824 233.558 223.066 230.923 223.508C224.647 224.582 218.371 225.876 212.095 227.328C200.784 230.002 189.636 233.333 178.708 237.304C170.999 239.654 163.434 242.458 156.053 245.702C159.793 249.213 163.835 252.382 168.133 255.173C171.664 252.224 175.386 249.513 179.273 247.059C187.35 243.19 195.879 240.358 204.658 238.63C214.919 236.357 228.067 235.347 235.724 227.391ZM181.564 183.415C193.519 179.721 206.824 180.258 217.618 173.755C228.412 167.251 234.845 155.444 245.671 149.415C247.804 148.247 257.563 143.101 257.061 140.26C256.653 137.797 251.382 138.839 249.468 139.66C246.577 141.057 243.895 142.853 241.497 144.995C236.194 149.509 231.582 154.971 225.149 157.938C216.112 162.169 205.474 160.401 195.841 162.99C180.528 167.125 170.424 181.205 158.626 191.876C150.863 198.879 142.039 204.591 132.487 208.797C133.146 210.817 133.93 212.838 134.746 214.827C135.97 213.911 137.225 212.964 138.418 212.017C151.942 201.189 164.996 188.529 181.564 183.415ZM203.905 117.908C193.73 124.557 182.975 130.263 171.773 134.956C165.498 137.513 158.406 140.859 157.559 147.584C161.732 148.973 166.031 146.258 169.608 143.669C181.26 135.251 193.069 127.116 205.035 119.266C213.432 113.214 222.674 108.448 232.46 105.123C237.01 103.797 241.874 103.071 246.173 101.524C247.271 101.113 248.432 100.64 249.624 100.072C244.437 97.8204 239.046 96.0761 233.527 94.8626C224.181 103.208 214.285 110.908 203.905 117.908ZM242.752 115.351C235.316 117.372 227.565 118.035 220.191 120.213C201.364 125.738 186.616 140.291 170.706 152.003C157.605 161.604 143.311 169.436 128.188 175.302C127.675 183.157 128.213 191.047 129.788 198.758C151.754 188.119 166.031 165.389 187.682 154.024C199.01 148.026 211.562 145.5 223.266 140.796C237.92 134.924 251.005 125.801 265.251 119.045C268.044 117.719 270.868 116.488 273.755 115.32C270.16 112.102 266.309 109.188 262.239 106.606C256.181 110.399 249.621 113.311 242.752 115.257V115.351Z" fill="url(#paint10_linear)"/>
<path style="mix-blend-mode:multiply" opacity="0.5" d="M154.303 207.146C145.652 187.643 144.487 165.657 151.027 145.356C157.567 125.055 171.358 107.849 189.786 97C186.589 98.0046 183.45 99.1823 180.382 100.528C159.977 110.35 144.199 127.681 136.375 148.866C128.551 170.051 129.293 193.435 138.444 214.086C147.595 234.737 164.441 251.041 185.428 259.56C206.415 268.08 229.904 268.148 250.941 259.752C254.041 258.385 257.065 256.853 260 255.163C239.535 261.455 217.463 260.041 197.977 251.189C178.49 242.336 162.948 226.663 154.303 207.146Z" fill="url(#paint11_linear)"/>
<path d="M286.694 128.789C288.755 131.542 290.664 134.403 292.412 137.359C307.651 133.492 317.549 132.78 318.9 135.997C320.251 139.215 313.15 145.866 300.047 154.343C275.269 169.461 249.368 182.719 222.564 194.003C196.05 205.891 168.656 215.778 140.619 223.578C125.412 227.445 115.483 228.188 114.132 224.97C112.781 221.753 119.85 215.102 132.984 206.625C131.934 203.366 131.074 200.05 130.408 196.694C85.8533 220.268 57.8576 240.346 61.2824 247.925C64.7073 255.504 98.6415 248.637 146.369 232.117C170.061 223.826 197.208 213.369 225.706 200.995C254.205 188.62 280.441 175.998 302.593 164.242C347.116 140.638 375.143 120.591 371.718 113.043C368.293 105.494 334.422 112.455 286.694 128.789Z" fill="url(#paint12_linear)"/>
<path style="mix-blend-mode:multiply" opacity="0.4" d="M461.487 367.223C459.809 365.684 457.67 364.636 455.343 364.212C453.015 363.787 450.602 364.005 448.409 364.837C446.216 365.669 444.341 367.079 443.023 368.888C441.704 370.697 441 372.824 441 375C441 377.176 441.704 379.303 443.023 381.112C444.341 382.921 446.216 384.331 448.409 385.163C450.602 385.995 453.015 386.213 455.343 385.788C457.67 385.364 459.809 384.316 461.487 382.777C463.736 380.714 465 377.917 465 375C465 372.083 463.736 369.286 461.487 367.223Z" fill="url(#paint13_linear)"/>
<path style="mix-blend-mode:multiply" opacity="0.4" d="M70.9268 321.086C66.6632 325.422 63.7601 330.946 62.5847 336.959C61.4094 342.972 62.0144 349.204 64.3234 354.867C66.6324 360.531 70.5417 365.371 75.557 368.777C80.5723 372.182 86.4684 374 92.5 374C98.5316 374 104.428 372.182 109.443 368.777C114.458 365.371 118.368 360.531 120.677 354.867C122.986 349.204 123.591 342.972 122.415 336.959C121.24 330.946 118.337 325.422 114.073 321.086C111.241 318.206 107.878 315.921 104.176 314.361C100.474 312.802 96.5068 312 92.5 312C88.4932 312 84.5256 312.802 80.824 314.361C77.1224 315.921 73.7593 318.206 70.9268 321.086Z" fill="url(#paint14_linear)"/>
<path style="mix-blend-mode:multiply" opacity="0.4" d="M52.3415 630.353C48.3574 634.34 45.6447 639.418 44.5464 644.946C43.4481 650.474 44.0135 656.204 46.1711 661.41C48.3287 666.617 51.9816 671.067 56.668 674.198C61.3545 677.329 66.864 679 72.5 679C78.136 679 83.6456 677.329 88.332 674.198C93.0184 671.067 96.6713 666.617 98.8289 661.41C100.987 656.204 101.552 650.474 100.454 644.946C99.3553 639.418 96.6426 634.34 92.6585 630.353C90.0118 627.705 86.8693 625.604 83.4104 624.171C79.9515 622.738 76.2441 622 72.5 622C68.7559 622 65.0485 622.738 61.5896 624.171C58.1307 625.604 54.9882 627.705 52.3415 630.353Z" fill="url(#paint15_linear)"/>
<path style="mix-blend-mode:multiply" opacity="0.4" d="M625.942 82.577C625.281 81.006 618.575 82.1149 608.973 85.0412C606.254 81.1188 602.237 78.2331 597.597 76.8703C592.958 75.5075 587.981 75.751 583.503 77.5597C579.026 79.3684 575.323 82.6317 573.018 86.7999C570.712 90.9681 569.946 95.7863 570.847 100.443C561.938 105.002 556.365 108.883 557.058 110.454C557.751 112.025 564.425 110.885 574.027 107.959C576.746 111.881 580.763 114.767 585.403 116.13C590.042 117.492 595.019 117.249 599.497 115.44C603.974 113.632 607.677 110.368 609.982 106.2C612.288 102.032 613.054 97.2137 612.153 92.5572C621.062 87.9983 626.635 84.1479 625.942 82.577ZM614.23 87.3207C614.451 87.9059 613.443 88.9224 611.523 90.2162C611.362 89.6832 611.173 89.1588 610.956 88.6452C610.736 88.1215 610.484 87.6287 610.232 87.1358C612.625 86.7354 613.979 86.7662 614.23 87.3207ZM568.77 105.803C568.549 105.248 569.557 104.201 571.477 102.907C571.638 103.44 571.827 103.964 572.044 104.478C572.264 105.002 572.516 105.495 572.768 105.987C570.501 106.326 569.021 106.326 568.77 105.741V105.803Z" fill="url(#paint16_linear)"/>
<path d="M65.2935 425.168L68.3831 430.703C69.4615 432.634 71.1053 434.217 73.1101 435.256L78.8257 438.232C78.8779 438.257 78.922 438.295 78.9528 438.342C78.9837 438.389 79 438.444 79 438.5C79 438.556 78.9837 438.611 78.9528 438.658C78.922 438.705 78.8779 438.743 78.8257 438.768L73.1101 441.744C71.1053 442.783 69.4615 444.366 68.3831 446.297L65.2935 451.832C65.2682 451.882 65.2287 451.925 65.1795 451.955C65.1304 451.984 65.0735 452 65.0154 452C64.9574 452 64.9005 451.984 64.8514 451.955C64.8022 451.925 64.7627 451.882 64.7374 451.832L61.6478 446.297C60.5523 444.378 58.9129 442.799 56.9208 441.744L51.1743 438.768C51.122 438.743 51.078 438.705 51.0472 438.658C51.0163 438.611 51 438.556 51 438.5C51 438.444 51.0163 438.389 51.0472 438.342C51.078 438.295 51.122 438.257 51.1743 438.232L56.9208 435.256C58.9129 434.201 60.5523 432.622 61.6478 430.703L64.7374 425.168C64.7627 425.118 64.8022 425.075 64.8514 425.045C64.9005 425.016 64.9574 425 65.0154 425C65.0735 425 65.1304 425.016 65.1795 425.045C65.2287 425.075 65.2682 425.118 65.2935 425.168Z" fill="#EFEFEF"/>
<path d="M400.803 297.197L403.996 303.139C405.111 305.212 406.809 306.911 408.881 308.027L414.82 311.221C414.874 311.247 414.919 311.288 414.951 311.339C414.983 311.39 415 311.448 415 311.509C415 311.569 414.983 311.627 414.951 311.678C414.919 311.729 414.874 311.77 414.82 311.796L408.881 314.991C406.823 316.123 405.128 317.818 403.996 319.878L400.803 325.82C400.777 325.874 400.736 325.919 400.686 325.951C400.635 325.983 400.576 326 400.516 326C400.456 326 400.397 325.983 400.346 325.951C400.296 325.919 400.255 325.874 400.229 325.82L397.036 319.878C395.851 317.897 394.152 316.274 392.119 315.182L386.18 311.988C386.126 311.962 386.081 311.921 386.049 311.87C386.017 311.819 386 311.76 386 311.7C386 311.64 386.017 311.581 386.049 311.531C386.081 311.48 386.126 311.439 386.18 311.413L392.119 308.218C394.177 307.085 395.872 305.39 397.004 303.331L400.197 297.389C400.179 297.311 400.192 297.229 400.232 297.16C400.272 297.091 400.336 297.039 400.412 297.015C400.488 296.991 400.571 296.996 400.643 297.03C400.716 297.064 400.773 297.123 400.803 297.197Z" fill="#EFEFEF"/>
<path d="M607.597 417L608.859 418.647C609.294 419.222 609.944 419.696 610.735 420.012L613 420.906C613 420.906 613 421.047 613 421.071L610.735 421.988C609.94 422.289 609.286 422.756 608.859 423.329L607.597 425H607.403L606.141 423.329C605.714 422.756 605.06 422.289 604.265 421.988L602 421.071C602 421.071 602 420.953 602 420.906L604.265 420.012C605.056 419.696 605.706 419.222 606.141 418.647L607.403 417H607.597Z" fill="#EFEFEF"/>
<path d="M622.593 41L623.602 43.0649C623.973 43.7733 624.504 44.3628 625.142 44.7758L627 45.8968V46.1032L625.142 47.2242C624.504 47.6372 623.973 48.2267 623.602 48.9351L622.593 51H622.407L621.398 48.9351C621.027 48.2267 620.496 47.6372 619.858 47.2242L618 46.1032V45.8968L619.858 44.7758C620.496 44.3628 621.027 43.7733 621.398 43.0649L622.407 41H622.593Z" fill="#EFEFEF"/>
<path d="M188.677 360.064L190.147 362.958C190.652 363.938 191.407 364.746 192.324 365.286L195 366.858V367.142L192.324 368.714C191.399 369.257 190.642 370.077 190.147 371.074L188.677 373.936C188.66 373.956 188.64 373.972 188.617 373.983C188.594 373.994 188.57 374 188.545 374C188.52 374 188.495 373.994 188.472 373.983C188.449 373.972 188.429 373.956 188.412 373.936L186.942 371.074C186.443 370.069 185.675 369.248 184.736 368.714L182.06 367.142C182.041 367.124 182.026 367.102 182.016 367.078C182.005 367.053 182 367.027 182 367C182 366.973 182.005 366.947 182.016 366.922C182.026 366.898 182.041 366.876 182.06 366.858L184.736 365.286C185.668 364.756 186.434 363.947 186.942 362.958L188.412 360.064C188.429 360.044 188.449 360.028 188.472 360.017C188.495 360.006 188.52 360 188.545 360C188.57 360 188.594 360.006 188.617 360.017C188.64 360.028 188.66 360.044 188.677 360.064Z" fill="#EFEFEF"/>
<path d="M315.631 378L317.092 380.676C317.603 381.603 318.362 382.367 319.283 382.882L321.941 384.323C321.959 384.34 321.974 384.36 321.984 384.383C321.995 384.406 322 384.43 322 384.455C322 384.48 321.995 384.505 321.984 384.528C321.974 384.551 321.959 384.571 321.941 384.588L319.283 386.058C318.35 386.557 317.587 387.325 317.092 388.264L315.631 390.94C315.615 390.959 315.595 390.974 315.572 390.984C315.549 390.995 315.525 391 315.5 391C315.475 391 315.451 390.995 315.428 390.984C315.405 390.974 315.385 390.959 315.369 390.94L313.908 388.264C313.413 387.325 312.65 386.557 311.717 386.058L309.059 384.588C309.041 384.571 309.026 384.551 309.016 384.528C309.005 384.505 309 384.48 309 384.455C309 384.43 309.005 384.406 309.016 384.383C309.026 384.36 309.041 384.34 309.059 384.323L311.717 382.882C312.638 382.367 313.397 381.603 313.908 380.676L315.369 378H315.631Z" fill="#EFEFEF"/>
<path d="M715.631 110L717.092 112.676C717.603 113.603 718.362 114.367 719.283 114.882L721.941 116.323C721.959 116.34 721.974 116.36 721.984 116.383C721.995 116.406 722 116.43 722 116.455C722 116.48 721.995 116.505 721.984 116.528C721.974 116.551 721.959 116.571 721.941 116.588L719.283 118.058C718.35 118.557 717.587 119.325 717.092 120.264L715.631 122.94C715.615 122.959 715.595 122.974 715.572 122.984C715.549 122.995 715.525 123 715.5 123C715.475 123 715.451 122.995 715.428 122.984C715.405 122.974 715.385 122.959 715.369 122.94L713.908 120.264C713.413 119.325 712.65 118.557 711.717 118.058L709.059 116.588C709.041 116.571 709.026 116.551 709.016 116.528C709.005 116.505 709 116.48 709 116.455C709 116.43 709.005 116.406 709.016 116.383C709.026 116.36 709.041 116.34 709.059 116.323L711.717 114.882C712.638 114.367 713.397 113.603 713.908 112.676L715.369 110H715.631Z" fill="#EFEFEF"/>
<path d="M303.616 41.0578L305.742 45.1706C306.504 46.5957 307.637 47.7598 309.007 48.5242L312.9 50.7705C312.931 50.7939 312.956 50.8248 312.974 50.8605C312.991 50.8963 313 50.9359 313 50.9761C313 51.0163 312.991 51.0559 312.974 51.0917C312.956 51.1274 312.931 51.1583 312.9 51.1817L309.007 53.428C307.67 54.2069 306.569 55.3696 305.832 56.7816L303.706 60.8944C303.684 60.9271 303.654 60.9537 303.62 60.9721C303.587 60.9904 303.549 61 303.511 61C303.473 61 303.435 60.9904 303.402 60.9721C303.368 60.9537 303.339 60.9271 303.316 60.8944L301.22 56.7816C300.48 55.3609 299.367 54.1964 298.015 53.428L294.032 51.1817C294.011 51.1433 294 51.0996 294 51.0552C294 51.0108 294.011 50.9671 294.032 50.9286L297.926 48.6824C299.277 47.914 300.39 46.7495 301.13 45.3288L303.226 41.2159C303.233 41.1716 303.25 41.1298 303.277 41.0948C303.303 41.0599 303.338 41.033 303.377 41.0169C303.417 41.0008 303.46 40.9961 303.502 41.0033C303.544 41.0105 303.583 41.0293 303.616 41.0578Z" fill="#EFEFEF"/>
<path d="M415 534C415 534.593 414.824 535.173 414.494 535.667C414.165 536.16 413.696 536.545 413.148 536.772C412.6 536.999 411.997 537.058 411.415 536.942C410.833 536.827 410.298 536.541 409.879 536.121C409.459 535.702 409.173 535.167 409.058 534.585C408.942 534.003 409.001 533.4 409.228 532.852C409.455 532.304 409.84 531.835 410.333 531.506C410.827 531.176 411.407 531 412 531C412.796 531 413.559 531.316 414.121 531.879C414.684 532.441 415 533.204 415 534Z" fill="#EFEFEF"/>
<path d="M198 46C198 46.5933 197.795 47.1734 197.41 47.6667C197.026 48.1601 196.479 48.5446 195.839 48.7716C195.2 48.9987 194.496 49.0581 193.817 48.9424C193.138 48.8266 192.515 48.5409 192.025 48.1213C191.536 47.7018 191.202 47.1672 191.067 46.5853C190.932 46.0033 191.002 45.4001 191.266 44.8519C191.531 44.3038 191.98 43.8352 192.556 43.5056C193.131 43.1759 193.808 43 194.5 43C195.428 43 196.318 43.3161 196.975 43.8787C197.631 44.4413 198 45.2043 198 46Z" fill="#EFEFEF"/>
<path d="M66 186.5C66 187.192 65.7654 187.869 65.3259 188.444C64.8863 189.02 64.2616 189.469 63.5307 189.734C62.7998 189.998 61.9956 190.068 61.2196 189.933C60.4437 189.798 59.731 189.464 59.1716 188.975C58.6122 188.485 58.2312 187.862 58.0769 187.183C57.9225 186.504 58.0017 185.8 58.3045 185.161C58.6072 184.521 59.1199 183.974 59.7777 183.59C60.4355 183.205 61.2089 183 62 183C63.0609 183 64.0783 183.369 64.8284 184.025C65.5786 184.682 66 185.572 66 186.5Z" fill="#EFEFEF"/>
<path d="M637 234.5C637 235.192 636.765 235.869 636.326 236.444C635.886 237.02 635.262 237.469 634.531 237.734C633.8 237.998 632.996 238.068 632.22 237.933C631.444 237.798 630.731 237.464 630.172 236.975C629.612 236.485 629.231 235.862 629.077 235.183C628.923 234.504 629.002 233.8 629.304 233.161C629.607 232.521 630.12 231.974 630.778 231.59C631.436 231.205 632.209 231 633 231C634.061 231 635.078 231.369 635.828 232.025C636.579 232.682 637 233.572 637 234.5Z" fill="#EFEFEF"/>
<path d="M801 36.5C801 37.1922 800.765 37.8689 800.326 38.4445C799.886 39.0201 799.262 39.4687 798.531 39.7336C797.8 39.9985 796.996 40.0678 796.22 39.9327C795.444 39.7977 794.731 39.4644 794.172 38.9749C793.612 38.4854 793.231 37.8618 793.077 37.1828C792.923 36.5039 793.002 35.8002 793.304 35.1606C793.607 34.5211 794.12 33.9744 794.778 33.5899C795.436 33.2053 796.209 33 797 33C798.061 33 799.078 33.3687 799.828 34.0251C800.579 34.6815 801 35.5717 801 36.5Z" fill="#EFEFEF"/>
<path d="M499 345.5C499 346.192 498.765 346.869 498.326 347.444C497.886 348.02 497.262 348.469 496.531 348.734C495.8 348.998 494.996 349.068 494.22 348.933C493.444 348.798 492.731 348.464 492.172 347.975C491.612 347.485 491.231 346.862 491.077 346.183C490.923 345.504 491.002 344.8 491.304 344.161C491.607 343.521 492.12 342.974 492.778 342.59C493.436 342.205 494.209 342 495 342C496.061 342 497.078 342.369 497.828 343.025C498.579 343.682 499 344.572 499 345.5Z" fill="#EFEFEF"/>
<path d="M349 214C349 214.791 348.824 215.564 348.494 216.222C348.165 216.88 347.696 217.393 347.148 217.696C346.6 217.998 345.997 218.077 345.415 217.923C344.833 217.769 344.298 217.388 343.879 216.828C343.459 216.269 343.173 215.556 343.058 214.78C342.942 214.004 343.001 213.2 343.228 212.469C343.455 211.738 343.84 211.114 344.333 210.674C344.827 210.235 345.407 210 346 210C346.796 210 347.559 210.421 348.121 211.172C348.684 211.922 349 212.939 349 214Z" fill="#EFEFEF"/>
<path d="M60.9836 619.229C60.9133 619.717 60.6214 620.166 60.1635 620.493C59.7055 620.82 59.1135 621 58.5 621C57.8865 621 57.2945 620.82 56.8365 620.493C56.3786 620.166 56.0867 619.717 56.0164 619.229C55.9761 618.949 56.0102 618.665 56.1166 618.396C56.223 618.127 56.3992 617.88 56.6338 617.669C56.8683 617.459 57.1558 617.29 57.4774 617.175C57.7991 617.06 58.1475 617 58.5 617C58.8525 617 59.2009 617.06 59.5226 617.175C59.8442 617.29 60.1317 617.459 60.3662 617.669C60.6008 617.88 60.777 618.127 60.8834 618.396C60.9898 618.665 61.0239 618.949 60.9836 619.229Z" fill="#EFEFEF"/>
<path d="M622 173.5C622 173.994 621.883 174.478 621.663 174.889C621.443 175.3 621.131 175.62 620.765 175.81C620.4 175.999 619.998 176.048 619.61 175.952C619.222 175.855 618.865 175.617 618.586 175.268C618.306 174.918 618.116 174.473 618.038 173.988C617.961 173.503 618.001 173 618.152 172.543C618.304 172.086 618.56 171.696 618.889 171.421C619.218 171.147 619.604 171 620 171C620.263 171 620.523 171.065 620.765 171.19C621.008 171.316 621.229 171.5 621.414 171.732C621.6 171.964 621.747 172.24 621.848 172.543C621.948 172.847 622 173.172 622 173.5Z" fill="#EFEFEF"/>
<path d="M50.2211 621.443C50.4337 621.654 50.6107 621.915 50.7422 622.211C50.8736 622.507 50.9569 622.833 50.9871 623.169C51.0174 623.505 50.9941 623.846 50.9186 624.171C50.843 624.496 50.7167 624.799 50.5469 625.063C50.1975 625.586 49.698 625.917 49.1553 625.986C48.6125 626.056 48.0695 625.858 47.6421 625.435C47.2666 624.991 47.039 624.387 47.0046 623.742C46.9701 623.098 47.1313 622.462 47.4561 621.959C47.7809 621.456 48.2456 621.124 48.7578 621.028C49.2701 620.933 49.7924 621.081 50.2211 621.443Z" fill="#EFEFEF"/>
<path d="M495 601C495 601.593 494.795 602.173 494.41 602.667C494.026 603.16 493.479 603.545 492.839 603.772C492.2 603.999 491.496 604.058 490.817 603.942C490.138 603.827 489.515 603.541 489.025 603.121C488.536 602.702 488.202 602.167 488.067 601.585C487.932 601.003 488.002 600.4 488.266 599.852C488.531 599.304 488.98 598.835 489.556 598.506C490.131 598.176 490.808 598 491.5 598C492.428 598 493.319 598.316 493.975 598.879C494.631 599.441 495 600.204 495 601Z" fill="#EFEFEF"/>
<path d="M415 512.507C415 512.636 414.904 512.76 414.733 512.851C414.562 512.942 414.33 512.993 414.088 512.993C413.954 513.005 413.817 513.001 413.686 512.982C413.555 512.962 413.434 512.928 413.33 512.881C413.227 512.834 413.144 512.776 413.087 512.71C413.03 512.644 413 512.572 413 512.5C413 512.427 413.03 512.356 413.087 512.29C413.144 512.224 413.227 512.166 413.33 512.119C413.434 512.072 413.555 512.038 413.686 512.018C413.817 511.999 413.954 511.995 414.088 512.007C414.21 512.007 414.33 512.02 414.443 512.045C414.555 512.07 414.656 512.107 414.741 512.154C414.826 512.2 414.893 512.256 414.937 512.316C414.982 512.377 415.003 512.442 415 512.507Z" fill="#EFEFEF"/>
<path d="M481 591.5C481 591.898 480.947 592.279 480.854 592.561C480.76 592.842 480.633 593 480.5 593C480.367 593 480.24 592.842 480.146 592.561C480.053 592.279 480 591.898 480 591.5C480 591.102 480.053 590.721 480.146 590.439C480.24 590.158 480.367 590 480.5 590C480.633 590 480.76 590.158 480.854 590.439C480.947 590.721 481 591.102 481 591.5Z" fill="#EFEFEF"/>
<path d="M503 582.5C503 582.898 502.789 583.279 502.414 583.561C502.039 583.842 501.53 584 501 584C500.47 584 499.961 583.842 499.586 583.561C499.211 583.279 499 582.898 499 582.5C499 582.102 499.211 581.721 499.586 581.439C499.961 581.158 500.47 581 501 581C501.53 581 502.039 581.158 502.414 581.439C502.789 581.721 503 582.102 503 582.5Z" fill="#EFEFEF"/>
<path d="M614 512.5C614 512.599 613.912 512.696 613.747 512.778C613.582 512.86 613.348 512.924 613.074 512.962C612.8 513 612.498 513.01 612.207 512.99C611.916 512.971 611.649 512.923 611.439 512.854C611.23 512.784 611.087 512.695 611.029 512.598C610.971 512.501 611.001 512.4 611.114 512.309C611.228 512.217 611.42 512.139 611.667 512.084C611.913 512.029 612.203 512 612.5 512C612.898 512 613.279 512.053 613.561 512.146C613.842 512.24 614 512.367 614 512.5Z" fill="#EFEFEF"/>
<path d="M649.988 61.7281C649.952 62.0822 649.832 62.4051 649.651 62.6384C649.47 62.8717 649.239 63 649 63C648.761 63 648.53 62.8717 648.349 62.6384C648.168 62.4051 648.048 62.0822 648.012 61.7281C647.99 61.5143 647.999 61.296 648.038 61.088C648.078 60.8801 648.147 60.6874 648.241 60.5233C648.335 60.3592 648.451 60.2274 648.582 60.1371C648.713 60.0468 648.856 60 649 60C649.144 60 649.287 60.0468 649.418 60.1371C649.549 60.2274 649.665 60.3592 649.759 60.5233C649.853 60.6874 649.922 60.8801 649.962 61.088C650.001 61.296 650.01 61.5143 649.988 61.7281Z" fill="#EFEFEF"/>
<path d="M40 616.5C40 616.797 39.9707 617.087 39.9157 617.333C39.8608 617.58 39.7827 617.772 39.6913 617.886C39.6 617.999 39.4994 618.029 39.4025 617.971C39.3055 617.913 39.2164 617.77 39.1464 617.561C39.0765 617.351 39.0289 617.084 39.0096 616.793C38.9903 616.502 39.0002 616.2 39.0381 615.926C39.0759 615.652 39.14 615.418 39.2222 615.253C39.3044 615.088 39.4011 615 39.5 615C39.6326 615 39.7598 615.158 39.8536 615.439C39.9473 615.721 40 616.102 40 616.5Z" fill="#EFEFEF"/>
<path d="M489 64.4804C489.005 64.7787 488.891 65.0714 488.674 65.3211C488.456 65.5708 488.144 65.7661 487.777 65.882C487.411 65.998 487.007 66.0294 486.616 65.9721C486.226 65.9149 485.867 65.7716 485.586 65.5607C485.304 65.3497 485.113 65.0806 485.037 64.7878C484.961 64.495 485.003 64.1918 485.157 63.9169C485.312 63.642 485.572 63.408 485.905 63.2447C486.238 63.0814 486.628 62.9962 487.026 63.0001C487.547 63.0052 488.046 63.1628 488.414 63.4393C488.783 63.7158 488.993 64.0894 489 64.4804Z" fill="#EFEFEF"/>
<path d="M479.246 66.6535C479.452 66.899 479.623 67.2028 479.75 67.5475C479.877 67.8922 479.958 68.2711 479.987 68.6625C480.017 69.054 479.995 69.4504 479.922 69.829C479.85 70.2076 479.728 70.5611 479.564 70.8692C479.401 71.1774 479.198 71.4342 478.968 71.6249C478.739 71.8157 478.486 71.9366 478.225 71.981C477.964 72.0253 477.7 71.9921 477.447 71.8832C477.195 71.7743 476.959 71.5919 476.754 71.3465C476.548 71.101 476.377 70.7972 476.25 70.4525C476.123 70.1078 476.042 69.7289 476.013 69.3375C475.983 68.946 476.005 68.5496 476.078 68.171C476.15 67.7924 476.272 67.4389 476.436 67.1308C476.599 66.8226 476.802 66.5658 477.032 66.3751C477.261 66.1843 477.514 66.0634 477.775 66.019C478.036 65.9747 478.3 66.0079 478.553 66.1168C478.805 66.2257 479.041 66.4081 479.246 66.6535Z" fill="#EFEFEF"/>
<path d="M138.124 309.617C138.625 310.043 138.938 310.652 138.992 311.309C139.046 311.966 138.837 312.618 138.412 313.121C137.987 313.624 137.381 313.937 136.726 313.992C136.071 314.046 135.421 313.837 134.919 313.411C134.669 313.21 134.459 312.962 134.304 312.681C134.149 312.4 134.051 312.09 134.015 311.771C133.979 311.451 134.007 311.128 134.096 310.819C134.185 310.51 134.334 310.222 134.535 309.971C134.74 309.701 134.999 309.477 135.295 309.312C135.59 309.147 135.916 309.045 136.253 309.012C136.589 308.979 136.929 309.015 137.251 309.119C137.573 309.223 137.87 309.393 138.124 309.617Z" fill="#EFEFEF"/>
<path d="M709.124 357.617C709.625 358.043 709.938 358.652 709.992 359.309C710.046 359.966 709.837 360.618 709.412 361.121C708.987 361.624 708.381 361.937 707.726 361.992C707.071 362.046 706.421 361.837 705.919 361.411C705.669 361.21 705.459 360.962 705.304 360.681C705.149 360.4 705.051 360.09 705.015 359.771C704.979 359.451 705.007 359.128 705.096 358.819C705.185 358.51 705.334 358.222 705.535 357.971C705.74 357.701 705.999 357.477 706.295 357.312C706.59 357.147 706.916 357.045 707.253 357.012C707.589 356.979 707.929 357.015 708.251 357.119C708.573 357.223 708.87 357.393 709.124 357.617Z" fill="#EFEFEF"/>
<path d="M91.2345 37.7463C91.5467 38.1749 91.779 38.7564 91.9018 39.4168C92.0246 40.0771 92.0324 40.7865 91.9242 41.4546C91.8159 42.1227 91.5966 42.7194 91.294 43.1687C90.9914 43.618 90.6193 43.8997 90.225 43.9778C89.8307 44.0559 89.432 43.927 89.0797 43.6074C88.7273 43.2878 88.4373 42.7921 88.2465 42.1832C88.0556 41.5744 87.9726 40.8799 88.008 40.1882C88.0433 39.4965 88.1954 38.8389 88.445 38.2989C88.7753 37.5842 89.2531 37.1256 89.775 37.0222C90.297 36.9188 90.8212 37.1789 91.2345 37.7463Z" fill="#EFEFEF"/>
<path d="M398.493 413.981C399.112 414.536 399.57 415.284 399.811 416.132C400.051 416.979 400.063 417.888 399.844 418.744C399.626 419.599 399.187 420.362 398.583 420.936C397.979 421.511 397.237 421.871 396.451 421.971C395.665 422.072 394.87 421.907 394.167 421.5C393.464 421.092 392.884 420.459 392.501 419.68C392.118 418.902 391.948 418.013 392.014 417.126C392.079 416.24 392.377 415.395 392.87 414.698C393.197 414.236 393.602 413.85 394.062 413.564C394.522 413.277 395.027 413.095 395.549 413.029C396.071 412.962 396.6 413.012 397.105 413.175C397.61 413.339 398.082 413.612 398.493 413.981Z" fill="#EFEFEF"/>
<path d="M798.493 145.981C799.112 146.536 799.57 147.284 799.811 148.132C800.051 148.979 800.063 149.888 799.844 150.744C799.626 151.599 799.187 152.362 798.583 152.936C797.979 153.511 797.237 153.871 796.451 153.971C795.665 154.072 794.87 153.907 794.167 153.5C793.464 153.092 792.884 152.459 792.501 151.68C792.118 150.902 791.948 150.013 792.014 149.126C792.079 148.24 792.377 147.395 792.87 146.698C793.197 146.236 793.602 145.85 794.062 145.564C794.522 145.277 795.027 145.095 795.549 145.029C796.071 144.962 796.6 145.012 797.105 145.175C797.61 145.339 798.082 145.612 798.493 145.981Z" fill="#EFEFEF"/>
<path d="M470 61.5357C469.993 61.8308 469.899 62.1172 469.73 62.3591C469.561 62.601 469.324 62.7877 469.049 62.8958C468.775 63.0039 468.474 63.0285 468.186 62.9667C467.897 62.9048 467.633 62.7592 467.427 62.5481C467.221 62.337 467.081 62.0697 467.026 61.7797C466.971 61.4898 467.003 61.19 467.117 60.918C467.232 60.646 467.424 60.4138 467.67 60.2505C467.916 60.0872 468.204 60.0001 468.5 60C468.7 59.9999 468.898 60.0399 469.082 60.1175C469.266 60.1951 469.433 60.3088 469.573 60.4519C469.713 60.595 469.823 60.7646 469.896 60.9507C469.969 61.1368 470.004 61.3357 470 61.5357Z" fill="#EFEFEF"/>
<path d="M500 152.5C500 152.898 499.947 153.279 499.854 153.561C499.76 153.842 499.633 154 499.5 154C499.367 154 499.24 153.842 499.146 153.561C499.053 153.279 499 152.898 499 152.5C499 152.102 499.053 151.721 499.146 151.439C499.24 151.158 499.367 151 499.5 151C499.633 151 499.76 151.158 499.854 151.439C499.947 151.721 500 152.102 500 152.5Z" fill="#EFEFEF"/>
<path d="M410 139.5C410 139.898 409.842 140.279 409.561 140.561C409.279 140.842 408.898 141 408.5 141C408.102 141 407.721 140.842 407.439 140.561C407.158 140.279 407 139.898 407 139.5C407 139.102 407.158 138.721 407.439 138.439C407.721 138.158 408.102 138 408.5 138C408.898 138 409.279 138.158 409.561 138.439C409.842 138.721 410 139.102 410 139.5Z" fill="#EFEFEF"/>
<path d="M144 298C144 298.198 143.912 298.391 143.747 298.556C143.582 298.72 143.348 298.848 143.074 298.924C142.8 299 142.498 299.019 142.207 298.981C141.916 298.942 141.649 298.847 141.439 298.707C141.23 298.567 141.087 298.389 141.029 298.195C140.971 298.001 141.001 297.8 141.114 297.617C141.228 297.435 141.42 297.278 141.667 297.169C141.913 297.059 142.203 297 142.5 297C142.898 297 143.279 297.105 143.561 297.293C143.842 297.48 144 297.735 144 298Z" fill="#EFEFEF"/>
<path d="M92 60C92 60.1978 91.9413 60.3911 91.8315 60.5556C91.7216 60.72 91.5654 60.8482 91.3827 60.9239C91.2 60.9996 90.9989 61.0194 90.8049 60.9808C90.6109 60.9422 90.4327 60.847 90.2929 60.7071C90.153 60.5673 90.0578 60.3891 90.0192 60.1951C89.9806 60.0011 90.0004 59.8 90.0761 59.6173C90.1518 59.4346 90.28 59.2784 90.4444 59.1685C90.6089 59.0586 90.8022 59 91 59C91.2652 59 91.5196 59.1054 91.7071 59.2929C91.8946 59.4804 92 59.7348 92 60Z" fill="#EFEFEF"/>
<path d="M40.9999 49.0238C40.9975 49.2205 40.9662 49.4115 40.9099 49.5727C40.8535 49.734 40.7746 49.8585 40.6831 49.9305C40.5916 50.0026 40.4914 50.019 40.3952 49.9778C40.299 49.9366 40.2111 49.8395 40.1423 49.6987C40.0736 49.558 40.0271 49.3798 40.0088 49.1865C39.9904 48.9932 40.001 48.7934 40.0392 48.612C40.0773 48.4307 40.1414 48.2759 40.2234 48.167C40.3053 48.0582 40.4015 48.0001 40.4999 48C40.5665 48 40.6325 48.0266 40.694 48.0783C40.7554 48.1301 40.8111 48.2059 40.8577 48.3013C40.9043 48.3967 40.9409 48.5097 40.9653 48.6338C40.9897 48.7579 41.0014 48.8905 40.9999 49.0238Z" fill="#EFEFEF"/>
<path d="M399 441.455C399.006 442.151 398.864 442.834 398.592 443.416C398.32 443.999 397.93 444.454 397.472 444.725C397.013 444.995 396.508 445.069 396.02 444.935C395.532 444.801 395.084 444.467 394.732 443.975C394.381 443.483 394.142 442.855 394.046 442.172C393.951 441.489 394.003 440.781 394.197 440.14C394.39 439.498 394.715 438.952 395.131 438.571C395.547 438.19 396.035 437.991 396.532 438C396.856 438 397.177 438.09 397.477 438.263C397.776 438.437 398.048 438.691 398.277 439.012C398.506 439.333 398.688 439.714 398.812 440.133C398.936 440.552 399 441.001 399 441.455Z" fill="#EFEFEF"/>
<path d="M799 173.455C799.006 174.151 798.864 174.834 798.592 175.416C798.32 175.999 797.93 176.454 797.472 176.725C797.013 176.995 796.508 177.069 796.02 176.935C795.532 176.801 795.084 176.467 794.732 175.975C794.381 175.483 794.142 174.855 794.046 174.172C793.951 173.489 794.003 172.781 794.197 172.14C794.39 171.498 794.715 170.952 795.131 170.571C795.547 170.19 796.035 169.991 796.532 170C796.856 170 797.177 170.09 797.477 170.263C797.776 170.437 798.048 170.691 798.277 171.012C798.506 171.333 798.688 171.714 798.812 172.133C798.936 172.552 799 173.001 799 173.455Z" fill="#EFEFEF"/>
<path d="M80 176C80.5523 176 81 175.105 81 174C81 172.895 80.5523 172 80 172C79.4477 172 79 172.895 79 174C79 175.105 79.4477 176 80 176Z" fill="#EFEFEF"/>
<path d="M625 181.5C625 181.797 624.912 182.087 624.747 182.333C624.582 182.58 624.348 182.772 624.074 182.886C623.8 182.999 623.498 183.029 623.207 182.971C622.916 182.913 622.649 182.77 622.439 182.561C622.23 182.351 622.087 182.084 622.029 181.793C621.971 181.502 622.001 181.2 622.114 180.926C622.228 180.652 622.42 180.418 622.667 180.253C622.913 180.088 623.203 180 623.5 180C623.898 180 624.279 180.158 624.561 180.439C624.842 180.721 625 181.102 625 181.5Z" fill="#EFEFEF"/>
<path d="M753 283C746.038 300.69 740.368 318.861 736.035 337.368C718.213 410.287 701.915 505.373 609.229 513.697C497.53 523.733 408.084 438.732 312.872 546.613C272.557 592.324 256.736 654.969 222.331 704.628C139.271 825.779 67.4091 712.857 -18.2242 674.804C-28.5174 670.047 -100.474 662.579 -99.9976 663.768C-62.8279 733.834 -71.7868 931.757 -39.0012 1030.5C125.499 1071.94 155.139 994.212 209.512 911.589C266.22 825.351 282.422 671.712 463.314 706.768C644.207 741.825 660.648 666.242 753 283Z" fill="url(#paint17_linear)"/>
<defs>
<linearGradient id="paint0_linear" x1="98.8216" y1="976.252" x2="684.455" y2="-231.838" gradientUnits="userSpaceOnUse">
<stop stop-color="#271A6B"/>
<stop offset="0.21" stop-color="#2E1B71"/>
<stop offset="0.53" stop-color="#431E81"/>
<stop offset="0.91" stop-color="#64249B"/>
<stop offset="1" stop-color="#6D25A2"/>
</linearGradient>
<linearGradient id="paint1_linear" x1="-1131.87" y1="-568.533" x2="903.209" y2="726.641" gradientUnits="userSpaceOnUse">
<stop stop-color="#BD1ACD"/>
<stop offset="0.19" stop-color="#B61BC9"/>
<stop offset="0.48" stop-color="#A11EBE"/>
<stop offset="0.83" stop-color="#8022AC"/>
<stop offset="1" stop-color="#6D25A2"/>
</linearGradient>
<linearGradient id="paint2_linear" x1="123.622" y1="599.496" x2="366.194" y2="493.213" gradientUnits="userSpaceOnUse">
<stop stop-color="#FF17D0"/>
<stop offset="1" stop-color="#FFD394"/>
</linearGradient>
<linearGradient id="paint3_linear" x1="456.359" y1="270.726" x2="584.355" y2="217.883" gradientUnits="userSpaceOnUse">
<stop stop-color="#9796FE"/>
<stop offset="0.99" stop-color="#FF7DFF"/>
</linearGradient>
<linearGradient id="paint4_linear" x1="6701.39" y1="-39548.9" x2="9048.96" y2="-40511.3" gradientUnits="userSpaceOnUse">
<stop stop-color="#9796FE"/>
<stop offset="0.99" stop-color="#FF7DFF"/>
</linearGradient>
<linearGradient id="paint5_linear" x1="17381.6" y1="-23832.3" x2="22137.1" y2="-25807.7" gradientUnits="userSpaceOnUse">
<stop stop-color="#9796FE"/>
<stop offset="0.99" stop-color="#FF7DFF"/>
</linearGradient>
<linearGradient id="paint6_linear" x1="9296.66" y1="-12887.1" x2="10531.4" y2="-13427.1" gradientUnits="userSpaceOnUse">
<stop stop-color="#9796FE"/>
<stop offset="0.99" stop-color="#FF7DFF"/>
</linearGradient>
<linearGradient id="paint7_linear" x1="17581" y1="-26678.6" x2="22808.1" y2="-28850.4" gradientUnits="userSpaceOnUse">
<stop stop-color="#9796FE"/>
<stop offset="0.99" stop-color="#FF7DFF"/>
</linearGradient>
<linearGradient id="paint8_linear" x1="16419.5" y1="-23389.3" x2="20654" y2="-25141.5" gradientUnits="userSpaceOnUse">
<stop stop-color="#9796FE"/>
<stop offset="0.99" stop-color="#FF7DFF"/>
</linearGradient>
<linearGradient id="paint9_linear" x1="140.584" y1="213.819" x2="301.341" y2="143.778" gradientUnits="userSpaceOnUse">
<stop stop-color="#ED1771"/>
<stop offset="0.14" stop-color="#EE1E73"/>
<stop offset="0.35" stop-color="#F13378"/>
<stop offset="0.6" stop-color="#F65481"/>
<stop offset="0.88" stop-color="#FC838D"/>
<stop offset="0.98" stop-color="#FF9692"/>
</linearGradient>
<linearGradient id="paint10_linear" x1="129.726" y1="226.665" x2="299.294" y2="126.827" gradientUnits="userSpaceOnUse">
<stop stop-color="#FF327E"/>
<stop offset="0.13" stop-color="#FF397F"/>
<stop offset="0.32" stop-color="#FF4E83"/>
<stop offset="0.55" stop-color="#FF6F89"/>
<stop offset="0.82" stop-color="#FF9E91"/>
<stop offset="0.98" stop-color="#FFBF97"/>
</linearGradient>
<linearGradient id="paint11_linear" x1="-3450.07" y1="-52036.6" x2="219.116" y2="-53662.2" gradientUnits="userSpaceOnUse">
<stop stop-color="#9796FE"/>
<stop offset="0.99" stop-color="#FF7DFF"/>
</linearGradient>
<linearGradient id="paint12_linear" x1="83.1403" y1="219.853" x2="399.699" y2="123.382" gradientUnits="userSpaceOnUse">
<stop stop-color="#FF75A4"/>
<stop offset="1" stop-color="#FFE76F"/>
</linearGradient>
<linearGradient id="paint13_linear" x1="3735.48" y1="2895.54" x2="3914.04" y2="2895.54" gradientUnits="userSpaceOnUse">
<stop stop-color="#BD1ACD"/>
<stop offset="0.19" stop-color="#B61BC9"/>
<stop offset="0.48" stop-color="#A11EBE"/>
<stop offset="0.83" stop-color="#8022AC"/>
<stop offset="1" stop-color="#6D25A2"/>
</linearGradient>
<linearGradient id="paint14_linear" x1="1047.76" y1="6811.46" x2="2247.63" y2="6811.46" gradientUnits="userSpaceOnUse">
<stop stop-color="#BD1ACD"/>
<stop offset="0.19" stop-color="#B61BC9"/>
<stop offset="0.48" stop-color="#A11EBE"/>
<stop offset="0.83" stop-color="#8022AC"/>
<stop offset="1" stop-color="#6D25A2"/>
</linearGradient>
<linearGradient id="paint15_linear" x1="711.47" y1="13145.5" x2="1832.66" y2="13145.5" gradientUnits="userSpaceOnUse">
<stop stop-color="#BD1ACD"/>
<stop offset="0.19" stop-color="#B61BC9"/>
<stop offset="0.48" stop-color="#A11EBE"/>
<stop offset="0.83" stop-color="#8022AC"/>
<stop offset="1" stop-color="#6D25A2"/>
</linearGradient>
<linearGradient id="paint16_linear" x1="12585.8" y1="1155.94" x2="14098.3" y2="1155.94" gradientUnits="userSpaceOnUse">
<stop stop-color="#BD1ACD"/>
<stop offset="0.19" stop-color="#B61BC9"/>
<stop offset="0.48" stop-color="#A11EBE"/>
<stop offset="0.83" stop-color="#8022AC"/>
<stop offset="1" stop-color="#6D25A2"/>
</linearGradient>
<linearGradient id="paint17_linear" x1="430.386" y1="881.147" x2="349.12" y2="631.431" gradientUnits="userSpaceOnUse">
<stop stop-color="#E2BAE7"/>
<stop offset="1" stop-color="#EFEFEF"/>
</linearGradient>
</defs>
</svg>
