<svg width="578" height="623" viewBox="0 0 578 623" fill="none" xmlns="http://www.w3.org/2000/svg">
<g clip-path="url(#clip0)">
<path fill-rule="evenodd" clip-rule="evenodd" d="M218.434 129.173C163.95 137.697 111.34 141.025 54.2052 156.427C52.0754 157.06 53.0554 158.799 50.3887 159.185C56.4396 214.288 63.1134 275.586 69.8924 333.14C84.0151 394.546 83.9555 450.536 101.119 513.011C142.444 515.586 189.501 502.539 232.932 499.327C276.362 496.115 321.485 488.456 365.618 483.122C383.611 500.979 399.494 524.219 419.319 537.124C507.036 462.758 592.915 387.081 672.734 309.145C660.915 282.03 637.42 264.182 617.748 245.548C598.076 226.914 576.999 208.232 557.558 188.427C536.363 172.275 517.417 150.815 496.855 132.503C487.441 122.531 477.449 113.123 466.932 104.326C461.953 99.6565 456.936 95.0562 451.748 90.8548C446.56 86.6533 442.226 79.4723 435.738 77.9188C430.651 80.2997 433.42 85.9156 427.115 87.904C410.501 97.7105 396.891 112.367 385.63 121.859C383.966 114.697 384.716 108.442 382.325 100.974C329.033 106.883 272.818 120.504 218.434 129.173Z" fill="#3B2460"/>
<path fill-rule="evenodd" clip-rule="evenodd" d="M64.7157 163.921C170.079 143.707 268.668 135.019 376.982 109.521C387.69 223.621 397.469 337.127 412.787 452.699C318.998 461.355 220.372 482.989 126.332 492.357C168.601 494.014 221.45 483.887 268.926 477.907C305.138 473.997 343.257 464.996 378.784 462.682C385.547 460.673 391.074 460.946 397.543 459.315C402.401 461.236 410.703 454.072 414.141 460.185C414.652 466.588 406.793 462.368 402.348 465.544C398.078 464.434 392.169 467.755 387.781 467.028C377.259 470.617 368.551 469.781 358.617 472.035C301.136 478.666 242.37 488.578 186.047 492.081C160.067 500.203 137.444 499.729 113.097 503.595C107.205 446.879 95.7676 390.418 84.336 333.781C72.9044 277.144 75.6393 221.578 64.1329 167.226C63.8033 166.7 63.6805 166.071 63.7882 165.46C63.8959 164.85 64.2265 164.301 64.7157 163.921ZM78.2114 182.243C89.5334 259.387 97.0144 344.865 116.449 424.936C137.874 429.767 160.6 420.64 183.59 419.032C206.579 417.425 229.924 414.088 252.209 411.472C297.991 406.227 346.247 394.68 389.908 395.17C392.081 385.708 388.056 373.911 386.651 363.134C384.697 331.581 379.549 298.831 378.062 267.488C371.866 223.796 369.609 181.661 362.179 137.524C352.195 132.195 340.171 135.998 329.024 138.265C292.878 145.519 255.723 151.914 222.358 155.849C176.24 161.134 127.87 171.323 80.1743 180.268C79.1195 180.814 79.5051 181.917 78.2114 182.243ZM194.007 462.108C206.189 456.692 194.589 442.215 204.501 435.791C211.499 445.893 206.1 466.927 221.245 461.733C226.405 457.648 222.609 450.133 224.873 444.879C225.187 445.738 225.668 446.527 226.287 447.201C226.907 447.874 227.653 448.418 228.483 448.802C229.313 449.186 230.211 449.402 231.124 449.438C232.038 449.474 232.949 449.329 233.807 449.012C239.274 447.91 236.224 443.886 239.847 442.23C250.266 450.388 261.399 436.757 273.156 437.326C274.739 440.51 277.912 439.683 280.064 441.075C290.755 436.101 308.903 440.63 313.268 429.183C304.599 416.967 284.656 434.491 274.021 427.557C262.208 430.311 248.395 438.821 240.781 430.352C238.273 430.511 235.834 431.235 233.646 432.471C230.431 424.378 220.1 425.88 215.417 432.549C198.641 410.792 179.789 449.742 193.847 462.155L194.007 462.108Z" fill="#FFDA7D"/>
<path fill-rule="evenodd" clip-rule="evenodd" d="M89.8811 186.028C179.799 167.85 264.795 162.56 356.309 140.196C364.527 220.35 369.535 302.966 383.351 382.849C294.991 397.491 207.291 410.002 120.254 420.384C110.631 342.329 98.0155 263.365 89.8811 186.028Z" fill="#FF6DA2"/>
<path fill-rule="evenodd" clip-rule="evenodd" d="M437.33 90.4965C508.009 159.525 580.328 224.122 650.664 293.948C612.056 335.053 574.558 376.582 533.483 416.796C578.504 379.529 615.8 335.565 657.005 298.909C668.392 304.866 654.473 311.262 648.825 316.825C644.403 322.06 639.344 326.719 633.765 330.694C566.841 398.595 485.476 460.983 419.675 528.956C406.888 512.018 392.398 496.439 376.432 482.462C389.495 478.061 407.096 477.822 422.339 473.933C426.681 465.335 421.545 453.114 421.512 442.857C473.797 386.148 539.36 334.544 591.66 277.888C585.851 258.327 569.091 245.208 555.848 232.03C542.606 218.852 528.677 205.704 515.422 193.459C490.112 166.273 462.502 141.327 432.902 118.899C416.928 123.643 401.688 139.247 391.432 150.761C387.931 146.581 389.224 138.251 387.238 132.344C403.241 118.137 420.141 104.418 437.33 90.4965ZM569.09 324.613C572.445 323.616 573.987 321.592 572.616 318.925C568.169 314.098 562.847 323.103 569.09 324.613ZM549.976 338.294C545.364 337.981 538.548 342.152 541.744 347.06C551.329 344.214 555.879 354.463 564.715 352.999C566.235 351.678 566.606 350.001 567.796 348.546C565.817 341.883 561.155 342.572 559.133 336.154C562.154 334.391 564.487 331.653 565.75 328.389L564.226 325.013C555.642 319.326 548.285 331.43 549.923 338.309L549.976 338.294ZM531.341 369.001C520.46 366.896 500.127 376.473 499.866 389.253C495.818 386.743 491.293 391.799 492.593 395.589C487.317 397.851 481.644 399.043 475.903 399.095C470.474 402.274 474.989 409.285 467.533 409.933C479.744 425.099 490.182 445.026 509.302 441.9C506.31 425.388 487.463 421.241 477.144 411.661C477.341 409.399 476.098 406.578 478.256 405.067C488.419 407.095 494.999 418.713 503.522 425.172L509.392 422.501C511.157 416.93 505.108 412.172 501.672 409.771C502.822 409.525 503.893 408.998 504.789 408.235C505.686 407.473 506.379 406.5 506.807 405.404C507.345 402.924 504.546 400.913 505.224 400.074C509.837 397.66 508.965 393.162 508.184 388.58C517.853 377.24 532.096 384.031 542.653 375.095C543.76 372.969 541.443 369.655 542.157 367.181C548.7 369.703 552.428 379.327 560.797 377.073C562.032 376.155 562.932 374.858 563.361 373.38C563.79 371.901 563.725 370.323 563.175 368.885C556.038 361.787 547.368 356.424 537.834 353.21C528.586 355.434 533.296 363.49 531.287 369.017L531.341 369.001Z" fill="#FFDA7D"/>
<path fill-rule="evenodd" clip-rule="evenodd" d="M582.281 274.991C528.96 326.846 467.772 375.817 422.005 430.474C410.73 343.34 400.989 250.645 391.399 161.967C404.462 151.207 416.941 139.756 428.782 127.663C482.764 173.747 534.017 222.94 582.281 274.991Z" fill="white"/>
</g>
<defs>
<clipPath id="clip0">
<rect width="606" height="469" fill="white" transform="translate(0 172.525) rotate(-16.5406)"/>
</clipPath>
</defs>
</svg>
