<?xml version="1.0" standalone="no"?>
<!DOCTYPE svg PUBLIC "-//W3C//DTD SVG 20010904//EN"
 "http://www.w3.org/TR/2001/REC-SVG-20010904/DTD/svg10.dtd">
<svg version="1.0" xmlns="http://www.w3.org/2000/svg"
 width="626.000000pt" height="626.000000pt" viewBox="0 0 626.000000 626.000000"
 preserveAspectRatio="xMidYMid meet">

<g transform="translate(0.000000,626.000000) scale(0.100000,-0.100000)"
fill="#000000" stroke="none">
<path d="M3422 5468 l3 -53 98 -2 97 -2 0 55 0 54 -101 0 -100 0 3 -52z"/>
<path d="M1001 5428 c1 -19 2 -19 6 -5 3 11 11 16 19 13 8 -3 14 -1 14 4 0 6
-9 10 -20 10 -14 0 -20 -6 -19 -22z"/>
<path d="M3420 5345 c0 -13 32 -15 230 -15 198 0 230 2 230 15 0 13 -32 15
-230 15 -198 0 -230 -2 -230 -15z"/>
<path d="M4391 5286 c-9 -11 -9 -16 1 -22 7 -4 10 -4 6 1 -4 4 -3 14 3 22 6 7
9 13 6 13 -2 0 -10 -6 -16 -14z"/>
<path d="M3420 5260 c0 -6 85 -10 235 -10 150 0 235 4 235 10 0 6 -85 10 -235
10 -150 0 -235 -4 -235 -10z"/>
<path d="M4465 5240 c-3 -6 1 -7 9 -4 18 7 21 14 7 14 -6 0 -13 -4 -16 -10z"/>
<path d="M3335 5222 l-30 -19 3 -221 3 -222 344 0 345 0 0 223 0 223 -29 17
c-16 9 -32 17 -35 17 -3 0 -6 -19 -6 -43 l0 -43 -126 -79 c-70 -44 -132 -83
-138 -87 -6 -3 -74 33 -151 81 l-139 88 3 41 c3 47 -2 50 -44 24z"/>
<path d="M4586 5211 c4 -8 11 -28 15 -45 6 -29 7 -29 8 -5 1 14 -6 34 -15 45
-8 10 -12 13 -8 5z"/>
<path d="M1132 5194 c14 -16 15 -23 6 -32 -7 -7 -9 -12 -6 -12 3 0 11 6 17 13
8 11 6 18 -12 33 -22 19 -22 19 -5 -2z"/>
<path d="M1008 5183 c7 -3 16 -2 19 1 4 3 -2 6 -13 5 -11 0 -14 -3 -6 -6z"/>
<path d="M3430 5175 c0 -13 29 -15 227 -13 170 2 227 6 231 16 3 9 -47 12
-227 12 -200 0 -231 -2 -231 -15z"/>
<path d="M4348 5183 c6 -2 18 -2 25 0 6 3 1 5 -13 5 -14 0 -19 -2 -12 -5z"/>
<path d="M4658 5143 c7 -3 16 -2 19 1 4 3 -2 6 -13 5 -11 0 -14 -3 -6 -6z"/>
<path d="M4569 5093 c-13 -16 -12 -17 4 -4 16 13 21 21 13 21 -2 0 -10 -8 -17
-17z"/>
<path d="M4409 5033 c-13 -16 -12 -17 4 -4 16 13 21 21 13 21 -2 0 -10 -8 -17
-17z"/>
<path d="M1442 4743 l3 -158 205 -3 c113 -1 215 0 228 3 22 5 22 8 22 160 l0
155 -230 0 -231 0 3 -157z"/>
<path d="M4443 4715 c0 -22 2 -30 4 -17 2 12 2 30 0 40 -3 9 -5 -1 -4 -23z"/>
<path d="M5143 4715 c0 -22 2 -30 4 -17 2 12 2 30 0 40 -3 9 -5 -1 -4 -23z"/>
<path d="M4642 4700 c0 -14 2 -19 5 -12 2 6 2 18 0 25 -3 6 -5 1 -5 -13z"/>
<path d="M3078 4545 c-37 -7 -131 -35 -210 -62 -138 -46 -147 -48 -259 -48
-100 0 -120 -3 -138 -19 -32 -29 -44 -81 -39 -165 5 -77 20 -118 57 -157 18
-20 20 -38 25 -215 4 -183 5 -194 25 -208 12 -7 21 -21 21 -30 0 -36 31 -122
43 -118 6 2 17 21 23 42 l11 39 6 -34 c5 -21 23 -49 51 -76 73 -70 169 -78
255 -21 38 25 81 95 81 130 0 14 10 17 55 17 l54 0 11 -41 c14 -50 71 -114
115 -129 19 -6 57 -11 85 -12 67 0 134 40 165 99 l23 41 8 -30 c15 -51 31 -44
49 19 9 32 23 72 31 88 50 107 42 542 -12 651 -11 21 -39 53 -64 71 -25 17
-65 52 -90 77 -88 89 -230 123 -382 91z m341 -516 c54 -16 94 -55 109 -106 18
-59 27 -238 13 -247 -6 -4 -11 0 -11 10 0 31 -51 93 -94 114 -115 55 -255 -4
-286 -121 l-11 -40 -51 3 c-49 3 -52 5 -64 40 -30 88 -99 138 -193 138 -86 0
-159 -49 -186 -127 l-14 -38 -1 60 c0 62 25 221 39 244 6 10 25 10 88 1 58 -7
113 -8 194 0 126 12 192 28 259 65 37 21 55 25 105 21 33 -2 80 -9 104 -17z
m-491 -256 c148 -96 80 -313 -97 -313 -60 0 -98 17 -135 60 -57 68 -57 152 1
221 55 65 158 79 231 32z m510 0 c147 -96 80 -313 -97 -313 -60 0 -98 17 -135
60 -57 68 -57 152 1 221 55 65 158 79 231 32z"/>
<path d="M2835 3743 c-41 -9 -74 -25 -79 -39 -8 -22 12 -27 64 -14 27 6 58 9
69 5 23 -7 41 19 25 35 -12 12 -55 19 -79 13z"/>
<path d="M2812 3628 c-18 -18 -14 -53 8 -73 17 -15 24 -16 45 -7 32 15 41 37
27 68 -13 27 -58 34 -80 12z"/>
<path d="M3292 3739 c-29 -11 -26 -45 3 -41 11 1 46 -3 78 -9 64 -13 74 -10
58 19 -7 13 -29 24 -61 31 -28 6 -52 11 -53 10 -1 0 -12 -4 -25 -10z"/>
<path d="M3300 3620 c-15 -28 -4 -59 26 -72 19 -9 28 -8 44 7 22 20 26 55 8
73 -20 20 -66 15 -78 -8z"/>
<path d="M1903 3700 c-27 -16 -63 -44 -78 -62 -34 -40 -70 -119 -80 -171 l-6
-38 74 2 75 2 11 38 c11 37 51 87 83 105 17 9 17 13 -2 78 -11 38 -21 70 -23
72 -1 2 -26 -10 -54 -26z"/>
<path d="M4120 3485 c0 -14 2 -25 4 -25 2 0 6 11 8 25 3 14 1 25 -3 25 -5 0
-9 -11 -9 -25z"/>
<path d="M4158 3503 c7 -3 16 -2 19 1 4 3 -2 6 -13 5 -11 0 -14 -3 -6 -6z"/>
<path d="M4254 3448 l-19 -23 23 19 c12 11 22 21 22 23 0 8 -8 2 -26 -19z"/>
<path d="M3979 3443 c-13 -16 -12 -17 4 -4 16 13 21 21 13 21 -2 0 -10 -8 -17
-17z"/>
<path d="M4190 3446 c0 -2 7 -7 16 -10 8 -3 12 -2 9 4 -6 10 -25 14 -25 6z"/>
<path d="M3054 3416 c11 -9 29 -16 40 -15 17 1 16 2 -6 9 -14 4 -32 11 -40 15
-7 3 -4 -1 6 -9z"/>
<path d="M4275 3399 c-4 -6 -5 -12 -2 -15 2 -3 7 2 10 11 7 17 1 20 -8 4z"/>
<path d="M4606 3331 c-15 -23 -217 -984 -209 -992 4 -4 19 -10 33 -11 22 -3
25 2 38 57 9 41 10 61 3 63 -6 2 -11 11 -11 20 0 28 171 806 179 815 10 10
544 -107 549 -121 3 -10 -166 -800 -175 -814 -7 -13 -33 -9 -222 32 -100 22
-188 40 -196 40 -26 0 -16 -38 25 -93 l40 -53 172 -37 c136 -29 175 -34 185
-24 6 6 55 212 108 457 53 245 100 461 104 481 5 21 5 42 1 49 -6 10 -569 140
-606 140 -7 0 -15 -4 -18 -9z m139 -1001 c0 -18 -6 -26 -23 -28 -24 -4 -38 18
-28 44 3 9 15 14 28 12 17 -2 23 -10 23 -28z"/>
<path d="M3922 3310 c0 -14 2 -19 5 -12 2 6 2 18 0 25 -3 6 -5 1 -5 -13z"/>
<path d="M4252 3290 c0 -19 2 -27 5 -17 2 9 2 25 0 35 -3 9 -5 1 -5 -18z"/>
<path d="M4318 3313 c7 -3 16 -2 19 1 4 3 -2 6 -13 5 -11 0 -14 -3 -6 -6z"/>
<path d="M3000 3271 c0 -22 33 -46 77 -55 54 -12 142 39 115 66 -9 9 -18 6
-35 -10 -30 -28 -85 -29 -120 -2 -31 25 -37 25 -37 1z"/>
<path d="M3948 3273 c7 -3 16 -2 19 1 4 3 -2 6 -13 5 -11 0 -14 -3 -6 -6z"/>
<path d="M4318 3263 c7 -3 16 -2 19 1 4 3 -2 6 -13 5 -11 0 -14 -3 -6 -6z"/>
<path d="M4030 3251 c0 -6 4 -13 10 -16 6 -3 7 1 4 9 -7 18 -14 21 -14 7z"/>
<path d="M3974 3158 l-19 -23 23 19 c21 18 27 26 19 26 -2 0 -12 -10 -23 -22z"/>
<path d="M4011 3130 c-13 -11 -19 -20 -14 -20 6 0 18 9 28 20 23 25 17 25 -14
0z"/>
<path d="M4260 3146 c0 -2 8 -10 18 -17 15 -13 16 -12 3 4 -13 16 -21 21 -21
13z"/>
<path d="M3279 2920 c-48 -68 -93 -94 -170 -98 -60 -4 -74 -1 -114 23 -25 14
-59 44 -74 66 l-29 39 -34 -38 c-32 -35 -45 -41 -164 -71 -172 -45 -338 -101
-413 -141 -98 -53 -284 -258 -484 -536 -45 -62 -83 -112 -84 -110 -2 1 -50
157 -108 346 -59 190 -108 346 -110 349 -3 2 -38 -6 -79 -18 -41 -12 -106 -25
-145 -28 -51 -4 -71 -10 -71 -20 0 -30 133 -738 171 -913 72 -326 114 -393
246 -391 61 0 129 27 186 72 21 17 40 29 42 27 4 -4 55 -379 55 -405 0 -10
-54 -13 -280 -13 l-280 0 0 -25 0 -25 285 0 c157 0 285 -3 285 -7 0 -5 7 -55
15 -113 8 -58 15 -108 15 -112 0 -5 375 -8 833 -8 l833 0 183 120 c164 108
187 120 227 120 31 0 54 -7 75 -22 43 -32 146 -31 189 0 28 21 38 22 310 22
l280 0 0 25 0 25 -266 0 -265 0 19 28 c54 76 182 365 286 647 37 99 73 191 80
205 8 14 18 42 24 62 l10 37 -42 6 c-84 12 -142 28 -190 53 l-50 24 -23 -28
c-13 -16 -23 -36 -23 -44 -1 -19 -143 -253 -157 -257 -15 -5 -37 82 -88 355
-61 323 -109 451 -193 511 -48 34 -307 131 -507 190 -95 28 -115 38 -145 71
l-35 38 -26 -38z m-919 -974 c0 -18 3 -54 6 -80 l7 -46 -94 0 -94 0 80 80 c44
44 83 80 87 80 5 0 8 -15 8 -34z m1469 -329 c55 -158 175 -487 196 -539 7 -17
-5 -18 -174 -18 l-182 0 6 33 c7 42 51 429 66 585 7 67 15 122 18 122 3 0 35
-82 70 -183z m-1125 -171 c83 -35 103 -111 42 -164 -86 -75 -246 -32 -246 65
0 49 16 72 63 94 50 22 96 24 141 5z"/>
<path d="M5511 2484 c0 -11 3 -14 6 -6 3 7 2 16 -1 19 -3 4 -6 -2 -5 -13z"/>
<path d="M5585 2460 c-3 -6 1 -7 9 -4 18 7 21 14 7 14 -6 0 -13 -4 -16 -10z"/>
<path d="M5478 2423 c7 -3 16 -2 19 1 4 3 -2 6 -13 5 -11 0 -14 -3 -6 -6z"/>
<path d="M870 2375 c0 -8 2 -15 4 -15 2 0 6 7 10 15 3 8 1 15 -4 15 -6 0 -10
-7 -10 -15z"/>
<path d="M918 2365 c2 -14 6 -25 8 -25 2 0 4 11 4 25 0 14 -4 25 -9 25 -4 0
-6 -11 -3 -25z"/>
<path d="M5321 2338 c1 -16 3 -18 6 -6 2 9 12 19 21 21 12 3 10 5 -5 6 -18 1
-23 -4 -22 -21z"/>
<path d="M770 2346 c0 -2 8 -10 18 -17 15 -13 16 -12 3 4 -13 16 -21 21 -21
13z"/>
<path d="M5606 2293 c-6 -14 -5 -15 5 -6 7 7 10 15 7 18 -3 3 -9 -2 -12 -12z"/>
<path d="M1029 2283 c-13 -16 -12 -17 4 -4 9 7 17 15 17 17 0 8 -8 3 -21 -13z"/>
<path d="M844 2274 c-18 -14 -18 -15 4 -4 12 6 22 13 22 15 0 8 -5 6 -26 -11z"/>
<path d="M5410 2286 c0 -2 8 -10 18 -17 15 -13 16 -12 3 4 -13 16 -21 21 -21
13z"/>
<path d="M931 2277 c2 -1 15 -11 29 -22 l25 -20 -19 23 c-11 12 -24 22 -29 22
-6 0 -8 -1 -6 -3z"/>
<path d="M5540 2220 c-9 -6 -10 -10 -3 -10 6 0 15 5 18 10 8 12 4 12 -15 0z"/>
<path d="M5580 2226 c0 -2 8 -10 18 -17 15 -13 16 -12 3 4 -13 16 -21 21 -21
13z"/>
<path d="M670 2195 c0 -8 2 -15 4 -15 2 0 6 7 10 15 3 8 1 15 -4 15 -6 0 -10
-7 -10 -15z"/>
<path d="M1080 2196 c0 -2 7 -6 15 -10 8 -3 15 -1 15 4 0 6 -7 10 -15 10 -8 0
-15 -2 -15 -4z"/>
<path d="M670 2159 c0 -5 11 -9 25 -9 14 0 25 2 25 4 0 2 -11 6 -25 8 -14 3
-25 1 -25 -3z"/>
<path d="M1090 2150 c-13 -8 -12 -10 3 -10 9 0 17 5 17 10 0 12 -1 12 -20 0z"/>
<path d="M969 2093 c-13 -16 -12 -17 4 -4 9 7 17 15 17 17 0 8 -8 3 -21 -13z"/>
<path d="M739 2053 c-13 -16 -12 -17 4 -4 9 7 17 15 17 17 0 8 -8 3 -21 -13z"/>
<path d="M870 1968 c0 -13 7 -18 28 -17 21 1 22 2 7 6 -11 3 -23 10 -27 17 -5
7 -8 5 -8 -6z"/>
<path d="M210 1035 l0 -25 275 0 274 0 -25 25 -25 25 -249 0 -250 0 0 -25z"/>
<path d="M793 1053 c9 -2 25 -2 35 0 9 3 1 5 -18 5 -19 0 -27 -2 -17 -5z"/>
<path d="M5390 1051 c0 -5 -3 -16 -6 -25 -6 -14 28 -16 330 -16 l336 0 0 25 0
25 -330 0 c-194 0 -330 -4 -330 -9z"/>
</g>
</svg>
