<svg viewBox="0 0 625 372" fill="none" xmlns="http://www.w3.org/2000/svg">
<path d="M581.719 350.752C560.049 338.192 542.389 329.602 532.299 297.492C522.209 265.382 498.879 246.752 473.189 235.272C447.499 223.792 443.189 204.272 439.009 177.032C434.829 149.792 415.599 129.302 395.129 125.382C374.659 121.462 361.809 80.8925 322.199 80.8925C282.589 80.8925 269.729 121.462 249.259 125.382C228.789 129.302 209.539 149.752 205.389 177.032C201.239 204.312 196.899 223.782 171.209 235.272C145.519 246.762 122.209 265.272 112.099 297.442C101.989 329.612 84.3488 338.142 62.6788 350.752C41.0088 363.362 42.8188 371.462 42.8188 371.462H601.579C601.579 371.462 603.389 363.272 581.719 350.752Z" fill="#FFEBE7"/>
<path d="M415.949 43.1525H228.449V295.472H415.949V43.1525Z" stroke="#458AF5" stroke-width="2" stroke-miterlimit="10"/>
<path d="M372.479 86.6825C361.889 73.3925 347.879 63.3725 328.149 64.8025C308.419 66.2325 294.149 69.0925 274.649 55.3025L274.039 54.8825C262.831 47.212 249.56 43.1219 235.979 43.1525H228.489V295.473H415.979V115.983C415.975 110.805 414.041 105.814 410.556 101.985C407.071 98.1556 402.283 95.7624 397.129 95.2725C387.029 94.3125 377.599 93.1225 372.479 86.6825Z" fill="#7F95D1"/>
<path d="M322.199 233.142V241.022C322.196 243.827 321.08 246.515 319.096 248.497C317.113 250.479 314.423 251.592 311.619 251.592H291.439C289.935 251.589 288.446 251.881 287.055 252.454C285.665 253.027 284.402 253.868 283.337 254.93C282.273 255.991 281.428 257.253 280.852 258.641C280.275 260.03 279.979 261.519 279.979 263.022V308.752" stroke="white" stroke-width="2" stroke-linecap="round" stroke-linejoin="round"/>
<path d="M253.789 307.753C254.895 302.049 254.895 296.186 253.789 290.483H241.449C240.654 287.407 239.432 284.459 237.819 281.723L246.549 272.993C243.283 268.183 239.141 264.03 234.339 260.753L225.609 269.483C222.872 267.871 219.924 266.649 216.849 265.853V253.503C211.145 252.396 205.282 252.396 199.579 253.503V265.843C196.5 266.637 193.548 267.858 190.809 269.473L182.079 260.753C177.282 264.024 173.141 268.166 169.869 272.963L178.599 281.693C176.989 284.431 175.768 287.379 174.969 290.453H162.639C161.532 296.156 161.532 302.019 162.639 307.723H174.979C175.778 310.8 176.999 313.751 178.609 316.493L169.879 325.223C173.153 330.017 177.294 334.158 182.089 337.433L190.819 328.703C193.56 330.312 196.512 331.534 199.589 332.333V344.653C205.292 345.759 211.155 345.759 216.859 344.653V332.323C219.932 331.522 222.88 330.3 225.619 328.693L234.349 337.423C239.146 334.151 243.287 330.009 246.559 325.213L237.829 316.483C239.443 313.743 240.665 310.791 241.459 307.713L253.789 307.753ZM208.209 318.163C204.453 318.153 200.785 317.03 197.667 314.936C194.549 312.842 192.121 309.872 190.691 306.399C189.26 302.926 188.891 299.108 189.63 295.425C190.369 291.743 192.182 288.362 194.841 285.71C197.501 283.058 200.886 281.253 204.57 280.524C208.255 279.795 212.072 280.174 215.541 281.614C219.01 283.053 221.975 285.488 224.06 288.612C226.146 291.735 227.259 295.407 227.259 299.163C227.254 301.658 226.757 304.129 225.796 306.433C224.836 308.737 223.431 310.829 221.662 312.589C219.893 314.35 217.794 315.745 215.486 316.694C213.178 317.644 210.705 318.129 208.209 318.123V318.163Z" fill="#3D3B8E"/>
<path d="M265.919 237.112C266.491 234.14 266.491 231.085 265.919 228.112H259.479C259.067 226.503 258.427 224.961 257.579 223.532L262.139 218.972C260.429 216.47 258.269 214.306 255.769 212.592L251.209 217.152C249.777 216.313 248.236 215.677 246.629 215.262V208.823C243.657 208.238 240.6 208.238 237.629 208.823V215.262C236.022 215.677 234.481 216.313 233.049 217.152L228.499 212.592C225.993 214.303 223.829 216.467 222.119 218.972L226.679 223.532C225.839 224.965 225.199 226.506 224.779 228.112H218.339C217.767 231.085 217.767 234.14 218.339 237.112H224.779C225.199 238.719 225.839 240.26 226.679 241.692L222.119 246.252C223.829 248.758 225.993 250.922 228.499 252.632L233.049 248.073C234.481 248.912 236.022 249.548 237.629 249.963V256.402C240.6 256.987 243.657 256.987 246.629 256.402V249.963C248.236 249.548 249.777 248.912 251.209 248.073L255.769 252.632C258.269 250.919 260.429 248.755 262.139 246.252L257.579 241.692C258.427 240.264 259.067 238.722 259.479 237.112H265.919ZM242.119 242.552C240.155 242.543 238.238 241.952 236.61 240.855C234.981 239.758 233.714 238.203 232.967 236.387C232.22 234.571 232.027 232.575 232.413 230.649C232.798 228.724 233.745 226.955 235.133 225.567C236.522 224.178 238.29 223.232 240.215 222.846C242.141 222.461 244.137 222.654 245.953 223.4C247.769 224.147 249.324 225.415 250.421 227.043C251.518 228.672 252.109 230.589 252.119 232.552C252.127 233.868 251.874 235.172 251.374 236.389C250.874 237.606 250.138 238.711 249.208 239.641C248.277 240.571 247.172 241.308 245.955 241.808C244.738 242.307 243.434 242.56 242.119 242.552Z" fill="white"/>
<path d="M305.259 206.022H339.129V225.292C339.129 225.749 339.039 226.202 338.864 226.624C338.689 227.046 338.433 227.43 338.109 227.753C337.786 228.076 337.403 228.333 336.98 228.508C336.558 228.682 336.106 228.772 335.649 228.772H308.739C307.816 228.772 306.931 228.406 306.278 227.753C305.625 227.101 305.259 226.215 305.259 225.292V206.022Z" fill="#3D3B8E"/>
<path d="M339.129 210.623H305.259V212.453H339.129V210.623Z" fill="#458AF5"/>
<path d="M339.129 215.573H305.259V217.402H339.129V215.573Z" fill="#458AF5"/>
<path d="M339.129 220.522H305.259V222.352H339.129V220.522Z" fill="#458AF5"/>
<path d="M331.409 228.752C331.409 231.162 327.279 233.112 322.199 233.112C317.119 233.112 312.979 231.192 312.979 228.752C312.979 226.312 317.099 224.392 322.189 224.392C327.279 224.392 331.409 226.372 331.409 228.752Z" fill="#3D3B8E"/>
<path d="M322.199 102.062C298.899 102.062 280.009 119.603 280.009 141.223C280.009 151.223 284.009 162.673 290.639 172.143C297.012 181.096 301.163 191.437 302.749 202.312L303.039 204.413C303.174 205.415 303.668 206.334 304.43 206.999C305.191 207.665 306.168 208.032 307.179 208.033H337.179C338.189 208.028 339.163 207.659 339.924 206.994C340.684 206.329 341.179 205.413 341.319 204.413L341.609 202.312C343.186 191.437 347.334 181.094 353.709 172.143C360.329 162.673 364.339 151.193 364.339 141.223C364.379 119.603 345.499 102.062 322.199 102.062Z" fill="white"/>
<path d="M322.199 102.062C298.899 102.062 280.009 119.603 280.009 141.223C280.012 142.636 280.089 144.047 280.239 145.452C280.39 147.066 280.795 148.646 281.439 150.133C285.309 158.603 294.179 155.783 301.809 155.053C313.029 153.963 315.579 161.973 321.349 164.853C330.069 169.213 336.259 166.403 341.349 169.213C343.723 170.474 345.68 172.399 346.979 174.753C347.212 175.195 347.557 175.569 347.98 175.837C348.403 176.105 348.888 176.257 349.388 176.278C349.888 176.3 350.385 176.189 350.829 175.958C351.273 175.727 351.649 175.384 351.919 174.963C352.519 174.013 353.149 173.072 353.789 172.152C360.409 162.682 364.419 151.202 364.419 141.232C364.379 119.602 345.499 102.062 322.199 102.062Z" fill="#FFBC0A"/>
<path d="M323.019 80.8925V93.2225" stroke="white" stroke-width="2" stroke-linecap="round" stroke-linejoin="round"/>
<path d="M301.539 84.5625L305.759 96.1425" stroke="white" stroke-width="2" stroke-linecap="round" stroke-linejoin="round"/>
<path d="M282.599 95.3525L290.529 104.793" stroke="white" stroke-width="2" stroke-linecap="round" stroke-linejoin="round"/>
<path d="M268.499 111.963L279.179 118.133" stroke="white" stroke-width="2" stroke-linecap="round" stroke-linejoin="round"/>
<path d="M365.689 168.073L376.359 174.243" stroke="white" stroke-width="2" stroke-linecap="round" stroke-linejoin="round"/>
<path d="M260.929 132.402L273.069 134.542" stroke="white" stroke-width="2" stroke-linecap="round" stroke-linejoin="round"/>
<path d="M371.449 151.892L383.589 154.032" stroke="white" stroke-width="2" stroke-linecap="round" stroke-linejoin="round"/>
<path d="M260.809 154.202L272.949 152.062" stroke="white" stroke-width="2" stroke-linecap="round" stroke-linejoin="round"/>
<path d="M371.319 134.713L383.459 132.573" stroke="white" stroke-width="2" stroke-linecap="round" stroke-linejoin="round"/>
<path d="M268.149 174.722L278.819 168.552" stroke="white" stroke-width="2" stroke-linecap="round" stroke-linejoin="round"/>
<path d="M365.329 118.613L376.009 112.443" stroke="white" stroke-width="2" stroke-linecap="round" stroke-linejoin="round"/>
<path d="M354.189 105.533L362.119 96.0825" stroke="white" stroke-width="2" stroke-linecap="round" stroke-linejoin="round"/>
<path d="M339.259 97.0525L343.469 85.4625" stroke="white" stroke-width="2" stroke-linecap="round" stroke-linejoin="round"/>
<path d="M549.059 341.103L554.329 349.962L552.799 357.082C552.499 358.501 551.873 359.831 550.971 360.966C550.068 362.102 548.914 363.011 547.599 363.622C544.599 365.002 541.029 367.473 540.829 371.483H550.319C554.399 371.483 563.049 365.362 568.249 362.342C573.449 359.322 575.779 357.693 573.949 354.953C572.119 352.213 564.979 343.003 564.979 343.003L560.409 334.562L549.059 341.103Z" fill="#FF6542"/>
<path d="M573.979 354.952C572.279 352.412 566.059 344.312 565.169 343.152L554.359 349.962L552.829 357.082C552.529 358.501 551.903 359.831 551.001 360.966C550.098 362.102 548.944 363.011 547.629 363.622C544.629 365.002 541.059 367.472 540.859 371.482H550.349C554.429 371.482 563.079 365.362 568.279 362.342C573.479 359.322 575.779 357.692 573.979 354.952Z" fill="#3D3B8E"/>
<path d="M346.249 114.262L332.369 153.952L341.099 157.012L354.979 117.322C355.459 115.952 353.899 114.152 351.479 113.322C349.059 112.492 346.729 112.892 346.249 114.262Z" fill="white"/>
<path d="M350.689 113.082C350.949 113.152 351.219 113.222 351.479 113.312C351.874 113.458 352.259 113.631 352.629 113.832C353.005 113.434 353.489 113.154 354.021 113.024C354.553 112.895 355.112 112.922 355.629 113.102L357.339 113.702C358.047 113.952 358.628 114.472 358.954 115.148C359.28 115.825 359.325 116.603 359.079 117.312L344.299 159.592C344.047 160.299 343.527 160.878 342.85 161.202C342.174 161.526 341.397 161.569 340.689 161.322L338.979 160.752C338.271 160.505 337.69 159.987 337.364 159.312C337.038 158.637 336.993 157.861 337.239 157.152L337.689 155.872L335.799 155.212L335.359 156.492C335.151 157.093 335.063 157.729 335.102 158.364C335.14 158.998 335.303 159.619 335.582 160.19C335.861 160.762 336.249 161.272 336.726 161.693C337.202 162.114 337.757 162.437 338.359 162.642L340.079 163.242C340.68 163.45 341.315 163.538 341.95 163.5C342.585 163.461 343.205 163.298 343.777 163.019C344.348 162.741 344.859 162.352 345.28 161.875C345.7 161.399 346.023 160.844 346.229 160.242L353.299 140.042L569.579 215.902L570.239 214.012L353.899 138.162L360.979 117.972C361.187 117.371 361.274 116.734 361.236 116.099C361.198 115.464 361.035 114.842 360.756 114.27C360.478 113.698 360.089 113.186 359.612 112.765C359.136 112.343 358.581 112.019 357.979 111.812L356.269 111.222C355.264 110.875 354.172 110.869 353.163 111.205C352.154 111.541 351.284 112.201 350.689 113.082Z" fill="#3D3B8E"/>
<path d="M337.599 153.003C340.019 153.843 341.599 155.643 341.099 157.003C340.599 158.363 338.279 158.793 335.869 158.003C333.459 157.213 331.869 155.363 332.369 154.003C332.869 152.643 335.189 152.163 337.599 153.003Z" fill="#3D3B8E"/>
<path d="M469.889 193.093L476.359 352.003H497.449C497.449 352.003 496.609 327.003 497.449 308.693C497.823 298.219 497.549 287.732 496.629 277.293C496.27 273.04 496.337 268.762 496.829 264.523L501.979 220.663C501.979 220.663 507.039 259.193 515.199 281.663C523.359 304.133 549.199 343.533 549.199 343.533L564.719 335.013C550.439 310.353 544.779 282.753 537.479 271.453C535.737 268.803 534.666 265.769 534.359 262.613L528.249 193.093H469.889Z" fill="#7F95D1"/>
<path d="M531.869 234.303L528.249 193.093H469.889V193.743C470.089 198.732 471.482 203.601 473.953 207.941C476.424 212.281 479.9 215.964 484.089 218.683C489.543 222.397 495.18 225.834 500.979 228.983L501.979 220.663C501.979 220.663 501.979 220.933 502.079 221.443C502.463 224.311 503.678 227.005 505.574 229.193C507.469 231.38 509.964 232.965 512.749 233.753C518.968 235.581 525.555 235.771 531.869 234.303Z" fill="#3D3B8E"/>
<path d="M472.919 194.752C472.919 194.752 477.389 205.972 505.699 205.972C534.009 205.972 534.859 202.972 534.859 202.972L531.199 191.162L472.919 194.752Z" fill="#2A7F62"/>
<path d="M480.759 92.4125C480.759 92.4125 480.859 96.7025 479.589 99.3025C478.319 101.902 475.799 106.302 480.719 106.402L483.599 117.402H495.129L491.889 103.622L495.129 93.9825L480.759 92.4125Z" fill="#FF6542"/>
<path d="M486.729 92.5825L486.469 98.3825C486.768 98.1077 487.135 97.9174 487.532 97.8313C487.93 97.7452 488.342 97.7663 488.729 97.8925C489.859 98.4225 488.979 101.233 487.289 101.623L488.449 103.623H491.889C493.107 102.741 494.13 101.617 494.892 100.321C495.654 99.0253 496.14 97.5855 496.319 96.0925L486.729 92.5825Z" fill="#081E40"/>
<path d="M480.719 106.403C481.798 106.358 482.855 106.084 483.821 105.6C484.786 105.115 485.638 104.431 486.319 103.593C486.473 104.003 486.539 104.442 486.511 104.88C486.484 105.318 486.364 105.745 486.159 106.133C485.882 106.643 485.767 107.225 485.829 107.803C485.989 109.093 485.729 111.363 482.209 112.103L480.719 106.403Z" fill="#A12A2A"/>
<path d="M507.859 118.843C507.859 118.843 532.749 128.413 547.089 151.193C561.429 173.973 559.039 185.363 535.279 187.473C535.279 187.473 538.279 197.313 527.959 197.313H476.779C462.999 197.313 464.539 189.583 468.199 185.363L461.449 169.893C461.449 169.893 448.929 182.973 440.449 188.453C431.969 193.933 423.009 193.373 414.449 188.313C405.889 183.253 391.109 174.533 393.499 164.313L389.839 160.513C389.839 160.513 390.679 153.343 394.759 152.213L423.519 162.133C423.519 162.133 421.689 158.613 429.519 158.133C429.519 158.133 447.939 138.023 454.129 130.573C460.319 123.123 467.409 118.833 475.809 118.723C484.209 118.613 507.859 118.843 507.859 118.843Z" fill="#FFBC0A"/>
<path d="M425.869 163.422L442.109 168.912" stroke="white" stroke-width="0.66" stroke-miterlimit="10"/>
<path d="M429.979 168.272C429.979 168.272 434.549 170.942 436.799 174.882" stroke="white" stroke-width="0.66" stroke-miterlimit="10"/>
<path d="M461.449 169.892L470.629 160.122C470.988 159.742 471.459 159.488 471.974 159.398C472.489 159.307 473.019 159.385 473.487 159.619C473.954 159.854 474.333 160.233 474.567 160.7C474.802 161.167 474.879 161.698 474.789 162.212C474.464 164.599 473.621 166.886 472.319 168.912C470.259 171.812 474.669 180.442 468.199 185.362L461.449 169.892Z" fill="#FF6542"/>
<path d="M469.889 124.052C482.959 129.812 478.589 148.242 474.249 154.562" stroke="white" stroke-width="0.66" stroke-miterlimit="10"/>
<path d="M527.489 159.343C525.139 151.673 522.799 144.733 521.209 141.623" stroke="white" stroke-width="0.66" stroke-miterlimit="10"/>
<path d="M552.039 182.212C550.997 180.965 549.65 180.007 548.129 179.432C544.749 178.011 541.638 176.023 538.929 173.552C532.819 167.502 531.759 159.722 527.929 160.882C531.039 171.202 534.079 182.472 535.249 187.472C543.169 186.752 548.689 185.042 552.039 182.212Z" fill="#FF6542"/>
<path d="M528.809 139.302C528.809 139.302 529.809 142.492 528.009 151.882" stroke="white" stroke-width="0.66" stroke-miterlimit="10"/>
<path d="M485.369 209.282H499.569" stroke="#458AF5" stroke-miterlimit="10"/>
<path d="M512.229 209.282H524.039" stroke="#458AF5" stroke-miterlimit="10"/>
<path d="M549.199 343.563L564.719 335.043C563.845 333.529 563.005 332.009 562.199 330.483L546.479 339.343C548.179 342.013 549.199 343.563 549.199 343.563Z" fill="#0E3673"/>
<path d="M493.879 349.052C493.946 353.558 494.53 358.04 495.619 362.413C496.169 364.333 496.559 365.962 496.829 367.272C496.929 367.774 496.917 368.292 496.794 368.789C496.67 369.286 496.438 369.749 496.113 370.145C495.789 370.541 495.381 370.86 494.918 371.079C494.456 371.298 493.951 371.412 493.439 371.413H461.849C461.63 371.412 461.414 371.365 461.216 371.273C461.018 371.181 460.842 371.048 460.7 370.881C460.558 370.715 460.454 370.52 460.395 370.309C460.337 370.099 460.324 369.878 460.359 369.663C460.559 368.253 461.359 366.373 464.359 365.503C469.359 364.023 477.359 362.762 479.619 359.592C481.879 356.422 480.819 349.052 480.819 349.052H493.879Z" fill="#FF6542"/>
<path d="M493.439 371.412C493.951 371.412 494.456 371.298 494.918 371.079C495.381 370.86 495.789 370.541 496.113 370.145C496.438 369.749 496.67 369.286 496.794 368.789C496.917 368.292 496.929 367.774 496.829 367.272C496.559 365.962 496.169 364.332 495.619 362.412C495.181 360.768 494.847 359.098 494.619 357.412H480.619C480.435 358.19 480.113 358.929 479.669 359.592C477.419 362.762 469.399 364.022 464.409 365.502C461.409 366.392 460.599 368.342 460.409 369.762C460.388 369.973 460.411 370.185 460.478 370.385C460.544 370.585 460.652 370.77 460.795 370.925C460.937 371.081 461.111 371.205 461.305 371.289C461.498 371.373 461.708 371.415 461.919 371.412H493.439Z" fill="#3D3B8E"/>
<path d="M476.359 352.003H497.449C497.449 352.003 497.369 349.743 497.289 346.093H476.119L476.359 352.003Z" fill="#3D3B8E"/>
<path d="M391.279 160.013L387.199 158.013L379.199 155.083C378.106 154.678 377.176 153.928 376.549 152.946C375.923 151.964 375.635 150.804 375.729 149.643L375.829 148.393C375.85 148.14 375.935 147.897 376.077 147.687C376.219 147.477 376.412 147.306 376.639 147.193L380.639 145.193C380.932 145.042 381.269 144.998 381.592 145.067C381.914 145.136 382.203 145.315 382.409 145.573L383.159 146.503L386.709 147.063C386.709 147.063 390.999 150.223 390.709 152.973L395.029 154.483L391.279 160.013Z" fill="#FF6542"/>
<path d="M382.749 147.483L380.749 149.313C380.749 149.313 385.949 151.313 385.669 156.253" stroke="#A12A2A" stroke-width="0.66" stroke-miterlimit="10"/>
<path d="M394.789 152.172C390.709 153.302 389.869 160.472 389.869 160.472L393.529 164.272C394.409 160.972 395.899 155.702 400.579 154.172L394.789 152.172Z" fill="#2A7F62"/>
<path d="M475.819 118.673L476.819 117.613C477.623 116.749 478.597 116.06 479.679 115.588C480.761 115.117 481.928 114.873 483.109 114.873H502.239C504.25 114.873 506.196 115.582 507.736 116.875C509.276 118.168 510.311 119.962 510.659 121.943L511.009 123.943C511.318 125.691 511.145 127.49 510.508 129.147C509.871 130.804 508.794 132.256 507.393 133.346C505.992 134.437 504.32 135.124 502.557 135.335C500.794 135.546 499.007 135.272 497.389 134.543C496.479 134.133 495.569 133.673 494.659 133.153C486.979 128.803 483.419 120.533 475.819 118.673Z" fill="#2A7F62"/>
<path d="M473.149 91.3425L496.699 96.3425C496.699 96.3425 498.119 88.9025 491.579 87.0025C485.039 85.1025 481.099 91.0825 481.099 91.0825C481.099 91.0825 473.719 89.0225 473.149 91.3425Z" fill="#2A7F62"/>
<path d="M452.659 74.6925L457.089 92.5825L439.789 77.2225L452.659 74.6925Z" fill="#FFBC0A"/>
<path d="M474.75 54.145C479.601 33.9421 467.155 13.6325 446.952 8.78224C426.749 3.93196 406.44 16.3777 401.589 36.5806C396.739 56.7835 409.185 77.0931 429.388 81.9433C449.59 86.7936 469.9 74.3479 474.75 54.145Z" fill="#FFBC0A"/>
<path d="M453.339 29.4525C445.479 25.3825 438.199 33.6025 438.199 33.6025C438.199 33.6025 430.979 25.3825 423.069 29.4525C415.879 33.1825 416.889 43.4525 421.609 51.0125C425.939 57.9425 432.819 64.0125 438.199 66.2025C443.589 64.0225 450.459 57.9425 454.789 51.0125C459.509 43.4725 460.519 33.1825 453.339 29.4525Z" fill="#FF6542"/>
<path d="M129.199 65.0625L117.309 79.1425L139.609 73.0225L129.199 65.0625Z" fill="#7F95D1"/>
<path d="M164.451 83.2796C184.73 78.7544 197.5 58.6472 192.975 38.3691C188.449 18.0909 168.342 5.32067 148.064 9.84594C127.786 14.3712 115.016 34.4784 119.541 54.7565C124.066 75.0347 144.173 87.8049 164.451 83.2796Z" fill="#7F95D1"/>
<path d="M156.259 26.3925L162.809 39.6625L177.449 41.7925L166.859 52.1225L169.359 66.7125L156.259 59.8225L143.159 66.7125L145.659 52.1225L135.059 41.7925L149.709 39.6625L156.259 26.3925Z" fill="white"/>
<path d="M622.979 326.373L620.529 369.753C620.469 370.753 612.329 371.483 602.329 371.483C592.329 371.483 584.199 370.713 584.139 369.753L581.709 326.393L622.979 326.373Z" fill="#3D3B8E"/>
<path d="M618.039 329.463H586.629C586.629 329.463 594.409 314.843 602.329 314.843C610.249 314.843 618.039 329.463 618.039 329.463Z" stroke="#081E40" stroke-width="0.66" stroke-miterlimit="10"/>
<path d="M621.309 355.753C621.258 356.773 620.955 357.765 620.426 358.639C619.897 359.513 619.159 360.242 618.278 360.76C617.397 361.278 616.401 361.568 615.38 361.605C614.359 361.642 613.345 361.425 612.429 360.973C608.759 359.063 606.429 355.043 605.329 351.303C603.459 344.733 599.329 343.423 590.049 341.173C589.1 340.948 588.167 340.657 587.259 340.303C585.79 339.713 584.522 338.715 583.604 337.426C582.685 336.138 582.156 334.613 582.079 333.033L581.709 326.363H622.979L621.309 355.753Z" fill="#FFBC0A"/>
<path d="M420.449 352.952C420.449 352.952 425.139 348.952 428.449 349.572C430.749 350.032 434.209 353.852 436.069 356.092C436.902 357.108 437.92 357.956 439.069 358.592C441.689 360.002 446.639 362.972 449.309 366.592C449.725 367.156 449.949 367.839 449.947 368.54C449.945 369.24 449.718 369.922 449.298 370.483C448.878 371.044 448.289 371.455 447.617 371.655C446.945 371.855 446.227 371.833 445.569 371.592L421.569 362.852L420.449 352.952Z" fill="#7F95D1"/>
<path d="M421.569 362.753L429.799 365.753C430.319 364.103 430.659 362.102 429.919 360.582C428.719 358.132 423.049 356.503 420.789 355.943L421.569 362.753Z" fill="#FF6542"/>
<path d="M352.669 295.473L347.669 311.923C345.633 318.618 341.438 324.452 335.739 328.513L306.249 349.513L301.609 337.103L325.659 316.153L329.879 295.483L352.669 295.473Z" fill="#FF6363"/>
<path d="M328.479 302.373C333.279 302.953 342.139 304.373 348.969 307.673L352.669 295.473H329.889L328.479 302.373Z" fill="#A12A2A"/>
<path d="M418.479 310.522C418.479 310.522 422.369 319.522 416.649 330.912C414.126 335.825 410.468 340.066 405.979 343.282H420.469C420.469 343.282 428.899 357.062 420.469 371.412H332.139C314.699 371.412 307.949 364.562 307.949 353.502C307.949 342.442 322.199 333.622 334.199 327.442C346.199 321.262 368.889 310.522 368.889 310.522H418.479Z" fill="#3D3B8E"/>
<path d="M405.979 343.282C398.389 349.612 355.579 363.282 355.579 363.282" stroke="#081E40" stroke-width="0.66" stroke-miterlimit="10"/>
<path d="M422.359 347.482C421.852 346.027 421.212 344.621 420.449 343.282H405.979C402.669 346.042 392.659 350.192 382.419 354.002C382.419 354.002 393.659 357.872 402.469 354.002C409.889 350.752 416.979 347.292 422.359 347.482Z" fill="#081E40"/>
<path d="M363.349 364.412C363.349 364.412 366.069 364.412 372.809 357.412" stroke="#081E40" stroke-width="0.66" stroke-miterlimit="10"/>
<path d="M376.869 319.562L358.649 329.163" stroke="#081E40" stroke-width="0.66" stroke-miterlimit="10"/>
<path d="M327.139 360.442C326.021 356.923 326.175 353.123 327.575 349.707C328.976 346.29 331.533 343.475 334.799 341.752L357.049 330.022C357.049 330.022 329.259 342.892 323.049 333.862C314.829 339.242 307.959 345.862 307.959 353.522C307.959 364.582 314.709 371.432 332.149 371.432H342.149C338.804 371.432 335.546 370.366 332.848 368.39C330.149 366.414 328.15 363.631 327.139 360.442Z" fill="#081E40"/>
<path d="M368.689 232.263C371.289 228.263 369.979 221.013 364.459 219.433C360.639 218.343 356.459 221.783 356.459 221.783C356.459 221.783 351.329 221.153 350.009 226.973C348.839 232.153 355.009 232.603 355.009 232.603L368.689 232.263Z" fill="#FFBC0A"/>
<path d="M382.409 249.203C390.919 251.973 397.289 254.033 402.349 264.953C407.409 275.873 417.539 302.223 417.539 302.223C417.539 302.223 424.859 312.063 419.229 312.063H368.139C361.139 312.063 365.039 305.413 365.039 305.413C363.436 302.704 362.278 299.757 361.609 296.683C359.443 295.979 357.402 294.939 355.559 293.603L354.449 300.753H324.259C324.259 300.753 329.509 284.253 332.259 275.533C335.009 266.813 337.699 255.533 352.559 251.343L382.409 249.203Z" fill="white"/>
<path d="M355.559 293.603C355.559 293.603 350.849 290.473 349.429 282.843C349.429 282.843 347.429 288.043 348.899 291.513C349.446 292.676 349.729 293.947 349.729 295.233C349.679 297.233 349.639 298.493 349.639 298.493H354.799L355.559 293.603Z" fill="#FFBC0A"/>
<path d="M325.299 297.443L324.299 300.723H354.489L354.999 297.443H325.299Z" fill="#3D3B8E"/>
<path d="M404.559 287.593L403.759 300.723H372.809L377.369 280.633C373.669 286.523 365.599 291.243 361.089 293.543C360.813 293.696 360.586 293.925 360.436 294.202C360.285 294.48 360.217 294.794 360.239 295.109C360.261 295.424 360.373 295.726 360.56 295.98C360.748 296.234 361.004 296.429 361.299 296.543L361.609 296.643C362.278 299.717 363.436 302.664 365.039 305.373C365.039 305.373 361.099 312.023 368.139 312.023H409.299L404.559 287.593Z" fill="#FFBC0A"/>
<path d="M401.659 299.082L376.169 298.492L372.809 321.752L325.199 354.862L313.289 367.052L322.009 369.492L325.199 365.552C336.919 362.832 335.699 357.462 335.699 357.462L384.839 340.002C387.691 338.987 390.231 337.249 392.21 334.958C394.189 332.667 395.539 329.902 396.129 326.932L401.659 299.082Z" fill="#FF6542"/>
<path d="M375.409 303.753C380.509 304.313 391.989 306.023 399.409 310.563L401.699 299.063L376.209 298.473L375.409 303.753Z" fill="#A12A2A"/>
<path d="M365.319 231.693C365.319 231.693 365.959 228.693 368.209 229.303C370.459 229.913 369.679 234.093 367.499 234.863L369.949 240.593C370.682 242.302 371.777 243.832 373.158 245.079C374.539 246.325 376.173 247.258 377.949 247.813L382.419 249.203C382.419 249.203 376.829 264.953 363.719 264.953C353.869 264.953 352.539 251.313 352.539 251.313L361.039 248.503L359.039 243.373C358.576 243.524 358.084 243.561 357.604 243.479C357.124 243.398 356.672 243.201 356.285 242.906C355.898 242.611 355.589 242.226 355.384 241.785C355.179 241.343 355.085 240.859 355.109 240.373C355.071 237.127 354.174 233.949 352.509 231.163C352.509 231.163 356.089 228.073 356.869 224.623C356.869 224.623 358.339 227.373 362.559 227.933C362.579 227.903 363.279 230.993 365.319 231.693Z" fill="#FF6542"/>
<path d="M374.249 218.883C374.247 219.978 373.92 221.048 373.31 221.958C372.7 222.867 371.834 223.576 370.822 223.994C369.809 224.411 368.696 224.52 367.622 224.305C366.548 224.09 365.562 223.562 364.788 222.786C364.014 222.011 363.487 221.024 363.274 219.95C363.062 218.875 363.172 217.762 363.591 216.75C364.011 215.738 364.721 214.874 365.632 214.265C366.543 213.657 367.613 213.333 368.709 213.333C369.437 213.333 370.158 213.476 370.831 213.755C371.504 214.034 372.115 214.443 372.63 214.959C373.144 215.474 373.552 216.086 373.83 216.759C374.108 217.433 374.25 218.154 374.249 218.883Z" fill="#FFBC0A"/>
<path d="M359.059 243.373C361.839 242.733 364.619 238.973 365.429 235.883C365.429 235.883 366.899 237.533 365.429 240.593C365.739 243.443 363.529 247.133 360.719 247.673L359.059 243.373Z" fill="#A12A2A"/>
<path d="M360.309 251.593L363.169 254.363" stroke="#A12A2A" stroke-width="0.66" stroke-miterlimit="10"/>
<path d="M373.549 297.443L372.809 300.723H403.759L403.989 297.443H373.549Z" fill="#3D3B8E"/>
<path d="M349.309 282.072C348.956 279.551 348.956 276.994 349.309 274.472L348.089 268.002" stroke="#081E40" stroke-width="0.66" stroke-miterlimit="10"/>
<path d="M380.929 264.953L377.799 278.733" stroke="#081E40" stroke-width="0.66" stroke-miterlimit="10"/>
<path d="M403.989 297.443L404.929 281.223" stroke="#081E40" stroke-width="0.66" stroke-miterlimit="10"/>
<path d="M382.399 367.343H307.949V371.403H382.399V367.343Z" fill="#458AF5"/>
<path d="M325.399 371.412H238.219L217.889 304.542H305.079L325.399 371.412Z" fill="white"/>
<path d="M325.399 371.412H321.949L301.619 304.542H305.079L325.399 371.412Z" fill="#7F95D1"/>
<path d="M284.139 338.312C285.929 345.202 281.799 350.802 274.899 350.802C267.999 350.802 260.949 345.202 259.159 338.312C257.369 331.423 261.489 325.823 268.389 325.823C275.289 325.823 282.339 331.412 284.139 338.312Z" stroke="#7F95D1" stroke-width="0.66" stroke-miterlimit="10"/>
<path d="M21.4688 324.813C21.4688 324.813 17.1888 330.083 19.0088 338.623C20.8288 347.163 27.1088 355.053 22.8188 359.793L0.818759 331.793C0.44276 331.251 0.194437 330.631 0.0924692 329.98C-0.00949908 329.329 0.0375419 328.663 0.230054 328.032C0.422566 327.402 0.755536 326.823 1.20392 326.34C1.6523 325.857 2.20443 325.482 2.81876 325.243L6.49876 323.623C7.30892 323.272 8.04014 322.762 8.64876 322.123L14.5388 315.963L21.4688 324.813Z" fill="#FF6542"/>
<path d="M18.9788 338.622C18.6771 337.212 18.5263 335.774 18.5288 334.332C16.4848 333.376 14.2296 332.959 11.9788 333.122L5.97877 323.812L2.77877 325.233C2.16443 325.472 1.61231 325.847 1.16393 326.33C0.715543 326.813 0.382572 327.392 0.19006 328.022C-0.00245138 328.653 -0.0494924 329.319 0.0524759 329.97C0.154444 330.621 0.402767 331.241 0.778765 331.783L22.7788 359.783C27.1088 355.053 20.8388 347.152 18.9788 338.622Z" fill="#FFBC0A"/>
<path d="M148.069 350.853C148.069 350.853 149.569 357.483 157.409 361.313C165.249 365.143 175.339 365.113 176.409 371.413H140.779C140.12 371.375 139.479 371.19 138.903 370.869C138.327 370.548 137.831 370.101 137.453 369.561C137.074 369.021 136.824 368.402 136.719 367.751C136.614 367.1 136.659 366.434 136.849 365.803L137.849 361.913C138.07 361.057 138.118 360.166 137.989 359.293L136.789 350.853H148.069Z" fill="#FF6542"/>
<path d="M157.409 361.312C156.114 360.686 154.894 359.918 153.769 359.022C151.744 360.052 150.022 361.588 148.769 363.482L137.769 362.382L136.879 365.802C136.689 366.434 136.644 367.1 136.749 367.751C136.854 368.402 137.104 369.021 137.483 369.561C137.861 370.101 138.357 370.548 138.933 370.869C139.509 371.19 140.15 371.375 140.809 371.412H176.439C175.339 365.112 165.249 365.152 157.409 361.312Z" fill="#FFBC0A"/>
<path d="M142.259 152.872L147.509 166.092L177.609 143.692C177.609 143.692 181.169 131.412 186.319 132.912C186.319 132.912 190.819 131.912 190.819 134.592C190.819 137.272 189.609 144.252 186.979 145.942C185.369 146.968 183.635 147.784 181.819 148.372C181.819 148.372 175.049 161.172 167.289 174.652C155.479 195.182 135.659 204.362 124.689 182.422C113.719 160.482 109.689 152.292 109.689 152.292L142.259 152.872Z" fill="#FF6542"/>
<path d="M147.509 166.093L135.719 175.163" stroke="#A12A2A" stroke-width="0.66" stroke-miterlimit="10"/>
<path d="M121.979 177.033C125.206 175.203 127.851 172.499 129.609 169.232C131.188 166.538 133.722 164.536 136.709 163.622L145.429 160.902L142.239 152.902L109.709 152.323C109.709 152.323 113.069 159.133 121.979 177.033Z" fill="#A12A2A"/>
<path d="M117.789 189.162C117.789 189.162 120.069 191.972 119.639 203.502L151.259 352.002H131.569C125.109 321.622 109.639 295.472 113.009 281.122L90.8088 215.872L78.9788 270.862C77.2477 278.873 73.0094 286.124 66.8788 291.562L24.6988 328.942L12.1388 316.942C26.9488 302.312 40.2588 280.842 54.1388 270.582L58.3088 190.942L117.789 189.162Z" fill="#2A7F62"/>
<path d="M119.639 203.502C120.069 191.972 117.789 189.162 117.789 189.162L58.3088 190.942L57.5488 205.452C61.5488 208.382 71.3488 213.232 87.0588 207.762C90.1374 206.662 93.4495 206.383 96.6688 206.952L121.339 211.482L119.639 203.502Z" fill="#272563"/>
<path d="M215.259 91.5425H173.259V100.752H215.259C216.709 100.752 217.889 98.6825 217.889 96.1325C217.889 93.5825 216.709 91.5425 215.259 91.5425Z" fill="#7F95D1"/>
<path d="M217.839 95.3425C217.854 95.6189 217.854 95.896 217.839 96.1725C217.833 96.5913 217.796 97.0091 217.729 97.4225C218.225 97.647 218.647 98.0096 218.943 98.4671C219.239 98.9245 219.397 99.4575 219.399 100.002V101.822C219.399 102.573 219.101 103.293 218.57 103.824C218.039 104.354 217.319 104.652 216.569 104.652H171.829C171.455 104.655 171.085 104.584 170.74 104.443C170.394 104.302 170.08 104.094 169.815 103.831C169.55 103.568 169.34 103.255 169.196 102.91C169.053 102.565 168.979 102.196 168.979 101.822V100.002C168.979 99.2519 169.277 98.5321 169.808 98.0014C170.338 97.4706 171.058 97.1725 171.809 97.1725H173.159V95.1725H171.809C170.528 95.1725 169.299 95.6814 168.393 96.5872C167.488 97.493 166.979 98.7215 166.979 100.002V101.822C166.981 103.103 167.491 104.33 168.396 105.235C169.302 106.14 170.529 106.65 171.809 106.652H193.199L119.639 352.003H121.639L195.219 106.652H216.619C217.899 106.65 219.126 106.14 220.031 105.235C220.936 104.33 221.446 103.103 221.449 101.822V100.002C221.444 98.9366 221.088 97.9021 220.435 97.0595C219.782 96.2169 218.87 95.6133 217.839 95.3425Z" fill="#3D3B8E"/>
<path d="M173.219 100.802C174.666 100.802 175.839 98.7296 175.839 96.1725C175.839 93.6154 174.666 91.5425 173.219 91.5425C171.772 91.5425 170.599 93.6154 170.599 96.1725C170.599 98.7296 171.772 100.802 173.219 100.802Z" fill="#3D3B8E"/>
<path d="M52.1788 125.293C54.7098 120.489 58.5044 116.467 63.1533 113.661C67.8022 110.856 73.1289 109.373 78.5588 109.373H111.629C130.029 109.373 134.689 120.213 138.519 129.673C142.349 139.133 149.259 156.803 149.259 156.803H122.459L119.639 176.273L120.979 195.213H54.5588L55.9788 154.613H36.7188L52.1788 125.293Z" fill="#3D3B8E"/>
<path d="M68.0588 154.612H72.9788L78.9788 135.022C78.9788 135.022 84.3188 146.122 81.2288 157.232C78.1388 168.342 77.9988 179.172 81.2288 185.642C84.4588 192.112 86.2888 195.212 86.2888 195.212H61.9788L58.3188 173.122L68.0588 154.612Z" fill="#081E40"/>
<path d="M79.8188 131.753C79.8188 131.753 82.9188 116.423 70.1188 112.203" stroke="#081E40" stroke-width="0.66" stroke-miterlimit="10"/>
<path d="M122.459 156.803L125.859 138.443L133.919 156.803H122.459Z" fill="#081E40"/>
<path d="M125.759 135.022C125.759 135.022 129.759 121.282 126.889 115.752" stroke="#081E40" stroke-width="0.66" stroke-miterlimit="10"/>
<path d="M64.0688 240.243L66.5088 283.603C66.5088 284.603 74.7088 285.333 84.6988 285.333C94.6888 285.333 102.839 284.563 102.889 283.603L105.319 240.243H64.0688Z" fill="#272563"/>
<path d="M68.9788 243.332H100.379C100.379 243.332 92.6188 228.752 84.6988 228.752C76.7788 228.752 68.9788 243.332 68.9788 243.332Z" stroke="#081E40" stroke-width="0.66" stroke-miterlimit="10"/>
<path d="M65.7188 269.633C65.7699 270.654 66.0744 271.646 66.6047 272.52C67.135 273.394 67.8744 274.122 68.7564 274.639C69.6384 275.156 70.6352 275.445 71.6569 275.481C72.6785 275.516 73.693 275.297 74.6088 274.843C78.2788 272.943 80.6088 268.923 81.6988 265.183C83.5688 258.613 87.6988 257.303 96.9788 255.053C97.9287 254.831 98.8612 254.54 99.7688 254.183C101.238 253.594 102.507 252.596 103.425 251.308C104.344 250.019 104.872 248.493 104.949 246.913L105.319 240.243H64.0688L65.7188 269.633Z" fill="#7F95D1"/>
<path d="M93.2888 97.0525C93.2888 97.0525 92.5188 92.1625 92.0888 90.0525C91.6588 87.9425 92.5188 85.7625 96.1688 85.7625H105.839C108.999 85.7625 110.409 87.9725 109.499 90.0125C108.589 92.0525 106.999 91.7724 105.099 91.7724H98.7688L93.2888 97.0525Z" fill="#081E40"/>
<path d="M106.119 99.7524C106.317 98.8869 106.317 97.988 106.119 97.1223C105.922 96.2567 105.532 95.4467 104.979 94.7524L105.679 89.7524H98.8088C98.5012 90.2544 98.0528 90.6548 97.5194 90.9037C96.9859 91.1527 96.391 91.2392 95.8088 91.1524L94.6788 95.9324C94.6788 95.9324 93.0988 93.1324 91.2588 94.9324C89.2588 96.8724 91.6888 99.5324 94.0488 98.4024L91.9788 107.482C91.8519 108.023 91.5454 108.504 91.1094 108.847C90.6734 109.191 90.1337 109.376 89.5788 109.372H88.7788C88.7788 109.372 88.8488 114.882 96.1388 114.882C103.429 114.882 105.749 109.372 105.749 109.372H102.409L103.239 103.372C103.951 103.012 104.577 102.502 105.074 101.877C105.571 101.252 105.927 100.527 106.119 99.7524Z" fill="#FF6542"/>
<path d="M94.3088 109.093L96.5088 112.903" stroke="#A12A2A" stroke-width="0.66" stroke-miterlimit="10"/>
<path d="M103.219 103.422C101.829 104.422 99.3688 104.162 97.6588 103.672C97.4766 103.607 97.278 103.602 97.093 103.659C96.908 103.716 96.7467 103.832 96.6336 103.99C96.5205 104.147 96.4618 104.337 96.4663 104.53C96.4709 104.724 96.5384 104.911 96.6588 105.062C97.4588 106.142 99.1188 107.342 102.549 107.972L103.219 103.422Z" fill="#A12A2A"/>
<path d="M41.1088 154.613H68.0588L61.6388 174.403L80.6388 220.023C81.0397 220.982 81.7416 221.786 82.6388 222.313L87.6988 225.263C88.2548 225.586 88.7398 226.019 89.1247 226.534C89.5096 227.05 89.7865 227.637 89.9388 228.263L90.7388 231.453C90.7798 231.619 90.7823 231.793 90.7461 231.961C90.7099 232.128 90.6361 232.286 90.53 232.421C90.424 232.556 90.2887 232.665 90.1342 232.739C89.9798 232.814 89.8104 232.853 89.6388 232.853H83.4688C82.9385 232.856 82.4206 232.693 81.9882 232.386C81.5557 232.079 81.2306 231.644 81.0588 231.143L80.9788 230.913C80.9134 230.728 80.8019 230.563 80.6549 230.433C80.5079 230.304 80.3302 230.214 80.1388 230.173C78.9388 229.893 76.3588 228.843 75.4288 224.803C75.4288 224.803 51.7188 199.923 41.9788 189.163C35.4288 181.933 34.5388 175.303 36.7188 168.163C38.4688 162.373 41.1088 154.613 41.1088 154.613Z" fill="#FF6542"/>
<path d="M87.6388 195.083H119.409" stroke="#081E40" stroke-width="0.66" stroke-miterlimit="10"/>
<path d="M90.8088 215.873L95.2288 195.363" stroke="#081E40" stroke-width="0.66" stroke-miterlimit="10"/>
<path d="M448.429 107.523L447.09 104.827L438.769 108.958L440.108 111.654L448.429 107.523Z" fill="#FFE58F"/>
<path d="M185.502 204.904L184.164 202.208L175.842 206.338L177.181 209.034L185.502 204.904Z" fill="#FFE58F"/>
<path d="M170.583 131.071L169.244 128.375L160.923 132.506L162.262 135.202L170.583 131.071Z" fill="#FFE58F"/>
<path d="M39.1226 267.14L37.1128 264.899L30.1971 271.102L32.2068 273.343L39.1226 267.14Z" fill="#FFE58F"/>
<path d="M40.2211 211.488L40.3613 208.481L31.0814 208.048L30.9411 211.055L40.2211 211.488Z" fill="#FFE58F"/>
<path d="M98.4742 70.0122L100.12 67.4918L92.3409 62.4131L90.6954 64.9335L98.4742 70.0122Z" fill="#FFE58F"/>
<path d="M71.3742 327.014L68.8927 325.31L63.6348 332.969L66.1163 334.673L71.3742 327.014Z" fill="#FFE58F"/>
<path d="M459.816 201.316L461.658 198.936L454.311 193.251L452.469 195.631L459.816 201.316Z" fill="#FFE58F"/>
<path d="M577.303 297.363L579.145 294.982L571.798 289.297L569.956 291.678L577.303 297.363Z" fill="#FFE58F"/>
<path d="M536.574 85.8779L534.969 83.3312L527.109 88.283L528.714 90.8297L536.574 85.8779Z" fill="#FFE58F"/>
<path d="M326.91 13.8753L325.306 11.3285L317.446 16.2803L319.05 18.8271L326.91 13.8753Z" fill="#FFE58F"/>
<path d="M579.273 239.037L577.669 236.49L569.808 241.442L571.413 243.988L579.273 239.037Z" fill="#FFE58F"/>
<path d="M564.319 119.022C564.319 120.237 563.959 121.424 563.284 122.434C562.609 123.443 561.65 124.23 560.528 124.695C559.406 125.16 558.172 125.281 556.981 125.044C555.79 124.808 554.696 124.223 553.837 123.364C552.978 122.505 552.394 121.411 552.157 120.22C551.92 119.029 552.041 117.795 552.506 116.673C552.971 115.551 553.758 114.592 554.768 113.917C555.777 113.243 556.964 112.882 558.179 112.882C559.807 112.882 561.369 113.529 562.52 114.681C563.672 115.832 564.319 117.394 564.319 119.022V119.022Z" stroke="#FFC7C7" stroke-width="0.75" stroke-miterlimit="10"/>
<path d="M570.459 268.003C570.459 269.217 570.099 270.404 569.424 271.414C568.749 272.423 567.79 273.21 566.668 273.675C565.547 274.14 564.312 274.261 563.121 274.025C561.93 273.788 560.836 273.203 559.977 272.344C559.118 271.485 558.534 270.391 558.297 269.2C558.06 268.009 558.181 266.775 558.646 265.653C559.111 264.531 559.898 263.572 560.908 262.897C561.917 262.223 563.104 261.863 564.319 261.863C565.947 261.863 567.509 262.509 568.66 263.661C569.812 264.812 570.459 266.374 570.459 268.003V268.003Z" stroke="#FFC7C7" stroke-width="0.75" stroke-miterlimit="10"/>
<path d="M48.9188 97.6825C52.3098 97.6825 55.0588 94.9335 55.0588 91.5425C55.0588 88.1514 52.3098 85.4025 48.9188 85.4025C45.5277 85.4025 42.7788 88.1514 42.7788 91.5425C42.7788 94.9335 45.5277 97.6825 48.9188 97.6825Z" stroke="#FFC7C7" stroke-width="0.75" stroke-miterlimit="10"/>
<path d="M12.1388 239.282C15.5298 239.282 18.2788 236.533 18.2788 233.142C18.2788 229.751 15.5298 227.002 12.1388 227.002C8.74774 227.002 5.99876 229.751 5.99876 233.142C5.99876 236.533 8.74774 239.282 12.1388 239.282Z" stroke="#FFC7C7" stroke-width="0.75" stroke-miterlimit="10"/>
<path d="M238.319 15.0625C238.319 16.2769 237.959 17.464 237.284 18.4737C236.609 19.4834 235.65 20.2704 234.528 20.7351C233.407 21.1998 232.172 21.3214 230.981 21.0845C229.79 20.8476 228.696 20.2628 227.837 19.4041C226.978 18.5454 226.394 17.4514 226.157 16.2603C225.92 15.0693 226.041 13.8348 226.506 12.7128C226.971 11.5909 227.758 10.6319 228.768 9.95727C229.777 9.2826 230.964 8.92249 232.179 8.92249C232.985 8.92118 233.784 9.07909 234.53 9.38719C235.276 9.69529 235.953 10.1475 236.523 10.7179C237.094 11.2883 237.546 11.9657 237.854 12.7113C238.162 13.4568 238.32 14.2558 238.319 15.0625V15.0625Z" stroke="#FFC7C7" stroke-width="0.75" stroke-miterlimit="10"/>
<path d="M624.179 285.332C624.179 286.547 623.819 287.734 623.144 288.744C622.469 289.753 621.51 290.54 620.388 291.005C619.266 291.47 618.032 291.591 616.841 291.355C615.65 291.118 614.556 290.533 613.697 289.674C612.838 288.815 612.254 287.721 612.017 286.53C611.78 285.339 611.901 284.105 612.366 282.983C612.831 281.861 613.618 280.902 614.628 280.227C615.637 279.553 616.824 279.193 618.039 279.193C619.667 279.193 621.229 279.839 622.38 280.991C623.532 282.142 624.179 283.704 624.179 285.332V285.332Z" stroke="#FFC7C7" stroke-width="0.75" stroke-miterlimit="10"/>
<path d="M385.659 21.2025C389.05 21.2025 391.799 18.4535 391.799 15.0625C391.799 11.6715 389.05 8.92249 385.659 8.92249C382.268 8.92249 379.519 11.6715 379.519 15.0625C379.519 18.4535 382.268 21.2025 385.659 21.2025Z" stroke="#FFC7C7" stroke-width="0.75" stroke-miterlimit="10"/>
</svg>
