<svg width="360" height="281" viewBox="0 0 360 281" fill="none" xmlns="http://www.w3.org/2000/svg">
<path fill-rule="evenodd" clip-rule="evenodd" d="M306.008 40.8855C247.76 7.55813 202.344 105.386 169.357 117.701C102.876 142.521 -20.6058 164.108 2.94346 212.361C35.2783 278.617 147.785 285.227 228.241 278.617C332.889 270.018 420.529 106.41 306.008 40.8855Z" fill="#64FCD9"/>
<path fill-rule="evenodd" clip-rule="evenodd" d="M297.572 147.314C298.172 147.843 298.376 148.672 298.526 149.466L299.439 154.443C299.566 155.136 300.147 155.463 300.37 155.07C300.607 154.652 301.239 154.825 301.663 155.051L306.952 157.865C305.152 159.156 303.029 159.993 300.833 160.277C299.75 160.417 299.575 161.9 299.69 162.986L300.003 165.94C300.101 166.86 298.653 167.173 297.929 166.595C297.206 166.018 296.932 165.051 296.362 164.322C295.441 163.144 293.814 162.705 292.325 162.841C290.836 162.977 289.442 163.602 288.079 164.217C287.201 164.614 286.234 163.563 286.303 162.601C286.364 161.753 286.906 161.042 287.46 160.38L287.68 160.117C288.301 159.38 288.922 158.506 288.817 157.548C288.73 156.75 288.16 156.107 287.589 155.534L287.254 155.198C286.725 154.657 286.222 154.055 286.129 153.314C286.023 152.468 286.795 151.494 287.607 151.756C290.732 152.766 294.496 150.796 295.447 147.652C295.694 146.835 296.932 146.75 297.572 147.314Z" fill="white"/>
<path fill-rule="evenodd" clip-rule="evenodd" d="M297.572 147.314C298.172 147.843 298.376 148.672 298.526 149.466L299.439 154.443C299.566 155.136 299.287 156.207 298.626 155.965C297.685 153.97 297.185 151.768 297.17 149.562C296.811 149.217 296.277 149.73 296.054 150.175L293.822 154.622C293.429 155.405 292.256 155.232 291.481 154.822L291.067 154.603C290.395 154.254 289.663 153.946 289.026 154.289C288.701 155.263 290.146 155.748 290.896 156.449C291.752 157.25 291.702 158.686 291.103 159.694C290.505 160.702 289.493 161.381 288.514 162.026C289.92 162.258 291.419 161.847 292.511 160.931C293.004 160.517 293.455 159.986 294.085 159.854C295.06 159.65 295.936 160.495 296.442 161.353C296.948 162.211 297.348 163.215 298.213 163.71C298.646 163.028 298.414 162.172 298.142 161.384L298.012 161.016C297.699 160.135 297.559 158.968 298.326 158.433C298.614 158.232 298.972 158.173 299.325 158.135L303.097 157.757L300.924 156.174C300.558 155.907 300.147 155.463 300.37 155.07C300.607 154.652 301.239 154.825 301.663 155.051L306.952 157.865C305.152 159.156 303.029 159.993 300.833 160.277C299.75 160.417 299.575 161.9 299.69 162.986L300.003 165.94C300.101 166.86 298.653 167.173 297.929 166.595C297.206 166.018 296.932 165.051 296.362 164.322C295.441 163.144 293.814 162.705 292.325 162.841C290.836 162.977 289.442 163.602 288.079 164.217C287.201 164.614 286.234 163.563 286.303 162.601C286.364 161.753 286.906 161.042 287.46 160.38L287.68 160.117C288.301 159.38 288.922 158.506 288.817 157.548C288.73 156.75 288.16 156.107 287.589 155.534L287.254 155.198C286.725 154.657 286.222 154.055 286.129 153.314C286.023 152.468 286.795 151.494 287.607 151.756C290.732 152.766 294.496 150.796 295.447 147.652C295.694 146.835 296.932 146.75 297.572 147.314Z" fill="#FFB61D"/>
<path fill-rule="evenodd" clip-rule="evenodd" d="M89.4875 58.0397C87.2244 47.9819 93.3902 31.2866 104.407 24.5738C115.423 17.8611 129.515 17.4012 141.784 21.3876C141.393 9.53511 153.413 -0.635589 165.231 0.343646C177.05 1.32288 186.856 11.9336 188.444 23.6857C189.681 32.8427 184.98 43.7499 175.89 45.4085C179.103 56.8891 180.89 68.9684 179.126 80.759C177.362 92.5495 171.751 104.067 162.282 111.31C159.668 114.827 161.643 120.131 165.084 122.844C168.526 125.556 172.98 126.509 177.099 128.006C194.355 134.278 206.505 151.302 209.337 169.443C212.169 187.584 206.512 206.398 196.289 221.65C189.288 232.097 179.762 241.374 167.845 245.391C151.118 251.031 132.779 245.54 116.536 238.628C110.344 235.993 104.039 232.999 99.6685 227.883C94.9831 222.398 86.1277 225.36 79.7417 228.715C83.9879 230.477 88.2341 232.238 92.4803 234C93.3927 234.379 94.3826 234.828 94.8058 235.721C95.6964 237.6 93.5023 239.408 91.6451 240.344C89.6494 241.348 87.6536 242.353 85.6579 243.358C73.4078 249.527 60.6497 255.83 46.9394 256.211C31.9499 256.627 17.7907 249.927 4.30038 243.38C2.8009 242.652 1.21145 241.842 0.396132 240.388C-0.419187 238.934 0.0365558 236.667 1.64792 236.241C16.7817 232.239 31.1099 225.215 43.5424 215.702C42.5914 209.781 42.8155 203.673 44.1981 197.837C44.398 196.993 44.6856 196.068 45.4378 195.636C47.2871 194.573 48.8934 197.372 49.2201 199.479C50.0449 204.799 50.8697 210.119 51.6944 215.439C61.5981 214.344 71.2099 210.706 79.357 204.969C73.0026 199.852 66.6483 194.734 60.294 189.617C56.6276 186.664 53.0886 184.898 51.1085 179.116C49.7884 175.262 50.8538 171.302 54.3047 167.238C50.4524 148.04 48.7668 133.568 49.2479 123.822C49.3764 121.22 49.6675 118.412 51.4185 116.484C54.5093 113.08 60.5782 114.548 63.3993 118.178C66.2205 121.808 66.6927 126.68 67.0575 131.263C77.7994 129.951 88.5412 128.638 99.2831 127.326C103.213 126.846 107.283 126.377 111.066 127.546C115.811 129.014 119.623 133.17 120.674 138.025C125.207 136.8 130.144 135.291 132.704 131.354C135.264 127.418 133.096 120.572 128.405 120.775C113.731 121.41 99.3801 110.521 96.0403 96.2184C95.1909 92.5807 94.8608 88.5384 92.3071 85.812C88.2605 81.4919 85.1772 75.9224 85.1969 70.003C85.2167 64.0837 87.6967 63.3774 89.4875 58.0397ZM1.89595 240.207C2.22633 240.7 2.80297 240.959 3.34912 241.193C8.95262 243.591 14.5561 245.989 20.1596 248.387C22.7093 249.478 25.2673 250.572 27.9336 251.335C35.3698 253.463 43.3827 252.944 50.7762 255.215C51.673 255.491 52.6356 255.206 53.5286 254.919C59.977 252.841 66.3496 250.529 72.6294 247.987C79.1994 245.328 85.71 242.395 91.5432 238.368C92.0739 238.002 92.6246 237.595 92.8668 236.998C93.1089 236.4 92.8858 235.569 92.2656 235.393C88.3289 234.275 84.4492 232.956 80.6467 231.443C79.4243 230.957 78.0481 230.263 77.7888 228.973C74.4389 229.108 71.5095 231.221 69.0386 233.487C66.5677 235.753 64.2466 238.312 61.202 239.715C58.1573 241.119 54.071 240.998 51.9618 238.392C51.7365 238.113 51.5103 237.793 51.1639 237.703C50.8175 237.612 50.3726 237.957 50.534 238.277C50.9522 239.105 50.0541 240.151 49.1284 240.094C48.2027 240.036 47.4789 239.193 47.2511 238.294C47.0232 237.395 45.7864 239.001 43.9939 239.268C42.2014 239.536 40.2997 238.385 39.7043 236.674C39.2136 235.263 37.2897 235.238 35.8196 234.974C32.477 234.374 29.9386 230.871 30.4087 227.508C20.8022 230.712 11.3699 234.437 2.16718 238.664C1.62733 238.912 1.56557 239.713 1.89595 240.207Z" fill="white"/>
<path d="M136.763 101.828C139.583 101.828 141.87 99.5409 141.87 96.7201C141.87 93.8993 139.583 91.6125 136.763 91.6125C133.942 91.6125 131.655 93.8993 131.655 96.7201C131.655 99.5409 133.942 101.828 136.763 101.828Z" fill="#FFB61D"/>
<path d="M101.31 97.6213C102.803 97.6213 104.014 96.4107 104.014 94.9174C104.014 93.424 102.803 92.2134 101.31 92.2134C99.8166 92.2134 98.606 93.424 98.606 94.9174C98.606 96.4107 99.8166 97.6213 101.31 97.6213Z" fill="#FFB61D"/>
<path fill-rule="evenodd" clip-rule="evenodd" d="M161.153 117.219C161.621 119.646 163.011 121.998 164.862 123.457C168.304 126.169 176.04 128.962 180.159 130.458C180.533 130.595 178.42 131.788 175.693 134.427C168.308 141.571 152.16 154.364 136.385 147.935C134.541 147.184 133 146.319 131.744 145.402C130.587 144.557 141.207 145.774 151.136 143.892C161.119 141.999 170.408 136.999 167.921 133.034C165.585 129.308 159.012 122.996 158.5 119.284C157.817 114.338 160.751 115.132 161.153 117.219Z" fill="#E7EAEE"/>
<path fill-rule="evenodd" clip-rule="evenodd" d="M1.69312 238.802C1.69312 236.821 7.94047 235.218 18.6203 231.2C25.9659 228.437 40.2834 220.442 47.3278 220.07C52.0152 219.822 70.7476 226.68 82.9728 231.605C89.1198 234.082 93.8615 235.633 93.8615 236.428C93.8615 238.023 80.8097 245.728 67.47 250.792C60.9589 253.263 54.8501 255.477 49.2478 255.327C32.1677 254.872 1.69312 243.818 1.69312 238.802Z" fill="white"/>
<path fill-rule="evenodd" clip-rule="evenodd" d="M242.988 74.243C218.495 84.7039 198.034 102.579 178.539 120.756L177.347 121.869C176.209 122.932 174.483 124.043 173.256 123.086L177.044 119.637C196.865 101.629 217.358 83.7726 241.882 73.1636C260.737 65.0069 260.536 66.7478 242.988 74.243ZM137.488 248.489L148.977 261.004C149.54 261.617 150.127 262.276 150.284 263.093C150.442 263.911 149.968 264.909 149.14 264.995L125.484 267.469C121.555 267.88 117.548 265.156 116.416 261.371C115.285 257.585 117.096 253.151 120.518 251.177C123.94 249.203 128.634 249.826 131.475 252.572C132.178 253.252 133.414 252.674 133.914 251.832C134.413 250.991 134.521 249.959 135.037 249.128C135.554 248.296 136.826 247.768 137.488 248.489ZM118.411 255.713C116.944 258.497 117.872 262.268 120.383 264.165C121.613 265.094 123.124 265.593 124.646 265.838C126.796 266.185 129.291 265.922 130.673 264.239C131.178 263.625 131.487 262.872 131.698 262.105C132.401 259.554 132.044 256.727 130.728 254.431C130.37 253.806 129.819 253.153 129.1 253.184C128.758 253.199 128.44 253.372 128.099 253.407C127.533 253.465 127.008 253.142 126.492 252.902C123.639 251.573 119.878 252.929 118.411 255.713ZM136.467 251C136.015 252.883 135.081 254.649 133.777 256.081C133.41 256.484 133.5 257.108 133.574 257.648C133.937 260.28 133.337 263.033 131.914 265.276C134.246 264.724 136.631 264.394 139.026 264.292C142.308 264.152 145.733 264.415 148.742 263.095C147.134 262.396 145.77 261.151 144.926 259.615C144.43 258.712 143.743 257.93 143.062 257.156L137.831 251.211C137.452 250.782 136.6 250.443 136.467 251ZM77.0571 250.887C77.8073 253.229 80.6288 254.032 83.0732 254.454L99.3858 257.178C103.158 257.808 107.029 258.437 110.78 257.693C111.488 257.553 111.862 258.676 111.395 259.226C110.928 259.776 110.116 259.842 109.394 259.844C106.126 259.855 102.877 259.421 99.643 258.935L96.198 258.409C90.1005 257.472 84.006 256.475 78.0378 254.921C77.0162 254.656 75.958 254.352 75.176 253.643C74.394 252.934 73.9873 251.695 74.5375 250.794C75.0878 249.893 76.7351 249.881 77.0571 250.887ZM165.231 0.343646C177.05 1.32288 186.856 11.9336 188.444 23.6857C189.681 32.8427 184.98 43.7499 175.89 45.4085C179.103 56.8891 180.89 68.9684 179.126 80.759C177.362 92.5495 171.751 104.067 162.282 111.31C159.668 114.827 161.643 120.131 165.084 122.844C168.526 125.556 172.98 126.509 177.099 128.006C194.355 134.278 206.505 151.302 209.337 169.443C212.169 187.584 206.512 206.398 196.289 221.65C189.288 232.097 179.762 241.374 167.845 245.392C151.286 250.974 133.145 245.649 117.024 238.835L116.536 238.628C110.473 236.048 104.302 233.123 99.9442 228.2L99.6685 227.883C94.9831 222.398 86.1277 225.36 79.7417 228.715L92.4803 234C93.3927 234.379 94.3826 234.828 94.8058 235.721C95.6964 237.6 93.5023 239.408 91.6451 240.344L84.1655 244.109C72.3718 250.028 60.0939 255.845 46.9394 256.211C32.1242 256.622 18.1201 250.082 4.77124 243.608L3.92413 243.196C2.54137 242.513 1.14351 241.721 0.396132 240.388C-0.419187 238.934 0.0365558 236.667 1.64792 236.241C16.7817 232.239 31.1099 225.215 43.5424 215.702C42.5914 209.781 42.8155 203.673 44.1981 197.837L44.2685 197.554C44.4677 196.794 44.7692 196.02 45.4378 195.636C47.2871 194.573 48.8934 197.372 49.2201 199.479L51.6944 215.439C61.5981 214.344 71.2099 210.706 79.357 204.969L59.7816 189.204C56.2768 186.368 52.7283 183.303 51.1085 179.116C49.4096 174.726 50.7763 168.775 55.1666 167.076C55.513 150.446 54.6364 133.79 52.5462 117.288C49.6559 133.769 51.9788 150.667 54.3047 167.238C50.3164 153.432 48.5894 138.976 49.211 124.619L49.2479 123.822C49.3764 121.22 49.6675 118.412 51.4185 116.484C54.5093 113.08 60.5782 114.548 63.3993 118.178C66.2205 121.808 66.6927 126.68 67.0575 131.263L100.022 127.236C103.721 126.793 107.519 126.45 111.066 127.546C115.811 129.014 119.623 133.17 120.674 138.025L121.448 137.814C125.759 136.621 130.289 135.068 132.704 131.354C135.237 127.46 133.141 120.717 128.554 120.771L128.405 120.775C113.731 121.41 99.3801 110.521 96.0403 96.2184C95.1909 92.5807 94.8608 88.5384 92.3071 85.8121C88.2605 81.4919 85.1772 75.9224 85.1969 70.003C85.2167 64.0837 88.991 57.9792 94.7388 56.5642C100.487 55.1492 107.289 59.9447 106.793 65.8432C109.582 65.5593 112.434 65.9222 115.063 66.8954C113.564 62.8539 117.449 58.3928 121.72 57.8062C125.99 57.2196 130.151 59.3526 133.703 61.7958C137.254 64.2391 140.648 67.1154 144.776 68.3537L144.967 67.9133C145.82 65.921 146.606 63.7932 146.176 61.687C145.714 59.4249 143.165 57.4685 141.102 58.5043C139.653 54.354 137.348 50.5047 134.374 47.2683L126.107 51.1659C125.042 49.5707 124.389 47.7024 124.23 45.7909C118.771 48.9104 112.847 51.2125 106.714 52.5971L107.341 47.9149L89.0151 57.4337C86.3092 44.8201 93.3902 31.2866 104.407 24.5738C115.423 17.8611 129.515 17.4012 141.784 21.3876C141.393 9.53511 153.413 -0.635589 165.231 0.343646ZM255.39 205.931C244.832 208.478 234.583 212.304 224.937 217.297L224.24 217.661C218.895 220.477 213.65 223.85 210.3 228.857C212.562 228.465 214.977 229.054 216.804 230.445C217.958 231.323 218.922 232.64 218.853 234.089C218.818 234.84 218.506 235.556 218.085 236.179C216.442 238.614 212.962 239.603 210.284 238.396C207.606 237.189 206.042 233.927 206.777 231.083C195.416 234.962 185.648 243.308 180.033 253.919L179.845 254.277C179.568 254.811 179.23 255.409 178.644 255.542C177.837 255.724 177.119 254.824 177.156 253.997C177.193 253.171 177.722 252.459 178.234 251.809C184.855 243.402 192.592 235.399 202.495 231.342L203.24 231.042C205.576 230.115 208.022 229.206 209.53 227.229C213.189 222.436 218.456 219.146 223.805 216.361C228.592 213.869 233.543 211.693 238.617 209.853C243.708 208.006 248.914 206.5 254.13 205.04L271.802 200.12C267.023 203.479 261.069 204.56 255.39 205.931ZM30.4087 227.508C20.8022 230.712 11.3699 234.437 2.16718 238.664C1.62733 238.912 1.56557 239.713 1.89595 240.207C2.22633 240.7 2.80297 240.959 3.34912 241.193L20.1596 248.387C22.7093 249.478 25.2673 250.572 27.9336 251.335C35.3698 253.463 43.3827 252.944 50.7762 255.215C51.673 255.491 52.6356 255.206 53.5286 254.919C59.977 252.841 66.3496 250.529 72.6294 247.987C79.1994 245.328 85.71 242.395 91.5432 238.369C92.0739 238.002 92.6246 237.595 92.8668 236.998C93.1089 236.4 92.8858 235.569 92.2656 235.393C88.3289 234.275 84.4492 232.956 80.6467 231.443L80.3829 231.335C79.2334 230.855 78.0296 230.171 77.7888 228.973C74.4389 229.108 71.5095 231.221 69.0386 233.487C66.5677 235.753 64.2466 238.312 61.202 239.715C58.1573 241.119 54.071 240.998 51.9618 238.392L51.8256 238.222C51.6412 237.994 51.4411 237.775 51.1639 237.703C50.8175 237.612 50.3726 237.957 50.534 238.277C50.9522 239.105 50.0541 240.151 49.1284 240.094C48.2027 240.036 47.4789 239.193 47.2511 238.294C47.1046 237.716 47.1175 237.119 47.1875 236.523L47.2051 236.376C46.7936 237.834 45.5034 239.043 43.9939 239.268C42.2014 239.536 40.2997 238.385 39.7043 236.674C39.2136 235.263 37.2897 235.238 35.8196 234.974C32.477 234.374 29.9386 230.871 30.4087 227.508ZM53.1112 171.368C51.131 174.89 52.9703 179.348 55.4093 182.57C63.0579 192.672 75.8687 197.521 84.6096 206.695C86.8059 209 88.7203 211.554 90.6102 214.117L96.5505 222.185C97.6423 223.668 98.738 225.155 100.012 226.485C103.334 229.951 107.708 232.188 112.034 234.27C120.813 238.494 129.843 242.375 139.374 244.391C148.905 246.408 159.031 246.476 168.201 243.188C176.784 240.111 184.179 234.209 189.925 227.129C195.535 220.218 199.652 212.207 202.952 203.937L203.192 203.332C203.666 202.125 204.133 200.864 204.034 199.571C203.93 198.204 203.202 196.962 202.352 195.886C199.111 191.786 193.695 189.467 188.508 190.108C183.402 190.739 178.727 194.282 176.857 199.069L176.77 199.298C172.705 210.316 162.584 218.603 151.214 221.544C139.844 224.484 127.478 222.377 117.1 216.88C106.721 211.383 98.253 202.681 91.939 192.779L91.5943 192.233C90.4537 190.402 89.4166 188.475 89.0151 186.363C88.5734 184.04 89.0225 181.427 90.7003 179.76C91.8087 178.659 93.3861 178.013 94.1922 176.675C94.9984 175.337 94.0517 172.973 92.5644 173.451L91.5723 173.765C84.7366 175.892 76.806 177.542 71.3066 173.116L70.7782 172.693C68.2124 170.654 65.4704 168.708 62.2826 168.007C58.875 167.257 54.821 168.327 53.1112 171.368ZM80.3596 207.075C72.0684 212.313 62.7114 215.857 53.03 217.426C51.7519 217.633 51.4084 219.29 51.3883 220.584C51.3243 224.699 51.5236 228.818 51.9844 232.907C53.0331 232.414 53.4621 231.18 54.177 230.268C54.892 229.356 56.5235 228.856 57.0762 229.875C57.4622 230.586 56.947 231.478 56.2891 231.95C55.6312 232.422 54.8222 232.677 54.2355 233.235C52.7759 234.623 53.5388 237.353 55.3171 238.3C57.0954 239.246 59.3448 238.752 61.0497 237.679C62.7547 236.606 64.0719 235.034 65.5175 233.631C68.6093 230.631 72.3911 228.346 76.4851 227.005C81.6825 225.303 87.4699 225.05 92.0424 222.049C92.3504 221.847 92.6691 221.61 92.7853 221.26C92.944 220.783 92.6756 220.287 92.3906 219.862L86.9198 211.919C86.0483 210.653 85.0455 209.294 83.5524 208.932C82.8697 208.766 82.1418 208.83 81.4718 208.619C80.8019 208.408 80.1707 207.751 80.3596 207.075ZM42.1643 218.614C40.0313 219.61 38.769 221.951 38.4881 224.289C38.2072 226.626 38.7588 228.979 39.414 231.24C39.8163 232.628 40.2623 234.012 40.9275 235.295C41.3517 236.112 41.9133 236.928 42.7633 237.284C43.6133 237.639 44.7929 237.32 45.0692 236.441C45.183 236.079 45.132 235.687 45.0661 235.313C44.8186 233.909 44.3744 232.539 43.7511 231.256L43.4894 230.736C43.1144 229.985 42.7613 229.1 43.2434 228.446C43.7038 227.82 44.8352 227.562 44.727 226.793L43.6707 219.284C43.6398 219.064 43.6036 218.833 43.461 218.663C43.161 218.306 42.5869 218.417 42.1643 218.614ZM211.274 230.196C210.57 230.193 209.829 230.29 209.263 230.71C208.932 230.956 208.682 231.299 208.506 231.672C207.763 233.248 208.449 235.274 209.857 236.3C211.265 237.326 213.217 237.422 214.847 236.807C216.094 236.337 217.294 235.272 217.252 233.94C217.219 232.889 216.421 232.012 215.542 231.436C214.285 230.614 212.776 230.203 211.274 230.196ZM46.1665 197.335C45.9862 197.469 45.897 197.69 45.8209 197.901C44.7117 200.979 44.5759 204.315 44.6065 207.586C44.6832 215.787 45.7369 223.979 47.7382 231.934L47.8377 232.321C48.2468 233.874 48.806 235.467 50.0729 236.427C50.3086 223.823 49.4907 211.198 47.6307 198.729C47.51 197.92 46.8232 196.846 46.1665 197.335ZM36.1779 224.428C35.9131 224.502 35.7431 224.755 35.611 224.996C34.5293 226.969 34.4563 229.463 35.4206 231.497C35.8529 232.408 36.5943 233.295 37.5971 233.406C38.0059 232.898 37.8191 232.164 37.59 231.54L37.3922 231.013C36.6561 229.017 36.0519 226.858 36.7008 224.852C36.7854 224.591 36.4427 224.354 36.1779 224.428ZM32.5696 227.162C31.8111 228.848 32.149 230.97 33.3939 232.338C33.9077 231.812 33.6817 230.952 33.5062 230.238C33.2316 229.121 33.1696 227.953 33.3245 226.813C33.1331 226.532 32.709 226.852 32.5696 227.162ZM48.5574 167.058C49.7072 168.049 50.4382 170.186 49.0728 170.848C48.1979 171.272 47.2066 170.652 46.3804 170.139C42.0878 167.476 36.5991 167.28 31.7324 168.634C26.8657 169.989 22.5148 172.749 18.4313 175.724C14.3648 178.685 10.4438 181.935 7.38608 185.93C4.32834 189.925 2.16553 194.739 1.98805 199.767C1.77538 205.791 4.37812 211.551 7.38778 216.774C9.30598 220.103 11.4691 223.385 14.4468 225.802L15.0589 226.286C15.9036 226.964 16.7709 227.805 16.5555 228.825C13.6368 228.693 11.5184 226.082 9.9111 223.642C7.62551 220.173 5.54209 216.571 3.67493 212.859C2.12237 209.773 0.703251 206.558 0.231574 203.136C-0.655517 196.7 1.95751 190.155 6.01896 185.084C10.0804 180.013 15.4856 176.208 20.9525 172.698C25.1051 170.031 29.3788 167.474 34.0403 165.854C38.8477 164.183 44.7013 163.737 48.5574 167.058ZM171.928 138.711C165.015 145.164 155.827 149.127 146.389 149.728C142.218 149.993 137.912 149.595 134.137 147.799C130.363 146.003 127.185 142.655 126.307 138.569L125.994 138.666C123.262 139.53 120.135 141.094 120.162 143.909C120.279 155.848 120.001 167.791 119.33 179.712C119.201 181.999 118.33 185.003 116.039 184.935C107.903 184.696 99.7133 186.575 92.4946 190.336C100.62 203.079 112.175 214.219 126.548 218.886C140.922 223.553 158.257 220.637 168.329 209.371C171.558 205.759 173.934 201.49 176.223 197.213L176.75 196.226C177.236 195.313 177.731 194.229 177.299 193.29C177.023 192.691 177.618 192.068 178.165 191.698C186.202 186.258 198.169 187.734 204.644 194.963C204.131 193.96 204.598 192.577 205.614 192.089C206.421 193.387 206.592 195.061 206.063 196.495C206.413 196.99 207.055 196.193 207.111 195.59C207.974 186.192 207.906 176.708 206.909 167.324C206.549 163.94 206.06 160.535 204.85 157.354C203.788 154.565 202.192 152.009 200.444 149.591C196.421 144.027 191.531 139.091 186.004 135.018L185.602 134.726C184.726 134.098 183.804 133.52 182.768 133.238C178.67 132.123 175.033 135.813 171.928 138.711ZM116.084 133.305C111.515 134.843 106.566 134.547 101.756 134.879C94.9777 135.348 88.2909 137.111 82.1624 140.045C79.5228 141.308 76.9694 142.794 74.178 143.673C68.2496 145.539 61.4538 144.387 56.4727 140.669C55.3989 148.867 55.7156 157.245 57.4053 165.338C57.5138 165.858 57.8561 166.523 58.3638 166.367C61.7326 165.333 65.356 166.796 68.3513 168.653C71.3466 170.51 74.1616 172.825 77.5639 173.744C81.555 174.822 85.7846 173.825 89.735 172.573L90.0308 172.479C92.0558 171.829 94.6749 171.286 95.9734 172.971C97.0686 174.392 96.3771 176.513 95.2175 177.882C94.058 179.251 92.4854 180.268 91.5395 181.793C90.378 183.664 90.372 186.192 91.5246 188.068C99.0692 185.043 107.144 183.345 115.269 183.077C116.898 183.024 117.47 180.915 117.57 179.288C118.447 165.03 118.716 150.736 118.377 136.455C118.341 134.933 117.528 132.819 116.084 133.305ZM238.235 171.859L238.558 172.021C240.559 173.038 242.688 174.392 242.986 176.583C243.084 177.305 242.961 178.038 242.789 178.746C242.552 179.725 242.19 180.731 241.429 181.391C240.621 182.091 239.487 182.29 238.419 182.248C236.316 182.167 234.211 181.187 232.993 179.471C231.775 177.755 231.579 175.3 232.715 173.528C233.852 171.757 236.349 170.924 238.235 171.859ZM235.116 174.31C233.869 174.83 233.42 176.516 233.941 177.762C234.461 179.009 235.697 179.829 236.98 180.249C238.293 180.679 239.984 180.644 240.767 179.505C241.027 179.126 241.15 178.67 241.222 178.216C241.379 177.227 241.284 176.132 240.647 175.359C239.858 174.403 238.511 174.21 237.253 174.139L236.941 174.124C236.325 174.096 235.685 174.072 235.116 174.31ZM77.7479 148.54C77.9056 149.138 77.7844 149.77 77.6767 150.379C76.9179 154.671 76.863 159.087 77.5133 163.396L77.6335 164.159C77.7127 164.699 77.7451 165.268 77.4352 165.702C77.0775 166.203 76.0753 166.153 76.0252 165.539C75.5983 160.318 75.3248 155.083 75.2051 149.846C75.1823 148.845 75.4434 147.515 76.4412 147.438C77.0581 147.39 77.5903 147.942 77.7479 148.54ZM42.6339 138.076C43.3719 138.298 44.0807 138.803 44.2945 139.544C44.5084 140.284 44.0217 141.219 43.2526 141.268C42.5358 141.313 41.9888 140.66 41.3302 140.374C40.1479 139.86 38.8214 140.578 37.7344 141.271L37.1811 141.629C36.1375 142.316 35.1267 143.087 34.5536 144.183C33.9674 145.304 33.9183 146.621 33.9364 147.886C33.949 148.766 33.9902 149.658 34.2621 150.494C34.8519 152.308 36.535 153.668 38.4019 154.061C40.2688 154.454 42.2654 153.945 43.8447 152.874L44.1538 152.664C44.4327 152.48 44.725 152.32 45.053 152.304C45.5041 152.283 45.9978 152.708 45.8445 153.133C45.7985 153.26 45.7041 153.363 45.6096 153.46C43.0283 156.112 38.5709 156.679 35.4074 154.759C34.843 154.417 34.3169 154.003 33.8904 153.499C32.6085 151.985 32.3693 149.862 32.334 147.878C32.315 146.805 32.3415 145.715 32.6467 144.685C33.306 142.461 35.1693 140.808 37.1059 139.531C38.7503 138.446 40.7474 137.508 42.6339 138.076ZM27.6993 133.512L34.1347 141.154C33.7807 141.537 33.1602 141.562 32.6819 141.354C32.2567 141.169 31.9176 140.839 31.5981 140.499L27.8223 136.438C27.3075 140.56 26.0604 144.589 24.1568 148.281C23.9715 148.64 24.4965 148.944 24.8986 148.985C25.8807 149.086 26.8738 148.974 27.8423 148.782L28.3414 148.681C29.1234 148.526 29.9254 148.404 30.6545 148.693C31.5398 149.043 32.0861 150.332 31.3762 150.967C30.9386 151.358 30.2756 151.309 29.6931 151.237L23.4257 150.462L23.2331 150.434C22.6143 150.333 21.9343 150.091 21.8436 149.494C21.7889 149.135 21.9886 148.791 22.1754 148.479C24.4063 144.756 25.8925 140.589 26.5234 136.295L26.6184 135.614C26.7411 134.778 26.9581 133.872 27.6993 133.512ZM246.953 145.519C247.73 146.069 248.463 147.147 247.861 147.884C247.485 148.345 246.759 148.357 246.218 148.109C245.676 147.861 245.256 147.416 244.789 147.047C242.874 145.533 239.998 145.373 237.927 146.666C237.632 146.85 237.339 147.079 237.22 147.405C237.1 147.731 237.232 148.17 237.565 148.268C240.208 147.148 243.359 147.305 245.878 148.681C246.243 148.88 246.625 149.145 246.714 149.55C246.804 149.955 246.369 150.441 246.007 150.238C244.363 149.318 242.401 148.979 240.544 149.295C239.679 149.443 238.832 149.727 237.954 149.755C237.076 149.783 236.116 149.49 235.65 148.746C235.22 148.059 235.322 147.132 235.742 146.438C236.161 145.745 236.848 145.254 237.567 144.88C240.493 143.357 244.261 143.613 246.953 145.519ZM159.276 108.365C153.001 113.64 145.627 117.601 137.765 119.923L137.241 120.076C136.22 120.367 134.936 121.013 135.15 122.053L135.283 122.698C135.675 124.637 136.007 126.612 135.728 128.564C135.426 130.668 134.266 132.775 132.346 133.659L132.169 133.736C128.75 135.143 128.27 140.25 130.512 143.19C132.754 146.13 136.642 147.268 140.314 147.693C151.093 148.939 162.341 145.326 170.377 138.034C173.291 135.39 175.899 132.224 179.507 130.653L170.484 127.35C168.049 126.459 165.583 125.551 163.464 124.058C161.346 122.565 159.579 120.391 159.145 117.835C158.615 114.704 160.116 111.427 159.276 108.365ZM55.1856 116.829C54.9591 116.93 54.7278 117.063 54.6189 117.286C54.5099 117.509 54.5467 117.772 54.5852 118.017L56.6526 131.049C57.2619 134.89 58.1178 139.146 61.2853 141.402C64.755 143.872 69.5198 142.904 73.5601 141.494L73.7759 141.418C81.2969 138.747 88.5351 135.028 96.4177 133.777C102.077 132.879 108.012 133.263 113.364 131.214C111.406 128.26 107.165 128.276 103.618 128.663L74.6361 131.957C72.3908 132.212 70.0325 132.51 68.2091 133.845C67.4113 134.429 66.6559 135.231 65.668 135.272C64.7068 135.311 63.8713 133.912 64.6247 133.397L64.6912 133.356C65.5172 132.901 65.4616 131.715 65.2926 130.788L64.416 125.982C63.9728 123.598 63.4316 121.171 62.0053 119.225C60.4648 117.123 57.567 115.771 55.1856 116.829ZM255.266 136.308C255.965 137.121 255.995 138.37 255.529 139.336C255.063 140.302 254.181 141.013 253.227 141.502C252.076 142.093 250.808 142.401 249.537 142.664L248.902 142.793C248.653 142.843 248.391 142.892 248.15 142.812C247.95 142.746 247.788 142.596 247.656 142.43C247.001 141.609 247.024 140.396 247.467 139.443C247.91 138.49 248.704 137.749 249.52 137.086C250.353 136.408 251.26 135.77 252.305 135.522C253.35 135.274 254.566 135.493 255.266 136.308ZM251.839 137.738L251.505 137.963C251.005 138.305 250.523 138.679 250.186 139.179C249.776 139.79 249.633 140.642 250.038 141.256L252.727 139.76C253.164 139.517 253.618 139.259 253.902 138.846C254.186 138.434 254.243 137.818 253.892 137.461C253.364 136.924 252.466 137.321 251.839 137.738ZM208.958 108.317C209.146 108.393 209.272 108.563 209.382 108.737L213.32 115.169C214.024 116.319 215.625 116.447 216.97 116.352C219.547 116.171 222.099 115.645 224.538 114.793C224.947 114.65 225.335 115.171 225.247 115.595C225.158 116.019 224.794 116.321 224.452 116.588L218.537 121.198C217.811 121.147 218.017 119.958 218.606 119.53L218.78 119.408C219.348 119.025 220.037 118.647 220.001 117.989L216.582 119.057C215.93 119.261 215.204 119.461 214.583 119.175C214.171 118.984 213.882 118.61 213.62 118.234L209.277 111.895L209.202 117.446C209.196 117.901 209.177 118.395 208.888 118.747C208.683 118.996 208.376 119.131 208.07 119.244L202.077 121.394C203.678 122.994 206.673 121.31 208.588 122.516C209.9 123.342 210.124 125.183 209.841 126.707C209.558 128.232 208.909 129.715 208.993 131.263C210.087 130.47 210.89 129.285 211.222 127.975C211.355 127.448 211.421 126.886 211.715 126.427C212.525 125.163 214.458 125.421 215.798 126.097C217.139 126.773 218.529 127.746 219.995 127.424L217.868 124.023C217.674 123.713 217.473 123.377 217.49 123.011C217.507 122.646 217.854 122.276 218.205 122.382C218.358 122.429 218.472 122.55 218.574 122.677L223.319 128.829C221.653 129.928 219.454 129.236 217.529 128.705L217.244 128.631C215.367 128.166 213.075 128.12 212.039 129.711C211.308 130.832 210.45 131.871 209.488 132.801C209.082 133.192 208.62 133.583 208.059 133.647C207.499 133.711 206.855 133.286 206.905 132.724L207.457 126.504C207.493 126.101 207.52 125.663 207.295 125.327C207.059 124.972 206.614 124.835 206.203 124.721L201.019 123.289C199.892 122.978 199.883 121.224 200.729 120.416C201.574 119.608 202.82 119.439 203.946 119.126C205.073 118.814 206.292 118.15 206.495 116.999L207.811 109.546C207.923 108.909 208.358 108.075 208.958 108.317ZM69.4737 3.24652L68.5163 4.02457C62.137 9.22326 55.8506 14.6734 51.1719 21.4313C46.2593 28.5271 43.2434 37.3261 44.7059 45.8317C46.8372 58.2265 57.924 68.0976 58.398 80.6654C58.461 82.3348 60.161 83.3738 61.5832 84.2502C67.1962 87.7094 71.3556 93.1995 74.1002 99.1943C76.7591 105.002 78.1786 111.295 79.2108 117.601L79.3095 118.212C79.4632 119.173 79.5756 120.268 78.9551 121.019C78.3347 121.769 76.7396 121.507 76.8015 120.535C77.5295 109.108 73.3766 97.4501 65.5879 89.0572C63.5645 86.8769 61.2142 84.8559 58.3649 84.0022C58.1834 88.4036 56.7015 92.8888 53.5644 95.9814C50.4274 99.074 45.4785 100.487 41.4173 98.7803C37.3561 97.0737 34.8716 91.9208 36.6994 87.9127C38.2305 84.5551 42.033 82.8589 45.6534 82.144C49.2056 81.4427 52.888 81.4061 56.4535 82.0368C56.9332 82.1217 57.1422 81.451 57.1326 80.964C56.8748 67.9006 44.7996 57.6731 43.2145 44.7037C42.3482 37.6158 44.7665 30.4809 48.2761 24.2623C52.885 16.0959 59.4416 9.03737 67.2464 3.83961L67.4507 3.70704C68.0759 3.31351 68.8046 2.97787 69.4737 3.24652ZM109.233 69.7811C107.485 70.905 107.53 73.3994 107.386 75.4719C107.187 78.3149 106.21 81.1604 104.304 83.2788C102.397 85.3973 99.501 86.6986 96.6734 86.3429C95.9418 86.2509 95.7195 87.3094 95.8154 88.0404C97.4592 100.57 105.06 112.871 116.873 117.357C124.095 120.1 132.253 119.735 139.616 117.397C146.804 115.115 153.309 111.057 159.255 106.41L159.689 106.069C160.551 105.389 161.418 104.679 162.017 103.758C162.625 102.824 162.924 101.72 163.07 100.615C163.85 94.6968 159.895 88.5043 154.198 86.7231C153.527 86.5135 153.682 85.4257 154.27 85.0417C154.859 84.6578 155.616 84.6838 156.288 84.4785C158.108 83.9224 158.946 81.8494 159.361 79.9921C159.932 77.4402 160.092 74.53 158.511 72.4475C156.373 69.6331 152.218 69.6366 148.694 69.9064L142.976 70.3441C141.003 70.4951 138.463 71.1906 138.37 73.1676C138.171 77.4255 136.295 81.6669 132.981 84.348C129.667 87.0291 124.895 87.9561 120.961 86.3149C117.09 84.6998 114.355 80.4852 114.802 76.3241L114.826 76.1228C115.059 74.3626 114.931 72.4513 113.899 71.0059C112.868 69.5605 110.726 68.8205 109.233 69.7811ZM156.457 3.24385C153.908 3.96865 151.459 5.13767 149.446 6.86233C146.633 9.27259 144.763 12.7555 144.308 16.4317C144.147 17.7343 144.406 19.4142 145.671 19.7642C148.761 20.619 151.526 22.6013 153.328 25.2536C150.406 23.5151 147.204 22.2501 143.883 21.5229L157.92 29.4657C158.734 29.9261 159.578 30.4151 160.09 31.1975C160.602 31.98 160.655 33.1477 159.952 33.764L158.971 33.0004C156.512 31.097 153.998 29.2519 151.245 27.8115C149.152 26.7162 146.943 25.8664 144.722 25.0569L143.51 24.6181C139.398 23.1347 135.249 21.6419 130.919 21.0493C126.899 20.4991 122.773 20.7434 118.846 21.7638L118.072 21.9622C112.767 23.3045 107.236 24.4021 102.851 27.6452C100.242 29.5744 98.1995 32.157 96.2598 34.7579L95.8022 35.3786C91.9484 40.6699 88.4268 47.1935 90.6817 53.2643C101.034 51.9891 109.099 43.9794 118.477 39.4135C119.193 39.0646 120.376 38.9578 120.485 39.7475L109.991 45.9487C110.282 47.55 110.007 49.2486 109.225 50.6759C116.891 48.5094 124.059 44.5975 130.032 39.3244L130.411 38.986C131.358 38.1332 133.184 37.4276 133.587 38.6366L133.074 38.9234C131.191 39.9827 129.317 41.1414 128.019 42.8567C126.603 44.728 126.039 47.4484 127.294 49.4312L140.542 41.6312C141.08 41.3143 141.667 40.9861 142.288 41.0513C142.909 41.1165 143.491 41.7854 143.223 42.3493L142.773 42.4432C141.343 42.747 139.893 43.1277 138.779 44.0591C137.549 45.0886 136.911 47.0186 137.826 48.3369C139.466 50.7016 140.797 53.2805 141.774 55.9874C141.796 54.8038 143.409 54.1984 144.473 54.7181C145.536 55.2378 146.099 56.4108 146.484 57.5301C147.587 60.7322 147.878 64.21 147.324 67.5509C150.655 68.7272 154.562 67.3377 157.767 68.8256C160.741 70.2067 162.196 73.7889 161.989 77.0616C161.782 80.3343 160.236 83.3603 158.585 86.1934C163.2 89.7691 165.666 95.9285 164.792 101.701C165.597 101.57 166.277 100.876 166.391 100.068L168.222 101.223C165.358 102.841 163.322 105.845 162.877 109.103C175.456 97.3321 179.632 78.6763 177.817 61.5448L177.746 60.9059C177.027 54.7196 175.315 48.2711 170.663 44.1733C173.157 42.7352 176.356 43.3008 179.025 42.2209C181.547 41.2006 183.28 38.8356 184.451 36.38C188.364 28.1705 187.017 17.7253 181.148 10.7781C175.278 3.8308 165.205 0.756956 156.457 3.24385ZM115.336 106.2C115.733 106.266 116.183 106.4 116.338 106.771C116.587 107.363 115.891 107.905 115.29 108.129C114.416 108.454 113.499 108.663 112.57 108.747C111.791 108.817 110.808 108.667 110.567 107.923C110.409 107.433 110.684 106.883 111.1 106.582C111.517 106.28 112.044 106.178 112.555 106.123C113.48 106.022 114.418 106.049 115.336 106.2ZM101.107 97.7109C103.844 100.928 108.127 102.632 112.351 102.665C116.575 102.698 120.719 101.171 124.226 98.8161L124.521 98.618C124.966 98.322 125.429 98.044 125.951 97.9531C126.589 97.842 127.348 98.11 127.566 98.7206C123.898 101.836 119.3 103.893 114.507 104.328C109.714 104.763 104.75 103.533 100.839 100.729C100.134 100.223 99.4046 99.557 99.3754 98.6893C99.3463 97.8216 100.544 97.0497 101.107 97.7109ZM43.7277 84.084C41.8242 84.6913 39.9085 85.5811 38.7076 87.178C36.9236 89.5501 37.2356 93.1494 39.1623 95.407C41.0891 97.6647 44.3472 98.566 47.254 97.9659C50.1607 97.3659 52.6844 95.4048 54.3178 92.9266C55.9512 90.4484 56.751 87.49 56.9933 84.5318C57.0339 84.0359 56.9438 83.3795 56.4546 83.2885C52.2332 82.503 47.8185 82.779 43.7277 84.084ZM111.18 72.5252C111.259 73.2075 110.995 73.8769 110.752 74.5195C109.382 78.1506 108.547 81.9836 108.285 85.856C108.242 86.4832 108.218 87.1337 108.448 87.7188C108.665 88.2714 109.169 88.7521 109.754 88.7851L109.858 88.7862C110.39 88.7674 110.642 89.5606 110.308 89.9748C109.973 90.3889 109.345 90.4354 108.834 90.2834C107.786 89.9715 107.035 88.996 106.731 87.9458C106.427 86.8955 106.505 85.7742 106.657 84.6915C107.173 81.0206 108.514 77.4614 108.579 73.7549C108.598 72.709 108.812 71.2991 109.854 71.2158C110.539 71.1612 111.1 71.843 111.18 72.5252ZM124.206 60.1361C122.029 60.5841 120.367 62.3699 119.238 64.2844C116.925 68.2065 116.266 73.0696 117.452 77.4658C117.984 79.4397 118.894 81.3475 120.322 82.8107C121.75 84.2739 123.734 85.2561 125.778 85.2222C127.205 85.1986 128.59 84.6922 129.829 83.985C133.968 81.6235 136.598 76.8377 136.371 72.0777C136.145 67.3177 133.074 62.8028 128.729 60.8444C127.315 60.2067 125.726 59.8234 124.206 60.1361ZM94.1602 58.1846C90.2705 59.6257 87.7595 63.6651 87.2243 67.7785C86.6892 71.8919 87.843 76.0528 89.4875 79.8609C89.9304 80.8865 90.4339 81.9292 91.2843 82.6536C92.1347 83.378 93.4222 83.7028 94.3884 83.1421C94.8382 82.8811 95.2584 83.4914 95.5998 83.8838C96.2798 84.6654 97.4762 84.7321 98.4922 84.5291C101.839 83.8602 104.412 80.9352 105.453 77.6845C106.459 74.5421 106.245 71.1408 105.65 67.8892L105.587 67.5533C104.96 64.274 103.543 60.5886 100.35 59.612C98.6759 59.1 96.6565 59.3992 95.3624 58.2202C95.05 57.9356 94.5565 58.0378 94.1602 58.1846ZM155.974 72.089C157.289 73.5468 156.751 75.8107 156.093 77.6812L156.039 77.832C155.776 78.5655 155.503 79.3164 155 79.9112C154.496 80.5061 153.705 80.9215 152.942 80.7627C152.179 80.6039 151.585 79.7191 151.905 79.0087C152.303 78.127 153.655 78.082 154.143 77.2468L152.825 77.1223C151.937 77.0385 150.981 76.9258 150.323 76.3234C149.665 75.7211 149.582 74.4465 150.382 74.0518C150.937 73.7782 151.604 74.0463 152.117 74.3911C152.631 74.7359 153.121 75.1724 153.733 75.2664C154.344 75.3603 155.087 74.8803 154.961 74.275C154.785 73.4326 155.218 72.4999 155.974 72.089ZM125.88 77.78C125.984 78.3596 126.022 78.9744 125.805 79.5218C125.588 80.0693 125.06 80.5274 124.471 80.5029C123.56 80.4649 123.072 79.4155 122.913 78.5175C122.716 77.4079 123.023 75.881 124.147 75.7984C125.109 75.7277 125.709 76.8309 125.88 77.78ZM97.8043 75.4247C98.2582 76.0862 98.1941 76.97 98.0137 77.7517C97.783 78.7519 97.2029 79.8678 96.1818 79.9723C95.2597 80.0666 94.4724 79.2416 94.1709 78.3651C93.8029 77.2955 93.9815 75.9887 94.8166 75.2258C95.6517 74.4628 97.1643 74.4921 97.8043 75.4247ZM98.6543 64.1365C99.0619 64.3238 99.3491 64.8373 99.1429 65.2356L98.7487 65.3391C96.5047 65.9379 94.1124 66.7712 93.0406 68.8001C92.7838 69.2864 92.6172 69.8229 92.2973 70.2702C91.9774 70.7176 91.4382 71.0731 90.9001 70.9598C90.2868 70.8307 89.932 70.1249 89.9975 69.5016C90.063 68.8784 90.4422 68.335 90.8484 67.8578C92.5003 65.9169 94.8281 64.5629 97.3319 64.0867C97.7725 64.0029 98.2467 63.9492 98.6543 64.1365ZM127.334 65.257C128.005 65.7977 128.515 66.5183 129.193 67.0501C129.766 67.4995 130.49 67.8548 130.75 68.5347C131.01 69.2146 130.227 70.1749 129.659 69.7196C128.176 68.5309 126.529 67.5462 124.78 66.8018C123.987 66.4644 124.167 65.1301 124.94 64.7502C125.714 64.3704 126.663 64.7163 127.334 65.257ZM119.023 60.993C117.561 61.475 116.522 63.0136 116.621 64.5499C117.18 64.2637 117.606 63.7289 117.76 63.1199L117.738 63.0584C118.387 62.5456 118.85 61.8018 119.023 60.993Z" fill="#00160A"/>
<path fill-rule="evenodd" clip-rule="evenodd" d="M36.6359 245.118C37.2241 245.123 37.7651 245.396 38.279 245.696L38.5567 245.86C41.7068 247.746 45.0308 249.342 48.4728 250.619C48.9458 250.795 48.7989 251.589 48.3378 251.794C47.8768 251.999 47.3447 251.816 46.8745 251.633L36.7095 247.678C36.0591 247.425 35.304 247.039 35.2469 246.344C35.1901 245.651 35.9407 245.112 36.6359 245.118Z" fill="#E7EAEE"/>
<path fill-rule="evenodd" clip-rule="evenodd" d="M20.431 234.043L51.8765 245.198L52.0741 245.272C52.9052 245.597 53.8041 246.152 53.7152 247.011C53.6429 247.71 52.869 248.161 52.1664 248.137C51.5719 248.117 51.0227 247.853 50.4973 247.562L50.213 247.402C45.8285 244.915 41.2284 242.864 36.5105 241.091C31.1662 239.084 25.6708 237.434 20.1667 235.915C19.3249 235.683 18.2583 234.931 18.7409 234.203C19.0795 233.693 19.8539 233.839 20.431 234.043Z" fill="#E7EAEE"/>
</svg>
